<svg width="252" height="252" viewBox="0 0 252 252" fill="none" xmlns="http://www.w3.org/2000/svg">
<path d="M236.119 218.106C236.119 218.212 187.911 218.298 128.46 218.298C69.0077 218.298 20.79 218.232 20.79 218.106C20.79 217.98 68.9876 217.914 128.46 217.914C187.932 217.914 236.119 218 236.119 218.106Z" fill="#263238"/>
<path d="M121.9 54.4054L90.7325 54.2858L90.5656 97.7756L121.733 97.8953L121.9 54.4054Z" fill="#F5F5F5"/>
<path d="M97.7205 84.8283H98.1841H99.5097H104.474L104.403 84.9039C104.403 82.7064 104.378 79.9848 104.363 76.8701V76.7693H104.459L109.323 76.6836H109.433V76.7945C109.484 79.2742 109.539 82.0059 109.6 84.8837L109.474 84.7628L116.399 84.8081L116.273 84.9442C116.207 82.5905 116.147 80.1411 116.081 77.6362C116.031 75.7462 115.98 73.8814 115.935 72.062L115.985 72.1628L106.344 64.6582H106.495L97.5894 72.7222L97.6197 72.6516C97.665 76.4014 97.7003 79.4355 97.7255 81.5472C97.7255 82.5905 97.7255 83.407 97.7255 83.9765V84.6166C97.7309 84.6904 97.7309 84.7645 97.7255 84.8384C97.7183 84.7714 97.7183 84.7038 97.7255 84.6368C97.7255 84.4856 97.7255 84.2789 97.7255 84.0168C97.7255 83.4473 97.6902 82.6409 97.66 81.6027C97.6146 79.4808 97.5441 76.4266 97.4584 72.6567V72.6164L97.4886 72.5861L106.344 64.4768L106.414 64.4113L106.495 64.4717L116.172 71.9007L116.217 71.941V72.0015C116.261 73.8192 116.31 75.6773 116.363 77.5757C116.424 80.0957 116.489 82.53 116.55 84.8787V85.0148H116.424L109.499 84.9543H109.368V84.8333C109.318 81.9555 109.267 79.2238 109.227 76.7693L109.338 76.8802L104.479 76.9457L104.575 76.8449C104.575 79.9596 104.575 82.6812 104.575 84.8787V84.9492H104.504L99.4945 84.8938H98.1892H97.8565L97.7205 84.8283Z" fill="#263238"/>
<path d="M92.605 55.6569H94.5353L100.079 55.6972L120.204 55.8786H120.305V55.9845C120.305 67.0422 120.305 80.877 120.305 95.8559V95.9869H119.967L92.6755 96.1533H92.5546V66.8809C92.5546 63.3529 92.5546 60.5255 92.5546 58.5952C92.5546 57.6426 92.5546 56.9068 92.5546 56.4028C92.5546 56.1609 92.5546 55.9744 92.5546 55.8433C92.5546 55.7123 92.5546 55.6569 92.5546 55.6569C92.5546 55.6569 92.5546 55.7274 92.5546 55.8585V56.428C92.5546 56.932 92.5546 57.6829 92.5546 58.6456C92.5546 60.5809 92.5848 63.3983 92.605 66.9565C92.6352 74.073 92.6755 84.153 92.7209 96.0323L92.605 95.9113L119.897 95.7249H120.103L119.972 95.8559C119.972 80.877 119.972 67.0422 119.972 55.9845L120.078 56.0903L100.024 55.798L94.4799 55.7022H93.0182L92.605 55.6569Z" fill="#263238"/>
<path d="M116.384 52.7537L122.946 59.2654L124.095 57.7786L117.492 51.8566L116.384 52.7537Z" fill="#455A64"/>
<path d="M88.2756 93.9607L94.8327 100.472L95.9868 98.9856L89.3794 93.0686L88.2756 93.9607Z" fill="#455A64"/>
<path d="M120.189 93.8449C119.606 93.9217 119.018 93.957 118.43 93.9508C117.341 93.981 115.834 94.0062 114.171 94.0213C112.624 94.0213 111.208 94.0213 110.139 94.0213L110.235 93.9205C110.235 94.5405 110.235 95.0394 110.235 95.3872C110.247 95.5675 110.236 95.7485 110.205 95.9264C110.155 95.7509 110.13 95.5695 110.129 95.3872C110.099 95.0444 110.064 94.5455 110.033 93.9306V93.8298H110.139C111.193 93.7996 112.604 93.7744 114.171 93.7643C115.834 93.7643 117.336 93.7643 118.425 93.7643C119.014 93.7436 119.604 93.7706 120.189 93.8449Z" fill="#263238"/>
<path d="M161.147 62.1404L139.805 66.6261L146.064 96.402L167.405 91.9162L161.147 62.1404Z" fill="#EBEBEB"/>
<path d="M149.058 86.5116L149.139 86.4864L149.376 86.431L150.283 86.2243L153.665 85.4683L153.614 85.554C153.282 84.042 152.868 82.1923 152.4 80.0654V79.9697H152.495L155.807 79.1986L155.912 79.1734L155.938 79.2792C156.336 80.9676 156.779 82.8072 157.238 84.7879L157.097 84.6972L161.839 83.6892L161.739 83.8454C161.356 82.2478 160.952 80.5795 160.539 78.876C160.227 77.5908 159.924 76.3258 159.622 75.0859L159.692 75.1716L151.996 71.4874L152.142 71.4521L147.223 78.2662V78.1906L148.579 84.2386C148.735 84.9492 148.856 85.5086 148.942 85.9068L149.038 86.3453C149.049 86.3969 149.058 86.449 149.063 86.5015C149.063 86.5015 149.063 86.4612 149.023 86.3654C148.982 86.2697 148.957 86.1185 148.912 85.9471L148.509 84.3142C148.161 82.8576 147.662 80.7862 147.042 78.2158V78.1754V78.1402L151.921 71.2959L151.976 71.2152L152.067 71.2606L159.778 74.9246H159.834V74.9851C160.131 76.2199 160.438 77.5051 160.746 78.7752C161.159 80.4787 161.562 82.147 161.945 83.7446L161.976 83.8757L161.845 83.9059L157.097 84.8786H156.981V84.7627C156.527 82.8022 156.094 80.9424 155.701 79.249L155.837 79.3346L152.52 80.136L152.596 80.015C153.045 82.147 153.433 84.0118 153.75 85.5187V85.5893H153.68L150.237 86.2747L149.34 86.4461L149.058 86.5116Z" fill="#263238"/>
<path d="M141.286 67.3042L141.614 67.2236L142.597 67.0119L146.387 66.2206L160.186 63.3831L160.287 63.3579V63.4637L166.174 90.7201L166.199 90.8461L166.073 90.8763L165.932 90.9065L147.284 95.0142H147.163L147.138 94.8982C145.399 86.7435 143.927 79.8286 142.884 74.9348C142.38 72.5156 141.972 70.5954 141.69 69.2698C141.559 68.6197 141.453 68.1207 141.382 67.7578C141.352 67.5966 141.327 67.4756 141.307 67.3798C141.286 67.2841 141.307 67.2488 141.307 67.2538C141.323 67.2977 141.335 67.3434 141.342 67.3899C141.367 67.4857 141.397 67.6167 141.438 67.783C141.518 68.1358 141.629 68.6449 141.78 69.295C142.073 70.6256 142.501 72.5509 143.04 74.9802C144.109 79.8438 145.616 86.7284 147.395 94.8377L147.249 94.747L165.897 90.6142L166.038 90.584L165.937 90.7402C163.755 80.4939 161.739 71.0288 160.121 63.4587L160.247 63.5394L146.493 66.2559L142.632 67.0321L141.624 67.2236L141.286 67.3042Z" fill="#263238"/>
<path d="M157.127 61.8307L162.57 65.3234L163.14 64.139L157.757 61.0596L157.127 61.8307Z" fill="#455A64"/>
<path d="M143.932 94.1422L149.376 97.6349L149.945 96.4505L144.557 93.3711L143.932 94.1422Z" fill="#455A64"/>
<path d="M165.75 89.3895C165.369 89.5497 164.972 89.6696 164.566 89.7474C163.83 89.9339 162.802 90.1758 161.668 90.4278C160.61 90.6646 159.652 90.8663 158.916 91.0074L158.992 90.8864C159.119 91.3376 159.201 91.8001 159.239 92.2674C159.051 91.8388 158.904 91.3933 158.8 90.9368L158.775 90.8411L158.876 90.8158C159.586 90.6344 160.554 90.4076 161.613 90.1707C162.671 89.9338 163.78 89.707 164.526 89.5659C164.927 89.464 165.337 89.4049 165.75 89.3895Z" fill="#263238"/>
<path d="M145.438 29.8268L142.364 48.3168L168.163 52.6062L171.237 34.1162L145.438 29.8268Z" fill="#EBEBEB"/>
<path d="M151.875 45.7935H152.102L152.712 45.8641L155.045 46.1564L154.965 46.2168C155.101 45.1736 155.267 43.8934 155.469 42.4268V42.331H155.565L157.863 42.6032H157.974V42.7141C157.838 43.8833 157.686 45.1736 157.53 46.5344L157.424 46.3983L160.685 46.867L160.539 46.9829C160.66 45.8691 160.791 44.7099 160.922 43.5305C161.023 42.6334 161.124 41.7514 161.219 40.8946L161.26 41.0005L157.198 36.8525H157.349L152.616 40.058L152.657 39.9925C152.425 41.7363 152.238 43.1576 152.102 44.1706C152.032 44.6494 151.981 45.0325 151.941 45.3197C151.901 45.607 151.875 45.728 151.87 45.733C151.866 45.6048 151.875 45.4766 151.895 45.35L152.011 44.216C152.122 43.208 152.279 41.7413 152.475 39.9673V39.9269H152.51L157.208 36.6812L157.293 36.6257L157.364 36.6963L161.436 40.8241L161.482 40.8694V40.9299C161.386 41.7917 161.285 42.6737 161.184 43.5658C161.053 44.7502 160.922 45.9094 160.796 47.0233V47.1543H160.66L157.404 46.6503H157.283V46.5293C157.45 45.1736 157.611 43.8833 157.752 42.709L157.848 42.835L155.555 42.5427L155.665 42.457C155.454 43.9186 155.272 45.1937 155.121 46.237V46.3076H155.051L152.687 45.9296L152.077 45.8288C152.008 45.8256 151.941 45.8137 151.875 45.7935Z" fill="#263238"/>
<path d="M143.353 47.3357C143.353 47.3357 143.353 47.2399 143.393 47.0484C143.433 46.8569 143.469 46.5444 143.529 46.1966C143.655 45.4306 143.842 44.3268 144.073 42.9156C144.577 40.0529 145.258 35.9554 146.089 30.9758V30.87H146.19L169.878 34.6903H170.004V34.8214V34.9423C169.102 40.7232 168.24 46.2218 167.484 51.161V51.282H167.368L150.051 48.4445L145.137 47.628L143.847 47.4062L143.514 47.3458H143.408H143.534L143.877 47.3962L145.197 47.5927L150.147 48.3538L167.328 51.0602L167.192 51.161C167.958 46.2168 168.81 40.7182 169.712 34.9373V34.8163L169.818 34.9625L146.19 31.0968L146.311 31.0111C145.424 35.9554 144.693 40.0226 144.184 42.8702L143.585 46.1614L143.418 47.0333C143.383 47.2298 143.353 47.3357 143.353 47.3357Z" fill="#263238"/>
<path d="M143.922 32.9415L148.418 29.6706L147.647 28.844L143.499 32.1956L143.922 32.9415Z" fill="#455A64"/>
<path d="M165.675 53.6004L170.171 50.3295L169.4 49.5029L165.252 52.8545L165.675 53.6004Z" fill="#455A64"/>
<path d="M168.679 34.64C168.628 35.8482 168.489 37.051 168.26 38.2386C168.114 39.1609 167.973 39.9975 167.857 40.6225L167.772 40.5116C168.173 40.5455 168.569 40.6267 168.951 40.7535C168.549 40.7843 168.145 40.7674 167.746 40.7031H167.651V40.6023C167.726 39.9723 167.842 39.1307 167.983 38.2083C168.131 37.0041 168.364 35.8117 168.679 34.64Z" fill="#263238"/>
<path d="M97.0704 139.704C96.9797 140.208 97.0704 218.106 97.0704 218.106H93.6129V139.704H97.0704Z" fill="#455A64"/>
<path d="M156.926 146.553C156.835 147.057 156.926 217.965 156.926 217.965H153.468V146.553H156.926Z" fill="#455A64"/>
<path d="M174.313 133.56C174.228 134.064 174.313 217.98 174.313 217.98H170.856V133.56H174.313Z" fill="#455A64"/>
<path d="M173.063 110.442C173.346 109.973 173.063 135.798 173.063 135.798L169.878 136.302L170.634 110.764L173.063 110.442Z" fill="#455A64"/>
<path d="M155.081 148.095C154.844 148.811 180.785 100.624 180.785 100.624L180.306 98.4463L117.22 94.8024L93.24 140.45L155.081 148.095Z" fill="#263238"/>
<path d="M154.819 146.377C154.758 145.152 180.306 98.28 180.306 98.28L115.92 92.358L92.2875 138.6L154.819 146.377Z" fill="#455A64"/>
<path d="M124.896 133.273L147.103 135.591L161.341 99.6257L129.402 95.6945L113.4 131.841L124.896 133.273Z" fill="#F5F5F5"/>
<path d="M145.283 104.872C145.463 104.904 145.64 104.951 145.812 105.013C146.309 105.18 146.778 105.422 147.203 105.729C147.884 106.211 148.458 106.826 148.892 107.538C149.476 108.487 149.759 109.591 149.703 110.704C149.631 112.055 149.118 113.346 148.242 114.378C147.761 114.96 147.156 115.428 146.472 115.749C145.777 116.071 145.026 116.308 144.275 116.575C143.897 116.711 143.519 116.847 143.141 117.004C142.955 117.079 142.773 117.165 142.587 117.251L142.315 117.392C142.239 117.445 142.17 117.505 142.108 117.573C141.824 117.873 141.584 118.213 141.397 118.581C141.206 118.944 141.095 119.367 140.893 119.771C140.703 120.199 140.388 120.56 139.991 120.809C139.56 121.009 139.079 121.075 138.61 121L135.889 120.683C135.43 120.622 134.971 120.557 134.518 120.466C134.043 120.396 133.595 120.203 133.217 119.907C133.117 119.819 133.04 119.709 132.993 119.585C132.945 119.461 132.929 119.328 132.945 119.196C132.997 118.965 133.081 118.742 133.197 118.536C133.394 118.133 133.605 117.75 133.817 117.366L134.442 116.232L134.588 115.95L134.659 115.809C134.674 115.776 134.683 115.74 134.684 115.703C134.686 115.506 134.659 115.309 134.603 115.119C134.397 114.317 134.099 113.541 133.953 112.745C133.68 111.206 134.007 109.621 134.865 108.315C135.579 107.173 136.58 106.24 137.768 105.608C138.738 105.092 139.79 104.751 140.878 104.6C141.702 104.501 142.534 104.501 143.358 104.6C144.033 104.676 144.552 104.766 144.9 104.827L145.298 104.903C145.345 104.906 145.391 104.918 145.434 104.938H145.298L144.895 104.887C144.542 104.847 144.018 104.772 143.348 104.711C142.532 104.63 141.71 104.644 140.898 104.751C139.837 104.926 138.814 105.282 137.874 105.805C136.722 106.428 135.756 107.344 135.072 108.461C134.251 109.72 133.943 111.245 134.21 112.725C134.366 113.501 134.649 114.267 134.865 115.088C134.928 115.305 134.958 115.529 134.956 115.754C134.952 115.822 134.935 115.889 134.906 115.95L134.835 116.096L134.684 116.379L134.064 117.482C133.852 117.865 133.641 118.248 133.449 118.642C133.348 118.826 133.272 119.022 133.222 119.226C133.208 119.32 133.218 119.416 133.253 119.505C133.287 119.593 133.345 119.671 133.419 119.73C133.762 119.994 134.166 120.168 134.593 120.234C135.032 120.325 135.485 120.39 135.944 120.451L138.655 120.768C139.074 120.835 139.503 120.779 139.89 120.607C140.24 120.383 140.515 120.06 140.682 119.68C140.878 119.307 140.989 118.884 141.186 118.49C141.384 118.102 141.637 117.744 141.937 117.427C142.018 117.344 142.107 117.27 142.204 117.205L142.486 117.059L143.06 116.802C143.443 116.646 143.827 116.51 144.205 116.379C144.96 116.117 145.717 115.875 146.387 115.567C147.044 115.268 147.625 114.823 148.085 114.267C148.935 113.278 149.443 112.04 149.532 110.739C149.595 109.66 149.331 108.587 148.776 107.659C148.362 106.955 147.81 106.341 147.153 105.855C146.739 105.545 146.285 105.292 145.802 105.104C145.465 104.933 145.283 104.882 145.283 104.872Z" fill="#EE6258"/>
<path d="M140.924 119.398C140.86 119.627 140.774 119.85 140.667 120.063C140.485 120.481 140.213 121.071 139.9 121.837C139.744 122.215 139.583 122.628 139.422 123.082C139.277 123.592 139.019 124.062 138.666 124.458C138.224 124.852 137.681 125.116 137.098 125.219C136.492 125.348 135.872 125.395 135.254 125.36C134.636 125.325 134.025 125.206 133.439 125.007C132.882 124.84 132.367 124.557 131.927 124.176C131.72 123.996 131.556 123.772 131.446 123.521C131.337 123.27 131.284 122.998 131.292 122.724C131.358 122.268 131.518 121.83 131.761 121.439C132.129 120.753 132.436 120.179 132.678 119.735C132.78 119.52 132.903 119.316 133.046 119.125C132.975 119.352 132.883 119.572 132.769 119.781C132.547 120.234 132.265 120.824 131.927 121.525C131.708 121.897 131.565 122.31 131.509 122.739C131.509 122.979 131.561 123.215 131.661 123.432C131.761 123.65 131.907 123.843 132.088 123.999C132.513 124.348 133.003 124.609 133.53 124.765C134.668 125.141 135.885 125.211 137.058 124.967C137.596 124.876 138.099 124.641 138.514 124.286C138.846 123.918 139.092 123.481 139.235 123.006C139.407 122.558 139.578 122.139 139.739 121.766C140.077 121.015 140.374 120.426 140.581 120.018C140.678 119.802 140.792 119.594 140.924 119.398Z" fill="#EE6258"/>
<path d="M139.981 121.676C139.587 121.729 139.188 121.739 138.792 121.706C138.061 121.706 137.053 121.656 135.939 121.6C134.825 121.545 133.822 121.474 133.091 121.414C132.693 121.409 132.297 121.356 131.912 121.257C132.304 121.204 132.702 121.194 133.096 121.227C133.827 121.227 134.84 121.278 135.954 121.338C137.068 121.399 138.076 121.459 138.802 121.52C139.2 121.524 139.596 121.576 139.981 121.676Z" fill="#EE6258"/>
<path d="M139.205 123.283C137.919 123.409 136.626 123.45 135.334 123.404C134.044 123.447 132.752 123.4 131.469 123.263C132.753 123.137 134.044 123.097 135.334 123.142C136.626 123.103 137.919 123.15 139.205 123.283Z" fill="#EE6258"/>
<path d="M136.125 125.209C136.15 125.209 136.085 125.466 135.778 125.713C135.361 126 134.853 126.124 134.351 126.06C134.076 126.054 133.804 125.996 133.55 125.889C133.436 125.844 133.332 125.776 133.246 125.689C133.159 125.603 133.091 125.499 133.046 125.385C133.015 125.311 132.999 125.231 132.999 125.151C132.999 125.07 133.015 124.991 133.046 124.916C133.096 124.811 133.152 124.78 133.167 124.79C133.125 124.958 133.139 125.135 133.207 125.294C133.333 125.602 133.802 125.768 134.341 125.798C134.789 125.854 135.242 125.771 135.641 125.562C135.969 125.38 136.08 125.184 136.125 125.209Z" fill="#EE6258"/>
<path d="M137.259 120.698C137.333 120.491 137.432 120.293 137.552 120.108L138.434 118.561C138.827 117.896 139.28 117.13 139.774 116.283C140.079 115.89 140.281 115.427 140.364 114.937C140.345 114.688 140.234 114.454 140.053 114.281C139.871 114.109 139.632 114.01 139.381 114.005C139.119 113.999 138.859 114.049 138.618 114.153C138.377 114.256 138.161 114.41 137.985 114.605C137.64 114.981 137.331 115.389 137.063 115.824C136.513 116.651 136.055 117.427 135.722 118.087C135.39 118.747 135.117 119.302 134.941 119.685C134.865 119.89 134.767 120.086 134.649 120.27C134.691 120.055 134.757 119.845 134.845 119.645C134.996 119.251 135.228 118.682 135.556 118.007C135.945 117.21 136.381 116.438 136.861 115.693C137.133 115.238 137.449 114.811 137.804 114.418C138.006 114.197 138.253 114.023 138.529 113.906C138.805 113.79 139.102 113.734 139.401 113.743C139.711 113.759 140.004 113.886 140.227 114.1C140.45 114.315 140.589 114.603 140.616 114.912C140.607 115.201 140.524 115.482 140.374 115.729C140.243 115.965 140.107 116.172 139.976 116.389L138.6 118.657L137.642 120.169C137.531 120.356 137.402 120.533 137.259 120.698Z" fill="#EE6258"/>
<path d="M138.474 110.83C138.65 111.334 138.744 111.863 138.751 112.397C138.838 112.923 138.838 113.459 138.751 113.985C138.575 113.48 138.482 112.951 138.474 112.417C138.384 111.892 138.384 111.355 138.474 110.83Z" fill="#EE6258"/>
<path d="M138.237 110.542C138.267 110.542 138.237 110.638 138.298 110.714C138.358 110.789 138.429 110.835 138.509 110.754C138.59 110.673 138.56 110.598 138.474 110.542C138.388 110.487 138.323 110.507 138.303 110.477C138.283 110.447 138.343 110.341 138.524 110.366C138.578 110.373 138.63 110.393 138.674 110.424C138.718 110.456 138.753 110.498 138.776 110.547C138.804 110.614 138.811 110.686 138.797 110.757C138.783 110.827 138.748 110.892 138.698 110.942C138.647 110.993 138.582 111.027 138.512 111.041C138.442 111.055 138.369 111.048 138.303 111.021C138.254 110.996 138.212 110.96 138.18 110.915C138.149 110.87 138.128 110.818 138.121 110.764C138.096 110.583 138.217 110.512 138.237 110.542Z" fill="#EE6258"/>
<path d="M143.64 112.11C143.208 112.618 142.698 113.053 142.128 113.4C141.596 113.81 141.002 114.133 140.369 114.358C140.866 113.914 141.407 113.52 141.982 113.183C142.496 112.77 143.052 112.41 143.64 112.11Z" fill="#EE6258"/>
<path d="M143.801 111.717C143.771 111.717 143.882 111.565 144.104 111.626C144.169 111.648 144.227 111.688 144.271 111.742C144.314 111.795 144.342 111.86 144.351 111.928C144.363 112.015 144.347 112.103 144.306 112.179C144.264 112.256 144.199 112.318 144.121 112.355C144.042 112.392 143.953 112.403 143.867 112.386C143.782 112.369 143.704 112.325 143.645 112.261C143.594 112.209 143.562 112.143 143.552 112.071C143.542 111.999 143.555 111.926 143.59 111.863C143.614 111.82 143.651 111.787 143.695 111.766C143.739 111.745 143.789 111.738 143.837 111.747C143.897 111.747 143.917 111.802 143.907 111.817C143.897 111.833 143.781 111.817 143.756 111.943C143.752 111.971 143.756 111.999 143.766 112.025C143.777 112.05 143.794 112.073 143.816 112.09C143.843 112.113 143.876 112.128 143.91 112.133C143.945 112.139 143.981 112.134 144.013 112.12C144.043 112.104 144.068 112.08 144.085 112.051C144.102 112.021 144.111 111.988 144.109 111.954C144.111 111.923 144.104 111.892 144.09 111.864C144.076 111.837 144.054 111.814 144.028 111.797C143.922 111.722 143.816 111.752 143.801 111.717Z" fill="#EE6258"/>
<path d="M143.756 111.772C142.024 111.581 140.316 111.22 138.655 110.693C140.388 110.877 142.097 111.238 143.756 111.772Z" fill="#EE6258"/>
<path d="M127.638 117.936C127.668 118.007 127.235 118.249 126.68 118.485C126.353 118.666 125.99 118.769 125.617 118.788C125.587 118.722 126.02 118.475 126.575 118.243C126.901 118.061 127.265 117.956 127.638 117.936Z" fill="#263238"/>
<path d="M133.6 102.352C133.671 102.383 131.408 107.67 128.56 114.156C125.713 120.643 123.329 125.884 123.263 125.859C123.198 125.834 125.461 120.542 128.303 114.05C131.146 107.559 133.56 102.312 133.6 102.352Z" fill="#263238"/>
<path d="M144.144 103.169C144.21 103.199 141.826 108.758 138.822 115.582C135.818 122.407 133.323 127.92 133.278 127.89C133.232 127.86 135.591 122.306 138.6 115.477C141.609 108.647 144.058 103.139 144.144 103.169Z" fill="#263238"/>
<path d="M140.792 126.786C140.792 126.857 136.685 126.403 131.64 125.778C126.595 125.153 122.512 124.574 122.522 124.503C122.532 124.433 126.625 124.881 131.675 125.511C136.725 126.141 140.802 126.711 140.792 126.786Z" fill="#263238"/>
<path d="M143.64 120.511C143.397 120.524 143.154 120.51 142.914 120.471L140.954 120.27C139.296 120.083 137.012 119.811 134.487 119.498C131.962 119.186 129.684 118.879 128.031 118.652L126.081 118.364C125.839 118.337 125.599 118.29 125.365 118.223C125.608 118.211 125.851 118.224 126.091 118.264L128.056 118.465C129.709 118.652 131.998 118.919 134.523 119.236C137.048 119.554 139.326 119.851 140.974 120.083L142.929 120.37C143.17 120.395 143.408 120.442 143.64 120.511Z" fill="#263238"/>
<path d="M150.636 105.457C150.393 105.47 150.15 105.458 149.91 105.422L147.949 105.215C146.291 105.034 144.003 104.761 141.483 104.444C138.963 104.126 136.675 103.829 135.027 103.597L133.056 103.32C132.815 103.298 132.577 103.251 132.345 103.179C132.588 103.173 132.831 103.187 133.071 103.219L135.032 103.421C136.69 103.607 138.978 103.88 141.498 104.192C144.018 104.504 146.306 104.812 147.954 105.044L149.91 105.326C150.155 105.35 150.398 105.394 150.636 105.457Z" fill="#263238"/>
<path d="M134.205 102.71C134.245 102.771 133.903 103.033 133.444 103.295C132.985 103.557 132.587 103.713 132.552 103.653C132.517 103.592 132.854 103.325 133.313 103.068C133.772 102.811 134.17 102.645 134.205 102.71Z" fill="#263238"/>
<path d="M124.992 124.13C124.665 124.415 124.282 124.627 123.868 124.755C123.487 124.962 123.069 125.092 122.638 125.138C122.967 124.856 123.349 124.643 123.762 124.513C124.143 124.306 124.561 124.176 124.992 124.13Z" fill="#263238"/>
<path d="M134.412 126.434C134.419 126.149 134.461 125.866 134.538 125.592L134.629 125.738C134.397 125.738 134.125 125.683 133.837 125.642L133.978 125.551C133.883 125.844 133.792 126.116 133.711 126.343L133.621 126.197C133.893 126.238 134.159 126.314 134.412 126.423C134.442 126.459 134.125 126.469 133.585 126.423H133.459L133.495 126.287C133.555 126.056 133.636 125.783 133.726 125.486L133.762 125.38H133.873L134.664 125.511L134.795 125.541L134.755 125.657C134.568 126.182 134.432 126.474 134.412 126.434Z" fill="#263238"/>
<path d="M155.081 148.095L180.785 132.804H163.422L155.081 148.095Z" fill="#263238"/>
<path d="M156.129 97.7156L161.744 104.61L162.817 102.534L158.402 97.0352L156.129 97.7156Z" fill="#263238"/>
<path d="M180.785 132.804V130.093L165.07 129.76L157.994 142.819L180.785 132.804Z" fill="#263238"/>
<path d="M112.674 186.712H109.912V236.139H112.674V186.712Z" fill="#455A64"/>
<path d="M133.056 182.806C133.056 186.45 123.939 189.398 112.684 189.398C101.43 189.398 92.3126 186.45 92.3126 182.806C92.3126 181.667 91.8086 179.278 92.5343 176.985C93.7893 173.169 104.958 176.219 112.694 176.219C120.99 176.219 131.448 174.707 132.774 178.376C133.348 180.034 133.056 181.853 133.056 182.806Z" fill="#263238"/>
<path d="M112.674 184.555C123.925 184.555 133.046 181.603 133.046 177.962C133.046 174.322 123.925 171.37 112.674 171.37C101.423 171.37 92.3025 174.322 92.3025 177.962C92.3025 181.603 101.423 184.555 112.674 184.555Z" fill="#455A64"/>
<path d="M112.624 211.282C112.624 211.282 128.061 210.224 128.752 231.749H126.232C126.232 231.749 127.492 214.084 112.583 213.58V211.68" fill="#455A64"/>
<path d="M110.779 211.282C110.779 211.282 95.3416 210.224 94.6511 231.749H97.1711C97.1711 231.749 95.9111 214.084 110.819 213.58V211.68" fill="#455A64"/>
<path d="M147.013 101.026L122.869 104.196L123.235 106.986L147.38 103.815L147.013 101.026Z" fill="#EE6258"/>
<path d="M130.536 210.591L132.885 205.677L123.707 201.217L120.179 208.369L120.728 208.681C123.193 210.057 133.353 215.485 135.299 215.793C137.471 216.14 130.536 210.591 130.536 210.591Z" fill="#EE6258"/>
<g opacity="0.3">
<path opacity="0.3" d="M123.546 209.916C123.786 209.078 123.707 208.18 123.324 207.396C122.953 206.618 122.304 206.006 121.504 205.682L120.254 208.248L123.546 209.916Z" fill="white"/>
</g>
<path opacity="0.3" d="M133.852 213.439C133.852 213.439 136.201 215.556 135.641 215.838C135.082 216.12 124.604 211.025 120.184 208.369L120.295 208.172L132.466 214.22C132.466 214.22 133.308 213.192 133.852 213.439Z" fill="white"/>
<path d="M120.154 208.097L120.305 208.192L120.743 208.439L122.376 209.321C123.762 210.057 125.687 211.05 127.835 212.098C129.982 213.147 131.952 214.054 133.379 214.694L135.082 215.435L135.546 215.631L135.712 215.687L135.556 215.606L135.102 215.389L133.419 214.613C131.993 213.953 130.032 213.036 127.875 211.987C125.718 210.939 123.797 209.971 122.401 209.246L120.753 208.394L120.3 208.167C120.254 208.138 120.205 208.114 120.154 208.097Z" fill="#263238"/>
<path d="M132.391 214.366C132.6 214.127 132.835 213.911 133.091 213.721C133.37 213.567 133.666 213.446 133.973 213.363C133.636 213.326 133.298 213.418 133.026 213.62C132.73 213.783 132.504 214.049 132.391 214.366Z" fill="#263238"/>
<path d="M130.354 211.68C130.354 211.71 130.581 211.615 130.813 211.468C131.045 211.322 131.231 211.181 131.211 211.151C131.044 211.185 130.887 211.257 130.753 211.363C130.536 211.504 130.334 211.645 130.354 211.68Z" fill="#263238"/>
<path d="M129.805 210.919C129.805 210.954 130.007 210.919 130.233 210.864C130.46 210.808 130.637 210.717 130.627 210.687C130.616 210.657 130.425 210.687 130.198 210.743C129.971 210.798 129.795 210.889 129.805 210.919Z" fill="#263238"/>
<path d="M129.755 209.825C129.755 209.856 129.941 209.987 130.203 210.123C130.355 210.221 130.528 210.283 130.707 210.304C130.707 210.274 130.521 210.143 130.259 210.012C130.108 209.911 129.935 209.847 129.755 209.825Z" fill="#263238"/>
<path d="M129.891 209.16C129.866 209.185 130.052 209.402 130.349 209.578C130.522 209.702 130.727 209.771 130.939 209.775C130.773 209.657 130.596 209.556 130.41 209.473C130.247 209.353 130.073 209.248 129.891 209.16Z" fill="#263238"/>
<path d="M131.04 211.025C131.218 211.155 131.418 211.252 131.63 211.312C131.856 211.387 132.089 211.443 132.325 211.478C132.469 211.494 132.615 211.494 132.759 211.478C132.848 211.47 132.932 211.431 132.995 211.367C133.021 211.325 133.035 211.276 133.035 211.226C133.035 211.177 133.021 211.128 132.995 211.085C132.823 210.861 132.576 210.705 132.3 210.644C132.023 210.583 131.734 210.622 131.483 210.753C131.335 210.823 131.204 210.927 131.1 211.055C131.025 211.141 131 211.201 131.005 211.206C131.15 211.054 131.32 210.928 131.509 210.833C131.717 210.741 131.949 210.711 132.174 210.748C132.307 210.765 132.435 210.809 132.551 210.876C132.667 210.944 132.769 211.033 132.849 211.141C132.91 211.257 132.819 211.347 132.688 211.357C132.554 211.372 132.419 211.372 132.285 211.357C132.055 211.331 131.827 211.285 131.604 211.221C131.292 211.115 131.065 211.01 131.04 211.025Z" fill="#263238"/>
<path d="M131.196 211.131C131.196 211.131 131.357 211.035 131.463 210.753C131.518 210.591 131.533 210.418 131.509 210.249C131.502 210.137 131.467 210.029 131.407 209.934C131.347 209.84 131.264 209.762 131.166 209.709C131.133 209.701 131.099 209.699 131.066 209.704C131.032 209.709 131 209.72 130.971 209.738C130.942 209.755 130.917 209.778 130.896 209.805C130.876 209.832 130.862 209.863 130.853 209.896C130.819 209.996 130.809 210.103 130.823 210.208C130.835 210.38 130.87 210.55 130.929 210.712C131.025 210.984 131.136 211.126 131.151 211.115C131.166 211.105 131.085 210.954 131.01 210.687C130.968 210.532 130.944 210.373 130.939 210.213C130.939 210.052 130.969 209.8 131.131 209.845C131.292 209.891 131.362 210.123 131.398 210.284C131.431 210.437 131.431 210.595 131.398 210.748C131.34 210.88 131.273 211.008 131.196 211.131Z" fill="#263238"/>
<path d="M121.565 205.677C121.565 205.677 121.842 205.778 122.23 206.03C122.739 206.357 123.148 206.818 123.414 207.361C123.67 207.908 123.769 208.515 123.702 209.115C123.651 209.578 123.535 209.851 123.555 209.856C123.576 209.861 123.601 209.795 123.646 209.669C123.714 209.495 123.762 209.314 123.787 209.13C123.887 208.51 123.796 207.874 123.526 207.307C123.256 206.739 122.82 206.268 122.275 205.955C122.115 205.861 121.946 205.784 121.771 205.723C121.64 205.683 121.565 205.667 121.565 205.677Z" fill="#263238"/>
<path d="M124.377 202.321C124.002 202.914 123.666 203.53 123.369 204.165C123.035 204.782 122.739 205.418 122.482 206.071C122.853 205.474 123.189 204.856 123.49 204.221C123.822 203.605 124.118 202.971 124.377 202.321Z" fill="#263238"/>
<path d="M125.133 209.583C125.936 210.185 126.841 210.636 127.804 210.914C127.804 210.879 127.199 210.627 126.464 210.259C125.728 209.891 125.153 209.553 125.133 209.583Z" fill="#263238"/>
<path d="M123.339 208.706C123.304 208.706 123.339 208.858 123.339 209.024C123.339 209.19 123.309 209.326 123.339 209.341C123.369 209.357 123.46 209.22 123.465 209.029C123.47 208.837 123.369 208.691 123.339 208.706Z" fill="#263238"/>
<path d="M123.072 207.532C123.036 207.532 123.072 207.668 123.097 207.809C123.122 207.95 123.213 208.056 123.243 208.046C123.273 208.036 123.243 207.91 123.218 207.769C123.193 207.628 123.102 207.522 123.072 207.532Z" fill="#263238"/>
<path d="M122.29 206.675C122.29 206.711 122.401 206.766 122.512 206.882C122.623 206.998 122.689 207.114 122.724 207.104C122.759 207.094 122.724 206.927 122.603 206.791C122.482 206.655 122.295 206.64 122.29 206.675Z" fill="#263238"/>
<path d="M121.686 206.136C121.66 206.136 121.686 206.232 121.751 206.297C121.817 206.363 121.887 206.398 121.912 206.378C121.938 206.358 121.912 206.282 121.842 206.217C121.771 206.151 121.711 206.136 121.686 206.136Z" fill="#263238"/>
<path d="M130.793 215.712L133.746 211.131L125.178 205.546L120.789 212.199L121.293 212.582C123.561 214.256 132.955 220.923 134.845 221.473C136.982 222.108 130.793 215.712 130.793 215.712Z" fill="#EE6258"/>
<g opacity="0.3">
<path opacity="0.3" d="M123.954 214.2C124.297 213.401 124.333 212.504 124.055 211.68C123.795 210.848 123.229 210.146 122.472 209.714L120.91 212.098L123.954 214.2Z" fill="white"/>
</g>
<path opacity="0.3" d="M133.736 218.968C133.736 218.968 135.798 221.367 135.208 221.579C134.618 221.79 124.866 215.41 120.814 212.214L120.95 212.033L132.26 219.593C132.26 219.593 133.222 218.665 133.736 218.968Z" fill="white"/>
<path d="M120.819 211.942L120.955 212.053L121.363 212.355L122.875 213.439C124.155 214.341 125.939 215.571 127.94 216.881C129.941 218.192 131.781 219.341 133.116 220.152L134.714 221.105L135.153 221.357C135.201 221.389 135.254 221.416 135.309 221.438C135.263 221.399 135.214 221.366 135.163 221.337L134.739 221.065L133.167 220.082C131.836 219.25 130.007 218.091 128.006 216.781C126.005 215.47 124.216 214.261 122.925 213.363L121.413 212.315L120.995 212.033C120.942 211.993 120.882 211.962 120.819 211.942Z" fill="#263238"/>
<path d="M132.169 219.709C132.405 219.494 132.665 219.308 132.945 219.154C133.241 219.04 133.549 218.957 133.862 218.907C133.532 218.833 133.187 218.881 132.89 219.043C132.575 219.168 132.318 219.405 132.169 219.709Z" fill="#263238"/>
<path d="M130.486 216.78C130.663 216.77 130.836 216.718 130.99 216.629C131.247 216.513 131.438 216.392 131.423 216.362C131.246 216.373 131.073 216.424 130.919 216.513C130.667 216.629 130.476 216.75 130.486 216.78Z" fill="#263238"/>
<path d="M130.032 215.959C130.032 215.994 130.228 215.994 130.46 215.959C130.692 215.924 130.884 215.863 130.879 215.833C130.874 215.803 130.677 215.798 130.445 215.833C130.213 215.868 130.032 215.929 130.032 215.959Z" fill="#263238"/>
<path d="M130.128 214.87C130.128 214.895 130.289 215.052 130.536 215.218C130.675 215.332 130.837 215.416 131.01 215.465C131.01 215.435 130.848 215.279 130.601 215.112C130.354 214.946 130.143 214.84 130.128 214.87Z" fill="#263238"/>
<path d="M130.349 214.2C130.319 214.2 130.475 214.462 130.753 214.674C130.905 214.819 131.099 214.912 131.307 214.941C131.307 214.906 131.085 214.775 130.828 214.573C130.678 214.437 130.518 214.312 130.349 214.2Z" fill="#263238"/>
<path d="M131.267 216.216C131.428 216.365 131.614 216.485 131.816 216.569C132.031 216.675 132.255 216.759 132.486 216.821C132.623 216.867 132.766 216.896 132.91 216.907C133 216.908 133.087 216.878 133.157 216.821C133.191 216.786 133.215 216.742 133.226 216.693C133.237 216.645 133.234 216.595 133.217 216.549C133.073 216.311 132.851 216.131 132.589 216.04C132.327 215.948 132.042 215.949 131.781 216.045C131.625 216.095 131.482 216.179 131.363 216.292C131.277 216.372 131.242 216.428 131.252 216.433C131.418 216.3 131.605 216.196 131.806 216.125C132.025 216.062 132.257 216.062 132.476 216.125C132.606 216.159 132.728 216.218 132.834 216.3C132.94 216.381 133.03 216.483 133.096 216.599C133.142 216.72 133.041 216.801 132.91 216.796C132.775 216.782 132.642 216.759 132.512 216.725C132.286 216.667 132.065 216.591 131.851 216.498C131.483 216.342 131.277 216.216 131.267 216.216Z" fill="#263238"/>
<path d="M131.388 216.342C131.388 216.342 131.564 216.267 131.7 216.004C131.778 215.848 131.817 215.675 131.816 215.5C131.822 215.388 131.8 215.277 131.752 215.175C131.703 215.074 131.63 214.987 131.539 214.921C131.475 214.897 131.405 214.9 131.343 214.927C131.281 214.954 131.232 215.004 131.206 215.067C131.159 215.161 131.137 215.265 131.141 215.369C131.132 215.538 131.146 215.708 131.181 215.873C131.203 216.027 131.26 216.174 131.347 216.302C131.347 216.302 131.302 216.13 131.267 215.858C131.248 215.699 131.248 215.539 131.267 215.379C131.267 215.213 131.352 214.971 131.509 215.037C131.665 215.102 131.705 215.339 131.715 215.505C131.724 215.662 131.698 215.819 131.64 215.964C131.57 216.099 131.485 216.226 131.388 216.342Z" fill="#263238"/>
<path d="M122.522 209.719C122.522 209.719 122.784 209.856 123.142 210.153C123.606 210.542 123.955 211.051 124.15 211.625C124.335 212.199 124.358 212.813 124.216 213.399C124.105 213.852 123.959 214.104 123.979 214.114C124.026 214.065 124.064 214.006 124.09 213.943C124.177 213.782 124.248 213.614 124.301 213.439C124.473 212.836 124.461 212.195 124.266 211.599C124.073 210.999 123.702 210.472 123.203 210.087C123.054 209.971 122.894 209.872 122.724 209.79C122.661 209.755 122.593 209.732 122.522 209.719Z" fill="#263238"/>
<path d="M125.738 206.746C125.295 207.288 124.886 207.857 124.513 208.449C124.107 209.019 123.733 209.611 123.394 210.223C123.836 209.682 124.243 209.113 124.614 208.52C125.022 207.95 125.397 207.358 125.738 206.746Z" fill="#263238"/>
<path d="M125.572 214.044C125.92 214.406 126.313 214.722 126.741 214.986C127.145 215.281 127.585 215.521 128.051 215.702C128.051 215.672 127.492 215.339 126.806 214.88C126.121 214.422 125.597 214.019 125.572 214.044Z" fill="#263238"/>
<path d="M123.903 212.945C123.868 212.945 123.868 213.096 123.843 213.263C123.818 213.429 123.772 213.56 123.802 213.575C123.833 213.59 123.938 213.469 123.964 213.278C123.989 213.086 123.933 212.94 123.903 212.945Z" fill="#263238"/>
<path d="M123.782 211.751C123.752 211.751 123.747 211.882 123.782 212.028C123.818 212.174 123.863 212.29 123.898 212.285C123.934 212.28 123.934 212.149 123.898 212.003C123.863 211.856 123.818 211.741 123.782 211.751Z" fill="#263238"/>
<path d="M123.117 210.798C123.117 210.833 123.218 210.904 123.314 211.03C123.409 211.156 123.46 211.287 123.495 211.282C123.53 211.277 123.535 211.111 123.414 210.954C123.293 210.798 123.127 210.768 123.117 210.798Z" fill="#263238"/>
<path d="M122.588 210.208C122.557 210.208 122.588 210.304 122.633 210.38C122.678 210.455 122.749 210.496 122.779 210.475C122.809 210.455 122.779 210.38 122.734 210.309C122.689 210.239 122.613 210.168 122.588 210.208Z" fill="#263238"/>
<path opacity="0.2" d="M122.92 209.024L131.534 214.573L132.058 213.761L123.444 208.046L122.92 209.024Z" fill="black"/>
<path d="M131.756 171.113L121.681 204.216L130.617 207.683L143.554 177.962L131.756 171.113Z" fill="#263238"/>
<path d="M110.84 179.268C110.84 179.268 145.807 170.559 146.76 170.135C146.76 170.135 150.661 158.841 142.481 154.567C134.694 150.494 108.818 164.269 108.818 164.269L110.84 179.268Z" fill="#263238"/>
<path d="M99.7415 177.02C103.733 177.63 108.229 179.036 110.829 179.268C117.885 179.913 121.247 177.025 127.114 178.597C127.144 174.313 126.826 166.375 126.826 166.375L94.1824 162.046C94.1824 162.046 94.7872 173.421 99.7415 177.02Z" fill="#263238"/>
<path d="M159.193 176.476C160.136 174.722 160.836 172.635 160.443 170.644C159.662 166.688 154.924 166.255 149.98 165.66C138.867 164.319 124.443 162.419 124.443 162.419L127.144 178.602L140.303 179.555L122.316 207.31L135.142 215.914L158.518 177.61C158.659 177.388 158.8 177.151 158.941 176.914L159.193 176.476Z" fill="#263238"/>
<path d="M148.952 165.534C148.653 165.544 148.353 165.534 148.055 165.504C147.475 165.468 146.639 165.403 145.61 165.302C143.549 165.111 140.707 164.768 137.577 164.355C134.447 163.941 131.609 163.573 129.553 163.347L127.119 163.064C126.82 163.046 126.523 163.003 126.232 162.933C126.531 162.923 126.831 162.933 127.129 162.963C127.708 162.999 128.545 163.064 129.573 163.165C131.635 163.357 134.477 163.699 137.607 164.113C140.737 164.526 143.574 164.894 145.631 165.121L148.065 165.403C148.364 165.421 148.661 165.465 148.952 165.534Z" fill="#455A64"/>
<path d="M140.737 163.971C140.772 164.037 140.666 164.168 140.525 164.304C140.384 164.44 140.243 164.541 140.183 164.501C140.122 164.46 140.183 164.274 140.344 164.113C140.505 163.951 140.702 163.911 140.737 163.971Z" fill="#455A64"/>
<path d="M140.898 178.099C140.855 178.201 140.799 178.297 140.732 178.386L140.203 179.187L138.237 182.1C136.579 184.565 134.311 187.982 131.876 191.802C129.442 195.623 127.29 199.115 125.753 201.655C124.997 202.905 124.382 203.923 123.938 204.679L123.434 205.491C123.383 205.591 123.318 205.684 123.243 205.768C123.285 205.664 123.333 205.563 123.389 205.466C123.505 205.249 123.661 204.962 123.848 204.629C124.251 203.903 124.856 202.86 125.597 201.575C127.109 199.009 129.215 195.497 131.645 191.671C134.074 187.846 136.377 184.449 138.076 182.015C138.922 180.795 139.618 179.812 140.092 179.142L140.661 178.371C140.731 178.273 140.811 178.182 140.898 178.099Z" fill="#455A64"/>
<path d="M139.9 179.525C139.316 179.567 138.73 179.567 138.146 179.525C137.063 179.49 135.571 179.439 133.918 179.343C132.265 179.248 130.773 179.101 129.699 178.96C129.16 178.89 128.727 178.824 128.429 178.769C128.27 178.755 128.114 178.717 127.966 178.658C128.552 178.659 129.138 178.697 129.72 178.774C130.798 178.87 132.285 178.986 133.933 179.081C135.581 179.177 137.078 179.258 138.156 179.338C138.742 179.356 139.325 179.418 139.9 179.525Z" fill="#455A64"/>
<path d="M149.895 115.416C149.895 115.416 150.479 114.64 151.149 115.139C151.82 115.638 154.773 118.027 154.773 118.027L156.789 123.49L153.921 128.727L148.972 126.605C149.235 125.382 149.595 124.182 150.051 123.016C150.051 123.016 146.729 120.446 147.763 119.433C147.763 119.433 148.035 118.929 149.446 120.098L150.852 121.267C150.852 121.267 148.383 117.82 148.539 117.034C148.55 116.892 148.592 116.754 148.663 116.631C148.734 116.507 148.831 116.401 148.947 116.319C149.064 116.237 149.197 116.182 149.337 116.157C149.477 116.133 149.621 116.14 149.758 116.177L149.895 115.416Z" fill="#FFBE9D"/>
<path d="M146.785 116.767L148.826 117.271L157.696 125.108C157.851 125.243 157.946 125.434 157.96 125.639C157.974 125.844 157.907 126.047 157.772 126.202C157.706 126.281 157.624 126.345 157.533 126.393C157.441 126.44 157.341 126.468 157.238 126.476C157.135 126.484 157.032 126.471 156.934 126.439C156.836 126.407 156.746 126.355 156.668 126.287L147.828 118.662L146.785 116.767Z" fill="#EE6258"/>
<path opacity="0.4" d="M156.512 126.146L157.49 124.917L157.822 125.244C157.958 125.381 158.038 125.564 158.047 125.757C158.055 125.95 157.991 126.139 157.868 126.287C157.801 126.368 157.719 126.434 157.626 126.481C157.533 126.529 157.431 126.557 157.327 126.564C157.223 126.571 157.118 126.557 157.02 126.522C156.921 126.488 156.831 126.433 156.754 126.363L156.512 126.146Z" fill="white"/>
<path opacity="0.4" d="M147.123 117.331L147.465 116.928L148.856 117.286C148.897 117.357 148.919 117.438 148.919 117.52C148.919 117.603 148.897 117.683 148.856 117.755C148.72 117.931 148.458 117.785 148.458 117.785C148.498 117.863 148.519 117.949 148.519 118.037C148.519 118.125 148.498 118.211 148.458 118.289C148.332 118.47 148.02 118.395 148.02 118.395C148.046 118.421 148.067 118.453 148.08 118.489C148.092 118.524 148.097 118.562 148.094 118.6C148.091 118.637 148.079 118.673 148.06 118.706C148.041 118.738 148.015 118.766 147.984 118.788L147.858 118.677L147.123 117.331Z" fill="white"/>
<path opacity="0.4" d="M148.433 117.785L157.248 125.178L156.784 125.758L147.99 118.395C148.07 118.418 148.156 118.416 148.236 118.39C148.316 118.364 148.386 118.315 148.438 118.248C148.478 118.178 148.499 118.097 148.498 118.016C148.497 117.935 148.474 117.855 148.433 117.785Z" fill="black"/>
<path d="M149.285 125.098C149.653 124.302 149.968 123.482 150.227 122.643C150.338 122.034 149.275 118.067 150.862 117.755L151.366 117.992L152.712 124.372L150.076 126.892L149.285 125.098Z" fill="#FFBE9D"/>
<path d="M153.034 120.527C152.989 120.527 152.903 120.159 152.626 119.604C152.286 118.882 151.782 118.248 151.155 117.755C150.766 117.51 150.409 117.219 150.091 116.888C149.955 116.744 149.849 116.573 149.781 116.387C149.714 116.2 149.685 116.002 149.698 115.804C149.712 115.67 149.755 115.541 149.822 115.424C149.89 115.308 149.982 115.207 150.091 115.129C150.252 115.023 150.363 115.033 150.363 115.043C150.363 115.053 150.273 115.093 150.157 115.209C149.991 115.37 149.893 115.588 149.884 115.819C149.891 116.162 150.03 116.489 150.273 116.731C150.592 117.035 150.939 117.307 151.311 117.543C151.974 118.061 152.487 118.746 152.798 119.529C152.949 119.84 153.03 120.181 153.034 120.527Z" fill="#EB996E"/>
<path d="M152.395 123.384C152.336 123.221 152.292 123.052 152.263 122.88C152.193 122.553 152.052 122.094 151.896 121.514C151.811 121.195 151.748 120.87 151.704 120.542C151.659 120.189 151.639 119.811 151.578 119.428C151.549 119.235 151.506 119.045 151.447 118.858C151.388 118.67 151.313 118.486 151.225 118.309C151.209 118.28 151.184 118.257 151.155 118.242C151.125 118.226 151.092 118.22 151.059 118.223C150.967 118.24 150.879 118.271 150.797 118.314C150.62 118.412 150.475 118.559 150.379 118.737C150.178 119.11 150.08 119.529 150.096 119.952C150.105 120.358 150.156 120.761 150.247 121.157C150.336 121.53 150.378 121.912 150.373 122.296C150.352 122.636 150.263 122.968 150.111 123.273C149.878 123.677 149.721 124.119 149.648 124.579C149.643 124.747 149.651 124.916 149.673 125.083C149.573 124.935 149.528 124.756 149.547 124.579C149.583 124.098 149.716 123.63 149.94 123.203C150.068 122.917 150.142 122.609 150.157 122.296C150.15 121.93 150.101 121.566 150.011 121.212C149.908 120.801 149.85 120.38 149.839 119.957C149.817 119.486 149.927 119.018 150.157 118.606C150.219 118.502 150.291 118.404 150.373 118.314C150.459 118.217 150.563 118.14 150.681 118.087C150.793 118.025 150.916 117.985 151.044 117.971C151.12 117.965 151.196 117.98 151.264 118.014C151.332 118.048 151.39 118.099 151.432 118.163C151.539 118.361 151.624 118.571 151.684 118.788C151.746 118.987 151.79 119.191 151.815 119.398C151.87 119.801 151.885 120.179 151.921 120.522C151.953 120.842 152.005 121.16 152.077 121.474C152.208 122.054 152.324 122.533 152.364 122.865C152.401 123.036 152.411 123.211 152.395 123.384Z" fill="#EB996E"/>
<path d="M103.29 118.581L116.888 105.417L123.833 110.628L109.655 127.502L103.29 118.581Z" fill="#EE6258"/>
<path opacity="0.4" d="M103.29 118.581L116.888 105.417L123.833 110.628L109.655 127.502L103.29 118.581Z" fill="black"/>
<path d="M125.088 104.066L131.247 103.255C130.798 102.877 129.332 101.884 125.703 101.239C121.116 100.442 117.235 105.654 117.235 105.654L122.87 109.917L124.972 107.821C124.972 107.821 128.228 107.347 130.012 106.939C130.228 106.882 130.43 106.78 130.604 106.639C130.778 106.499 130.92 106.322 131.02 106.122H130.929C128.273 105.936 125.904 105.225 125.088 104.066Z" fill="#FFBE9D"/>
<path d="M127.567 105.568C126.954 105.431 126.378 105.163 125.879 104.782C125.379 104.401 124.968 103.916 124.674 103.36C124.735 103.315 125.239 103.97 126.035 104.57C126.832 105.17 127.593 105.497 127.567 105.568Z" fill="#EB996E"/>
<path d="M102.846 90.6847L102.771 114.731L113.087 115.235L113.4 109.368C113.4 109.368 117.069 110.099 118.012 106.692C118.616 104.52 118.465 87.7162 118.465 87.7162L102.846 90.6847Z" fill="#FFBE9D"/>
<path d="M117.86 83.9967C114.72 85.0047 113.964 85.3525 112.553 85.4633C111.142 85.5742 101.591 85.5792 100.719 90.967L100.654 91.6272V91.602C100.654 91.6272 98.5924 90.7704 99.1418 94.5C99.424 96.4455 100.22 98.2397 100.961 100.377C101.465 103.542 99.6659 104.333 98.1791 105.376C97.8112 105.638 97.3677 105.961 97.4282 106.384C97.4887 106.808 97.9322 106.999 98.3404 107.065C99.2119 107.203 100.103 106.997 100.825 106.49C100.614 106.953 100.379 107.404 100.12 107.841C99.9179 108.31 99.9381 108.96 100.387 109.202C100.646 109.316 100.939 109.33 101.208 109.242C102.045 109.043 102.8 108.59 103.37 107.947C103.275 108.15 103.258 108.382 103.322 108.598C103.386 108.813 103.527 108.998 103.718 109.116C104.109 109.34 104.56 109.437 105.008 109.393C107.024 109.363 109.509 109.393 111.389 107.307C113.128 105.371 113.541 104.131 113.728 101.455C113.728 101.455 111.676 101.118 111.913 99.4695C112.246 97.1914 113.99 97.1309 115.285 98.149L116.797 94.1422C116.797 94.1422 120.582 91.6575 120.799 90.0749C121.015 88.4924 120.995 82.9786 117.86 83.9967Z" fill="#263238"/>
<path d="M130.334 145.152C127.23 141.352 124.352 137.945 124.352 137.945C124.483 142.914 124.997 147.218 124.997 147.218L126.474 162.596C126.572 163.678 126.279 164.76 125.647 165.644C125.015 166.528 124.087 167.156 123.031 167.414C113.39 169.742 102.105 170.402 95.7851 166.063C94.9733 165.497 94.3108 164.743 93.8544 163.866C93.3979 162.988 93.1611 162.012 93.1643 161.023V147.919L91.5062 130.309C91.3514 127.535 91.6044 124.754 92.2571 122.054C92.9316 119.791 94.2875 117.791 96.1402 116.327C97.9928 114.863 100.252 114.007 102.609 113.874C106.097 113.677 110.003 113.37 113.501 113.324C117.618 113.256 121.64 114.571 124.921 117.059C130.072 120.97 133.963 129.951 137.602 135.672L147.566 123.651L155.806 128.913L144.547 145.545C143.64 146.547 142.528 147.34 141.285 147.871C140.043 148.401 138.701 148.657 137.35 148.619C136 148.582 134.674 148.253 133.463 147.654C132.251 147.056 131.184 146.202 130.334 145.152Z" fill="#EE6258"/>
<path d="M98.9705 125.436C99.1311 124.646 99.3796 123.877 99.7113 123.142C99.9683 122.376 100.306 121.64 100.719 120.945C100.553 121.733 100.305 122.502 99.9785 123.238C99.7215 124.004 99.3836 124.741 98.9705 125.436Z" fill="#263238"/>
<path d="M110.436 131.181C109.535 130.32 108.76 129.336 108.133 128.258C109.034 129.119 109.81 130.103 110.436 131.181Z" fill="#263238"/>
<path d="M117.145 121.802C116.196 122.287 115.174 122.615 114.121 122.774C114.578 122.491 115.079 122.283 115.602 122.16C116.094 121.957 116.615 121.837 117.145 121.802Z" fill="#263238"/>
<path d="M100.125 137.753C100.266 137.119 100.497 136.508 100.81 135.939C101.041 135.333 101.351 134.76 101.732 134.235C101.585 134.868 101.355 135.478 101.047 136.05C100.818 136.657 100.507 137.23 100.125 137.753Z" fill="#263238"/>
<path d="M99.4794 147.617C98.9894 147.129 98.5627 146.583 98.2094 145.989C97.7828 145.445 97.4288 144.849 97.156 144.215C97.6441 144.703 98.0706 145.25 98.4261 145.843C98.8517 146.386 99.2057 146.983 99.4794 147.617Z" fill="#263238"/>
<path d="M114.962 143.978C114.26 144.39 113.517 144.727 112.745 144.986C112.004 145.321 111.231 145.576 110.436 145.747C111.134 145.328 111.876 144.99 112.649 144.739C113.39 144.401 114.166 144.146 114.962 143.978Z" fill="#263238"/>
<path d="M106.067 141.881C105.717 140.857 105.717 139.745 106.067 138.721C106.112 139.247 106.112 139.777 106.067 140.304C106.112 140.828 106.112 141.356 106.067 141.881Z" fill="#263238"/>
<path d="M119.594 138.469C119.138 137.7 118.799 136.868 118.586 135.999C118.288 135.154 118.118 134.269 118.082 133.374C118.153 133.374 118.42 134.523 118.843 135.924C119.136 136.759 119.387 137.608 119.594 138.469Z" fill="#263238"/>
<path d="M129.069 129.956C128.455 129.853 127.848 129.713 127.25 129.538C126.634 129.451 126.025 129.324 125.425 129.16C126.054 129.064 126.695 129.107 127.305 129.286C127.935 129.38 128.536 129.609 129.069 129.956Z" fill="#263238"/>
<path d="M133.464 136.584C132.88 136.903 132.256 137.143 131.61 137.3C130.99 137.541 130.341 137.698 129.679 137.768C130.882 137.205 132.155 136.807 133.464 136.584Z" fill="#263238"/>
<path d="M137.592 144.804C137.245 143.302 137.359 141.73 137.919 140.293C137.99 140.293 137.763 141.301 137.678 142.541C137.592 143.781 137.678 144.794 137.592 144.804Z" fill="#263238"/>
<path d="M145.238 138.247C144.747 137.89 144.274 137.508 143.821 137.103C143.03 136.493 142.309 136.095 142.345 136.025C142.949 136.185 143.508 136.483 143.978 136.897C144.499 137.241 144.931 137.704 145.238 138.247Z" fill="#263238"/>
<path d="M150.131 129.961C148.928 130.847 147.621 131.583 146.241 132.154C146.819 131.68 147.45 131.274 148.121 130.944C148.752 130.542 149.426 130.212 150.131 129.961Z" fill="#263238"/>
<path d="M119.574 154.904C119.683 154.138 119.881 153.387 120.164 152.667C120.359 151.92 120.64 151.198 121 150.515C120.891 151.281 120.693 152.032 120.411 152.752C120.212 153.499 119.932 154.22 119.574 154.904Z" fill="#263238"/>
<path d="M107.397 157.016C106.863 156.486 106.39 155.897 105.986 155.262C105.507 154.587 105.109 153.982 104.917 153.649L104.671 153.216L105.013 153.559C105.159 153.705 105.23 153.791 105.215 153.811C105.2 153.831 105.099 153.776 104.928 153.66L105.023 153.574C105.28 153.861 105.719 154.436 106.198 155.086C106.673 155.679 107.076 156.327 107.397 157.016Z" fill="#263238"/>
<path d="M113.531 156.361C113.799 157.143 113.986 157.95 114.09 158.77C114.276 159.577 114.378 160.401 114.393 161.23C114.119 160.447 113.93 159.638 113.828 158.815C113.64 158.011 113.54 157.188 113.531 156.361Z" fill="#263238"/>
<path d="M100.477 161.346C99.4625 160.539 98.5621 159.598 97.8011 158.548C98.3367 158.919 98.8198 159.359 99.2375 159.859C99.7163 160.296 100.133 160.796 100.477 161.346Z" fill="#263238"/>
<path d="M110.694 166.396C109.524 166.57 108.335 166.57 107.166 166.396C108.335 166.221 109.524 166.221 110.694 166.396Z" fill="#263238"/>
<path d="M122.976 161.078C122.509 161.632 121.978 162.128 121.393 162.555C120.864 163.048 120.277 163.475 119.644 163.825C120.112 163.273 120.643 162.777 121.227 162.349C121.757 161.857 122.344 161.43 122.976 161.078Z" fill="#263238"/>
<path d="M55.4954 193.758C55.8091 192.842 55.876 191.859 55.6893 190.909C55.5026 189.959 55.0689 189.074 54.432 188.345C53.7785 187.63 52.9892 187.052 52.11 186.645C51.2308 186.238 50.2794 186.011 49.3113 185.976C48.4192 185.926 47.4314 186.052 46.8316 186.712C46.5685 187.038 46.3972 187.429 46.3352 187.843C46.2731 188.258 46.3227 188.682 46.4788 189.071C46.8033 189.842 47.3247 190.515 47.9908 191.021C50.1933 192.851 52.6629 194.216 55.4904 193.763" fill="#EE6258"/>
<path d="M60.0264 196.414C60.6232 194.461 61.6765 192.679 63.0989 191.215C64.5213 189.75 66.2721 188.645 68.2063 187.992C69.1891 187.669 70.439 187.538 71.1093 188.325C71.7796 189.111 71.452 190.341 70.9531 191.243C69.8788 193.127 68.2706 194.651 66.3315 195.622C64.3923 196.594 62.2089 196.969 60.0566 196.701" fill="#EE6258"/>
<path opacity="0.3" d="M60.0264 196.414C60.6232 194.461 61.6765 192.679 63.0989 191.215C64.5213 189.75 66.2721 188.645 68.2063 187.992C69.1891 187.669 70.439 187.538 71.1093 188.325C71.7796 189.111 71.452 190.341 70.9531 191.243C69.8788 193.127 68.2706 194.651 66.3315 195.622C64.3923 196.594 62.2089 196.969 60.0566 196.701" fill="white"/>
<path d="M61.3418 170.609C60.5177 170.876 59.7559 171.306 59.102 171.874C58.4482 172.442 57.9157 173.136 57.5366 173.915C56.7826 175.487 56.3998 177.212 56.4177 178.955C56.3522 182.297 57.7785 185.87 59.4417 188.773C62.5413 186.722 63.7408 182.584 64.2196 180.447C64.9756 177.07 64.2902 170.503 61.3418 170.629" fill="#EE6258"/>
<path d="M57.8439 203.641C57.8987 203.084 57.9206 202.523 57.9094 201.963C57.7542 199.854 57.3169 197.776 56.6091 195.784C55.8808 193.773 54.6195 191.998 52.9602 190.648C52.4534 190.244 51.898 189.906 51.307 189.64C51.0969 189.531 50.8706 189.456 50.6367 189.418C51.3912 189.836 52.1123 190.311 52.7938 190.84C54.3555 192.211 55.5478 193.953 56.2614 195.905C56.9515 197.862 57.4165 199.891 57.6474 201.953" fill="#263238"/>
<path d="M57.834 203.697C57.9298 202.89 58.0507 201.837 58.1969 200.567C58.4942 197.921 58.9176 194.267 59.4367 190.235C59.9558 186.203 60.48 182.564 60.858 179.928L61.3066 176.808C61.3787 176.427 61.4175 176.041 61.4225 175.654C61.3045 176.022 61.2168 176.4 61.1604 176.783C61.0142 177.514 60.8227 178.577 60.5959 179.888C60.1474 182.513 59.5879 186.152 59.0839 190.189C58.5799 194.226 58.1868 197.885 57.955 200.536C57.839 201.867 57.7534 202.941 57.708 203.686" fill="#263238"/>
<path d="M67.3595 191.066C67.1358 191.09 66.9168 191.146 66.7093 191.233C66.456 191.305 66.2083 191.396 65.9685 191.505C65.6448 191.635 65.3285 191.783 65.0209 191.948C64.2119 192.376 63.4471 192.882 62.7378 193.46C61.0057 194.882 59.6258 196.684 58.7058 198.727C58.3304 199.559 58.0415 200.427 57.844 201.318C57.7596 201.649 57.6973 201.986 57.6575 202.326C57.614 202.586 57.5888 202.848 57.5819 203.112C57.5819 203.545 57.6777 203.671 57.7029 203.676C57.7956 202.897 57.9285 202.124 58.101 201.358C58.3312 200.492 58.6382 199.649 59.0183 198.838C59.4968 197.857 60.0672 196.924 60.7218 196.051C61.3935 195.193 62.1481 194.403 62.9747 193.692C63.6577 193.117 64.3896 192.603 65.1621 192.155C66.4725 191.424 67.3847 191.137 67.3595 191.066Z" fill="#263238"/>
<path opacity="0.2" d="M55.4954 193.758C55.8091 192.842 55.876 191.859 55.6893 190.909C55.5026 189.959 55.0689 189.074 54.432 188.345C53.7785 187.63 52.9892 187.052 52.11 186.645C51.2308 186.238 50.2794 186.011 49.3113 185.976C48.4192 185.926 47.4314 186.052 46.8316 186.712C46.5685 187.038 46.3972 187.429 46.3352 187.843C46.2731 188.258 46.3227 188.682 46.4788 189.071C46.8033 189.842 47.3247 190.515 47.9908 191.021C50.1933 192.851 52.6629 194.216 55.4904 193.763" fill="black"/>
<path d="M49.0593 203.026H66.3213V209.477C66.32 211.766 65.4098 213.961 63.7909 215.579C62.1719 217.197 59.9767 218.106 57.6878 218.106C55.3998 218.105 53.2059 217.195 51.588 215.577C49.9702 213.959 49.0607 211.765 49.0593 209.477V203.026Z" fill="#455A64"/>
<path d="M66.3062 207.179C66.0817 207.203 65.8553 207.203 65.6309 207.179L63.7913 207.124C62.2389 207.073 60.0969 207.008 57.7433 206.968C55.3896 206.927 53.2073 206.922 51.6953 206.922H49.8557C49.6299 206.935 49.4035 206.923 49.1803 206.887C49.4012 206.844 49.6256 206.822 49.8506 206.821C50.2841 206.796 50.9141 206.766 51.6902 206.746C53.2476 206.701 55.3946 206.675 57.7685 206.716C60.1423 206.756 62.3045 206.852 63.8165 206.953C64.5926 206.998 65.2176 207.048 65.651 207.089C65.872 207.095 66.0917 207.126 66.3062 207.179Z" fill="#263238"/>
<path d="M66.3011 208.152C66.0748 208.173 65.847 208.173 65.6207 208.152L63.7861 208.097C62.2338 208.046 60.0868 207.981 57.7381 207.94C55.3895 207.9 53.2021 207.895 51.6901 207.895H49.8505C49.6248 207.907 49.3984 207.895 49.1752 207.86C49.3978 207.817 49.6239 207.795 49.8505 207.794C50.284 207.769 50.914 207.739 51.6901 207.719C53.2424 207.673 55.3895 207.648 57.7381 207.688C60.0868 207.729 62.2741 207.824 63.7861 207.925C64.5623 207.971 65.1923 208.021 65.6257 208.061C65.8535 208.066 66.08 208.097 66.3011 208.152Z" fill="#263238"/>
</svg>
