<?xml version="1.0" encoding="utf-8"?>
<!-- Generator: Adobe Illustrator 16.0.0, SVG Export Plug-In . SVG Version: 6.00 Build 0)  -->
<!DOCTYPE svg PUBLIC "-//W3C//DTD SVG 1.1//EN" "http://www.w3.org/Graphics/SVG/1.1/DTD/svg11.dtd">
<svg version="1.1" id="logo_coeur_web" xmlns="http://www.w3.org/2000/svg" xmlns:xlink="http://www.w3.org/1999/xlink" x="0px"
	 y="0px" width="283.465px" height="272.125px" viewBox="0 0 283.465 272.125" enable-background="new 0 0 283.465 272.125"
	 xml:space="preserve">
<g id="text_web" opacity="0">
	<g id="ombre">
		<path fill="#DB352F" d="M142.762,214.347l-17.601,48.28l-1.391,3.687c-0.765,2.157-2.783,3.617-5.148,3.688h-0.835
			c-1.878,0-3.617-1.184-4.243-2.991l-9.948-27.271l-9.53,26.296l-0.209,0.488l-0.139,0.486c-0.695,1.808-2.366,2.991-4.313,2.991
			h-0.765c-2.365-0.07-4.452-1.53-5.217-3.688l-1.322-3.687l-17.601-48.28h10.018c1.878,0,3.618,1.184,4.244,2.923l9.948,27.27
			l8.348-22.888l1.183-3.408c0.069-0.14,0.139-0.209,0.139-0.348c0-0.07,0.069-0.07,0.069-0.07l0.139-0.556
			c0.696-1.739,2.365-2.991,4.313-2.923h1.6c1.878,0,3.479,1.184,4.105,2.923l9.948,27.27l9.948-27.27
			c0.626-1.739,2.295-2.923,4.243-2.923H142.762z"/>
		<path fill="#DB352F" d="M149.711,214.347h28.314c2.643,0,4.869,2.157,4.869,4.87v8.349h-19.966v8h19.966v13.218h-19.966v8h19.966
			v13.218h-33.184V214.347z"/>
		<path fill="#DB352F" d="M193.326,214.347h19.27c10.227,0,18.505,7.374,18.505,16.488v0.209c0,4.313-1.81,8.209-4.8,11.13
			c2.99,2.922,4.8,6.817,4.8,11.062v0.278c0,9.113-8.278,16.487-18.505,16.487h-19.27V214.347z M212.596,236.749
			c3.408-0.07,6.122-2.505,6.331-5.496v-0.557c-0.209-3.061-2.992-5.495-6.54-5.495H205.5v11.548H212.596z M212.387,259.15
			c3.548,0,6.331-2.437,6.54-5.497v-0.557c-0.209-2.991-2.923-5.425-6.331-5.495H205.5v11.549H212.387z"/>
	</g>
	<g>
		<g>
			<path fill="#EC6258" d="M139.927,211.512l-17.6,48.28l-1.391,3.687c-0.765,2.157-2.783,3.617-5.148,3.688h-0.835
				c-1.878,0-3.617-1.184-4.243-2.991l-9.948-27.271l-9.53,26.296l-0.209,0.488l-0.139,0.486c-0.695,1.808-2.366,2.991-4.313,2.991
				h-0.765c-2.365-0.07-4.452-1.53-5.217-3.688l-1.322-3.687l-17.601-48.28h10.018c1.878,0,3.618,1.184,4.244,2.923l9.948,27.27
				l8.348-22.888l1.183-3.408c0.069-0.14,0.139-0.209,0.139-0.348c0-0.07,0.069-0.07,0.069-0.07l0.139-0.556
				c0.696-1.739,2.365-2.991,4.313-2.923h1.6c1.878,0,3.479,1.184,4.105,2.923l9.948,27.27l9.948-27.27
				c0.626-1.739,2.295-2.923,4.243-2.923H139.927z"/>
		</g>
		<g>
			<path fill="#EC6258" d="M146.876,211.512h28.314c2.643,0,4.869,2.157,4.869,4.87v8.349h-19.966v8h19.966v13.218h-19.966v8h19.966
				v13.218h-33.184V211.512z"/>
		</g>
		<g>
			<path fill="#EC6258" d="M190.491,211.512h19.27c10.227,0,18.505,7.374,18.505,16.488v0.209c0,4.313-1.81,8.209-4.8,11.13
				c2.99,2.922,4.8,6.817,4.8,11.062v0.278c0,9.113-8.278,16.487-18.505,16.487h-19.27V211.512z M209.761,233.914
				c3.408-0.07,6.122-2.505,6.331-5.496v-0.557c-0.209-3.061-2.992-5.495-6.54-5.495h-6.887v11.548H209.761z M209.552,256.315
				c3.548,0,6.331-2.437,6.54-5.497v-0.557c-0.209-2.991-2.923-5.425-6.331-5.495h-7.096v11.549H209.552z"/>
		</g>
	</g>
</g>
<g id="text_coeur" opacity="0">
	<g id="ombre_1_">
		<path fill="#DB352F" d="M14.623,178.155c0-15.932,12.105-29.011,28.036-29.011c7.792,0,14.539,2.923,19.409,8.209l-6.331,6.331
			c-1.46,1.462-3.826,1.948-5.774,0.487c-2.435-0.974-4.869-1.948-7.791-1.948c-7.723,0-13.983,6.261-13.983,14.053
			c0,8,5.774,15.514,14.47,15.514c2.435,0,5.356-1.043,7.304-2.017c1.949-1.462,4.314-0.975,5.774,0.486l6.331,6.331
			c-4.87,5.355-12.105,8.208-20.314,8.208C27.145,204.798,14.623,192.694,14.623,178.155z"/>
		<path fill="#DB352F" d="M124.673,176.971c0,15.375-12.452,27.827-27.826,27.827c-15.375,0-27.827-12.452-27.827-27.827
			c0-15.374,12.452-27.827,27.827-27.827C112.221,149.144,124.673,161.597,124.673,176.971z M111.386,176.971
			c0-8-6.54-14.539-14.539-14.539c-8.07,0-14.54,6.539-14.54,14.539c0,8.07,6.47,14.539,14.54,14.539
			C104.846,191.51,111.386,185.042,111.386,176.971z"/>
		<path fill="#DB352F" d="M133.363,149.144h28.314c2.644,0,4.87,2.157,4.87,4.87v8.349h-19.966v8h19.966v13.218h-19.966v8h19.966
			v13.218h-33.185V149.144z"/>
		<path fill="#DB352F" d="M176.979,180.798v-31.654h8.348c2.645,0,4.801,2.157,4.801,4.87v26.923c0,5.565,4.313,10.296,9.879,10.505
			c5.844,0.208,10.643-4.453,10.643-10.297v-32.001h8.349c2.714,0,4.87,2.157,4.87,4.87v27.131
			c0,13.079-10.713,23.445-23.861,23.445C187.135,204.59,176.979,193.667,176.979,180.798z"/>
		<path fill="#DB352F" d="M263.723,187.546c6.887-3.201,11.618-10.088,11.618-18.158c0.069-11.13-9.392-20.174-20.522-20.174
			h-20.521v11.736v1.481v18.923v1.575v21.868h13.217v-15.096l15.097,15.096h18.366L263.723,187.546z M255.027,176.485h-7.514
			v-14.053h7.374c3.757,0,7.026,2.921,7.166,6.748C262.262,173.214,259.063,176.485,255.027,176.485z"/>
	</g>
	<g>
		<g>
			<path fill="#EC6258" d="M11.789,175.32c0-15.932,12.105-29.011,28.036-29.011c7.792,0,14.539,2.923,19.409,8.209l-6.331,6.331
				c-1.46,1.462-3.826,1.948-5.774,0.487c-2.435-0.974-4.869-1.948-7.791-1.948c-7.723,0-13.983,6.261-13.983,14.053
				c0,8,5.774,15.514,14.47,15.514c2.435,0,5.356-1.043,7.304-2.017c1.949-1.462,4.314-0.975,5.774,0.486l6.331,6.331
				c-4.87,5.355-12.105,8.208-20.314,8.208C24.311,201.963,11.789,189.859,11.789,175.32z"/>
		</g>
		<g>
			<path fill="#EC6258" d="M121.838,174.136c0,15.375-12.452,27.827-27.826,27.827c-15.375,0-27.827-12.452-27.827-27.827
				c0-15.374,12.452-27.827,27.827-27.827C109.386,146.309,121.838,158.762,121.838,174.136z M108.551,174.136
				c0-8-6.54-14.539-14.539-14.539c-8.07,0-14.54,6.539-14.54,14.539c0,8.07,6.47,14.539,14.54,14.539
				C102.012,188.675,108.551,182.207,108.551,174.136z"/>
		</g>
		<g>
			<path fill="#EC6258" d="M130.529,146.309h28.314c2.644,0,4.87,2.157,4.87,4.87v8.349h-19.966v8h19.966v13.218h-19.966v8h19.966
				v13.218h-33.184V146.309z"/>
		</g>
		<g>
			<path fill="#EC6258" d="M174.144,177.963v-31.654h8.348c2.645,0,4.801,2.157,4.801,4.87v26.923
				c0,5.565,4.313,10.296,9.879,10.505c5.844,0.208,10.643-4.453,10.643-10.297v-32.001h8.349c2.714,0,4.87,2.157,4.87,4.87v27.131
				c0,13.079-10.713,23.445-23.861,23.445C184.3,201.755,174.144,190.833,174.144,177.963z"/>
		</g>
		<g>
			<path fill="#EC6258" d="M260.888,184.711c6.887-3.201,11.618-10.088,11.618-18.158c0.069-11.13-9.392-20.174-20.522-20.174
				h-20.521v11.736v1.481v18.923v1.575v21.868h13.217v-15.096l15.097,15.096h18.366L260.888,184.711z M252.192,173.65h-7.514
				v-14.053h7.374c3.757,0,7.026,2.921,7.166,6.748C259.427,170.379,256.228,173.65,252.192,173.65z"/>
		</g>
	</g>
</g>
<g id="coeur">
	<g>
		<g>
			
				<rect x="146.43" y="85.301" transform="matrix(0.91 0.4147 -0.4147 0.91 54.6808 -52.2133)" fill="#EC6258" width="2.324" height="29.053"/>
			<g>
				<circle fill="#EC6258" cx="153.563" cy="86.704" r="2.185"/>
			</g>
		</g>
		<g>
			
				<rect x="146.277" y="104.058" transform="matrix(0.9062 0.4229 -0.4229 0.9062 63.2763 -51.3778)" fill="#EC6258" width="2.326" height="25.744"/>
			<g>
				<circle fill="#EC6258" cx="152.834" cy="105.365" r="2.185"/>
			</g>
		</g>
		<g>
			
				<rect x="156.475" y="75.518" transform="matrix(0.9064 0.4225 -0.4225 0.9064 61.88 -56.1617)" fill="#EC6258" width="2.325" height="71.998"/>
			<g>
				<circle fill="#EC6258" cx="172.806" cy="78.989" r="2.186"/>
			</g>
		</g>
		<g>
			
				<rect x="153.177" y="107.968" transform="matrix(0.9064 0.4225 -0.4225 0.9064 71.5131 -52.5647)" fill="#EC6258" width="2.325" height="54.158"/>
			<g>
				<circle fill="#EC6258" cx="165.737" cy="110.605" r="2.186"/>
			</g>
		</g>
		<path fill="#EC6258" d="M145.436,170.598"/>
		<g>
			<polygon fill="#EC6258" points="143.523,193.905 141.418,192.922 163.27,146.063 159.453,137.784 159.682,137.294 
				187.549,77.538 189.656,78.52 162.018,137.79 165.832,146.067 			"/>
			<g>
				<path fill="#EC6258" d="M190.537,79.049c0.51-1.092,0.035-2.394-1.057-2.901c-1.094-0.511-2.395-0.038-2.906,1.056
					c-0.508,1.094-0.035,2.395,1.059,2.904S190.025,80.145,190.537,79.049z"/>
			</g>
		</g>
		<g>
			<path fill="#EC6258" d="M149.82,210.456l-0.6-1.344l-2.502-5.594l25.109-53.9l-2.561-6.231l-0.744-1.808l-2.154,0.88l0.744,1.807
				v0.01l2.174,5.286l-24.85,53.34l-0.279,0.598l0.279,0.629l2.783,6.211c0.473,0,0.947,0.02,1.41,0.039L149.82,210.456z"/>
			<g>
				<circle fill="#EC6258" cx="167.49" cy="142.118" r="2.185"/>
			</g>
		</g>
		<g>
			<path fill="#EC6258" d="M149.82,210.456c0.27,0.02,0.541,0.049,0.811,0.076l0.068,0.164l0.299-0.125h0.01
				c0.029,0,0.059,0.01,0.088,0.01l0.027-0.059l1.439-3.082v-0.01l1.797-3.844l1.363-2.928l1.479-3.17l1.391-2.975v-0.01
				l27.129-58.171l0.938-2.02l0.01-0.009l0.203-0.444l1.148-2.475l14.455-30.964l0.82-1.768l-2.105-0.985l-0.822,1.769l-2.771,5.94
				v0.01l-1.189,2.531l-0.203,0.435l-4.578,9.826l-7.074,15.148l-4.705,10.105l-1.381,2.957l-29.244,62.721l-0.59,1.266
				L149.82,210.456z"/>
			<g>
				<circle fill="#EC6258" cx="202.198" cy="98.262" r="2.185"/>
			</g>
		</g>
		<g>
			<polygon fill="#EC6258" points="173.143,196.094 170.832,195.831 173.344,173.997 191.254,135.694 200.348,132.261 
				218.348,93.614 220.455,94.595 202.055,134.1 192.959,137.536 175.611,174.637 			"/>
			<g>
				<circle fill="#EC6258" cx="219.354" cy="94.204" r="2.186"/>
			</g>
		</g>
		<g>
			<path fill="#EC6258" d="M183.963,189.461l-0.832,1.777l-5.719,12.27l-1.42,3.053l-5.672,12.164
				c-0.666-0.551-1.352-1.063-2.057-1.574l0.27-0.098l12.502-26.799l0.82-1.77L183.963,189.461z"/>
			<g>
				<path fill="#EC6258" d="M180.887,188.149c0.508-1.092,1.809-1.566,2.902-1.059c1.094,0.512,1.566,1.813,1.057,2.906
					s-1.811,1.568-2.904,1.057C180.848,190.543,180.375,189.243,180.887,188.149z"/>
			</g>
		</g>
		<g>
			<polygon fill="#EC6258" points="214.576,155.667 213.762,153.489 222.777,150.11 228.422,138.181 230.523,139.176 
				224.477,151.956 			"/>
			<g>
				<circle fill="#EC6258" cx="229.473" cy="138.679" r="2.184"/>
			</g>
		</g>
		<g>
			
				<rect x="149.935" y="94.976" transform="matrix(0.3477 0.9376 -0.9376 0.3477 191.3681 -77.106)" fill="#EC6258" width="2.326" height="8.002"/>
			<g>
				<circle fill="#EC6258" cx="154.745" cy="97.625" r="2.185"/>
			</g>
		</g>
		<g>
			<polygon fill="#EC6258" points="173.285,113.42 172.395,111.273 180.947,107.721 188.785,91.299 190.883,92.301 182.662,109.528 
							"/>
			<g>
				<circle fill="#EC6258" cx="189.787" cy="91.899" r="2.186"/>
			</g>
		</g>
		<g>
			<polygon fill="#EC6258" points="174.785,106.062 171.664,96.953 176.266,85.539 178.424,86.408 174.145,97.019 176.984,105.309 
							"/>
			<g>
				<circle fill="#EC6258" cx="177.304" cy="86.075" r="2.185"/>
			</g>
		</g>
		
			<rect x="151.402" y="109.14" transform="matrix(0.3621 0.9321 -0.9321 0.3621 203.741 -69.3836)" fill="#EC6258" width="2.325" height="10.057"/>
		<g>
			
				<rect x="151.377" y="141.483" transform="matrix(0.3526 0.9358 -0.9358 0.3526 234.8265 -48.6015)" fill="#EC6258" width="2.326" height="7.875"/>
			<g>
				<circle fill="#EC6258" cx="156.122" cy="144.07" r="2.185"/>
			</g>
		</g>
		<g>
			
				<rect x="144.572" y="156.542" transform="matrix(0.9114 0.4114 -0.4114 0.9114 82.6705 -44.9433)" fill="#EC6258" width="2.326" height="26.047"/>
			<g>
				<circle fill="#EC6258" cx="151.045" cy="157.792" r="2.185"/>
			</g>
		</g>
		<g>
			
				<rect x="153.46" y="154.184" transform="matrix(0.3666 0.9304 -0.9304 0.3666 244.1039 -47.8771)" fill="#EC6258" width="7.511" height="2.324"/>
			<g>
				<circle fill="#EC6258" cx="155.879" cy="151.955" r="2.186"/>
			</g>
		</g>
		<g>
			<polygon fill="#EC6258" points="162.012,100.221 158.383,90.713 162.619,81.627 164.727,82.611 160.906,90.803 164.184,99.392 
							"/>
			<g>
				<path fill="#EC6258" d="M165.607,83.141c0.51-1.094,0.035-2.395-1.057-2.903c-1.094-0.511-2.395-0.037-2.906,1.057
					c-0.508,1.093-0.035,2.393,1.059,2.903C163.797,84.708,165.096,84.235,165.607,83.141z"/>
			</g>
		</g>
		<g>
			<polygon fill="#EC6258" points="178.52,146.54 171.65,128.114 174.162,122.396 176.291,123.333 174.158,128.185 180.697,145.727 
							"/>
			<g>
				<circle fill="#EC6258" cx="175.183" cy="122.964" r="2.185"/>
			</g>
		</g>
		<g>
			<polygon fill="#EC6258" points="185.744,136.395 182,126.738 184.168,125.899 185.893,130.345 190.094,120.907 187.781,114.116 
				189.982,113.367 192.588,121.02 			"/>
			<g>
				<circle fill="#EC6258" cx="183.124" cy="126.421" r="2.186"/>
			</g>
			<g>
				<circle fill="#EC6258" cx="188.918" cy="113.845" r="2.185"/>
			</g>
		</g>
		<g>
			<polygon fill="#EC6258" points="196.365,108.808 192.836,99.117 200.936,81.632 203.045,82.609 195.348,99.222 198.549,108.013 
							"/>
			<g>
				<circle fill="#EC6258" cx="201.943" cy="82.22" r="2.185"/>
			</g>
		</g>
		<path fill="#EC6258" d="M185.816,133.371"/>
		<g>
			<polygon fill="#EC6258" points="186.193,134.471 185.443,132.27 194.098,129.323 211.535,91.924 208.803,86.079 210.908,85.094 
				214.102,91.922 195.785,131.203 			"/>
			<g>
				<circle fill="#EC6258" cx="209.902" cy="85.686" r="2.184"/>
			</g>
		</g>
		<g>
			<path fill="#EC6258" d="M213.699,125.697l-0.82,1.768l-7.42,15.912l-9.246,3.362l-7.43,15.932l-1.391,2.984l-7.295,15.643
				l-1.354,2.908l-14.27,30.596c-0.686-0.365-1.371-0.713-2.076-1.031l8.453-18.145l0.01-0.01l3.102-6.658v-0.018l20.551-44.057
				l9.244-3.371l7.016-15.033l0.82-1.769L213.699,125.697z"/>
			<g>
				<circle fill="#EC6258" cx="212.604" cy="125.302" r="2.185"/>
			</g>
		</g>
		<g>
			<polygon fill="#EC6258" points="220.871,122.496 227.531,107.128 229.666,108.053 225.236,118.268 230.35,116.247 
				231.205,118.407 			"/>
			<g>
				<circle fill="#EC6258" cx="228.556" cy="107.69" r="2.185"/>
			</g>
			<g>
				<circle fill="#EC6258" cx="230.676" cy="117.367" r="2.185"/>
			</g>
		</g>
		<g>
			<polygon fill="#EC6258" points="187.236,165.709 186.439,163.526 194.941,160.426 196.799,156.442 198.906,157.424 
				196.643,162.282 			"/>
			<g>
				<circle fill="#EC6258" cx="197.807" cy="157.032" r="2.185"/>
			</g>
		</g>
		<g>
			
				<rect x="180.342" y="178.292" transform="matrix(0.3228 0.9465 -0.9465 0.3228 295.2183 -48.5049)" fill="#EC6258" width="2.324" height="7.503"/>
			<g>
				<circle fill="#EC6258" cx="184.951" cy="180.869" r="2.186"/>
			</g>
		</g>
		<g>
			
				<rect x="188.132" y="178.312" transform="matrix(0.3482 0.9374 -0.9374 0.3482 293.4042 -63.05)" fill="#EC6258" width="7.824" height="2.325"/>
			<g>
				<circle fill="#EC6258" cx="190.721" cy="175.91" r="2.186"/>
			</g>
		</g>
		<g>
			<polygon fill="#EC6258" points="175.932,206.579 175.094,204.411 183.652,201.098 221.787,120.341 218.033,110.873 
				223.643,99.612 225.725,100.649 220.578,110.981 224.32,120.422 185.357,202.93 			"/>
			<g>
				<circle fill="#EC6258" cx="224.635" cy="100.229" r="2.184"/>
			</g>
		</g>
		<g>
			<polygon fill="#EC6258" points="197.918,176.174 196.521,174.317 207.939,165.733 225.152,128.542 231.334,126.143 
				232.176,128.311 226.867,130.371 209.803,167.241 			"/>
			<g>
				<circle fill="#EC6258" cx="231.652" cy="127.266" r="2.185"/>
			</g>
		</g>
		<path fill="#EC6258" d="M238.252,152.387"/>
		<path fill="#EC6258" d="M228.793,155.932"/>
		<g>
			
				<rect x="192.9" y="184.242" transform="matrix(0.3461 0.9382 -0.9382 0.3461 303.3824 -59.0664)" fill="#EC6258" width="2.325" height="7.713"/>
			<g>
				<circle fill="#EC6258" cx="197.578" cy="186.799" r="2.184"/>
			</g>
		</g>
		<g>
			
				<rect x="215.62" y="153.218" transform="matrix(0.3152 0.949 -0.949 0.3152 299.3901 -96.8158)" fill="#EC6258" width="2.324" height="11.665"/>
			<g>
				<path fill="#EC6258" d="M222.902,159.321c1.145-0.379,1.766-1.617,1.385-2.762c-0.379-1.145-1.617-1.766-2.762-1.387
					c-1.146,0.383-1.766,1.619-1.385,2.766C220.52,159.083,221.756,159.702,222.902,159.321z"/>
			</g>
		</g>
		<g>
			
				<rect x="209.473" y="115.405" transform="matrix(0.3554 0.9347 -0.9347 0.3554 247.2087 -120.0375)" fill="#EC6258" width="2.325" height="7.623"/>
			<g>
				<circle fill="#EC6258" cx="214.095" cy="117.9" r="2.185"/>
			</g>
		</g>
		<g>
			<polygon fill="#EC6258" points="158.225,207.653 156.408,208.387 151.123,210.522 151.008,210.571 150.998,210.571 
				150.699,210.696 150.631,210.532 149.83,208.542 152.563,207.44 152.563,207.43 155.539,206.233 157.355,205.499 			"/>
			<g>
				<path fill="#EC6258" d="M158.51,208.645c1.117-0.449,1.658-1.725,1.207-2.842c-0.453-1.119-1.727-1.66-2.846-1.209
					s-1.66,1.727-1.207,2.846C156.115,208.559,157.389,209.1,158.51,208.645z"/>
			</g>
		</g>
		<g>
			
				<rect x="155.94" y="197.615" transform="matrix(0.326 0.9454 -0.9454 0.326 296.2878 -12.7735)" fill="#EC6258" width="2.324" height="7.597"/>
			<g>
				<circle fill="#EC6258" cx="160.59" cy="200.211" r="2.186"/>
			</g>
		</g>
		<g>
			
				<rect x="158.836" y="191.352" transform="matrix(0.3421 0.9397 -0.9397 0.3421 288.7196 -21.8986)" fill="#EC6258" width="2.324" height="7.759"/>
			<g>
				<path fill="#EC6258" d="M164.289,195.997c1.135-0.414,1.719-1.666,1.307-2.803c-0.414-1.131-1.668-1.717-2.801-1.305
					c-1.135,0.412-1.719,1.668-1.307,2.803C161.9,195.825,163.156,196.409,164.289,195.997z"/>
			</g>
		</g>
		<g>
			
				<rect x="189.944" y="190.524" transform="matrix(0.3446 0.9388 -0.9388 0.3446 307.7431 -51.9935)" fill="#EC6258" width="2.324" height="7.737"/>
			<g>
				<path fill="#EC6258" d="M195.389,195.149c1.133-0.414,1.715-1.67,1.299-2.803s-1.672-1.715-2.805-1.301
					c-1.131,0.418-1.713,1.672-1.299,2.805C193,194.983,194.256,195.565,195.389,195.149z"/>
			</g>
		</g>
		<g>
			<polygon fill="#EC6258" points="194.123,183.842 192.688,182.012 205.34,172.088 209.824,174.088 208.879,176.211 
				205.672,174.782 			"/>
			<g>
				<circle fill="#EC6258" cx="209.252" cy="175.105" r="2.187"/>
			</g>
		</g>
	</g>
	<path fill="#EC6258" d="M144.438,95.36v115.037c-8.965,0.541-17.071,4.24-23.235,10c-48.413-38.916-74.15-81.291-63.697-111.211
		c1.903-5.459,5.265-11.256,11.101-16.966c31.93-31.516,64.209-9.613,73.31-2.202C143.52,91.332,144.438,93.292,144.438,95.36z"/>
</g>
</svg>
