<svg width="206" height="197" viewBox="0 0 206 197" fill="none" xmlns="http://www.w3.org/2000/svg">
<g filter="url(#filter0_d)">
<path d="M44.5868 171.567C44.6139 171.739 44.6965 171.898 44.8229 172.022C44.9493 172.147 45.1132 172.23 45.2917 172.261C45.4702 172.292 45.6543 172.268 45.8182 172.194C45.9822 172.12 46.1177 171.999 46.2059 171.847C48.0476 168.695 52.6208 162.761 62.653 158.42C72.129 154.326 64.1691 144.121 56.8108 147.518C48.8757 151.178 42.98 161.233 44.5868 171.567Z" fill="#FDD8EE"/>
<path opacity="0.2" d="M45.7938 170.496C46.2975 169.127 47.0709 167.863 48.0722 166.772C50.5442 163.987 54.1451 160.921 50.6966 162.592C53.03 160.923 55.5539 159.513 58.2197 158.388C62.1543 156.812 54.6436 156.993 54.6436 156.993C54.6436 156.993 63.4151 151.938 62.0596 150.386C60.939 149.113 55.6612 153.116 55.6612 153.116C55.6612 153.116 56.613 149.606 55.6612 149.507C54.7095 149.409 51.5 156.544 51.5 156.544C51.5 156.544 51.8791 154.306 50.7049 154.546C49.5307 154.787 44.4507 165.425 45.7938 170.496Z" fill="#263238"/>
<path d="M39.1607 171.323C39.1558 171.477 39.1001 171.626 39.0015 171.748C38.9029 171.871 38.7664 171.96 38.6116 172.004C38.4567 172.047 38.2914 172.043 38.1392 171.992C37.987 171.94 37.8557 171.844 37.764 171.717C35.8359 169.093 31.2421 164.278 21.9927 161.319C13.2706 158.53 19.2735 148.869 26.0797 151.225C33.4133 153.751 39.5768 162.092 39.1607 171.323Z" fill="#FDD8EE"/>
<path opacity="0.2" d="M37.8505 169.869C37.27 168.753 36.4715 167.754 35.498 166.926C33.0672 164.802 29.6764 162.553 32.7953 163.632C30.6228 162.448 28.3175 161.501 25.9231 160.811C22.4005 159.877 28.8071 159.271 28.8071 159.271C28.8071 159.271 20.7772 155.847 21.7619 154.385C22.5859 153.203 27.5299 156.075 27.5299 156.075C27.5299 156.075 26.3269 153.179 27.1179 153.002C27.9089 152.825 31.448 158.565 31.448 158.565C31.448 158.565 30.8712 156.698 31.8971 156.788C32.923 156.879 38.4273 165.417 37.8505 169.869Z" fill="black"/>
<path d="M26.4341 157.005C26.4341 157.005 36.3468 161.733 39.9559 175.972" stroke="#263238" stroke-width="0.75" stroke-linecap="round" stroke-linejoin="round"/>
<path d="M42.778 171.867C42.673 172.055 42.5092 172.207 42.3095 172.303C42.1098 172.398 41.8841 172.431 41.6636 172.399C41.4431 172.366 41.2388 172.268 41.079 172.119C40.9191 171.97 40.8117 171.777 40.7716 171.567C39.997 167.166 37.2325 158.498 27.4187 149.562C18.161 141.139 31.86 132.301 38.9547 139.102C46.6302 146.43 49.1393 160.433 42.778 171.867Z" fill="#FDD8EE"/>
<path opacity="0.2" d="M41.7728 170.106C41.7081 168.289 41.2773 166.502 40.5038 164.842C38.6086 160.63 35.5186 155.705 38.9959 158.912C36.8503 156.099 34.376 153.529 31.6211 151.253C27.5011 148.01 36.458 150.827 36.458 150.827C36.458 150.827 27.9172 141.706 30.1667 140.319C32.0125 139.181 36.7587 145.835 36.7587 145.835C36.7587 145.835 36.9977 141.288 38.176 141.501C39.3543 141.714 40.4091 151.383 40.4091 151.383C40.4091 151.383 40.8211 148.566 42.1436 149.263C43.4661 149.96 45.3819 164.487 41.7728 170.106Z" fill="#263238"/>
<path d="M35.7534 146.619C35.7534 146.619 45.2747 158.183 40.8457 178.187" stroke="#263238" stroke-width="0.75" stroke-linecap="round" stroke-linejoin="round"/>
<path d="M57.128 154.054C57.128 154.054 46.5561 160.492 44.2654 176.882" stroke="#263238" stroke-width="0.75" stroke-linecap="round" stroke-linejoin="round"/>
<path d="M48.5584 183.604H35.3744C34.6672 183.609 33.9826 183.366 33.4508 182.92C32.9191 182.473 32.5773 181.856 32.4904 181.185L31.79 175.413C31.7761 175.285 31.7906 175.156 31.8323 175.034C31.8741 174.912 31.9423 174.8 32.0325 174.704C32.1227 174.609 32.2328 174.533 32.3557 174.482C32.4786 174.43 32.6116 174.403 32.7459 174.404H51.154C51.2883 174.403 51.4213 174.43 51.5442 174.482C51.6671 174.533 51.7773 174.609 51.8674 174.704C51.9576 174.8 52.0258 174.912 52.0676 175.034C52.1094 175.156 52.1238 175.285 52.1099 175.413L51.4095 181.185C51.3233 181.851 50.9862 182.464 50.4614 182.909C49.9366 183.354 49.26 183.601 48.5584 183.604Z" fill="white" stroke="#263238" stroke-miterlimit="10"/>
<path d="M35.0779 177.142H33.092" stroke="#263238" stroke-linecap="round" stroke-linejoin="round"/>
<path d="M50.948 177.142H37.2407" stroke="#263238" stroke-linecap="round" stroke-linejoin="round"/>
<path d="M165.356 162.943C165.393 163.006 165.047 163.317 166.18 163.364C168.986 163.482 173.955 163.317 175.829 160.878C178.503 157.399 172.36 157.702 172.945 155.78C173.53 153.857 180.143 155.449 181.441 152.707C182.739 149.964 177.935 150.488 178.145 149.078C178.355 147.667 183.402 149.507 185.071 146.6C186.739 143.692 182.335 145.24 183.052 144.035C183.769 142.829 189.368 137.825 187.11 136.698C184.852 135.571 179.632 140.8 177.893 141.355C176.155 141.911 175.78 136.769 173.497 138.483C171.215 140.197 172.673 147.967 170.033 148.92C168.055 149.633 169.143 146.856 166.704 146.95C163.391 147.092 162.266 157.97 165.356 162.943Z" fill="#FDD8EE"/>
<g opacity="0.1">
<path opacity="0.1" d="M165.356 162.943C165.393 163.006 165.047 163.317 166.18 163.364C168.986 163.482 173.955 163.317 175.829 160.878C178.503 157.399 172.36 157.702 172.945 155.78C173.53 153.857 180.143 155.449 181.441 152.707C182.739 149.964 177.935 150.488 178.145 149.078C178.355 147.667 183.402 149.507 185.071 146.6C186.739 143.692 182.335 145.24 183.052 144.035C183.769 142.829 189.368 137.825 187.11 136.698C184.852 135.571 179.632 140.8 177.893 141.355C176.155 141.911 175.78 136.769 173.497 138.483C171.215 140.197 172.673 147.967 170.033 148.92C168.055 149.633 169.143 146.856 166.704 146.95C163.391 147.092 162.266 157.97 165.356 162.943Z" fill="black"/>
</g>
<path d="M176.513 146.962C176.513 146.962 165.624 154.101 163.23 172.269" stroke="#263238" stroke-width="0.75" stroke-linecap="round" stroke-linejoin="round"/>
<path d="M178.178 149.204C175.545 148.664 173.934 149.161 173.934 149.161" stroke="#263238" stroke-width="0.75" stroke-linecap="round" stroke-linejoin="round"/>
<path d="M175.195 141.698C175.195 141.698 171.899 145.886 171.899 151.347" stroke="#263238" stroke-width="0.75" stroke-linecap="round" stroke-linejoin="round"/>
<path d="M168.669 155.957C168.669 155.957 171.029 153.837 174.157 154.921" stroke="#263238" stroke-width="0.75" stroke-linecap="round" stroke-linejoin="round"/>
<path d="M166.967 159.176C166.179 157.036 165.988 154.738 166.411 152.506" stroke="#263238" stroke-width="0.75" stroke-linecap="round" stroke-linejoin="round"/>
<path d="M162.027 165.736C159.716 165.779 155.769 163.727 154.22 161.729C152.671 159.732 157.071 160.941 156.618 159.365C156.165 157.789 150.71 158.951 149.704 156.674C148.699 154.397 152.634 154.921 152.477 153.755C152.321 152.588 148.246 152.825 146.936 150.406C145.626 147.986 149.214 149.342 148.65 148.337C148.085 147.332 143.594 143.109 145.473 142.226C147.352 141.344 151.567 145.748 152.98 146.237C154.393 146.726 154.718 143.688 156.556 145.142C158.393 146.596 157.017 152.951 159.18 153.79C160.787 154.413 160.103 151.505 161.957 152.238C165.212 153.526 162.967 165.72 162.027 165.736Z" fill="#FDD8EE"/>
<g opacity="0.3">
<path opacity="0.3" d="M162.027 165.736C159.716 165.779 155.769 163.727 154.22 161.729C152.671 159.732 157.071 160.941 156.618 159.365C156.165 157.789 150.71 158.951 149.704 156.674C148.699 154.397 152.634 154.921 152.477 153.755C152.321 152.588 148.246 152.825 146.936 150.406C145.626 147.986 149.214 149.342 148.65 148.337C148.085 147.332 143.594 143.109 145.473 142.226C147.352 141.344 151.567 145.748 152.98 146.237C154.393 146.726 154.718 143.688 156.556 145.142C158.393 146.596 157.017 152.951 159.18 153.79C160.787 154.413 160.103 151.505 161.957 152.238C165.212 153.526 162.967 165.72 162.027 165.736Z" fill="white"/>
</g>
<path d="M150.875 146.962C150.875 146.962 162.411 157.769 163.061 173.923" stroke="#263238" stroke-width="0.75" stroke-linecap="round" stroke-linejoin="round"/>
<path d="M150.594 151.978C152.254 151.966 153.899 152.28 155.427 152.9V152.9" stroke="#263238" stroke-width="0.75" stroke-linecap="round" stroke-linejoin="round"/>
<path d="M154.912 146.257C154.912 146.257 157.504 150.149 157.038 154.956" stroke="#263238" stroke-width="0.75" stroke-linecap="round" stroke-linejoin="round"/>
<path d="M158.698 157.679C158.069 157.124 157.305 156.73 156.475 156.532C155.645 156.333 154.776 156.338 153.948 156.544" stroke="#263238" stroke-width="0.75" stroke-linecap="round" stroke-linejoin="round"/>
<path d="M160.795 162.163C161.661 160.333 162.013 158.319 161.817 156.32" stroke="#263238" stroke-width="0.75" stroke-linecap="round" stroke-linejoin="round"/>
<path d="M152.028 173.667C152.028 179.274 157.116 183.809 163.391 183.809C169.666 183.809 174.77 179.27 174.77 173.667C174.77 170.515 171.153 167.686 168.001 165.827H158.814C155.662 167.686 152.028 170.511 152.028 173.667Z" fill="white" stroke="#263238" stroke-miterlimit="10"/>
<path d="M156.568 174.089H154.583" stroke="#263238" stroke-linecap="round" stroke-linejoin="round"/>
<path d="M172.439 174.089H158.731" stroke="#263238" stroke-linecap="round" stroke-linejoin="round"/>
<path d="M147.694 32.4538V28.301" stroke="#263238" stroke-linecap="round" stroke-linejoin="round"/>
<path d="M149.297 31.2048L147.702 32.7296L146.108 31.2048" stroke="#263238" stroke-linecap="round" stroke-linejoin="round"/>
<path d="M149.68 27.3594H145.745" stroke="#263238" stroke-linecap="round" stroke-linejoin="round"/>
<path d="M146.429 24.7826C146.828 24.6972 147.236 24.6536 147.644 24.6526C148.89 24.6556 150.098 25.0631 151.071 25.8084C152.043 26.5537 152.722 27.5926 152.996 28.755C153.27 29.9173 153.124 31.1343 152.58 32.2066C152.037 33.2789 151.128 34.1429 150.005 34.6572C148.881 35.1715 147.607 35.3056 146.393 35.0375C145.179 34.7694 144.096 34.1151 143.322 33.1816C142.547 32.2481 142.127 31.0908 142.13 29.8992C142.134 28.7076 142.56 27.5523 143.339 26.6226" stroke="#263238" stroke-linecap="round" stroke-linejoin="round"/>
<path d="M144.612 25.5352C144.844 25.3878 145.086 25.2561 145.337 25.1412" stroke="#263238" stroke-linecap="round" stroke-linejoin="round"/>
<path d="M55.9085 27.5209H64.3998V31.6737H51.4465V27.5209H52.4477" stroke="#263238" stroke-linecap="round" stroke-linejoin="round"/>
<path d="M53.6467 27.5209H54.8539" stroke="#263238" stroke-linecap="round" stroke-linejoin="round"/>
<path d="M60.4199 35.3615L57.9232 37.7491L55.4224 35.3615H56.5924V32.9542H59.2498V35.3615H60.4199Z" stroke="#263238" stroke-linecap="round" stroke-linejoin="round"/>
<path d="M124.968 149.157H133.748L127.444 156.067L121.14 149.157H122.99" stroke="#263238" stroke-linecap="round" stroke-linejoin="round"/>
<path d="M127.444 143.715H131.486L127.444 148.148L123.402 143.715H125.384" stroke="#263238" stroke-linecap="round" stroke-linejoin="round"/>
<path d="M187.983 41.4488H17.3452V133.566H187.983V41.4488Z" fill="#BFBFBF" stroke="#263238" stroke-linecap="round" stroke-linejoin="round"/>
<path d="M186.195 43.2494H19.1333V131.809H186.195V43.2494Z" fill="#FDD8EE"/>
<path opacity="0.9" d="M186.195 43.2494H19.1333V131.809H186.195V43.2494Z" fill="white" stroke="#263238" stroke-miterlimit="10"/>
<path d="M186.195 43.2494H19.1333V131.809H186.195V43.2494Z" stroke="#263238" stroke-miterlimit="10"/>
<path d="M186.195 43.1902H19.1333V52.2838H186.195V43.1902Z" fill="#FDD8EE" stroke="#263238" stroke-linecap="round" stroke-linejoin="round"/>
<path opacity="0.2" d="M151.929 44.9633H131.498V50.5029H151.929V44.9633Z" fill="black"/>
<path d="M147.657 46.0901H134.934V49.5336H147.657V46.0901Z" fill="white" stroke="#263238" stroke-linecap="round" stroke-linejoin="round"/>
<path d="M55.826 46.0901H30.3108V49.5336H55.826V46.0901Z" fill="white" stroke="#263238" stroke-linecap="round" stroke-linejoin="round"/>
<path d="M128.087 46.0901H115.364V49.5336H128.087V46.0901Z" fill="white" stroke="#263238" stroke-linecap="round" stroke-linejoin="round"/>
<path d="M167.227 46.0901H154.504V49.5336H167.227V46.0901Z" fill="white" stroke="#263238" stroke-linecap="round" stroke-linejoin="round"/>
<path d="M43.3878 82.1293C50.1981 82.1293 55.719 76.9273 55.719 70.5102C55.719 64.0932 50.1981 58.8912 43.3878 58.8912C36.5775 58.8912 31.0566 64.0932 31.0566 70.5102C31.0566 76.9273 36.5775 82.1293 43.3878 82.1293Z" fill="#FDD8EE" stroke="#263238" stroke-linecap="round" stroke-linejoin="round"/>
<path d="M31.4355 86.5854H55.5993" stroke="#263238" stroke-width="2" stroke-linecap="round" stroke-linejoin="round"/>
<path d="M42.432 92.3339H36.2891V95.5962H42.432V92.3339Z" fill="#263238" stroke="#263238" stroke-linecap="round" stroke-linejoin="round"/>
<path d="M48.5708 98.6616H36.2891V101.924H48.5708V98.6616Z" fill="#263238" stroke="#263238" stroke-linecap="round" stroke-linejoin="round"/>
<path d="M45.5508 104.989H36.2891V108.252H45.5508V104.989Z" fill="#263238" stroke="#263238" stroke-linecap="round" stroke-linejoin="round"/>
<path d="M49.918 111.317H36.2891V114.579H49.918V111.317Z" fill="#263238" stroke="#263238" stroke-linecap="round" stroke-linejoin="round"/>
<path d="M179.83 57.52H62.0554V126.375H179.83V57.52Z" fill="white" stroke="#263238" stroke-linecap="round" stroke-linejoin="round"/>
<path d="M173.473 75.2501H152.201V110.024H173.473V75.2501Z" fill="#BFBFBF" stroke="#263238" stroke-linecap="round" stroke-linejoin="round"/>
<path d="M156.391 80.1278H169.287" stroke="#263238" stroke-width="2" stroke-linecap="round" stroke-linejoin="round"/>
<path d="M156.391 91.4711H169.287" stroke="#263238" stroke-width="2" stroke-linecap="round" stroke-linejoin="round"/>
<path d="M156.391 102.81H169.287" stroke="#263238" stroke-width="2" stroke-linecap="round" stroke-linejoin="round"/>
<path d="M152.201 52.142H130.929V86.9164H152.201V52.142Z" fill="#BFBFBF" stroke="#263238" stroke-linecap="round" stroke-linejoin="round"/>
<path opacity="0.2" d="M150.17 77.0664H133.183V82.606H150.17V77.0664Z" fill="white"/>
<path d="M135.235 57.1261H148.13" stroke="#263238" stroke-width="2" stroke-linecap="round" stroke-linejoin="round"/>
<path d="M135.235 68.4654H148.13" stroke="#263238" stroke-width="2" stroke-linecap="round" stroke-linejoin="round"/>
<path d="M135.235 79.8087H148.13" stroke="#FDD8EE" stroke-width="2" stroke-linecap="round" stroke-linejoin="round"/>
<path d="M150.916 82.9804L149.441 83.8511L150.479 85.4192L149.132 86.2151L148.093 84.647L146.701 85.4665L146.169 80.2499L150.916 82.9804Z" fill="white" stroke="#263238" stroke-linecap="round" stroke-linejoin="round"/>
<path d="M102.407 88.7445L103.874 83.4649C99.3704 80.4942 94.7766 76.3729 90.6031 72.8269C88.7529 71.181 87.047 69.3928 85.5025 67.4803L78.5438 59.3521C77.3078 57.8943 74.2549 52.7408 71.1278 55.1403C68.8783 56.6138 68.8577 61.8383 70.1019 64.9903C71.4121 68.3196 72.9447 70.3605 75.6474 72.4053C78.3502 74.4502 85.2924 81.4201 86.4501 82.2947C91.3076 85.9905 96.6224 87.7044 102.407 88.7445Z" fill="#263238"/>
<path d="M102.407 88.7445L103.874 83.4649C99.3704 80.4942 94.7766 76.3729 90.6031 72.8269C88.7529 71.181 87.047 69.3928 85.5025 67.4803L78.5438 59.3521C77.3078 57.8943 74.2549 52.7408 71.1278 55.1403C68.8783 56.6138 68.8577 61.8383 70.1019 64.9903C71.4121 68.3196 72.9447 70.3605 75.6474 72.4053C78.3502 74.4502 85.2924 81.4201 86.4501 82.2947C91.3076 85.9905 96.6224 87.7044 102.407 88.7445Z" stroke="#263238" stroke-width="0.920831" stroke-linecap="round" stroke-linejoin="round"/>
<path d="M111.949 60.7784L111.829 61.3813C111.829 61.334 112.443 60.9873 112.756 61.133C112.957 61.2399 113.141 61.3725 113.304 61.527L113.964 60.6918L112.637 60.416L111.949 60.7784Z" fill="#263238" stroke="#263238" stroke-linecap="round" stroke-linejoin="round"/>
<path d="M112.637 60.4041L111.949 60.7784C111.855 61.1139 111.805 61.4594 111.801 61.8067C111.821 62.1692 112.456 62.4253 112.802 62.5711C113.362 62.3465 114.207 61.7831 114.767 61.5467C115.591 60.609 116.201 61.8383 115.443 63.0478C115.443 63.0478 113.411 64.4741 111.974 65.2739C110.988 65.4083 110.013 65.6004 109.052 65.8492C108.529 64.9745 107.034 63.0321 107.034 63.0321C107.701 62.5829 109.469 59.3127 110.396 58.2647L113.259 58.0992C114.108 58.044 114.351 58.7257 115.113 59.62L112.637 60.4041Z" fill="#757575" stroke="#263238" stroke-linecap="round" stroke-linejoin="round"/>
<path d="M110.552 58.2568L114.585 57.784C116.53 57.851 118.252 58.0046 119.426 58.572C119.628 58.6705 119.88 58.706 119.999 58.8872C120.201 59.1906 119.958 59.3955 119.608 59.5294C119.219 59.657 118.802 59.6815 118.401 59.6003C117.659 59.4467 115.105 59.6003 115.105 59.6003C113.99 59.8163 112.921 60.2077 111.94 60.7587" fill="#757575"/>
<path d="M110.552 58.2568L114.585 57.784C116.53 57.851 118.252 58.0046 119.426 58.572C119.628 58.6705 119.88 58.706 119.999 58.8872C120.201 59.1906 119.958 59.3955 119.608 59.5294C119.219 59.657 118.802 59.6815 118.401 59.6003C117.659 59.4467 115.105 59.6003 115.105 59.6003C113.99 59.8163 112.921 60.2077 111.94 60.7587" stroke="#263238" stroke-linecap="round" stroke-linejoin="round"/>
<path d="M115.055 60.9163C115.036 61.1263 114.939 61.3229 114.783 61.4719C114.256 61.7713 113.589 62.1614 113.032 62.4056C112.698 62.276 112.387 62.098 112.11 61.8777L111.805 61.6295C111.85 61.4049 112.241 61.1606 112.476 61.1133C112.888 61.0306 113.3 61.5073 113.3 61.5073C113.024 61.2079 113.135 61.3261 113.135 61.3261C113.053 61.2867 112.999 61.2276 112.917 61.1882C112.947 61.0736 113.014 60.9705 113.107 60.8927C113.346 60.9391 113.595 60.9101 113.815 60.8099C113.477 61.0582 112.938 60.6248 112.633 60.3962L115.055 60.9163Z" fill="#757575" stroke="#263238" stroke-linecap="round" stroke-linejoin="round"/>
<path d="M109.975 66.4757L106.869 61.8068C101.072 63.7768 94.274 65.073 88.2918 66.4126C85.622 67.0115 91.1469 76.5187 92.729 76.0853C99.3416 74.2769 104.751 70.7978 109.975 66.4757Z" fill="#263238"/>
<path opacity="0.4" d="M88.2916 66.4126C87.1729 66.658 86.0409 66.8448 84.9009 66.9721L91.361 76.3611C92.0038 76.2469 92.4776 76.1523 92.7289 76.0853C99.3415 74.2769 104.751 70.7978 109.975 66.4757L106.869 61.8068C101.072 63.7807 94.2739 65.073 88.2916 66.4126Z" fill="black" stroke="#263238" stroke-linecap="round" stroke-linejoin="round"/>
<path d="M109.975 66.4757L106.869 61.8068C101.072 63.7768 94.274 65.073 88.2918 66.4126C85.622 67.0115 91.1469 76.5187 92.729 76.0853C99.3416 74.2769 104.751 70.7978 109.975 66.4757Z" stroke="#263238" stroke-linecap="round" stroke-linejoin="round"/>
<path d="M67.597 183.655L72.1784 183.777H72.4338H76.6321C78.173 183.777 77.9794 182.706 78.1565 181.248C78.3708 179.471 77.3696 177.631 77.3696 177.631H70.3079C70.0543 178.022 69.8418 178.437 69.6734 178.868C65.8789 181.465 67.597 183.655 67.597 183.655Z" fill="#263238" stroke="#263238" stroke-linecap="round" stroke-linejoin="round"/>
<path d="M102.024 183.655L97.6976 183.773H97.195H93.3139C91.4888 183.773 91.4064 182.371 91.4434 180.621C91.5056 179.572 91.7991 178.548 92.3045 177.615H99.6834C99.978 178.049 100.221 178.513 100.409 178.998C104.166 182.461 102.024 183.655 102.024 183.655Z" fill="#263238" stroke="#263238" stroke-linecap="round" stroke-linejoin="round"/>
<path d="M97.6894 183.773H97.3886H97.1868H97.6894Z" fill="#263238" stroke="#263238" stroke-linecap="round" stroke-linejoin="round"/>
<path d="M107.038 109.378C107.038 109.378 104.887 146.02 103.643 152.427C103.264 154.397 101.443 168.096 101.171 171C101.171 171 101.731 173.596 101.208 175.728L100.693 176.859C99.8153 178.612 92.0903 178.695 91.8307 178.218C91.5712 177.741 90.5659 177.631 91.7401 170.968C91.8678 170.228 92.0738 162.387 92.4034 151.879C92.5105 148.432 93.0132 145.729 92.6053 137.045C92.6053 136.651 90.5741 114.146 90.5453 113.76L90.1333 113.913C90.0838 114.355 90.0426 114.776 89.9973 115.178C89.797 117.115 89.4318 119.034 88.9055 120.915L81.4895 147.313V152.112C81.6049 157.955 81.0775 164.897 79.3883 170.523L79.5531 171.989C79.8621 174.747 80.5254 177.93 77.2954 178.462L70.7034 178.766C69.6074 178.766 68.3632 178.659 68.4332 177.619L69.0636 173.36C70.415 168.439 69.9494 152.703 70.1801 147.62L72.924 109.737L74.5308 98.5078L105.933 97.8932L107.038 109.378Z" fill="#FDD8EE"/>
<path opacity="0.2" d="M90.0549 104.181C84.9585 104.575 79.6354 103.685 73.7273 101.817C73.6438 101.781 73.5673 101.732 73.5007 101.672C73.5007 101.672 85.5929 102.401 106.288 99.5126C106.288 99.5126 103.882 100.068 98.9829 102.066C96.1471 103.231 93.1314 103.945 90.0549 104.181Z" fill="black"/>
<path opacity="0.2" d="M78.9888 113.941C80.3813 116.273 84.2624 116.269 85.692 118.578C87.0557 120.777 87.752 124.689 86.7591 128.578L88.0198 124.075C89.4659 121.711 89.1281 120.107 89.6678 117.467C89.7502 117.073 89.9768 114.449 90.1169 113.921C90.1169 113.921 86.4089 114.839 86.0999 114.851C83.047 114.961 81.8068 114.611 78.9888 113.941Z" fill="black"/>
<path opacity="0.2" d="M93.1655 136.273C93.2726 137.549 93.4745 138.869 94.2202 139.929C94.9659 140.989 96.4121 141.698 97.6687 141.273C98.2784 141.064 98.7893 140.619 99.4526 140.571C99.6459 140.548 99.8419 140.582 100.014 140.669C100.187 140.755 100.327 140.891 100.417 141.056C100.47 141.198 100.479 141.351 100.444 141.497C100.409 141.644 100.331 141.778 100.219 141.883C99.7204 142.514 99.0077 142.99 98.6204 143.688C98.2331 144.385 98.3814 145.469 99.1807 145.682C98.3814 145.658 97.2855 145.902 97.3391 146.663C97.3926 147.529 98.9871 147.845 98.8429 148.684C97.208 150.641 96.1586 152.986 95.8064 155.468C95.0525 160.795 97.6645 165.917 96.7664 171.083C96.6858 171.488 96.7622 171.907 96.9813 172.263C97.2004 172.618 97.5473 172.885 97.9571 173.013C98.0151 173.03 98.0743 173.043 98.1342 173.053C96.6198 173.53 95.036 173.774 93.4415 173.778C92.7494 174.542 96.8859 178.399 96.8817 177.938C96.8817 177.883 95.003 178.793 94.9453 178.785C92.6052 178.419 91.7565 179.408 89.9684 177.209C89.5813 176.728 89.3226 176.164 89.2144 175.566C85.5311 155.378 91.5752 130.962 90.7594 114.102C90.7924 114.26 95.7034 115.927 99.2549 114.374C100.24 113.949 96.4697 117.601 95.1555 121.632C93.6063 126.344 92.737 131.32 93.1655 136.273Z" fill="black"/>
<path opacity="0.2" d="M80.2823 141.99C79.9623 142.518 79.4885 142.947 78.9186 143.223C77.868 143.617 73.7398 138.692 72.6727 138.341C73.9952 142.262 76.4837 143.877 77.765 145.93C77.9848 146.206 78.093 146.549 78.0699 146.895C77.835 148.077 73.5832 147.017 73.2083 148.168C74.1394 148.995 77.4313 149.491 78.4984 148.833C79.4789 157.368 77.3077 166.717 72.1536 173.75C73.4143 174.278 74.7821 173.537 75.8121 172.663C75.841 174.633 74.2877 177.639 72.6933 178.785C74.5967 179.179 78.1729 178.545 79.4171 177.111C81.0651 175.204 79.792 172.355 79.9486 169.885C80.0269 168.628 80.5007 167.43 80.8921 166.233C82.3808 161.68 82.7779 156.866 82.0539 152.147C81.8067 150.547 81.4318 148.94 81.5554 147.324C81.679 145.709 82.3217 144.09 82.915 142.529C83.3929 141.269 87.241 132.124 85.7578 132.144C85.7578 132.144 81.2423 140.658 80.2823 141.99Z" fill="black"/>
<path d="M107.038 109.378C107.038 109.378 104.887 146.02 103.643 152.427C103.264 154.397 101.443 168.096 101.171 171C101.171 171 101.731 173.596 101.208 175.728L100.693 176.859C99.8153 178.612 92.0903 178.695 91.8307 178.218C91.5712 177.741 90.5659 177.631 91.7401 170.968C91.8678 170.228 92.0738 162.387 92.4034 151.879C92.5105 148.432 93.0132 145.729 92.6053 137.045C92.6053 136.651 90.5741 114.146 90.5453 113.76L90.1333 113.913C90.0838 114.355 90.0426 114.776 89.9973 115.178C89.797 117.115 89.4318 119.034 88.9055 120.915L81.4895 147.313V152.112C81.6049 157.955 81.0775 164.897 79.3883 170.523L79.5531 171.989C79.8621 174.747 80.5254 177.93 77.2954 178.462L70.7034 178.766C69.6074 178.766 68.3632 178.659 68.4332 177.619L69.0636 173.36C70.415 168.439 69.9494 152.703 70.1801 147.62L72.924 109.737L74.5308 98.5078L105.933 97.8932L107.038 109.378Z" stroke="#263238" stroke-linecap="round" stroke-linejoin="round"/>
<path d="M85.7539 51.1333L88.6585 44.2383L87.6779 38.1628L88.6585 31.52L94.6819 29.349L99.6589 29.3096L101.431 30.7556L101.908 32.769C101.908 32.769 103.486 38.084 102.938 38.9666C102.39 39.8491 101.946 40.7041 101.946 40.7041C101.946 40.7041 103.14 43.3163 103.182 44.3644C103.239 45.6173 101.682 44.455 101.175 45.8773C100.668 47.2997 100.252 50.6053 98.3982 50.499C96.5442 50.3926 95.5513 50.2665 95.1022 51.7676C94.6531 53.2688 93.5283 57.3624 93.5283 57.3624L85.7539 51.1333Z" fill="#757575"/>
<path opacity="0.3" d="M93.3099 35.6373C93.211 37.1542 93.8537 38.3953 92.8361 41.1533C92.8361 41.1533 92.0821 39.3684 91.118 39.3487C90.9436 39.331 90.7672 39.3506 90.6017 39.4062C90.4361 39.4617 90.2856 39.5518 90.1609 39.6698C90.0363 39.7879 89.9407 39.931 89.8811 40.0887C89.8214 40.2465 89.7992 40.415 89.8161 40.582C89.8161 41.3424 90.1498 42.288 90.8585 42.6583C90.8585 42.6583 90.0592 44.455 89.882 45.1405C89.4123 45.1405 88.646 44.2462 88.646 44.2462L87.7561 38.5529C89.4802 37.3743 91.3445 36.3956 93.3099 35.6373Z" fill="black"/>
<path d="M85.7539 51.1333L88.6585 44.2383L87.6779 38.1628L88.6585 31.52L94.6819 29.349L99.6589 29.3096L101.431 30.7556L101.908 32.769C101.908 32.769 103.486 38.084 102.938 38.9666C102.39 39.8491 101.946 40.7041 101.946 40.7041C101.946 40.7041 103.14 43.3163 103.182 44.3644C103.239 45.6173 101.682 44.455 101.175 45.8773C100.668 47.2997 100.252 50.6053 98.3982 50.499C96.5442 50.3926 95.5513 50.2665 95.1022 51.7676C94.6531 53.2688 93.5283 57.3624 93.5283 57.3624L85.7539 51.1333Z" stroke="#263238" stroke-linecap="round" stroke-linejoin="round"/>
<path d="M100.454 40.2234C100.4 40.5859 100.17 40.8578 99.9388 40.8263C99.7081 40.7947 99.5598 40.4756 99.6175 40.1131C99.6751 39.7506 99.9017 39.4788 100.132 39.5103C100.363 39.5418 100.528 39.861 100.454 40.2234Z" fill="#263238"/>
<path d="M98.707 38.5529C98.707 38.5529 99.976 36.8587 101.591 38.1983" stroke="#263238" stroke-linecap="round" stroke-linejoin="round"/>
<path d="M99.3292 46.1413C98.8854 46.0992 98.4598 45.9508 98.0918 45.7098C97.7238 45.4687 97.4253 45.1429 97.2239 44.7623" stroke="#263238" stroke-linecap="round" stroke-linejoin="round"/>
<path d="M97.8666 50.432C97.8666 50.432 93.9279 48.5486 92.9226 47.28L95.1268 51.7558C95.1268 51.7558 95.3781 49.6794 97.8666 50.432Z" fill="#263238" stroke="#263238" stroke-linecap="round" stroke-linejoin="round"/>
<path d="M83.7886 51.8307C83.7886 51.8307 86.0093 51.7558 89.5277 51.9016C92.2221 52.0545 94.9063 52.3399 97.57 52.7566C97.57 52.7566 96.6553 49.9986 94.1215 49.7977C91.5877 49.5967 85.7003 49.5849 85.7003 49.5849L83.7886 51.8307Z" fill="white" stroke="#263238" stroke-linecap="round" stroke-linejoin="round"/>
<path d="M105.884 74.7063L105.678 76.1838C104.822 82.2788 105.055 88.4686 106.366 94.4891L107.417 99.3431C107.417 99.3431 98.3527 101.278 92.4487 101.924C78.9351 103.405 72.166 101.388 72.166 101.388C72.0937 99.0319 72.308 96.6757 72.8046 94.3669C76.4302 77.8977 69.7022 57.7249 71.4656 55.156C72.7799 53.2294 83.7514 51.7755 83.7514 51.7755C83.7514 51.7755 93.8619 51.5036 97.5575 52.7329L98.0107 53.0048C102.93 54.6123 106.832 56.342 108.953 57.7879L108.175 59.6437C108.146 60.5538 105.884 74.7063 105.884 74.7063Z" fill="#263238"/>
<path d="M70.6212 79.8638C70.6212 79.8638 72.2403 85.0449 70.5635 88.6539L73.2456 89.4419C73.2456 89.4419 73.8554 85.0843 73.4804 81.5619L70.6212 79.8638Z" fill="#FDD8EE"/>
<path opacity="0.6" d="M70.6212 79.8638C70.6212 79.8638 72.2403 85.0449 70.5635 88.6539L73.2456 89.4419C73.2456 89.4419 73.8554 85.0843 73.4804 81.5619L70.6212 79.8638Z" fill="white"/>
<g opacity="0.2">
<path opacity="0.2" d="M82.6021 81.558C83.1089 82.5706 83.6238 83.6304 83.6032 84.7533C83.5497 87.2789 80.917 88.9691 78.5851 90.2142C83.7809 88.5622 89.2863 87.9926 94.7314 88.5436C93.3429 88.4018 90.8792 85.8368 89.8286 84.9976C88.1652 83.6589 86.578 82.2359 85.0741 80.7345C82.2212 77.9326 79.706 74.8334 77.5757 71.4952C79.2196 74.86 80.9252 78.2011 82.6021 81.558Z" fill="black"/>
</g>
<g opacity="0.2">
<path opacity="0.2" d="M93.858 84.0441C95.1157 84.275 96.4127 84.2186 97.6433 83.8797C98.874 83.5408 100.004 82.929 100.94 82.0938C99.7373 81.3649 98.1676 81.8338 96.7462 81.9993C95.1222 82.1742 93.4795 81.9108 92.004 81.2389C91.386 80.9552 89.0418 78.8 88.4155 79.2176C86.5409 80.4509 92.964 83.8747 93.858 84.0441Z" fill="black"/>
</g>
<g opacity="0.2">
<path opacity="0.2" d="M98.4683 92.4521C97.3806 92.5112 95.5843 91.4908 94.4348 91.2701C92.9865 91.0012 91.5141 90.8692 90.0387 90.8761C86.7849 90.9657 83.5656 91.54 80.4968 92.5782C81.5474 94.1542 87.3443 93.0628 89.0705 92.9722L98.4683 92.4521Z" fill="black"/>
</g>
<path d="M105.884 74.7063L105.678 76.1838C104.822 82.2788 105.055 88.4686 106.366 94.4891L107.417 99.3431C107.417 99.3431 98.3527 101.278 92.4487 101.924C78.9351 103.405 72.166 101.388 72.166 101.388C72.0937 99.0319 72.308 96.6757 72.8046 94.3669C76.4302 77.8977 69.7022 57.7249 71.4656 55.156C72.7799 53.2294 83.7514 51.7755 83.7514 51.7755C83.7514 51.7755 93.8619 51.5036 97.5575 52.7329L98.0107 53.0048C102.93 54.6123 106.832 56.342 108.953 57.7879L108.175 59.6437C108.146 60.5538 105.884 74.7063 105.884 74.7063Z" stroke="#263238" stroke-linecap="round" stroke-linejoin="round"/>
<path d="M76.3191 69.2415C80.13 77.085 86.2529 83.6936 93.9362 88.256" stroke="#757575" stroke-linecap="round" stroke-linejoin="round"/>
<path d="M75.6062 67.6931C75.7463 68.0241 75.7504 68.0241 75.8987 68.3472" stroke="#757575" stroke-linecap="round" stroke-linejoin="round"/>
<path d="M74.572 65.01C74.7574 65.538 74.9552 66.062 75.1653 66.586" stroke="#757575" stroke-linecap="round" stroke-linejoin="round"/>
<path d="M88.9922 81.952C90.2423 83.2302 91.8402 84.1498 93.6066 84.6075C96.1816 85.2143 99.2633 84.312 100.499 82.0977" stroke="#757575" stroke-linecap="round" stroke-linejoin="round"/>
<path d="M87.4141 80.1592C87.6695 80.502 87.9373 80.8369 88.2381 81.164" stroke="#757575" stroke-linecap="round" stroke-linejoin="round"/>
<path d="M79.3967 92.9406C85.8171 90.5941 92.8971 90.488 99.3911 92.6412" stroke="#757575" stroke-linecap="round" stroke-linejoin="round"/>
<path d="M85.4243 89.2291C87.7192 88.5693 90.1664 88.5693 92.4613 89.2291" stroke="#757575" stroke-linecap="round" stroke-linejoin="round"/>
<path d="M93.5242 53.8716C97.2329 53.8892 100.916 54.4636 104.438 55.5737" stroke="#263238" stroke-linecap="round" stroke-linejoin="round"/>
<path d="M89.8162 40.582C89.9545 41.1959 90.1996 41.7832 90.5413 42.3195C91.1634 43.1075 91.7773 43.2139 92.4118 43.0681" stroke="#263238" stroke-linecap="round" stroke-linejoin="round"/>
<path d="M102.238 32.8872C102.509 32.9328 102.767 33.0291 102.999 33.1706C103.23 33.312 103.43 33.4959 103.587 33.7116C103.744 33.9272 103.855 34.1705 103.913 34.4272C103.972 34.684 103.976 34.9493 103.927 35.2078C104.23 34.9803 104.439 34.6588 104.52 34.299C104.6 33.9392 104.547 33.5638 104.368 33.2378C104.018 32.6271 102.943 32.635 102.238 32.8872Z" fill="#263238" stroke="#263238" stroke-linecap="round" stroke-linejoin="round"/>
<path d="M101.884 31.2993C101.392 30.3659 100.738 29.5187 99.9513 28.7935C97.2238 26.2364 89.6513 29.3057 87.9209 30.9369C86.0998 32.635 86.4294 38.9666 87.2287 38.8169C89.3588 38.4229 93.4087 38.1116 93.4087 38.1116C94.8425 37.7885 93.1615 34.5656 94.4634 33.9194C99.8895 31.2127 101.649 33.6712 101.97 33.0408C102.291 32.4104 102.522 31.6539 101.884 31.2993Z" fill="#263238" stroke="#263238" stroke-linecap="round" stroke-linejoin="round"/>
<path d="M85.6014 38.6947C84.6703 39.3133 83.3024 39.0178 82.3713 39.6364C81.6586 40.1092 81.4031 40.9799 81.2713 41.7915C80.9748 43.6297 81.0715 45.5062 81.5556 47.3075C83.2041 46.2694 84.6465 44.9593 85.8156 43.4385C86.8662 42.0319 86.549 40.1564 85.6014 38.6947Z" fill="#263238" stroke="#263238" stroke-linecap="round" stroke-linejoin="round"/>
<path d="M86.8579 37.8989C86.5046 37.9276 86.1714 38.0679 85.9106 38.2976C85.6498 38.5273 85.4763 38.8334 85.4173 39.1678C85.3583 39.5021 85.4172 39.8457 85.5848 40.1445C85.7524 40.4433 86.019 40.6804 86.3429 40.8184C86.552 40.9205 86.7895 40.9571 87.0216 40.9232C87.2537 40.8893 87.4688 40.7864 87.6366 40.6293C87.8089 40.3834 87.9007 40.094 87.9002 39.7979C87.9703 39.1084 87.859 38.1747 87.1339 38.0604" fill="#FDD8EE"/>
<path d="M86.8579 37.8989C86.5046 37.9276 86.1714 38.0679 85.9106 38.2976C85.6498 38.5273 85.4763 38.8334 85.4173 39.1678C85.3583 39.5021 85.4172 39.8457 85.5848 40.1445C85.7524 40.4433 86.019 40.6804 86.3429 40.8184C86.552 40.9205 86.7895 40.9571 87.0216 40.9232C87.2537 40.8893 87.4688 40.7864 87.6366 40.6293C87.8089 40.3834 87.9007 40.094 87.9002 39.7979C87.9703 39.1084 87.859 38.1747 87.1339 38.0604" stroke="#263238" stroke-linecap="round" stroke-linejoin="round"/>
<path d="M130.81 61.9722C131.539 61.5073 132.598 61.3221 133.014 60.5893C133.564 59.6463 134.102 58.7033 134.629 57.7604C134.348 56.4257 133.651 55.2036 132.631 54.2538C133.69 52.4256 134.143 51.5746 135.206 49.7464C135.206 49.053 134.844 48.8402 134.329 49.1042C133.093 50.7826 132.141 51.9055 130.905 53.584C130.151 53.3009 129.335 53.2047 128.532 53.3042C127.717 54.0823 127.125 55.0467 126.81 56.1056C126.404 57.483 126.511 58.9525 127.114 60.2623C127.834 60.2048 128.557 60.3332 129.207 60.6339C129.857 60.9347 130.411 61.3969 130.81 61.9722Z" fill="#757575" stroke="#263238" stroke-linecap="round" stroke-linejoin="round"/>
<path d="M105.423 68.8751C105.335 69.584 105.431 70.3026 105.701 70.9681C105.971 71.6336 106.407 72.2258 106.972 72.693C109.225 74.5684 116.996 79.4264 118.693 79.6116C119.355 79.6807 120.025 79.6447 120.675 79.5052C123.003 79.0324 130.934 62.2323 130.934 62.2323C130.522 61.1685 128.742 60.2938 127.535 60.2623C126.328 60.2307 125.689 60.5972 124.968 61.5112C124.914 61.5822 118.586 69.3912 118.586 69.3912C117.601 69.3912 113.486 64.4781 113.148 63.6034C112.151 61.0069 110.466 58.6193 108.966 57.784C108.966 57.7879 106.749 58.0795 105.423 68.8751Z" fill="#263238" stroke="#263238" stroke-linecap="round" stroke-linejoin="round"/>
<path d="M119.114 70.0098C119.114 70.0098 121.359 71.44 122.142 72.4369" stroke="#757575" stroke-linecap="round" stroke-linejoin="round"/>
<path d="M119.142 70.92C119.718 71.5514 120.014 72.3726 119.966 73.2091" stroke="#757575" stroke-linecap="round" stroke-linejoin="round"/>
<path d="M112.925 63.0715C113.54 64.4538 113.769 65.9644 113.593 67.4568" stroke="#757575" stroke-linecap="round" stroke-linejoin="round"/>
<path d="M100.376 143.715C98.8494 144.571 97.1287 145.059 95.3616 145.138C96.9781 145.015 98.5998 145.303 100.062 145.973" stroke="#263238" stroke-linecap="round" stroke-linejoin="round"/>
<path d="M94.9456 147.655C96.7143 147.939 98.4653 148.317 100.19 148.786" stroke="#263238" stroke-linecap="round" stroke-linejoin="round"/>
<path d="M103.309 112.065C99.7617 115.02 94.826 115.942 90.5371 113.767C86.3305 115.481 80.2165 115.284 76.5291 112.688" stroke="#263238" stroke-linecap="round" stroke-linejoin="round"/>
<path d="M104.994 110.383C104.722 110.706 104.438 111.017 104.141 111.309" stroke="#263238" stroke-linecap="round" stroke-linejoin="round"/>
<path d="M96.231 104.386H92.8279" stroke="#263238" stroke-linecap="round" stroke-linejoin="round"/>
<path d="M98.8264 104.386H97.3103" stroke="#263238" stroke-linecap="round" stroke-linejoin="round"/>
<path d="M103.556 104.386H99.7578" stroke="#263238" stroke-linecap="round" stroke-linejoin="round"/>
<path d="M79.9653 104.386H87.8181" stroke="#263238" stroke-linecap="round" stroke-linejoin="round"/>
<path d="M77.0894 104.386H78.4407" stroke="#263238" stroke-linecap="round" stroke-linejoin="round"/>
<path d="M70.9011 173.522C72.1179 173.861 73.4129 173.844 74.6198 173.474C75.8268 173.104 76.8905 172.397 77.6744 171.445" stroke="#263238" stroke-linecap="round" stroke-linejoin="round"/>
<path d="M93.3057 173.581C94.2358 173.852 95.2222 173.896 96.1745 173.708C97.1268 173.52 98.0146 173.106 98.7564 172.505" fill="#FDD8EE"/>
<path d="M93.3057 173.581C94.2358 173.852 95.2222 173.896 96.1745 173.708C97.1268 173.52 98.0146 173.106 98.7564 172.505" stroke="#263238" stroke-linecap="round" stroke-linejoin="round"/>
<path d="M79.9652 147.714H79.7839C78.2801 149.393 75.0789 149.476 73.1919 148.168L77.0771 147.38" stroke="#263238" stroke-linecap="round" stroke-linejoin="round"/>
<path d="M73.9954 141.013C75.2971 143.269 77.2246 145.138 79.5656 146.414" stroke="#263238" stroke-linecap="round" stroke-linejoin="round"/>
<path d="M72.6729 137.845C72.8146 138.38 72.9921 138.907 73.2043 139.421" stroke="#263238" stroke-linecap="round" stroke-linejoin="round"/>
<path d="M109.592 58.706C109.393 58.713 109.201 58.7718 109.034 58.876C108.868 58.9801 108.735 59.1257 108.649 59.297C106.951 61.9762 106.119 65.8019 106.543 70.7979" stroke="#757575" stroke-linecap="round" stroke-linejoin="round"/>
<path d="M73.6864 54.1395C71.4863 56.5035 71.4863 61.9722 72.6317 68.0201" stroke="#757575" stroke-linecap="round" stroke-linejoin="round"/>
<path d="M90.187 105.458L90.4177 111.951" stroke="#263238" stroke-linecap="round" stroke-linejoin="round"/>
<path d="M90.1003 102.976L90.1498 104.386" stroke="#263238" stroke-linecap="round" stroke-linejoin="round"/>
<path d="M189.397 183.785H16.2659" stroke="#263238" stroke-linecap="round" stroke-linejoin="round"/>
</g>
<defs>
<filter id="filter0_d" x="-4" y="0" width="214" height="205" filterUnits="userSpaceOnUse" color-interpolation-filters="sRGB">
<feFlood flood-opacity="0" result="BackgroundImageFix"/>
<feColorMatrix in="SourceAlpha" type="matrix" values="0 0 0 0 0 0 0 0 0 0 0 0 0 0 0 0 0 0 127 0"/>
<feOffset dy="4"/>
<feGaussianBlur stdDeviation="2"/>
<feColorMatrix type="matrix" values="0 0 0 0 0 0 0 0 0 0 0 0 0 0 0 0 0 0 0.25 0"/>
<feBlend mode="normal" in2="BackgroundImageFix" result="effect1_dropShadow"/>
<feBlend mode="normal" in="SourceGraphic" in2="effect1_dropShadow" result="shape"/>
</filter>
</defs>
</svg>
