<svg width="238" height="234" viewBox="0 0 238 234" fill="none" xmlns="http://www.w3.org/2000/svg">
<g filter="url(#filter0_d)">
<path d="M197.54 18.252H34.272V115.596H197.54V18.252Z" fill="white" stroke="#263238" stroke-linecap="round" stroke-linejoin="round"/>
<path d="M128.363 31.0425H39.8269V38.6475H128.363V31.0425Z" stroke="#263238" stroke-linecap="round" stroke-linejoin="round"/>
<path d="M128.363 42.9577H39.8269V86.8935H128.363V42.9577Z" stroke="#263238" stroke-linecap="round" stroke-linejoin="round"/>
<path d="M193.342 74.7209H133.38V109.718H193.342V74.7209Z" stroke="#263238" stroke-linecap="round" stroke-linejoin="round"/>
<path d="M133.38 109.718L193.342 74.7209" stroke="#263238" stroke-linecap="round" stroke-linejoin="round"/>
<path d="M193.342 109.718L133.38 74.7209" stroke="#263238" stroke-linecap="round" stroke-linejoin="round"/>
<path d="M112.845 93.5673H127.354" stroke="#263238" stroke-linecap="round" stroke-linejoin="round"/>
<path d="M87.108 93.5673H109.832" stroke="#263238" stroke-linecap="round" stroke-linejoin="round"/>
<path d="M52.0601 93.5673H82.724" stroke="#263238" stroke-linecap="round" stroke-linejoin="round"/>
<path d="M40.2886 93.5673H48.4996" stroke="#263238" stroke-linecap="round" stroke-linejoin="round"/>
<path d="M61.642 97.6014H127.354" stroke="#263238" stroke-linecap="round" stroke-linejoin="round"/>
<path d="M40.2886 97.6014H58.3575" stroke="#263238" stroke-linecap="round" stroke-linejoin="round"/>
<path d="M96.4138 101.64H127.354" stroke="#263238" stroke-linecap="round" stroke-linejoin="round"/>
<path d="M65.7499 101.64H92.0346" stroke="#263238" stroke-linecap="round" stroke-linejoin="round"/>
<path d="M40.2886 101.64H62.7367" stroke="#263238" stroke-linecap="round" stroke-linejoin="round"/>
<path d="M91.4872 105.679H127.354" stroke="#263238" stroke-linecap="round" stroke-linejoin="round"/>
<path d="M62.1893 105.679H87.9266" stroke="#263238" stroke-linecap="round" stroke-linejoin="round"/>
<path d="M40.2886 105.679H59.181" stroke="#263238" stroke-linecap="round" stroke-linejoin="round"/>
<path d="M111.474 109.718H127.354" stroke="#263238" stroke-linecap="round" stroke-linejoin="round"/>
<path d="M73.9656 109.718H108.461" stroke="#263238" stroke-linecap="round" stroke-linejoin="round"/>
<path d="M58.3575 109.718H70.9525" stroke="#263238" stroke-linecap="round" stroke-linejoin="round"/>
<path d="M46.0387 109.718H53.431" stroke="#263238" stroke-linecap="round" stroke-linejoin="round"/>
<path d="M40.2886 109.718H46.0387" stroke="#263238" stroke-linecap="round" stroke-linejoin="round"/>
<path d="M197.54 18.252H34.272V25.272H197.54V18.252Z" fill="#EE6258" stroke="#263238" stroke-linecap="round" stroke-linejoin="round"/>
<path d="M193.86 20.358H57.7245V23.1894H193.86V20.358Z" fill="white" stroke="#263238" stroke-linecap="round" stroke-linejoin="round"/>
<path d="M54.8876 20.358H36.7853V23.1894H54.8876V20.358Z" fill="white" stroke="#263238" stroke-linecap="round" stroke-linejoin="round"/>
<path d="M206.917 35.0813H145.037V69.7133H206.917V35.0813Z" fill="white" stroke="#263238" stroke-linecap="round" stroke-linejoin="round"/>
<path d="M206.917 63.1613H145.037V69.7133H206.917V63.1613Z" fill="white" stroke="#263238" stroke-linecap="round" stroke-linejoin="round"/>
<path d="M184.122 49.7297L167.838 40.4867V58.9727L184.122 49.7297Z" fill="#EE6258" stroke="#263238" stroke-linecap="round" stroke-linejoin="round"/>
<path d="M147.07 33.2654H143.509V36.7661H147.07V33.2654Z" fill="white" stroke="#263238" stroke-linecap="round" stroke-linejoin="round"/>
<path d="M208.536 33.2654H204.975V36.7661H208.536V33.2654Z" fill="white" stroke="#263238" stroke-linecap="round" stroke-linejoin="round"/>
<path d="M147.07 67.3171H143.509V70.8178H147.07V67.3171Z" fill="white" stroke="#263238" stroke-linecap="round" stroke-linejoin="round"/>
<path d="M208.536 67.3171H204.975V70.8178H208.536V67.3171Z" fill="white" stroke="#263238" stroke-linecap="round" stroke-linejoin="round"/>
<path d="M71.0858 63.5731V69.6571H69.5483V56.1226H71.0858V62.2066H74.4702V56.1226H76.0029V69.6665H74.4702V63.5825L71.0858 63.5731Z" fill="#263238"/>
<path d="M79.5633 69.6665V57.4985H77.0262V56.1226H83.6188V57.4985H81.0818V69.6665H79.5633Z" fill="#263238"/>
<path d="M89.7355 69.6478H88.2599L85.9799 58.8838V69.6805H84.6423V56.1226H86.7843L89.0501 66.924L91.2349 56.1085H93.3769V69.6524H91.9204V58.7761L89.7355 69.6478Z" fill="#263238"/>
<path d="M94.9525 69.6665V56.1226H96.4852V68.2906H100.436V69.6665H94.9525Z" fill="#263238"/>
<path d="M198.587 68.094L201.876 82.602C201.907 82.6978 201.965 82.7826 202.045 82.8457C202.124 82.9089 202.221 82.9477 202.322 82.9571C202.424 82.9666 202.526 82.9464 202.616 82.8991C202.706 82.8517 202.78 82.7793 202.828 82.6909L204.961 78.2777C205.003 78.1889 205.07 78.1141 205.155 78.0625C205.239 78.0109 205.337 77.9849 205.437 77.9875L210.397 78.2543C210.502 78.259 210.606 78.2322 210.695 78.1774C210.784 78.1226 210.855 78.0424 210.896 77.9475C210.938 77.8525 210.95 77.7473 210.929 77.6458C210.909 77.5443 210.858 77.4513 210.782 77.3791L199.444 67.5932C199.362 67.5177 199.257 67.4704 199.145 67.4584C199.033 67.4465 198.921 67.4706 198.824 67.5271C198.727 67.5836 198.652 67.6694 198.609 67.7716C198.567 67.8739 198.559 67.987 198.587 68.094Z" fill="#263238"/>
<path d="M212.134 80.964H207.693V85.3304H212.134V80.964Z" fill="white" stroke="#263238" stroke-width="0.75" stroke-linecap="round" stroke-linejoin="round"/>
<path d="M208.002 80.6177H207.336V81.2729H208.002V80.6177Z" fill="#263238"/>
<path d="M210.259 80.6177H209.592V81.2729H210.259V80.6177Z" fill="#263238"/>
<path d="M212.42 80.6177H211.753V81.2729H212.42V80.6177Z" fill="#263238"/>
<path d="M208.002 82.8267H207.336V83.4819H208.002V82.8267Z" fill="#263238"/>
<path d="M210.259 82.8267H209.592V83.4819H210.259V82.8267Z" fill="#263238"/>
<path d="M212.42 82.8267H211.753V83.4819H212.42V82.8267Z" fill="#263238"/>
<path d="M208.002 84.9514H207.336V85.6066H208.002V84.9514Z" fill="#263238"/>
<path d="M210.259 84.9514H209.592V85.6066H210.259V84.9514Z" fill="#263238"/>
<path d="M212.42 84.9514H211.753V85.6066H212.42V84.9514Z" fill="#263238"/>
<path d="M91.1398 148.281L89.7308 148.553L85.6515 128.723L87.0604 128.452L91.1398 148.281Z" fill="white" stroke="#263238" stroke-linecap="round" stroke-linejoin="round"/>
<path d="M116.444 147.888H89.6451V148.829H116.444V147.888Z" fill="white" stroke="#263238" stroke-linecap="round" stroke-linejoin="round"/>
<path d="M165.267 197.285H123.86V199.274H165.267V197.285Z" fill="white" stroke="#263238" stroke-linecap="round" stroke-linejoin="round"/>
<path d="M171.517 135.996C171.517 135.996 167.595 166.566 166.51 176.038C165.424 185.511 169.689 215.247 169.689 215.247H167.2L162.311 181.551H125.783L123.446 214.644H121.58L124.712 176.193V172.013C124.712 171.8 124.755 171.588 124.838 171.39C124.921 171.193 125.043 171.013 125.197 170.862C125.351 170.711 125.534 170.591 125.735 170.509C125.936 170.427 126.151 170.385 126.369 170.385H161.364L166.843 132.636C166.843 132.636 167.462 129.121 170.57 130.193C173.678 131.265 171.517 135.996 171.517 135.996Z" fill="#263238" stroke="#263238" stroke-linecap="round" stroke-linejoin="round"/>
<path d="M170.584 130.193C170.503 130.162 170.42 130.136 170.337 130.113C170.575 130.581 170.717 131.396 170.432 132.921C169.808 136.286 163.244 176.328 163.244 176.328H124.688L121.599 215.088H123.465L127.53 181.523H162.316L167.205 215.219H169.694C169.694 215.219 165.41 185.487 166.514 176.01C167.619 166.533 172.255 136.665 172.255 136.665C172.255 136.665 173.697 131.26 170.584 130.193Z" fill="white" stroke="#263238" stroke-linecap="round" stroke-linejoin="round"/>
<path d="M133.328 138.664L113.874 139.749L105.196 144.682L103.482 147.57L104.825 147.808L107.885 146.484C107.885 146.484 111.313 145.885 112.293 145.525C113.274 145.164 115.954 142.272 115.954 142.272L134.042 145.16L133.328 138.664Z" fill="white" stroke="#263238" stroke-linecap="round" stroke-linejoin="round"/>
<path d="M105.267 197.777C105.267 197.777 101.84 203.674 101.35 203.674C100.86 203.674 96.8899 204.539 93.734 202.976C90.5781 201.413 88.2267 200.21 87.2461 201.652C86.7558 202.326 86.3454 203.053 86.0228 203.819C86.0228 203.819 88.9597 207.909 91.6539 209.35C94.3481 210.792 95.5 210.048 98.3179 211.611C101.136 213.174 101.379 214.377 103.701 213.899C106.024 213.422 107.376 206.079 107.985 205.237C108.595 204.394 110.908 199.7 110.908 199.7L105.267 197.777Z" fill="white" stroke="#263238" stroke-linecap="round" stroke-linejoin="round"/>
<path d="M101.94 203.065C101.659 203.44 101.464 203.674 101.35 203.674C100.874 203.674 96.8899 204.539 93.734 202.976C90.5781 201.413 88.2267 200.21 87.2461 201.652C86.7558 202.326 86.3454 203.053 86.0228 203.819C86.0228 203.819 88.9597 207.909 91.6539 209.35C94.3481 210.792 95.5 210.048 98.3179 211.611C101.136 213.174 101.379 214.377 103.701 213.899C105.763 213.469 107.033 207.67 107.747 205.761C105.634 205.227 103.368 203.959 101.94 203.065Z" fill="#263238" stroke="#263238" stroke-linecap="round" stroke-linejoin="round"/>
<path d="M103.673 213.899C103.743 213.883 103.811 213.861 103.878 213.834C103.901 213.827 103.923 213.817 103.944 213.806L104.078 213.74L104.154 213.693L104.273 213.614L104.349 213.553L104.463 213.455L104.534 213.385C104.577 213.346 104.616 213.306 104.653 213.263L104.72 213.188C104.758 213.141 104.801 213.094 104.839 213.043L104.896 212.973L105.034 212.776L105.068 212.729C105.163 212.589 105.253 212.435 105.344 212.261C102.964 212.261 101.345 210.787 98.7796 209.921C95.6 208.84 95.4191 209.711 93.0962 208.143C90.7733 206.575 90.5258 205.62 90.5258 205.62L92.5869 202.419C89.9831 201.156 88.0839 200.379 87.2223 201.647C86.732 202.321 86.3216 203.048 85.999 203.814C85.999 203.814 88.9359 207.904 91.6301 209.346C94.3243 210.787 95.4762 210.043 98.2941 211.606C101.112 213.169 101.35 214.377 103.673 213.899Z" fill="white" stroke="#263238" stroke-linecap="round" stroke-linejoin="round"/>
<path d="M108.937 167.698L98.056 194.407L111.027 201.628C111.027 201.628 124.831 170.829 124.974 170.226C125.117 169.622 127.544 169.023 127.544 169.023L137.445 170.352C137.445 170.352 122.518 163.856 118.115 162.892C113.712 161.928 110.77 162.649 108.937 167.698Z" fill="#EE6258" stroke="#263238" stroke-linecap="round" stroke-linejoin="round"/>
<path d="M120.233 188.473L126.354 194.126C126.354 194.126 124.274 199.181 121.827 202.429C119.381 205.677 119.133 207.577 120.233 208.321C121.332 209.065 123.536 208.925 124.993 207.96C126.449 206.996 134.779 198.937 135.76 197.496C136.075 197.005 136.2 196.42 136.113 195.846C136.026 195.272 135.731 194.748 135.284 194.37C134.917 194.126 126.844 184.621 126.844 184.621L120.233 188.473Z" fill="white" stroke="#263238" stroke-linecap="round" stroke-linejoin="round"/>
<path d="M135.774 197.496C136.089 197.005 136.215 196.42 136.127 195.846C136.04 195.272 135.746 194.748 135.298 194.37C135.127 194.253 133.228 192.067 131.271 189.793C129.482 191.922 126.249 193.111 125.535 193.359L126.368 194.126C126.368 194.126 124.288 199.181 121.842 202.429C119.395 205.677 119.148 207.577 120.247 208.321C121.347 209.065 123.551 208.925 125.007 207.96C126.464 206.996 134.794 198.937 135.774 197.496Z" fill="#263238" stroke="#263238" stroke-linecap="round" stroke-linejoin="round"/>
<path d="M135.441 194.501C135.379 195.329 135.069 196.12 134.551 196.775C133.085 198.577 124.883 206.037 124.883 206.037L121.075 203.454C119.324 206.084 119.233 207.666 120.209 208.321C121.313 209.046 123.512 208.925 124.969 207.96C126.426 206.996 134.756 198.937 135.736 197.496C136.037 197.037 136.172 196.492 136.119 195.948C136.065 195.404 135.826 194.894 135.441 194.501Z" fill="white" stroke="#263238" stroke-linecap="round" stroke-linejoin="round"/>
<path d="M131.981 193.888C131.993 194.14 131.928 194.39 131.795 194.606C131.661 194.821 131.465 194.993 131.232 195.098C130.998 195.203 130.738 195.237 130.485 195.195C130.231 195.153 129.997 195.038 129.811 194.864C129.625 194.69 129.496 194.465 129.441 194.218C129.386 193.972 129.408 193.715 129.503 193.48C129.598 193.246 129.763 193.045 129.975 192.903C130.188 192.761 130.439 192.685 130.695 192.685C131.028 192.677 131.35 192.8 131.591 193.025C131.832 193.251 131.972 193.561 131.981 193.888Z" fill="white"/>
<path d="M135.898 150.457L135.284 152.502C135.284 152.502 116.81 152.741 108.733 154.908C100.655 157.075 98.4559 158.278 99.0651 162.728C99.6744 167.179 112.16 192.816 112.16 192.816C114.672 192.123 117.126 191.239 119.5 190.172C122.31 188.825 124.975 187.202 127.454 185.328L118.153 167.881C118.153 167.881 128.801 170.048 140.668 171.129C152.534 172.21 157.556 171.007 159.512 167.521C161.469 164.034 158.165 150.078 158.165 150.078L136.022 149.353L135.898 150.457Z" fill="#EE6258" stroke="#263238" stroke-linecap="round" stroke-linejoin="round"/>
<path d="M109.956 162.139C109.539 161.737 109.173 161.288 108.866 160.8" stroke="#263238" stroke-linecap="round" stroke-linejoin="round"/>
<path d="M118.153 167.9C115.679 166.513 113.321 164.937 111.098 163.187" stroke="#263238" stroke-linecap="round" stroke-linejoin="round"/>
<path d="M119.524 177.948L120.504 178.416" stroke="#263238" stroke-linecap="round" stroke-linejoin="round"/>
<path d="M102.392 163.763C106.584 169.154 111.831 173.665 117.824 177.03" stroke="#263238" stroke-linecap="round" stroke-linejoin="round"/>
<path d="M153.658 158.432C154.125 158.789 154.569 159.175 154.986 159.588" stroke="#263238" stroke-linecap="round" stroke-linejoin="round"/>
<path d="M136.507 152.741C136.507 152.741 145.475 153.424 151.806 157.178" stroke="#263238" stroke-linecap="round" stroke-linejoin="round"/>
<path d="M148.745 154.786C148.745 154.786 154.619 154.908 156.942 157.314" stroke="#263238" stroke-linecap="round" stroke-linejoin="round"/>
<path d="M137.612 114.365C137.612 114.365 133.451 126.533 132.852 130.244C132.252 133.956 132.609 150.214 132.609 150.214C132.609 150.214 142.395 153.101 147.903 152.502C153.41 151.903 160.279 150.818 160.279 150.818C160.279 150.818 159.055 129.29 157.956 121.825C156.856 114.36 154.286 110.031 151.839 108.23C150.212 107.054 148.493 106.007 146.698 105.099L137.612 114.365Z" fill="#263238" stroke="#263238" stroke-linecap="round" stroke-linejoin="round"/>
<path d="M116.073 95.5983C116.338 97.123 116.878 98.5889 117.667 99.9273C118.891 101.851 120.604 102.693 120.114 104.607C119.624 106.521 119.638 107.855 121.066 107.972L122.537 108.094C122.537 108.094 125.474 113.027 127.678 113.027C129.881 113.027 136.136 107.509 136.136 107.509C136.136 107.509 132.833 92.2287 132.833 91.7467C132.833 91.2647 115.335 93.5532 115.335 93.5532L116.073 95.5983Z" fill="white" stroke="#263238" stroke-linecap="round" stroke-linejoin="round"/>
<path d="M123.355 101.781C123.589 102.249 123.508 102.777 123.17 102.937C122.832 103.096 122.375 102.834 122.142 102.352C121.908 101.87 121.989 101.355 122.327 101.2C122.665 101.046 123.122 101.303 123.355 101.781Z" fill="#263238"/>
<path d="M120.357 100.409C120.357 100.409 120.233 98.7246 122.803 99.085" stroke="#263238" stroke-linecap="round" stroke-linejoin="round"/>
<path d="M123.931 108.492C124.008 108.759 126.921 108.599 126.473 106.063" stroke="#263238" stroke-linecap="round" stroke-linejoin="round"/>
<path d="M140.896 89.9403C140.491 85.0684 134.322 86.9357 131.433 88.4099L131.352 88.2601L119.728 91.5081C119.633 91.9717 119.688 92.453 119.885 92.8844C120.083 93.3158 120.412 93.6757 120.828 93.9136C123.261 95.6953 126.136 96.8024 129.153 97.1194C130.019 102.211 131.228 109.821 131.228 112.68C131.228 117.131 129.515 118.816 129.515 118.816C129.515 118.816 137.345 116.41 141.891 112.198C144.532 109.78 146.837 107.029 148.745 104.018C148.745 104.018 141.405 95.8371 140.896 89.9403Z" fill="#EE6258" stroke="#263238" stroke-linecap="round" stroke-linejoin="round"/>
<path d="M129.172 97.1193L128.825 95.5281" stroke="#263238" stroke-linecap="round" stroke-linejoin="round"/>
<path d="M134.979 108.192C135.08 108.74 135.161 109.25 135.218 109.695" stroke="#263238" stroke-linecap="round" stroke-linejoin="round"/>
<path d="M131.952 95.5281C131.952 95.5281 133.68 101.804 134.656 106.517" stroke="#263238" stroke-linecap="round" stroke-linejoin="round"/>
<path d="M137.731 97.1053L140.106 103.278" stroke="#263238" stroke-linecap="round" stroke-linejoin="round"/>
<path d="M136.712 94.4564L137.326 96.0523" stroke="#263238" stroke-linecap="round" stroke-linejoin="round"/>
<path d="M139.701 94.5922L140.787 97.2644" stroke="#263238" stroke-linecap="round" stroke-linejoin="round"/>
<path d="M114.873 95.4111C114.873 95.4111 106.686 99.684 109.413 99.684C112.141 99.684 125.793 94.1382 126.335 94.1382C126.878 94.1382 117.239 95.0508 114.873 95.4111Z" fill="#757575" stroke="#263238" stroke-linecap="round" stroke-linejoin="round"/>
<path d="M114.873 95.4111C114.873 95.4111 109.975 96.9368 112.16 91.7467C114.345 86.5566 129.22 78.9937 135.408 78.9937C141.596 78.9937 146.17 88.0729 145.261 90.9371C144.352 93.8012 142.348 94.1569 141.453 94.1569C140.558 94.1569 114.873 95.4111 114.873 95.4111Z" fill="#757575" stroke="#263238" stroke-linecap="round" stroke-linejoin="round"/>
<path d="M117.239 93.8012C117.239 93.8012 126.154 93.9791 133.799 92.9073C141.443 91.8356 144.533 90.7592 144.533 90.7592" stroke="#263238" stroke-linecap="round" stroke-linejoin="round"/>
<path d="M143.443 93.0852L131.433 93.263" stroke="#263238" stroke-linecap="round" stroke-linejoin="round"/>
<path d="M135.898 140.349L134.308 141.804C134.308 141.804 114.483 139.277 113.136 139.637C111.789 139.998 107.019 141.322 107.019 141.322L103.211 141.561L100.155 146.615H101.131L103.335 143.606H104.72L102.392 146.255L101.388 147.687L104.81 147.808L105.31 147.392L107.262 145.763L106.648 147.57H107.381L109.094 144.682L111.422 143.479L113.869 141.795C113.869 141.795 138.83 150.336 139.439 150.687C140.049 151.038 141.401 152.011 142.5 151.047C143.6 150.083 146.537 142.024 146.537 142.024L135.898 140.349Z" fill="white" stroke="#263238" stroke-linecap="round" stroke-linejoin="round"/>
<path d="M102.921 147.523C104.19 146.543 105.312 145.391 106.253 144.102C106.253 144.102 106.419 142.834 107.543 142.632" stroke="#263238" stroke-linecap="round" stroke-linejoin="round"/>
<path d="M107.267 145.763L107.819 143.671L108.428 143.189" stroke="#263238" stroke-linecap="round" stroke-linejoin="round"/>
<path d="M104.72 143.596C105.043 143.089 105.433 142.626 105.882 142.221C106.296 141.977 106.548 141.855 106.548 141.855" stroke="#263238" stroke-linecap="round" stroke-linejoin="round"/>
<path d="M125.426 145.763C132.052 148.047 139.125 150.509 139.468 150.696C140.082 151.056 141.429 152.02 142.529 151.056C143.628 150.092 146.565 142.033 146.565 142.033L135.922 140.349L134.308 141.804C134.308 141.804 130.662 141.336 126.397 140.835L125.426 145.763Z" fill="#757575" stroke="#263238" stroke-linecap="round" stroke-linejoin="round"/>
<path d="M139.468 122.064L134.184 139.506C134.184 139.506 134.66 141.916 139.568 143.25C142.272 144.027 145.072 144.432 147.888 144.453L151.806 122.798" fill="#263238"/>
<path d="M139.468 122.064L134.184 139.506C134.184 139.506 134.66 141.916 139.568 143.25C142.272 144.027 145.072 144.432 147.888 144.453L151.806 122.798" stroke="#263238" stroke-linecap="round" stroke-linejoin="round"/>
<path d="M139.116 123.636L134.342 138.186" stroke="#707070" stroke-linecap="round" stroke-linejoin="round"/>
<path d="M150.773 128.297L148.426 143.114" stroke="#707070" stroke-linecap="round" stroke-linejoin="round"/>
<path d="M151.287 125.04L151.03 126.669" stroke="#707070" stroke-linecap="round" stroke-linejoin="round"/>
<path d="M95.4379 149.994H91.1539V212.612H95.4379V149.994Z" fill="#263238" stroke="#263238" stroke-linecap="round" stroke-linejoin="round"/>
<path d="M124.641 148.89H60.8756V151.478H124.641V148.89Z" fill="#757575" stroke="#263238" stroke-linecap="round" stroke-linejoin="round"/>
<path d="M116.253 215.172H70.348C70.3493 214.486 70.627 213.829 71.1204 213.344C71.6138 212.859 72.2826 212.586 72.9803 212.584H113.621C114.319 212.586 114.988 212.859 115.481 213.344C115.974 213.829 116.252 214.486 116.253 215.172Z" fill="#757575" stroke="#263238" stroke-linecap="round" stroke-linejoin="round"/>
<path d="M79.3064 149.348H70.9288L69.6721 133.942H80.563L79.3064 149.348Z" fill="#EE6258" stroke="#263238" stroke-linecap="round" stroke-linejoin="round"/>
<path d="M81.0104 132.421H68.9105V135.931H81.0104V132.421Z" fill="white" stroke="#263238" stroke-linecap="round" stroke-linejoin="round"/>
<path d="M79.6538 145.075L80.1155 139.436H70.1195L70.5812 145.075H79.6538Z" fill="white" stroke="#263238" stroke-linecap="round" stroke-linejoin="round"/>
<path d="M215.309 215.247H221.021" stroke="#263238" stroke-linecap="round" stroke-linejoin="round"/>
<path d="M205.789 215.247H211.82" stroke="#263238" stroke-linecap="round" stroke-linejoin="round"/>
<path d="M60.7709 215.247H202.3" stroke="#263238" stroke-linecap="round" stroke-linejoin="round"/>
<path d="M21.6437 215.247H56.325" stroke="#263238" stroke-linecap="round" stroke-linejoin="round"/>
</g>
<defs>
<filter id="filter0_d" x="-4" y="0" width="246" height="242" filterUnits="userSpaceOnUse" color-interpolation-filters="sRGB">
<feFlood flood-opacity="0" result="BackgroundImageFix"/>
<feColorMatrix in="SourceAlpha" type="matrix" values="0 0 0 0 0 0 0 0 0 0 0 0 0 0 0 0 0 0 127 0"/>
<feOffset dy="4"/>
<feGaussianBlur stdDeviation="2"/>
<feColorMatrix type="matrix" values="0 0 0 0 0 0 0 0 0 0 0 0 0 0 0 0 0 0 0.25 0"/>
<feBlend mode="normal" in2="BackgroundImageFix" result="effect1_dropShadow"/>
<feBlend mode="normal" in="SourceGraphic" in2="effect1_dropShadow" result="shape"/>
</filter>
</defs>
</svg>
