<svg width="256" height="252" viewBox="0 0 256 252" fill="none" xmlns="http://www.w3.org/2000/svg">
<g clip-path="url(#clip0)" filter="url(#filter0_d)">
<path d="M215.846 44.2714C188.938 27.4176 129.597 3.95137 88.7475 24.0156C45.2927 45.36 27.5922 97.6752 26.7303 131.287C25.8332 166.199 32.0425 195.799 49.244 209.432C67.2771 223.756 112.138 224.996 139.657 185.064C154.898 162.948 141.799 137.395 152 128.656C167.074 115.744 206.971 129.841 233.97 99.6005C255.078 75.9679 231.884 54.3161 215.846 44.2714Z" fill="#EE6258"/>
<path opacity="0.7" d="M215.846 44.2714C188.938 27.4176 129.597 3.95137 88.7475 24.0156C45.2927 45.36 27.5922 97.6752 26.7303 131.287C25.8332 166.199 32.0425 195.799 49.244 209.432C67.2771 223.756 112.138 224.996 139.657 185.064C154.898 162.948 141.799 137.395 152 128.656C167.074 115.744 206.971 129.841 233.97 99.6005C255.078 75.9679 231.884 54.3161 215.846 44.2714Z" fill="white"/>
<path d="M151.4 193.808L147.368 193.239V173.472L151.4 173.9V193.808Z" fill="#999999" stroke="#263238" stroke-linecap="round" stroke-linejoin="round"/>
<path d="M242.039 183.516L56.7185 163.86V51.4685L242.039 27.5033V183.516Z" fill="white" stroke="#263238" stroke-linecap="round" stroke-linejoin="round"/>
<path d="M243.622 27.3017L55.1258 51.6852C53.8255 51.8566 52.7671 51.1812 52.7671 50.1278V48.4092C52.7671 47.4012 53.8255 46.3932 55.1258 46.2118L243.622 19.656C244.922 19.4695 245.98 20.4977 245.98 21.9492V24.3684C245.993 25.0561 245.764 25.7263 245.332 26.2623C244.901 26.7983 244.296 27.1661 243.622 27.3017Z" fill="#999999" stroke="#263238" stroke-linecap="round" stroke-linejoin="round"/>
<path d="M238.597 22.4179L241.893 21.9442" stroke="white" stroke-linecap="round" stroke-linejoin="round"/>
<path d="M229.742 23.688L234.782 22.9673" stroke="white" stroke-linecap="round" stroke-linejoin="round"/>
<path d="M72.3173 46.1311L226.768 24.1013" stroke="white" stroke-linecap="round" stroke-linejoin="round"/>
<path d="M56.8646 48.3387L68.3306 46.7007" stroke="white" stroke-linecap="round" stroke-linejoin="round"/>
<path d="M167.568 166.855L136.048 164.018V119.5L167.593 119.429L167.568 166.855Z" fill="#EE6258"/>
<path opacity="0.8" d="M167.568 166.855L136.048 164.018V119.5L167.593 119.429L167.568 166.855Z" fill="white"/>
<path d="M199.113 169.692L167.568 166.855V119.448L199.113 119.383V169.692Z" fill="#EE6258"/>
<path opacity="0.6" d="M199.113 169.692L167.568 166.855V119.448L199.113 119.383V169.692Z" fill="white"/>
<path d="M230.654 172.529L199.114 169.692V119.362L230.654 119.292V172.529Z" fill="#EE6258"/>
<path opacity="0.4" d="M230.654 172.529L199.114 169.692V119.362L230.654 119.292V172.529Z" fill="white"/>
<path d="M230.654 119.292L136.048 119.499" stroke="#7F7F7F" stroke-linecap="round" stroke-linejoin="round"/>
<path d="M136.048 125.859L230.679 126.897" stroke="#7F7F7F" stroke-linecap="round" stroke-linejoin="round"/>
<path d="M230.654 134.502L136.048 132.219" stroke="#7F7F7F" stroke-linecap="round" stroke-linejoin="round"/>
<path d="M136.048 138.6L230.679 142.128" stroke="#7F7F7F" stroke-linecap="round" stroke-linejoin="round"/>
<path d="M230.654 149.713L136.048 144.935" stroke="#7F7F7F" stroke-linecap="round" stroke-linejoin="round"/>
<path d="M136.048 151.296L230.679 157.319" stroke="#7F7F7F" stroke-linecap="round" stroke-linejoin="round"/>
<path d="M230.654 164.924L136.048 157.656" stroke="#7F7F7F" stroke-linecap="round" stroke-linejoin="round"/>
<path d="M136.048 164.017L230.679 172.529" stroke="#7F7F7F" stroke-linecap="round" stroke-linejoin="round"/>
<path d="M143.91 164.728V119.479" stroke="#7F7F7F" stroke-linecap="round" stroke-linejoin="round"/>
<path d="M136.048 119.5V164.019" stroke="#7F7F7F" stroke-linecap="round" stroke-linejoin="round"/>
<path d="M159.681 166.144V119.449" stroke="#7F7F7F" stroke-linecap="round" stroke-linejoin="round"/>
<path d="M151.798 119.449V165.418" stroke="#7F7F7F" stroke-linecap="round" stroke-linejoin="round"/>
<path d="M175.456 167.565V119.413" stroke="#7F7F7F" stroke-linecap="round" stroke-linejoin="round"/>
<path d="M167.568 119.449V166.875" stroke="#7F7F7F" stroke-linecap="round" stroke-linejoin="round"/>
<path d="M191.226 168.981V119.378" stroke="#7F7F7F" stroke-linecap="round" stroke-linejoin="round"/>
<path d="M183.338 119.393V168.281" stroke="#7F7F7F" stroke-linecap="round" stroke-linejoin="round"/>
<path d="M206.996 170.403V119.342" stroke="#7F7F7F" stroke-linecap="round" stroke-linejoin="round"/>
<path d="M199.114 119.363V169.692" stroke="#7F7F7F" stroke-linecap="round" stroke-linejoin="round"/>
<path d="M222.771 171.818V119.306" stroke="#7F7F7F" stroke-linecap="round" stroke-linejoin="round"/>
<path d="M214.884 119.327V171.113" stroke="#7F7F7F" stroke-linecap="round" stroke-linejoin="round"/>
<path d="M230.654 119.292V172.529" stroke="#7F7F7F" stroke-linecap="round" stroke-linejoin="round"/>
<path d="M136.048 119.498V164.017L230.679 172.529V119.292L136.048 119.498Z" stroke="#263238" stroke-linecap="round" stroke-linejoin="round"/>
<path d="M139.969 164.178L137.6 163.966V151.2L139.969 151.351V164.178Z" fill="#263238"/>
<path d="M142.333 164.395L139.969 164.178V144.945L142.333 145.066V164.395Z" fill="#EE6258"/>
<path d="M147.852 164.889L145.488 164.677V141.997L147.852 142.098V164.889Z" fill="#263238"/>
<path d="M150.22 165.1L147.852 164.889V138.827L150.22 138.912V165.1Z" fill="#EE6258"/>
<path d="M155.739 165.594L153.375 165.383V145.616L155.739 145.737V165.594Z" fill="#263238"/>
<path d="M158.103 165.816L155.739 165.604V142.42L158.103 142.521V165.816Z" fill="#EE6258"/>
<path d="M163.627 166.32L161.258 166.108V152.712L163.627 152.863V166.32Z" fill="#263238" stroke="#263238" stroke-linecap="round" stroke-linejoin="round"/>
<path d="M165.991 166.512L163.627 166.3V150.172L165.991 150.308V166.512Z" fill="#EE6258" stroke="#EE6258" stroke-linecap="round" stroke-linejoin="round"/>
<path d="M171.51 167.005L169.146 166.794V143.847L171.51 143.952V167.005Z" fill="#263238"/>
<path d="M173.878 167.217L171.509 167.005V148.297L173.878 148.423V167.217Z" fill="#EE6258"/>
<path d="M179.392 167.711L177.028 167.499V147.601L179.392 147.722V167.711Z" fill="#263238"/>
<path d="M181.761 167.923L179.397 167.711V144.305L181.761 144.411V167.923Z" fill="#EE6258"/>
<path d="M187.285 168.417L184.916 168.205V143.328L187.285 143.428V168.417Z" fill="#263238"/>
<path d="M189.648 168.628L187.285 168.417V145.288L189.648 145.399V168.628Z" fill="#EE6258"/>
<path d="M195.167 169.122L192.803 168.911V138.267L195.167 138.348V169.122Z" fill="#263238"/>
<path d="M197.536 169.344L195.167 169.127V134.704L197.536 134.77V169.344Z" fill="#EE6258"/>
<path d="M203.08 169.848L200.716 169.636V140.777L203.08 140.863V169.848Z" fill="#263238"/>
<path d="M205.419 139.18V170.045L203.08 169.848V139.104L205.419 139.18Z" fill="#EE6258"/>
<path d="M210.942 170.538L208.574 170.327V137.164L210.942 137.234V170.538Z" fill="#263238"/>
<path d="M213.306 170.75L210.942 170.538V137.92L213.306 137.99V170.75Z" fill="#EE6258"/>
<path d="M218.825 171.244L216.461 171.032V132.552L218.825 132.602V171.244Z" fill="#263238"/>
<path d="M221.194 171.456L218.825 171.244V130.481L221.194 130.521V171.456Z" fill="#EE6258"/>
<path d="M226.713 171.95L224.344 171.738V126.605L226.713 126.63V171.95Z" fill="#263238"/>
<path d="M229.076 172.161L226.713 171.95V124.72H229.076V172.161Z" fill="#EE6258"/>
<path d="M168.238 143.312L161.379 143.01C161.004 143.012 160.641 142.874 160.362 142.624C160.082 142.373 159.906 142.028 159.867 141.654V137.28C159.883 137.098 159.935 136.921 160.02 136.76C160.105 136.599 160.221 136.457 160.362 136.341C160.503 136.225 160.665 136.139 160.84 136.088C161.015 136.036 161.198 136.02 161.379 136.04L168.238 136.246C168.616 136.237 168.982 136.373 169.263 136.624C169.544 136.876 169.719 137.226 169.75 137.602V142.068C169.737 142.25 169.686 142.428 169.602 142.59C169.518 142.753 169.402 142.896 169.26 143.013C169.119 143.129 168.956 143.216 168.78 143.267C168.604 143.319 168.42 143.334 168.238 143.312Z" fill="white" stroke="#263238" stroke-linecap="round" stroke-linejoin="round"/>
<path d="M161.843 141.337C161.61 141.304 161.399 141.186 161.249 141.005C161.1 140.824 161.024 140.593 161.036 140.359V140.112H161.742V140.414C161.742 140.661 161.888 140.772 162.125 140.782C162.362 140.792 162.508 140.692 162.508 140.435C162.508 140.178 162.372 139.931 161.873 139.583C161.268 139.154 161.056 138.827 161.056 138.388C161.048 138.277 161.062 138.166 161.097 138.06C161.132 137.955 161.188 137.857 161.261 137.773C161.334 137.689 161.424 137.621 161.523 137.571C161.623 137.522 161.732 137.493 161.843 137.486V137.138H162.448V137.486C162.679 137.518 162.889 137.635 163.037 137.816C163.185 137.996 163.259 138.226 163.244 138.459V138.6H162.543V138.444C162.549 138.394 162.543 138.343 162.527 138.295C162.51 138.248 162.482 138.204 162.446 138.169C162.411 138.134 162.367 138.107 162.319 138.091C162.271 138.074 162.22 138.069 162.17 138.076C161.933 138.076 161.802 138.172 161.802 138.403C161.802 138.635 161.938 138.872 162.437 139.23C163.042 139.669 163.254 139.991 163.254 140.455C163.264 140.569 163.25 140.684 163.215 140.793C163.179 140.902 163.122 141.002 163.047 141.089C162.972 141.175 162.88 141.246 162.777 141.296C162.674 141.347 162.562 141.376 162.448 141.382V141.785H161.843V141.337Z" fill="#263238"/>
<path d="M167.412 139.976V137.33L165.769 137.274V139.91L164.595 139.87C165.396 140.772 165.794 141.226 166.611 142.133L168.601 140.016L167.412 139.976Z" fill="#999999" stroke="#263238" stroke-linecap="round" stroke-linejoin="round"/>
<path d="M212.006 133.056L205.141 132.9C204.754 132.9 204.381 132.752 204.1 132.486C203.818 132.219 203.65 131.855 203.629 131.468V126.706C203.646 126.321 203.815 125.96 204.099 125.7C204.382 125.44 204.757 125.303 205.141 125.32L212.006 125.38C212.394 125.38 212.768 125.528 213.049 125.796C213.331 126.063 213.498 126.429 213.518 126.816V131.655C213.513 131.847 213.469 132.036 213.39 132.211C213.311 132.386 213.198 132.543 213.057 132.674C212.916 132.804 212.75 132.905 212.57 132.971C212.389 133.037 212.198 133.065 212.006 133.056Z" fill="white" stroke="#263238" stroke-linecap="round" stroke-linejoin="round"/>
<path d="M205.6 131.065C205.36 131.023 205.145 130.893 204.996 130.7C204.848 130.506 204.777 130.265 204.799 130.022V129.735H205.499V130.067C205.494 130.12 205.5 130.173 205.517 130.222C205.535 130.272 205.563 130.317 205.601 130.354C205.638 130.391 205.683 130.42 205.732 130.437C205.782 130.455 205.835 130.461 205.887 130.455C205.94 130.463 205.994 130.458 206.044 130.442C206.094 130.425 206.14 130.396 206.177 130.359C206.215 130.321 206.243 130.275 206.259 130.224C206.275 130.173 206.279 130.12 206.27 130.067C206.27 129.755 206.134 129.528 205.635 129.16C205.03 128.706 204.819 128.354 204.819 127.88C204.794 127.644 204.862 127.407 205.007 127.219C205.153 127.031 205.365 126.907 205.6 126.872V126.504H206.21V126.887C206.449 126.926 206.665 127.054 206.813 127.246C206.961 127.438 207.03 127.679 207.006 127.92V128.041H206.306V127.87C206.314 127.818 206.31 127.765 206.294 127.715C206.278 127.665 206.252 127.62 206.216 127.582C206.18 127.544 206.135 127.515 206.086 127.496C206.037 127.478 205.985 127.471 205.933 127.477C205.882 127.47 205.831 127.475 205.782 127.492C205.734 127.508 205.69 127.535 205.654 127.571C205.618 127.607 205.591 127.651 205.575 127.699C205.558 127.748 205.553 127.799 205.56 127.85C205.56 128.137 205.696 128.354 206.195 128.732C206.805 129.185 207.016 129.538 207.016 130.037C207.037 130.276 206.964 130.514 206.814 130.702C206.664 130.89 206.448 131.012 206.21 131.045V131.478H205.6V131.065Z" fill="#263238"/>
<path d="M209.531 128.928V131.791L211.174 131.826V128.953H212.349L210.333 126.544L208.342 128.893L209.531 128.928Z" fill="#999999" stroke="#263238" stroke-linecap="round" stroke-linejoin="round"/>
<path d="M182.3 93.7087C184.406 94.1605 186.558 94.3585 188.711 94.2984C200.832 93.9708 211.839 84.8686 211.895 72.9792C211.93 61.5837 200.464 52.8847 188.711 54.5681V74.4357C186.587 80.8668 184.45 87.2911 182.3 93.7087Z" fill="#EE6258" stroke="#263238" stroke-linecap="round" stroke-linejoin="round"/>
<path d="M188.711 74.4376V54.5699C177.396 55.7291 165.361 64.6046 165.527 75.8892C165.668 84.4017 173.248 92.123 182.28 93.7106C184.447 87.2896 186.591 80.8653 188.711 74.4376Z" fill="#999999" stroke="#263238" stroke-linecap="round" stroke-linejoin="round"/>
<path d="M180.304 66.3264C180.29 66.1476 180.238 65.974 180.152 65.8166C180.066 65.6592 179.948 65.5217 179.805 65.4128C179.663 65.304 179.499 65.2264 179.324 65.1849C179.15 65.1435 178.969 65.1392 178.792 65.1722C178.414 65.1789 178.051 65.3242 177.772 65.5806C177.493 65.8369 177.318 66.1866 177.28 66.5633V67.3596C177.296 67.5382 177.348 67.7116 177.434 67.8688C177.52 68.0259 177.638 68.1634 177.781 68.2725C177.923 68.3816 178.086 68.4598 178.261 68.5022C178.435 68.5446 178.616 68.5502 178.792 68.5188C179.171 68.5121 179.534 68.3668 179.812 68.1104C180.091 67.8541 180.266 67.5044 180.304 67.1277" stroke="#263238" stroke-linecap="round" stroke-linejoin="round"/>
<path d="M176.096 81.648V84.2234C176.107 84.343 176.142 84.4591 176.199 84.5647C176.257 84.6702 176.335 84.7631 176.429 84.8375C176.523 84.912 176.632 84.9665 176.748 84.9979C176.864 85.0292 176.985 85.0366 177.104 85.0197V85.0197C177.352 85.0214 177.593 84.9312 177.779 84.7666C177.965 84.6019 178.083 84.3744 178.112 84.1276V77.6412C178.124 77.4731 178.196 77.3151 178.316 77.1965C178.435 77.0778 178.594 77.0066 178.762 76.9961C178.845 76.9786 178.931 76.979 179.013 76.9971C179.096 77.0152 179.174 77.0507 179.242 77.1012C179.311 77.1517 179.367 77.216 179.409 77.29C179.45 77.3639 179.475 77.4458 179.483 77.5303V84.0823C179.493 84.2023 179.528 84.319 179.585 84.4251C179.642 84.5313 179.72 84.6247 179.814 84.6997C179.909 84.7747 180.017 84.8297 180.134 84.8613C180.25 84.8929 180.371 84.9005 180.491 84.8836C180.74 84.8851 180.981 84.7943 181.167 84.6286C181.353 84.463 181.471 84.2342 181.499 83.9865V77.6966" stroke="#263238" stroke-linecap="round" stroke-linejoin="round"/>
<path d="M176.096 79.9596V80.7156" stroke="#263238" stroke-linecap="round" stroke-linejoin="round"/>
<path d="M181.489 76.7793V71.6688C181.497 71.5881 181.536 71.5136 181.596 71.4596C181.657 71.4056 181.735 71.376 181.816 71.3765V71.3765C181.854 71.37 181.893 71.3716 181.93 71.3811C181.968 71.3905 182.003 71.4076 182.033 71.4313C182.063 71.4551 182.089 71.4848 182.107 71.5188C182.125 71.5527 182.136 71.5901 182.139 71.6285V74.6525C182.148 74.8365 182.229 75.0096 182.365 75.1341C182.501 75.2586 182.68 75.3246 182.865 75.3177C183.078 75.3333 183.29 75.2653 183.454 75.1281C183.619 74.9908 183.724 74.795 183.747 74.5819V70.938C183.747 69.9804 182.834 69.2697 181.705 69.3504L175.879 69.7737C174.75 69.8594 173.863 70.686 173.863 71.6285V75.1565C173.874 75.3392 173.956 75.5105 174.091 75.6331C174.227 75.7558 174.406 75.8199 174.589 75.8117C174.801 75.8287 175.012 75.7626 175.177 75.6271C175.341 75.4917 175.447 75.2976 175.471 75.0859V72.0619C175.48 71.9808 175.518 71.9057 175.578 71.8509C175.639 71.796 175.717 71.7653 175.799 71.7645V71.7645C175.836 71.7589 175.875 71.761 175.912 71.7708C175.949 71.7805 175.984 71.7977 176.014 71.8213C176.044 71.8449 176.069 71.8743 176.088 71.9079C176.106 71.9415 176.117 71.9784 176.121 72.0165V79.1935" stroke="#263238" stroke-linecap="round" stroke-linejoin="round"/>
<path d="M200.021 65.3637C200.127 65.9988 200.283 66.9161 200.283 66.9161L196.684 67.1832C196.684 67.1832 197.017 65.1672 197.042 65.016C197.102 64.6564 197.273 64.3248 197.532 64.0679C197.791 63.8111 198.124 63.642 198.483 63.5846C198.829 63.5746 199.167 63.6916 199.433 63.9135C199.698 64.1354 199.873 64.4469 199.925 64.7892" stroke="#263238" stroke-linecap="round" stroke-linejoin="round"/>
<path d="M203.13 73.3572V69.5923C203.13 68.5843 202.213 67.8636 201.089 67.9442" stroke="#263238" stroke-linecap="round" stroke-linejoin="round"/>
<path d="M200.873 79.38V78.12L202.022 78.0544C201.563 74.975 201.331 73.4328 200.873 70.3634C200.879 70.2813 200.915 70.2045 200.975 70.1477C201.034 70.0909 201.113 70.0582 201.195 70.056C201.234 70.0503 201.273 70.0527 201.311 70.0631C201.349 70.0735 201.384 70.0915 201.414 70.1162C201.444 70.1408 201.469 70.1715 201.487 70.2062C201.505 70.241 201.515 70.2791 201.518 70.318V73.4479C201.523 73.6355 201.602 73.8134 201.738 73.9427C201.874 74.0721 202.056 74.1424 202.243 74.1384" stroke="#263238" stroke-linecap="round" stroke-linejoin="round"/>
<path d="M200.873 81.0079V80.136" stroke="#263238" stroke-linecap="round" stroke-linejoin="round"/>
<path d="M195.082 77.495C195.026 77.868 195.001 78.0545 194.945 78.4274L196.095 78.3619V83.291C196.103 83.4129 196.137 83.5318 196.193 83.6404C196.249 83.749 196.326 83.8451 196.42 83.9229C196.515 84.0006 196.624 84.0584 196.741 84.0928C196.858 84.1271 196.981 84.1373 197.103 84.1226C197.356 84.1235 197.6 84.0292 197.787 83.8583C197.973 83.6874 198.089 83.4525 198.111 83.2003V78.251L198.856 78.2107V83.16C198.865 83.2819 198.899 83.4007 198.955 83.5093C199.011 83.6179 199.088 83.714 199.182 83.7918C199.277 83.8696 199.386 83.9274 199.503 83.9617C199.62 83.9961 199.743 84.0062 199.864 83.9916C200.118 83.9924 200.363 83.8973 200.55 83.7254C200.737 83.5535 200.852 83.3173 200.872 83.0642V81.8849" stroke="#263238" stroke-linecap="round" stroke-linejoin="round"/>
<path d="M199.345 68.0702L195.878 68.3222C195.366 68.34 194.878 68.5447 194.507 68.8976C194.135 69.2504 193.906 69.727 193.862 70.2374V73.9116C193.868 74.0935 193.945 74.2658 194.075 74.3926C194.206 74.5194 194.38 74.5908 194.562 74.592C194.779 74.6088 194.994 74.5393 195.16 74.3987C195.326 74.2582 195.43 74.0578 195.449 73.841V70.7162C195.457 70.6346 195.493 70.5583 195.553 70.5018C195.612 70.4452 195.69 70.4121 195.772 70.4088V70.4088C195.811 70.4031 195.85 70.4056 195.888 70.4159C195.925 70.4263 195.96 70.4444 195.991 70.469C196.021 70.4937 196.046 70.5243 196.064 70.5591C196.082 70.5938 196.092 70.6319 196.095 70.6709L195.313 75.9629" stroke="#263238" stroke-linecap="round" stroke-linejoin="round"/>
<path d="M220.347 71.1648L217.787 71.3311C217.566 71.3614 217.341 71.3455 217.127 71.2844C216.913 71.2233 216.714 71.1184 216.542 70.9762C216.371 70.834 216.23 70.6578 216.131 70.4586C216.031 70.2594 215.973 70.0416 215.962 69.8191V67.536C215.994 67.0674 216.198 66.6271 216.535 66.2996C216.872 65.9722 217.317 65.7807 217.787 65.7619L220.347 65.5704C220.568 65.5392 220.792 65.5546 221.007 65.6154C221.221 65.6763 221.42 65.7812 221.592 65.9236C221.763 66.066 221.903 66.2426 222.002 66.4422C222.101 66.6418 222.157 66.8598 222.167 67.0824V69.4058C222.136 69.8725 221.932 70.3109 221.596 70.636C221.26 70.9611 220.815 71.1495 220.347 71.1648Z" fill="#999999" stroke="#263238" stroke-linecap="round" stroke-linejoin="round"/>
<path d="M226.531 69.4411L224.969 69.547V68.8666C225.569 67.541 225.866 66.8808 226.481 65.5502L227.373 65.4847V68.7053H227.756V69.3857H227.373V70.2526L226.551 70.308L226.531 69.4411ZM226.531 68.7607V66.906C226.214 67.6721 226.052 68.0551 225.73 68.8162L226.531 68.7607Z" fill="#263238"/>
<path d="M228.119 69.048V68.67L228.89 68.6196V69.048C228.89 69.3907 229.056 69.5016 229.318 69.4814C229.58 69.4613 229.742 69.3302 229.742 68.9774V67.9039C229.742 67.5612 229.575 67.4402 229.318 67.4604C229.061 67.4805 228.89 67.6166 228.89 67.9644V68.0047L228.119 68.0601C228.179 66.9866 228.209 66.4524 228.265 65.3839L230.422 65.2226V65.9081L228.996 66.0088C228.971 66.4675 228.955 66.6993 228.93 67.158C229.006 67.0389 229.11 66.9402 229.233 66.8708C229.356 66.8014 229.495 66.7633 229.636 66.7598C230.236 66.7195 230.543 67.0874 230.543 67.793V68.8766C230.558 69.0436 230.538 69.2119 230.483 69.3703C230.428 69.5287 230.339 69.6735 230.224 69.7952C230.108 69.9168 229.968 70.0124 229.813 70.0756C229.658 70.1388 229.491 70.1682 229.323 70.1618C229.166 70.1944 229.004 70.189 228.849 70.146C228.694 70.1031 228.552 70.0238 228.434 69.9149C228.317 69.8059 228.226 69.6704 228.172 69.5197C228.117 69.3689 228.099 69.2072 228.119 69.048Z" fill="#263238"/>
<path d="M231.072 67.1076V65.9081C231.064 65.8003 231.078 65.692 231.114 65.5902C231.15 65.4884 231.208 65.3954 231.282 65.3173C231.357 65.2393 231.448 65.1779 231.548 65.1372C231.648 65.0966 231.755 65.0776 231.863 65.0815C231.965 65.0591 232.07 65.0612 232.17 65.0877C232.27 65.1143 232.363 65.1644 232.44 65.234C232.517 65.3035 232.576 65.3905 232.613 65.4876C232.649 65.5847 232.662 65.6891 232.65 65.7921V66.9967C232.659 67.1042 232.645 67.2124 232.61 67.3142C232.574 67.416 232.517 67.5091 232.443 67.5873C232.369 67.6654 232.278 67.7269 232.179 67.7676C232.079 67.8083 231.971 67.8272 231.863 67.8233C231.761 67.8456 231.656 67.8433 231.555 67.8165C231.454 67.7897 231.361 67.7392 231.283 67.6692C231.206 67.5992 231.146 67.5117 231.11 67.414C231.073 67.3163 231.06 67.2113 231.072 67.1076ZM232.131 67.0673V65.7972C232.131 65.5855 232.025 65.5049 231.863 65.5149C231.702 65.525 231.591 65.6258 231.591 65.8375V67.1076C231.591 67.3193 231.692 67.3999 231.863 67.3898C232.035 67.3797 232.131 67.2789 232.131 67.0673ZM233.748 65.0109L234.252 64.9757C233.446 66.9614 233.043 67.9543 232.236 69.93L231.732 69.9653C232.539 67.9896 232.942 67.0017 233.748 65.016V65.0109ZM233.355 69.1538V67.9493C233.346 67.842 233.359 67.734 233.395 67.6324C233.431 67.5309 233.488 67.4381 233.562 67.3603C233.637 67.2825 233.727 67.2215 233.827 67.1814C233.927 67.1413 234.034 67.123 234.141 67.1277C234.244 67.1042 234.35 67.1056 234.451 67.1319C234.553 67.1583 234.646 67.2087 234.724 67.279C234.802 67.3493 234.861 67.4373 234.898 67.5356C234.934 67.6339 234.946 67.7395 234.933 67.8434V69.048C234.941 69.1555 234.927 69.2636 234.891 69.3652C234.855 69.4667 234.797 69.5594 234.722 69.6371C234.647 69.7148 234.557 69.7757 234.457 69.8157C234.357 69.8558 234.249 69.8741 234.141 69.8695C234.04 69.8921 233.934 69.89 233.833 69.8632C233.733 69.8364 233.64 69.7858 233.563 69.7156C233.486 69.6455 233.427 69.5578 233.39 69.46C233.354 69.3623 233.342 69.2572 233.355 69.1538ZM234.414 69.1185V67.8434C234.414 67.6317 234.308 67.5511 234.141 67.5612C233.975 67.5713 233.874 67.667 233.874 67.8837V69.1538C233.874 69.3705 233.975 69.4512 234.141 69.4411C234.308 69.431 234.414 69.3353 234.414 69.1185Z" fill="#263238"/>
<path d="M220.347 79.3548L217.787 79.4858C217.564 79.5116 217.338 79.4914 217.124 79.4264C216.909 79.3614 216.71 79.253 216.539 79.1079C216.368 78.9629 216.228 78.7842 216.129 78.5831C216.03 78.3819 215.973 78.1626 215.962 77.9385V75.6353C215.994 75.1692 216.198 74.7318 216.536 74.4091C216.874 74.0864 217.32 73.9017 217.787 73.8914L220.347 73.7352C220.569 73.7079 220.795 73.7269 221.01 73.791C221.224 73.8552 221.424 73.9631 221.594 74.108C221.765 74.2528 221.904 74.4316 222.003 74.6328C222.101 74.8341 222.157 75.0536 222.167 75.2774V77.616C222.136 78.0811 221.933 78.5179 221.596 78.8399C221.259 79.1619 220.813 79.3457 220.347 79.3548Z" fill="#EE6258" stroke="#263238" stroke-linecap="round" stroke-linejoin="round"/>
<path d="M225.14 77.49V77.112L225.916 77.0717V77.495C225.916 77.8378 226.077 77.9486 226.34 77.9386C226.602 77.9285 226.763 77.7924 226.763 77.4346V76.3661C226.763 76.0284 226.602 75.9074 226.34 75.9226C226.077 75.9377 225.916 76.0738 225.916 76.4266V76.4669L225.14 76.5072L225.291 73.8461L227.448 73.715V74.4005L226.022 74.4811C225.992 74.9398 225.982 75.1666 225.951 75.6202C226.028 75.502 226.132 75.4046 226.255 75.3369C226.378 75.2691 226.516 75.2331 226.657 75.2321C227.262 75.1968 227.564 75.5698 227.564 76.2703V77.3489C227.581 77.515 227.561 77.6826 227.506 77.8402C227.451 77.9979 227.362 78.1416 227.246 78.2615C227.13 78.3814 226.99 78.4746 226.834 78.5346C226.678 78.5946 226.511 78.62 226.345 78.6089C226.187 78.6417 226.024 78.6362 225.869 78.593C225.714 78.5498 225.571 78.4701 225.453 78.3605C225.335 78.251 225.245 78.1148 225.191 77.9633C225.136 77.8119 225.119 77.6496 225.14 77.49Z" fill="#263238"/>
<path d="M228.119 77.3287V76.9557L228.89 76.9104V77.3438C228.89 77.6815 229.056 77.7974 229.318 77.7823C229.58 77.7672 229.742 77.6412 229.742 77.2783V76.2048C229.742 75.8621 229.575 75.7411 229.318 75.7562C229.061 75.7713 228.89 75.9074 228.89 76.2602V76.3005L228.119 76.3459C228.179 75.2724 228.209 74.7381 228.265 73.6697L230.422 73.5386V74.2241L228.996 74.3047C228.971 74.7633 228.955 74.9952 228.93 75.4538C229.006 75.3353 229.11 75.2377 229.234 75.1699C229.357 75.1021 229.495 75.0663 229.636 75.0657C230.236 75.0305 230.543 75.4034 230.543 76.109V77.1926C230.559 77.3591 230.539 77.5272 230.485 77.6852C230.43 77.8433 230.341 77.9876 230.225 78.1083C230.11 78.229 229.969 78.3231 229.813 78.3843C229.657 78.4455 229.49 78.4722 229.323 78.4627C229.164 78.4961 229 78.4906 228.843 78.4467C228.687 78.4027 228.543 78.3216 228.425 78.2102C228.307 78.0988 228.217 77.9605 228.164 77.807C228.11 77.6535 228.095 77.4894 228.119 77.3287Z" fill="#263238"/>
<path d="M231.072 75.4437V74.2442C231.063 74.1367 231.076 74.0285 231.112 73.9268C231.148 73.8251 231.206 73.7323 231.281 73.6548C231.356 73.5773 231.447 73.517 231.547 73.4778C231.648 73.4386 231.756 73.4215 231.863 73.4277C231.966 73.4061 232.071 73.4091 232.172 73.4366C232.273 73.4641 232.365 73.5152 232.442 73.5857C232.519 73.6562 232.578 73.744 232.614 73.8419C232.65 73.9398 232.662 74.0449 232.65 74.1485V75.353C232.659 75.4598 232.646 75.5674 232.61 75.6685C232.574 75.7696 232.517 75.8618 232.443 75.9389C232.368 76.0159 232.278 76.0759 232.178 76.1148C232.078 76.1538 231.971 76.1707 231.863 76.1645C231.761 76.1859 231.655 76.1827 231.555 76.1552C231.454 76.1277 231.361 76.0767 231.284 76.0063C231.206 75.936 231.147 75.8483 231.11 75.7505C231.073 75.6527 231.06 75.5476 231.072 75.4437ZM232.131 75.4185V74.1485C232.131 73.9317 232.025 73.8511 231.863 73.8612C231.702 73.8713 231.591 73.967 231.591 74.1787V75.4488C231.591 75.6605 231.692 75.7461 231.863 75.7361C232.035 75.726 232.131 75.6302 232.131 75.4185ZM233.748 73.4025L234.252 73.3723C233.446 75.348 233.043 76.3358 232.236 78.3014L231.732 78.3266C232.539 76.3459 232.942 75.3581 233.748 73.3824V73.4025ZM233.355 77.5404V76.3358C233.346 76.229 233.359 76.1214 233.395 76.0203C233.431 75.9192 233.488 75.827 233.563 75.75C233.637 75.673 233.728 75.6129 233.827 75.574C233.927 75.5351 234.035 75.5182 234.142 75.5244C234.244 75.5028 234.351 75.506 234.452 75.5337C234.553 75.5615 234.646 75.613 234.724 75.6839C234.801 75.7549 234.86 75.8433 234.897 75.9417C234.933 76.0402 234.946 76.1459 234.933 76.2501V77.4597C234.943 77.567 234.929 77.6751 234.893 77.7766C234.857 77.878 234.799 77.9705 234.724 78.0476C234.649 78.1247 234.558 78.1846 234.457 78.2232C234.357 78.2618 234.249 78.2782 234.142 78.2712C234.037 78.2929 233.928 78.2889 233.826 78.2595C233.723 78.2301 233.629 78.1761 233.551 78.1022C233.474 78.0283 233.416 77.9367 233.381 77.8354C233.347 77.734 233.338 77.6258 233.355 77.5202V77.5404ZM234.414 77.5404V76.2653C234.414 76.0536 234.308 75.9679 234.142 75.978C233.975 75.9881 233.874 76.0838 233.874 76.2955V77.5706C233.874 77.7823 233.975 77.868 234.142 77.8579C234.308 77.8478 234.414 77.7117 234.414 77.5001V77.5404Z" fill="#263238"/>
<path d="M96.736 105.457L65.1957 106.188V54.4018L96.736 50.7679V105.457Z" fill="#EE6258"/>
<path opacity="0.8" d="M96.736 105.457L65.1957 106.188V54.4018L96.736 50.7679V105.457Z" fill="white"/>
<path d="M128.301 104.731L96.736 105.457V50.7679L128.281 47.1341L128.301 104.731Z" fill="#EE6258"/>
<path opacity="0.6" d="M128.301 104.731L96.736 105.457V50.7679L128.281 47.1341L128.301 104.731Z" fill="white"/>
<path d="M159.847 104.005L128.302 104.731V47.1341L159.847 43.5002V104.005Z" fill="#EE6258"/>
<path opacity="0.4" d="M159.847 104.005L128.302 104.731V47.1341L159.847 43.5002V104.005Z" fill="white"/>
<path d="M159.846 43.5002L65.2151 54.4018" stroke="#7F7F7F" stroke-linecap="round" stroke-linejoin="round"/>
<path d="M65.2158 61.8005L159.847 52.1438" stroke="#7F7F7F" stroke-linecap="round" stroke-linejoin="round"/>
<path d="M159.847 60.7875L65.2158 69.1992" stroke="#7F7F7F" stroke-linecap="round" stroke-linejoin="round"/>
<path d="M65.2158 76.608L159.847 69.4462" stroke="#7F7F7F" stroke-linecap="round" stroke-linejoin="round"/>
<path d="M159.847 78.0746L65.2158 83.9916" stroke="#7F7F7F" stroke-linecap="round" stroke-linejoin="round"/>
<path d="M65.2158 91.3903L159.847 86.7182" stroke="#7F7F7F" stroke-linecap="round" stroke-linejoin="round"/>
<path d="M159.847 95.3618L65.2158 98.784" stroke="#7F7F7F" stroke-linecap="round" stroke-linejoin="round"/>
<path d="M65.2158 106.188L159.847 104.005" stroke="#7F7F7F" stroke-linecap="round" stroke-linejoin="round"/>
<path d="M73.0984 106.006V53.4946" stroke="#7F7F7F" stroke-linecap="round" stroke-linejoin="round"/>
<path d="M65.2158 54.4018V106.188" stroke="#7F7F7F" stroke-linecap="round" stroke-linejoin="round"/>
<path d="M88.8737 105.638V51.6751" stroke="#7F7F7F" stroke-linecap="round" stroke-linejoin="round"/>
<path d="M80.986 52.5823V105.84" stroke="#7F7F7F" stroke-linecap="round" stroke-linejoin="round"/>
<path d="M104.644 105.276V49.8607" stroke="#7F7F7F" stroke-linecap="round" stroke-linejoin="round"/>
<path d="M96.736 50.7679V105.457" stroke="#7F7F7F" stroke-linecap="round" stroke-linejoin="round"/>
<path d="M120.424 104.913V48.0413" stroke="#7F7F7F" stroke-linecap="round" stroke-linejoin="round"/>
<path d="M112.531 48.9535V105.094" stroke="#7F7F7F" stroke-linecap="round" stroke-linejoin="round"/>
<path d="M136.189 104.55V46.2269" stroke="#7F7F7F" stroke-linecap="round" stroke-linejoin="round"/>
<path d="M128.302 47.1341V104.731" stroke="#7F7F7F" stroke-linecap="round" stroke-linejoin="round"/>
<path d="M151.959 104.187V44.4125" stroke="#7F7F7F" stroke-linecap="round" stroke-linejoin="round"/>
<path d="M144.072 45.3197V104.368" stroke="#7F7F7F" stroke-linecap="round" stroke-linejoin="round"/>
<path d="M159.847 43.5002V104.005" stroke="#7F7F7F" stroke-linecap="round" stroke-linejoin="round"/>
<path d="M65.2151 54.4029V106.189L159.846 104.007V43.5266L65.2151 54.4029Z" stroke="#263238" stroke-linecap="round" stroke-linejoin="round"/>
<path d="M65.2158 98.784H65.7803" stroke="#263238" stroke-linecap="round" stroke-linejoin="round"/>
<path d="M66.7429 98.7343L72.0551 98.5421" stroke="#263238" stroke-linecap="round" stroke-linejoin="round" stroke-dasharray="1.71 1.71"/>
<path d="M72.5439 98.5219H73.1034L73.5015 98.1288" stroke="#263238" stroke-linecap="round" stroke-linejoin="round"/>
<path d="M74.2878 97.3275C76.6516 94.9839 77.8158 93.7995 80.1947 91.4155" stroke="#263238" stroke-linecap="round" stroke-linejoin="round" stroke-dasharray="1.98 1.98"/>
<path d="M80.608 91.0174L81.0062 90.6142C81.1675 90.7553 81.2481 90.8309 81.4044 90.977" stroke="#263238" stroke-linecap="round" stroke-linejoin="round"/>
<path d="M82.0142 91.5516L84.2166 93.5676" stroke="#263238" stroke-linecap="round" stroke-linejoin="round" stroke-dasharray="1.58 1.58"/>
<path d="M84.5292 93.875L84.9273 94.248C85.0029 94.0363 85.0382 93.9305 85.1088 93.7188" stroke="#263238" stroke-linecap="round" stroke-linejoin="round"/>
<path d="M85.4313 92.736C86.6711 89.0669 87.291 87.2222 88.5309 83.5128" stroke="#263238" stroke-linecap="round" stroke-linejoin="round" stroke-dasharray="1.83 1.83"/>
<path d="M88.672 83.0491C88.7476 82.8324 88.7829 82.7266 88.8534 82.5149L89.4129 82.4796" stroke="#263238" stroke-linecap="round" stroke-linejoin="round"/>
<path d="M90.3755 82.4195L91.7817 82.3335" stroke="#263238" stroke-linecap="round" stroke-linejoin="round" stroke-dasharray="1.67 1.67"/>
<path d="M92.2504 82.3032L92.8148 82.2679L93.0668 81.7639" stroke="#263238" stroke-linecap="round" stroke-linejoin="round"/>
<path d="M93.5608 80.7559L96.2622 75.2119" stroke="#263238" stroke-linecap="round" stroke-linejoin="round" stroke-dasharray="1.95 1.95"/>
<path d="M96.5042 74.7231L96.7562 74.2191L97.3206 74.1737" stroke="#263238" stroke-linecap="round" stroke-linejoin="round"/>
<path d="M98.2883 74.088L103.595 73.6848" stroke="#263238" stroke-linecap="round" stroke-linejoin="round" stroke-dasharray="1.71 1.71"/>
<path d="M104.079 73.6545L104.644 73.6092L105.042 73.1808" stroke="#263238" stroke-linecap="round" stroke-linejoin="round"/>
<path d="M105.672 72.5004L107.874 70.1064" stroke="#263238" stroke-linecap="round" stroke-linejoin="round" stroke-dasharray="1.58 1.58"/>
<path d="M108.187 69.7637L108.585 69.3252L109.15 69.2798" stroke="#263238" stroke-linecap="round" stroke-linejoin="round"/>
<path d="M110.273 69.1891L116.473 68.6851C117.733 67.289 118.363 66.5935 119.623 65.1873" stroke="#263238" stroke-linecap="round" stroke-linejoin="round" stroke-dasharray="1.99 1.99"/>
<path d="M120.016 64.7388C120.177 64.5574 120.258 64.4717 120.414 64.2903L120.812 64.6682" stroke="#263238" stroke-linecap="round" stroke-linejoin="round"/>
<path d="M121.603 65.4091C123.962 67.6469 125.131 68.7758 127.51 71.0539" stroke="#263238" stroke-linecap="round" stroke-linejoin="round" stroke-dasharray="1.98 1.98"/>
<path d="M127.903 71.437L128.301 71.82C128.463 71.6436 128.538 71.5529 128.7 71.3715" stroke="#263238" stroke-linecap="round" stroke-linejoin="round"/>
<path d="M129.33 70.6658C130.212 69.6578 130.65 69.1841 131.532 68.1862" stroke="#263238" stroke-linecap="round" stroke-linejoin="round" stroke-dasharray="1.58 1.58"/>
<path d="M131.845 67.8334L132.243 67.3798L132.807 67.3344" stroke="#263238" stroke-linecap="round" stroke-linejoin="round"/>
<path d="M133.891 67.2437L140.13 66.7397C141.708 64.9303 142.494 64.0231 144.072 62.2037L146.909 61.9517" stroke="#263238" stroke-linecap="round" stroke-linejoin="round" stroke-dasharray="1.93 1.93"/>
<path d="M147.453 61.8912L148.018 61.8408L148.27 61.2763" stroke="#263238" stroke-linecap="round" stroke-linejoin="round"/>
<path d="M148.759 60.1726C149.837 57.7433 150.382 56.5236 151.46 54.0792" stroke="#263238" stroke-linecap="round" stroke-linejoin="round" stroke-dasharray="1.95 1.95"/>
<path d="M151.707 53.5198L151.959 52.9502" stroke="#263238" stroke-linecap="round" stroke-linejoin="round"/>
<path d="M65.2158 91.3903L73.0984 91.0023C76.2534 89.3441 77.8309 88.5075 80.986 86.809L84.9273 86.5872C86.5048 83.4372 87.2961 81.8496 88.8736 78.6593C90.4511 77.0062 91.2373 76.1796 92.8149 74.5063C94.3924 71.2807 95.1786 69.6579 96.7561 66.3919C99.9112 67.6771 101.489 68.3273 104.644 69.6528C106.221 71.1043 107.007 71.8351 108.585 73.3119C111.74 69.8847 113.318 68.1509 116.473 64.6431C118.05 61.2713 118.836 59.6031 120.414 56.1658C123.569 59.094 125.146 60.5808 128.302 63.5897C129.879 66.7447 130.665 68.3273 132.243 71.5227L140.13 70.9229C141.708 69.1287 142.494 68.2265 144.072 66.3869C145.649 61.1957 146.44 58.585 148.018 53.3333C149.59 49.7751 150.382 47.9859 151.959 44.3923" stroke="#263238" stroke-linecap="round" stroke-linejoin="round"/>
<path d="M80.3359 112.316C80.1739 112.372 80.0033 112.4 79.8319 112.397C79.6793 112.416 79.5244 112.4 79.3791 112.35C79.2338 112.3 79.1018 112.217 78.9934 112.108C78.8849 111.999 78.8028 111.867 78.7533 111.721C78.7038 111.576 78.6883 111.421 78.7079 111.268V108.864C78.6904 108.71 78.707 108.555 78.7567 108.408C78.8064 108.262 78.8878 108.128 78.9953 108.017C79.1027 107.905 79.2334 107.819 79.3781 107.765C79.5227 107.71 79.6777 107.688 79.8319 107.7C79.9844 107.68 80.1393 107.696 80.2849 107.745C80.4304 107.795 80.5627 107.877 80.6717 107.985C80.7806 108.094 80.8633 108.226 80.9134 108.371C80.9636 108.516 80.9798 108.671 80.9608 108.824V111.223C80.9703 111.488 80.8982 111.75 80.7542 111.974C80.8046 112.064 80.8953 112.08 81.0314 112.074H81.1423V112.725H80.9508C80.8165 112.741 80.6809 112.708 80.5682 112.634C80.4556 112.559 80.3732 112.446 80.3359 112.316ZM80.23 111.308V108.824C80.23 108.496 80.0788 108.375 79.842 108.38C79.6051 108.385 79.4589 108.511 79.4589 108.839V111.318C79.4589 111.646 79.6101 111.767 79.842 111.762C80.0738 111.757 80.23 111.621 80.23 111.293V111.308Z" fill="#263238"/>
<path d="M82.5131 108.814H81.7369V108.31C82.3669 108.31 82.5887 108.163 82.7449 107.715H83.2489V112.291H82.503L82.5131 108.814Z" fill="#263238"/>
<path d="M111.67 111.943C111.508 112.003 111.338 112.034 111.166 112.034C111.008 112.047 110.85 112.025 110.703 111.968C110.556 111.912 110.424 111.823 110.316 111.708C110.208 111.593 110.127 111.455 110.08 111.305C110.032 111.155 110.019 110.996 110.042 110.84V108.32C110.02 108.162 110.033 108.002 110.081 107.85C110.128 107.698 110.208 107.559 110.315 107.441C110.423 107.324 110.554 107.232 110.701 107.171C110.848 107.11 111.007 107.083 111.166 107.09C111.896 107.09 112.295 107.508 112.295 108.279V110.799C112.308 111.078 112.236 111.354 112.088 111.591C112.138 111.686 112.229 111.702 112.365 111.696H112.481V112.392H112.284C112.145 112.406 112.005 112.368 111.891 112.286C111.778 112.203 111.699 112.081 111.67 111.943ZM111.564 110.87V108.249C111.564 107.906 111.413 107.775 111.176 107.78C110.939 107.785 110.793 107.922 110.793 108.284V110.88C110.793 111.223 110.944 111.349 111.176 111.349C111.407 111.349 111.564 111.213 111.564 110.88V110.87Z" fill="#263238"/>
<path d="M112.793 111.424C112.787 111.102 112.851 110.782 112.979 110.486C113.108 110.19 113.299 109.926 113.539 109.711C114.104 109.096 114.265 108.703 114.265 108.274C114.265 107.846 114.119 107.725 113.882 107.73C113.645 107.735 113.494 107.871 113.494 108.234V108.738H112.793V108.269C112.793 107.498 113.171 107.05 113.902 107.04C114.633 107.029 115.011 107.458 115.011 108.229C115.011 108.804 114.779 109.318 114.089 110.074C113.645 110.578 113.529 110.804 113.529 111.137V111.243H114.94V111.933L112.793 111.959V111.424Z" fill="#263238"/>
<path d="M143.235 111.57C143.075 111.634 142.904 111.666 142.731 111.666C142 111.666 141.602 111.218 141.602 110.411V107.76C141.602 106.954 142 106.485 142.731 106.47C143.462 106.455 143.86 106.914 143.86 107.72V110.376C143.871 110.668 143.798 110.957 143.648 111.208C143.704 111.308 143.789 111.324 143.925 111.318H144.041V112.039H143.845C143.703 112.051 143.562 112.01 143.449 111.923C143.336 111.837 143.26 111.711 143.235 111.57ZM143.124 110.442V107.685C143.124 107.322 142.978 107.181 142.741 107.181C142.504 107.181 142.358 107.327 142.358 107.685V110.442C142.358 110.799 142.504 110.946 142.741 110.946C142.978 110.946 143.104 110.799 143.104 110.442H143.124Z" fill="#263238"/>
<path d="M144.319 110.376V109.963H145.019V110.411C145.019 110.769 145.165 110.915 145.402 110.915C145.639 110.915 145.79 110.784 145.79 110.336V109.922C145.79 109.454 145.639 109.282 145.286 109.287H145.039V108.562H145.306C145.584 108.562 145.755 108.426 145.755 108.017V107.649C145.755 107.286 145.599 107.145 145.382 107.145C145.165 107.145 145.024 107.292 145.024 107.624V107.957H144.324V107.69C144.324 106.878 144.702 106.42 145.407 106.41C146.113 106.399 146.496 106.828 146.496 107.639V107.856C146.496 108.4 146.335 108.738 145.992 108.889C146.39 109.04 146.536 109.393 146.536 109.922V110.376C146.536 111.187 146.158 111.636 145.427 111.641C144.697 111.646 144.319 111.198 144.319 110.376Z" fill="#263238"/>
<path d="M93.7725 82.9231C93.7725 82.9231 86.2679 76.4769 91.2525 72.2181C91.2525 72.2181 93.6565 64.6581 101.554 65.7216C109.452 66.785 105.496 62.3145 105.496 62.3145C105.496 62.3145 109.971 64.6581 107.915 66.4675C108.533 66.4967 109.147 66.3526 109.687 66.0516C110.228 65.7507 110.673 65.3047 110.974 64.764C110.974 64.764 112.35 67.2134 109.78 68.292C109.78 68.292 113.141 69.1437 112.244 71.064C112.244 71.064 109.855 69.7939 109.22 74.592C108.585 79.3901 100.985 78.6895 100.985 78.6895L93.7725 82.9231Z" fill="#263238" stroke="#263238" stroke-linecap="round" stroke-linejoin="round"/>
<path d="M94.2513 84.5208C94.2513 84.2738 92.4671 89.712 95.859 89.2533C97.4668 89.0366 95.1786 84.5208 95.1786 84.5208H94.2513Z" fill="#263238" stroke="#263238" stroke-linecap="round" stroke-linejoin="round"/>
<path d="M110.798 69.8242C110.798 69.8242 108.782 69.5016 108.383 71.8401" stroke="#7F7F7F" stroke-linecap="round" stroke-linejoin="round"/>
<path d="M106.025 69.2647C105.228 70.303 105.496 71.8452 105.496 71.8452" stroke="#7F7F7F" stroke-linecap="round" stroke-linejoin="round"/>
<path d="M110.228 66.4675C109.49 67.4761 108.419 68.1904 107.204 68.4835" stroke="#7F7F7F" stroke-linecap="round" stroke-linejoin="round"/>
<path d="M100.97 69.1588C100.97 69.1588 104.205 68.5188 103.777 71.8452" stroke="#7F7F7F" stroke-linecap="round" stroke-linejoin="round"/>
<path d="M116.835 149.567C116.835 149.567 119.522 163.588 116.835 177.327C114.149 191.066 112.491 235.187 112.491 235.187H95.7733V147.375L115.994 146.664L116.835 149.567Z" fill="#999999"/>
<path opacity="0.2" d="M106.902 168.381C106.902 168.381 106.176 173.23 109.8 172.005C113.423 170.78 115.938 171.204 112.914 173.945C109.89 176.687 105.697 180.84 105.027 195.859C104.356 210.879 103.318 235.171 103.318 235.171H96.0354L94.5234 179.389L101.141 169.646L104.22 168.366L106.902 168.381Z" fill="black"/>
<path d="M116.835 149.567C116.835 149.567 119.522 163.588 116.835 177.327C114.149 191.066 112.491 235.187 112.491 235.187H95.7733V147.375L115.994 146.664L116.835 149.567Z" stroke="#263238" stroke-linecap="round" stroke-linejoin="round"/>
<path d="M114.82 172.056C114.82 172.056 111.075 171.259 106.902 175.891" stroke="#263238" stroke-linecap="round" stroke-linejoin="round"/>
<path d="M109.281 151.145C109.281 151.145 109.109 166.769 107.093 172.696C105.077 178.623 102.053 206.433 102.391 235.192H85.1088C85.1088 235.192 84.1008 183.244 83.4204 175.573C82.74 167.903 79.2221 169.188 84.0907 147.38H109.991L109.281 151.145Z" fill="#999999" stroke="#263238" stroke-linecap="round" stroke-linejoin="round"/>
<path d="M106.005 154.491C107.335 154.4 108.55 154.295 109.653 154.184L109.8 156.759C108.651 156.875 107.38 156.986 106.005 157.077V154.491Z" fill="#263238"/>
<path d="M111.533 153.972C113.62 153.725 115.132 153.468 115.948 153.322L116.296 155.867C115.349 156.038 113.726 156.306 111.533 156.568V153.972Z" fill="#263238"/>
<path d="M83.1683 156.512L83.5615 153.992C86.3939 154.31 89.1055 154.521 91.691 154.642L91.5196 157.198C88.8837 157.056 86.0915 156.845 83.1683 156.512Z" fill="#263238"/>
<path d="M93.6566 154.728C97.5978 154.854 101.156 154.783 104.241 154.617V157.198C102.285 157.298 100.138 157.364 97.8297 157.364C96.4689 157.364 95.0476 157.339 93.5759 157.288L93.6566 154.728Z" fill="#263238"/>
<path d="M141.688 127.179L145.942 124.614C145.942 124.614 147.731 119.927 149.973 118.652C152.216 117.377 154.449 116.202 155.013 116.52C155.578 116.837 154.903 117.906 153.446 118.969C152.539 119.634 155.18 118.506 158.567 116.953C160.583 116.016 162.911 114.71 163.269 115.275C164.584 117.326 157.856 119.937 157.856 119.937C157.856 119.937 160.164 119.826 159.267 121.53C159.267 121.53 159.605 123.127 158.819 123.661L157.927 124.75C157.56 125.825 156.852 126.751 155.911 127.386C153.881 128.516 151.622 129.173 149.303 129.306L143.709 133.222L141.688 127.179Z" fill="white" stroke="#263238" stroke-linecap="round" stroke-linejoin="round"/>
<path d="M156.465 120.144C156.465 120.144 151.707 121.101 151.959 122.16C152.211 123.218 153.688 122.472 153.688 122.472C153.688 122.472 152.115 123.006 152.287 123.591C152.458 124.176 153.572 124.165 153.572 124.165C153.572 124.165 152.115 124.498 152.287 125.173C152.458 125.849 153.426 126.081 154.227 125.975C155.029 125.869 155.643 125.597 155.87 126C156.097 126.403 153.683 125.758 152.287 126.746" stroke="#263238" stroke-linecap="round" stroke-linejoin="round"/>
<path d="M152.68 119.342C152.606 119.933 152.358 120.489 151.969 120.94C151.39 121.474 151.894 123.283 149.767 125.254" stroke="#263238" stroke-linecap="round" stroke-linejoin="round"/>
<path d="M157.513 121.978L154.867 122.296" stroke="#263238" stroke-linecap="round" stroke-linejoin="round"/>
<path d="M157.302 123.974L154.867 124.176" stroke="#263238" stroke-linecap="round" stroke-linejoin="round"/>
<path d="M131.613 129.886C135.307 128.878 139.773 126.121 141.92 124.695C142.043 124.609 142.187 124.557 142.336 124.542C142.486 124.527 142.636 124.55 142.775 124.609C142.913 124.667 143.034 124.76 143.127 124.878C143.22 124.996 143.281 125.136 143.306 125.284C143.548 127.235 144.314 130.556 146.894 131.458C150.588 132.759 147.06 134.765 144.712 135.44C142.363 136.115 125.56 144.26 120.52 143.146C115.48 142.032 113.801 141.226 111.448 136.357C109.094 131.489 110.268 108.002 110.268 108.002L117.324 106.243C117.324 106.243 119.169 107.896 120.066 118.969C120.963 130.042 122.44 131.428 122.44 131.428C122.44 131.428 126.921 128.117 125.746 131.317C125.736 131.317 130.343 130.229 131.613 129.886Z" fill="#EE6258" stroke="#263238" stroke-linecap="round" stroke-linejoin="round"/>
<path d="M123.383 133.217C123.383 133.217 121.563 139.296 120.192 138.832C118.821 138.368 119.184 136.71 121.452 133.217" stroke="#263238" stroke-linecap="round" stroke-linejoin="round"/>
<path d="M117.34 106.243C114.069 103.134 109.276 100.014 99.3719 99.3737C89.4683 98.7336 75.6839 101.133 75.1799 104.968C74.6759 108.804 80.3863 129.362 80.3863 147.778C80.3863 150.494 80.7239 153.528 86.4343 153.528C92.1446 153.528 118.343 155.444 118.69 149.214C119.038 142.985 117.35 136.755 117.854 127.809C118.358 118.863 119.86 108.642 117.34 106.243Z" fill="#EE6258" stroke="#263238" stroke-linecap="round" stroke-linejoin="round"/>
<path d="M77.962 102.312C77.962 102.312 73.8494 103.537 72.9523 109.716C72.0551 115.895 68.139 129.84 69.5956 130.163C71.0522 130.486 66.123 132.93 67.9123 136.554C69.7015 140.178 77.7655 151.885 82.4678 150.61C87.1701 149.335 86.9433 142.088 85.4918 140.813C84.0403 139.537 79.096 136.861 79.096 136.861C79.096 136.861 80.5475 136.009 78.7583 134.412C76.9691 132.814 80.0536 135.218 80.9961 129.83C82.115 123.445 86.0361 114.282 83.6824 108.748" fill="#EE6258"/>
<path d="M77.962 102.312C77.962 102.312 73.8494 103.537 72.9523 109.716C72.0551 115.895 68.139 129.84 69.5956 130.163C71.0522 130.486 66.123 132.93 67.9123 136.554C69.7015 140.178 77.7655 151.885 82.4678 150.61C87.1701 149.335 86.9433 142.088 85.4918 140.813C84.0403 139.537 79.096 136.861 79.096 136.861C79.096 136.861 80.5475 136.009 78.7583 134.412C76.9691 132.814 80.0536 135.218 80.9961 129.83C82.115 123.445 86.0361 114.282 83.6824 108.748" stroke="#263238" stroke-linecap="round" stroke-linejoin="round"/>
<path d="M78.214 131.111C78.214 131.111 71.8333 129.599 70.15 132.174C68.4666 134.749 72.801 131.645 76.959 132.708" stroke="#263238" stroke-linecap="round" stroke-linejoin="round"/>
<path d="M87.4473 143.252C86.4393 142.531 84.0352 141.281 82.4678 142.748C80.9003 144.215 77.1506 145.086 77.3723 146.205C77.5941 147.324 78.9952 147.647 81.5152 146.422C84.0352 145.197 81.9537 146.74 82.4073 149.189C82.8609 151.638 83.2288 153.866 85.1995 153.448C85.1995 153.448 85.3759 154.511 87.1701 154.032C87.1701 154.032 88.5107 155.131 90.6376 154.158C90.6376 154.158 91.817 155.363 93.5507 153.287C95.2845 151.21 94.216 150.696 94.216 150.696C94.216 150.696 93.4348 148.292 91.696 150.696C91.696 150.696 91.9984 147.722 90.2445 145.858C89.3751 144.924 88.4403 144.053 87.4473 143.252Z" fill="white" stroke="#263238" stroke-linecap="round" stroke-linejoin="round"/>
<path d="M85.9555 152.712C85.9555 152.712 88.793 150.903 88.1781 149.839C87.5632 148.776 85.265 151.008 85.265 151.008C85.265 151.008 85.6027 150.434 84.9324 149.552" stroke="#263238" stroke-linecap="round" stroke-linejoin="round"/>
<path d="M88.0067 153.312C88.0067 153.312 92.2958 151.976 91.313 150.696C90.441 149.567 88.5964 150.862 88.5964 150.862" stroke="#263238" stroke-linecap="round" stroke-linejoin="round"/>
<path d="M93.712 151.145C93.712 151.145 93.2584 152.425 91.2474 153.665" stroke="#263238" stroke-linecap="round" stroke-linejoin="round"/>
<path d="M86.5956 147.375C87.2025 148.31 88.0481 149.067 89.045 149.567" stroke="#263238" stroke-linecap="round" stroke-linejoin="round"/>
<path d="M78.214 136.357C78.214 136.357 74.6054 134.598 71.8334 135.954" stroke="#263238" stroke-linecap="round" stroke-linejoin="round"/>
<path d="M105.501 102.65L102.618 101.611L99.3719 102.65C99.3719 102.65 101.554 105.926 102.436 106.082C102.436 106.082 105.596 130.617 106.594 142.073C107.592 153.528 107.265 154.587 107.265 154.587L111.629 158.16L114.82 153.654C114.82 153.654 113.141 135.636 110.959 124.926C109.606 118.378 107.522 112.003 104.745 105.921C104.745 105.921 106.03 104.273 105.501 102.65Z" fill="#EE6258"/>
<path opacity="0.3" d="M105.501 102.65L102.618 101.611L99.3719 102.65C99.3719 102.65 101.554 105.926 102.436 106.082C102.436 106.082 105.596 130.617 106.594 142.073C107.592 153.528 107.265 154.587 107.265 154.587L111.629 158.16L114.82 153.654C114.82 153.654 113.141 135.636 110.959 124.926C109.606 118.378 107.522 112.003 104.745 105.921C104.745 105.921 106.03 104.273 105.501 102.65Z" fill="black"/>
<path d="M105.501 102.65L102.618 101.611L99.3719 102.65C99.3719 102.65 101.554 105.926 102.436 106.082C102.436 106.082 105.596 130.617 106.594 142.073C107.592 153.528 107.265 154.587 107.265 154.587L111.629 158.16L114.82 153.654C114.82 153.654 113.141 135.636 110.959 124.926C109.606 118.378 107.522 112.003 104.745 105.921C104.745 105.921 106.03 104.273 105.501 102.65Z" stroke="#263238" stroke-linecap="round" stroke-linejoin="round"/>
<path d="M105.843 94.248C105.843 94.248 105.274 97.9322 106.69 100.457C106.69 100.457 103.626 101.798 102.31 101.969C100.995 102.141 94.2462 98.1187 94.2462 98.1187C95.1281 93.8851 95.4433 89.5531 95.1837 85.2364C94.7502 78.13 102.809 89.6767 102.809 89.6767L106.685 93.2047L105.843 94.248Z" fill="white"/>
<path d="M107.093 94.5857C107.093 94.5857 107.174 96.9797 103.777 96.899C100.38 96.8184 97.0031 91.7683 96.4336 90.5083C95.8641 89.2483 95.1887 83.3213 95.1887 83.3213L103.757 85.7304L107.915 94.248L107.093 94.5857Z" fill="#263238" stroke="#263238" stroke-linecap="round" stroke-linejoin="round"/>
<path d="M105.843 94.248C105.843 94.248 105.274 97.9322 106.69 100.457C106.69 100.457 103.626 101.798 102.31 101.969C100.995 102.141 94.2462 98.1187 94.2462 98.1187C95.1281 93.8851 95.4433 89.5531 95.1837 85.2364C94.7502 78.13 102.809 89.6767 102.809 89.6767L106.685 93.2047L105.843 94.248Z" stroke="#263238" stroke-linecap="round" stroke-linejoin="round"/>
<path d="M106.201 98.6278C106.201 98.6278 104.523 101.506 102.618 101.611C100.713 101.717 94.3319 95.5634 92.9912 96.5009C92.1557 97.132 91.546 98.0157 91.2524 99.0209L96.9577 105.78C96.9577 105.78 101.136 102.211 102.814 102.317C104.493 102.423 108.101 105.78 108.101 105.78V100.886C108.101 100.886 106.992 97.5139 106.201 98.6278Z" fill="#EE6258" stroke="#263238" stroke-linecap="round" stroke-linejoin="round"/>
<path d="M108.635 72.7877C108.635 72.7877 110.984 79.6774 110.52 81.4313C110.52 81.4313 112.708 94.4899 107.496 95.5433C103.384 96.3597 99.3164 92.4084 97.7641 90.6746C97.3419 90.2004 97.0181 89.6471 96.8116 89.0467L95.8036 86.0933C95.8036 86.0933 93.7523 86.2445 92.5024 83.4926C91.2524 80.7408 93.7976 78.0696 95.7683 82.2377C95.7683 82.2377 97.3105 78.0242 97.1946 76.3308C97.0787 74.6374 99.3013 75.0506 99.76 73.3774C99.76 73.3673 105.032 74.219 108.635 72.7877Z" fill="white"/>
<path d="M108.635 72.7877C108.635 72.7877 110.984 79.6774 110.52 81.4313C110.52 81.4313 112.708 94.4899 107.496 95.5433C103.384 96.3597 99.3164 92.4084 97.7641 90.6746C97.3419 90.2004 97.0181 89.6471 96.8116 89.0467L95.8036 86.0933C95.8036 86.0933 93.7523 86.2445 92.5024 83.4926C91.2524 80.7408 93.7976 78.0696 95.7683 82.2377C95.7683 82.2377 97.3105 78.0242 97.1946 76.3308C97.0787 74.6374 99.3013 75.0506 99.76 73.3774C99.76 73.3673 105.032 74.219 108.635 72.7877Z" stroke="#263238" stroke-linecap="round" stroke-linejoin="round"/>
<path d="M108.383 82.6207L111.166 86.1235C111.231 86.2072 111.275 86.3054 111.294 86.4097C111.313 86.514 111.306 86.6213 111.275 86.7227C111.244 86.824 111.189 86.9164 111.115 86.9919C111.04 87.0675 110.949 87.124 110.848 87.1567L108.872 87.8522" fill="white"/>
<path d="M108.383 82.6207L111.166 86.1235C111.231 86.2072 111.275 86.3054 111.294 86.4097C111.313 86.514 111.306 86.6213 111.275 86.7227C111.244 86.824 111.189 86.9164 111.115 86.9919C111.04 87.0675 110.949 87.124 110.848 87.1567L108.872 87.8522" stroke="#263238" stroke-linecap="round" stroke-linejoin="round"/>
<path d="M104.336 89.2533C104.336 89.2533 105.198 91.0274 108.081 89.46" stroke="#263238" stroke-linecap="round" stroke-linejoin="round"/>
<path d="M107.91 82.4796C107.995 84.2234 107.139 85.675 106 85.7254C104.86 85.7758 103.868 84.4049 103.782 82.6661C103.696 80.9273 104.553 80.4233 105.692 80.3729C106.831 80.3225 107.824 80.7357 107.91 82.4796Z" stroke="#263238" stroke-linecap="round" stroke-linejoin="round"/>
<path d="M113.156 82.0865C113.242 83.8303 112.557 85.2768 111.644 85.3171C110.732 85.3574 109.89 83.9815 109.805 82.2377C109.719 80.4938 110.415 80.0049 111.347 79.9596C112.279 79.9142 113.071 80.3426 113.156 82.0865Z" fill="white" stroke="#263238" stroke-linecap="round" stroke-linejoin="round"/>
<path d="M103.792 79.9445C103.792 79.9445 105.032 78.1301 107.229 79.5161" stroke="#263238" stroke-linecap="round" stroke-linejoin="round"/>
<path d="M109.84 79.511C110.231 79.0626 110.765 78.7634 111.352 78.6643" stroke="#263238" stroke-linecap="round" stroke-linejoin="round"/>
<path d="M103.792 82.656C103.065 82.8594 102.318 82.9878 101.564 83.039C99.8558 82.8727 95.1989 80.6098 95.1989 80.6098" stroke="#263238" stroke-linecap="round" stroke-linejoin="round"/>
<path d="M109.78 81.9504L107.995 82.2578" stroke="#263238" stroke-linecap="round" stroke-linejoin="round"/>
<path d="M106.907 82.6913C106.856 83.2305 106.534 83.6388 106.181 83.6085C105.828 83.5783 105.591 83.1045 105.637 82.6005C105.682 82.0965 106.015 81.653 106.362 81.6833C106.71 81.7135 106.957 82.152 106.907 82.6913Z" fill="#263238"/>
<path d="M111.251 82.1016C111.201 82.6056 110.959 83.034 110.707 83.0088C110.455 82.9836 110.294 82.5501 110.344 82.026C110.394 81.5018 110.631 81.0986 110.883 81.1188C111.135 81.1389 111.297 81.5824 111.251 82.1016Z" fill="#263238"/>
<path d="M91.3381 142.808C92.2201 140.53 98.1421 140.908 98.1421 140.908" stroke="#263238" stroke-linecap="round" stroke-linejoin="round"/>
<path d="M105.465 143.958C99.1905 145.47 92.3613 146.553 91.4591 144.421" stroke="#263238" stroke-linecap="round" stroke-linejoin="round"/>
<path d="M116.296 140.908C116.296 140.908 115.641 141.12 114.547 141.458" stroke="#263238" stroke-linecap="round" stroke-linejoin="round"/>
<path d="M245.214 235.187H23.8475V205.713C23.8475 205.713 66.743 189.081 122.128 189.081C189.648 189.106 245.214 235.187 245.214 235.187Z" fill="#EE6258" stroke="#263238" stroke-linecap="round" stroke-linejoin="round"/>
<path opacity="0.2" d="M154.006 197.326L127.873 193.803L101.292 198.294L127.425 201.822L154.006 197.326Z" fill="black"/>
<path d="M150.805 197.079L126.522 193.803L101.821 197.976L126.104 201.252L150.805 197.079Z" fill="white" stroke="#263238" stroke-linecap="round" stroke-linejoin="round"/>
<path d="M154.005 196.096L129.723 192.82L105.022 196.993L129.304 200.269L154.005 196.096Z" fill="white" stroke="#263238" stroke-linecap="round" stroke-linejoin="round"/>
<path opacity="0.2" d="M104.115 214.235C108.721 214.235 112.456 213.473 112.456 212.532C112.456 211.591 108.721 210.828 104.115 210.828C99.5079 210.828 95.7734 211.591 95.7734 212.532C95.7734 213.473 99.5079 214.235 104.115 214.235Z" fill="black"/>
<path d="M108.938 212.068C108.938 212.542 106.246 212.925 102.92 212.925C99.5937 212.925 96.9073 212.542 96.9073 212.068V200.778C96.9073 200.305 99.5987 199.922 102.92 199.922C106.241 199.922 108.938 200.305 108.938 200.778V212.068Z" fill="white" stroke="#263238" stroke-linecap="round" stroke-linejoin="round"/>
<path d="M108.938 200.778C108.938 201.252 106.246 201.635 102.92 201.635C99.5937 201.635 96.9073 201.252 96.9073 200.778C96.9073 200.305 99.5987 199.922 102.92 199.922C106.241 199.922 108.938 200.305 108.938 200.778Z" fill="white" stroke="#263238" stroke-linecap="round" stroke-linejoin="round"/>
<path d="M108.212 211C108.053 211.003 107.898 210.949 107.776 210.847C107.654 210.745 107.572 210.602 107.547 210.445C107.536 210.36 107.542 210.273 107.565 210.189C107.588 210.106 107.627 210.028 107.681 209.961C107.734 209.893 107.801 209.837 107.877 209.795C107.952 209.754 108.035 209.728 108.121 209.719C108.273 209.719 111.922 209.155 111.922 205.869C111.922 205.042 111.7 204.483 111.266 204.201C110.455 203.697 108.938 204.09 108.469 204.276C108.305 204.341 108.122 204.341 107.958 204.276C107.794 204.21 107.661 204.084 107.587 203.923C107.555 203.844 107.539 203.76 107.54 203.675C107.541 203.589 107.559 203.505 107.593 203.427C107.628 203.349 107.677 203.278 107.74 203.22C107.802 203.162 107.875 203.116 107.955 203.087C108.212 202.986 110.475 202.149 112.017 203.137C112.849 203.671 113.272 204.589 113.272 205.869C113.272 209.397 110.026 210.763 108.308 210.995L108.212 211Z" fill="white" stroke="#263238" stroke-linecap="round" stroke-linejoin="round"/>
<path d="M116.856 203.651C116.457 204.034 116.185 204.397 116.256 204.468C116.326 204.538 116.709 204.276 117.113 203.893C117.516 203.51 117.783 203.147 117.712 203.082C117.642 203.016 117.259 203.273 116.856 203.651Z" fill="#263238" stroke="#263238" stroke-linecap="round" stroke-linejoin="round"/>
<path d="M119.023 200.189C117.375 201.756 116.427 203.394 116.906 203.848C117.385 204.301 119.113 203.404 120.762 201.832L131.381 191.727C133.029 190.159 133.976 188.516 133.498 188.063C133.019 187.609 131.295 188.506 129.647 190.079L119.023 200.189Z" fill="#EE6258" stroke="#263238" stroke-linecap="round" stroke-linejoin="round"/>
<path d="M129.824 193.213L129.385 193.632C129.078 193.385 128.775 193.128 128.483 192.84C128.191 192.553 127.908 192.271 127.651 191.984L128.09 191.565C128.347 191.853 128.624 192.14 128.921 192.422C129.219 192.704 129.521 192.966 129.824 193.213Z" fill="#263238" stroke="#263238" stroke-linecap="round" stroke-linejoin="round"/>
<path d="M132.192 188.229C132.192 188.229 131.457 187.775 129.773 189.015C128.09 190.255 126.522 192.397 125.741 192.326" stroke="#263238" stroke-linecap="round" stroke-linejoin="round"/>
<path d="M111.74 209.094C111.74 209.094 112.965 206.136 112.965 204.624C112.965 203.112 116.15 198.017 118.509 197.119C120.867 196.222 128.81 192.478 129.39 193.995C129.97 195.512 126.396 197.392 125.645 197.744C124.81 198.269 124.024 198.868 123.297 199.534C123.297 199.534 126.931 198.808 127.329 197.659C127.727 196.51 128.841 194.977 129.446 195.96C130.05 196.943 129.773 199.443 128.831 201.363V202.658C128.831 202.658 129.864 204.17 128.74 205.425L127.873 206.317C127.873 206.317 129.385 207.829 127.329 209.089C127.329 209.089 128.271 210.43 126.578 211.766C126.578 211.766 123.009 213.464 120.757 213.998C118.504 214.533 116.533 217.753 116.533 217.753L111.74 209.094Z" fill="white" stroke="#263238" stroke-linecap="round" stroke-linejoin="round"/>
<path d="M42.7273 157.863L48.614 144.724L44.8239 133.716L44.4459 121.091L54.8183 115.275L63.9759 113.733L67.7106 115.895L69.2629 119.493C69.2629 119.493 73.9199 128.908 73.1991 130.717C72.4784 132.527 71.9442 134.245 71.9442 134.245C71.9442 134.245 74.1416 139.134 75.4419 140.687C76.7423 142.239 72.7103 141.296 72.2365 144.094C71.7627 146.891 72.3272 154.315 68.8698 154.652C65.4123 154.99 63.3258 153.917 63.0083 156.835C62.6907 159.753 59.1426 167.162 59.1426 167.162L42.7273 157.863Z" fill="white" stroke="#263238" stroke-linecap="round" stroke-linejoin="round"/>
<path d="M71.6065 105.336C71.1025 103.643 66.249 105.996 65.745 109.625C65.745 109.625 65.125 104.081 63.5223 103.552C62.1212 103.093 60.1859 105.608 60.8864 108.592C60.8864 108.592 55.6498 105.84 53.9614 106.48C52.7115 106.954 52.273 109.393 54.9694 111.52C54.9694 111.52 38.5995 107.881 39.5571 122.139C39.5571 122.139 30.5557 128.848 47.2079 147.904C47.2079 147.904 51.1592 147.027 52.2479 146.392C52.8779 146.024 58.1446 141.856 58.1446 141.856C56.6327 141.317 54.0018 139.774 53.2861 137.915C52.3789 135.561 53.5935 132.749 55.8061 132.371C57.1316 132.144 57.8826 132.733 58.8301 133.792C58.8301 133.792 56.6478 131.035 56.7839 129.966C56.9552 128.631 60.2514 127.215 60.4933 125.889C60.6042 125.264 59.1375 124.034 59.5256 123.515C61.5013 120.879 70.9412 123.934 69.9735 115.194C69.0058 106.455 72.3121 107.71 71.6065 105.336Z" fill="#263238" stroke="#263238" stroke-linecap="round" stroke-linejoin="round"/>
<path d="M71.2587 133.56C71.2587 134.25 71.1226 134.815 70.9009 134.82C70.6791 134.825 70.4926 134.271 70.4725 133.58C70.4523 132.89 70.6085 132.325 70.8253 132.32C71.042 132.315 71.2385 132.88 71.2587 133.56Z" fill="#263238"/>
<path d="M69.6056 131.08C69.6056 131.08 70.1802 129.311 71.3343 129.195" stroke="#263238" stroke-linecap="round" stroke-linejoin="round"/>
<path d="M57.2374 117.467C62.8923 117.916 58.2152 109.615 58.2152 109.615" stroke="#7F7F7F" stroke-linecap="round" stroke-linejoin="round"/>
<path d="M42.8937 121.353C42.8937 121.353 47.344 114.882 55.539 117.145" stroke="#7F7F7F" stroke-linecap="round" stroke-linejoin="round"/>
<path d="M64.984 113.758C65.5384 116.631 64.984 120.471 58.3816 120.935" stroke="#7F7F7F" stroke-linecap="round" stroke-linejoin="round"/>
<path d="M63.855 110.568C64.0839 111.004 64.2826 111.455 64.4497 111.918" stroke="#7F7F7F" stroke-linecap="round" stroke-linejoin="round"/>
<path d="M69.9635 235.187C69.9635 235.187 75.064 182.66 69.016 172.746C62.968 162.832 44.8895 151.2 38.4232 156.24C15.9851 173.809 15.9095 188.814 14.4832 235.176L69.9635 235.187Z" fill="#263238" stroke="#263238" stroke-linecap="round" stroke-linejoin="round"/>
<path d="M65.0394 170.856C65.0394 170.856 72.171 172.731 76.1274 183.456C79.7713 193.299 86.3938 206.277 90.8139 212.743C91.1635 213.239 91.6461 213.626 92.2061 213.86C92.7661 214.094 93.3806 214.164 93.979 214.064C95.9245 213.756 99.6339 213.52 103.187 211.589C106.478 209.8 109.386 207.84 113.045 208.374C116.704 208.908 118.998 212.31 118.408 217.224C117.843 221.911 96.7712 234.103 84.3274 234.103C74.1769 234.103 64.8982 206.242 61.7986 197.936C58.699 189.63 55.4634 171.405 65.0394 170.856Z" fill="#263238" stroke="#263238" stroke-linecap="round" stroke-linejoin="round"/>
<path d="M61.2845 171.975C62.2127 171.289 63.3264 170.899 64.4799 170.856" stroke="#7F7F7F" stroke-linecap="round" stroke-linejoin="round"/>
<path d="M58.7999 175.896C58.9942 175.231 59.2595 174.589 59.5912 173.981" stroke="#7F7F7F" stroke-linecap="round" stroke-linejoin="round"/>
<path d="M69.2225 215.51C66.2087 209.817 63.5427 203.947 61.2392 197.931C59.3089 192.755 57.3231 183.733 58.4168 177.539" stroke="#7F7F7F" stroke-linecap="round" stroke-linejoin="round"/>
<path d="M64.8025 168.996C64.8025 168.996 67.6198 164.889 64.8025 161.492C61.9851 158.095 49.1281 150.756 44.3199 152.566C43.9573 152.685 43.6225 152.876 43.3357 153.128C43.0489 153.38 42.8161 153.687 42.6513 154.031C42.4864 154.376 42.393 154.75 42.3766 155.131C42.3602 155.512 42.4212 155.893 42.5559 156.25C42.5559 156.25 52.2226 156.673 64.8025 168.996Z" fill="#263238" stroke="#263238" stroke-linecap="round" stroke-linejoin="round"/>
<path d="M63.2401 167.832C63.6383 168.205 64.0415 168.588 64.4447 168.986" stroke="#7F7F7F" stroke-linecap="round" stroke-linejoin="round"/>
<path d="M45.8572 157.006C49.1987 158.014 54.6016 160.388 61.0276 165.866" stroke="#7F7F7F" stroke-linecap="round" stroke-linejoin="round"/>
<path d="M42.2133 156.24C42.7798 156.283 43.3424 156.367 43.8966 156.492" stroke="#7F7F7F" stroke-linecap="round" stroke-linejoin="round"/>
<path d="M93.6212 220.969C93.6212 220.969 93.6212 218.025 92.0739 217.219C90.5266 216.413 91.7917 220.969 90.2444 224.723" stroke="#7F7F7F" stroke-linecap="round" stroke-linejoin="round"/>
<path d="M77.2866 188.824C77.2866 188.824 78.5567 188.955 79.6806 201.277" stroke="#7F7F7F" stroke-linecap="round" stroke-linejoin="round"/>
<path d="M58.1195 141.826L59.1981 142.027C59.2337 143.544 59.5929 145.035 60.2514 146.402C61.2594 148.277 62.6908 148.635 66.0525 152.284C69.1874 155.681 70.6288 153.468 70.8102 153.15C70.6408 153.551 70.3707 153.9 70.0263 154.165C69.6819 154.43 69.2748 154.601 68.8446 154.662C65.3922 155 63.3006 153.927 62.9831 156.845C62.4287 154.587 60.6244 151.87 59.1981 148.473C58.3315 146.37 57.9624 144.095 58.1195 141.826Z" fill="#263238" stroke="#263238" stroke-linecap="round" stroke-linejoin="round"/>
<path opacity="0.3" d="M59.5912 139.704C59.9893 137.38 57.5752 132.648 58.8402 133.746C60.1052 134.845 61.7533 138.897 63.724 140.44C65.6946 141.982 65.5081 145.596 68.3255 144.078C69.5534 143.394 70.999 143.214 72.3575 143.574C72.2936 143.737 72.248 143.906 72.2214 144.078C71.7527 146.891 72.3121 154.3 68.8547 154.637C67.8586 154.711 66.8593 154.733 65.8609 154.703C63.9054 152.657 61.1132 149.617 60.0448 147.853C58.316 145.026 59.198 142.027 59.5912 139.704Z" fill="#263238"/>
<path d="M71.5813 146.422C71.5813 146.422 69.8123 145.651 69.8476 144.542" stroke="#263238" stroke-linecap="round" stroke-linejoin="round"/>
</g>
<defs>
<filter id="filter0_d" x="0" y="0" width="260" height="260" filterUnits="userSpaceOnUse" color-interpolation-filters="sRGB">
<feFlood flood-opacity="0" result="BackgroundImageFix"/>
<feColorMatrix in="SourceAlpha" type="matrix" values="0 0 0 0 0 0 0 0 0 0 0 0 0 0 0 0 0 0 127 0"/>
<feOffset dy="4"/>
<feGaussianBlur stdDeviation="2"/>
<feColorMatrix type="matrix" values="0 0 0 0 0 0 0 0 0 0 0 0 0 0 0 0 0 0 0.25 0"/>
<feBlend mode="normal" in2="BackgroundImageFix" result="effect1_dropShadow"/>
<feBlend mode="normal" in="SourceGraphic" in2="effect1_dropShadow" result="shape"/>
</filter>
<clipPath id="clip0">
<rect width="252" height="252" fill="white" transform="translate(4)"/>
</clipPath>
</defs>
</svg>
