<svg width="252" height="252" viewBox="0 0 252 252" fill="none" xmlns="http://www.w3.org/2000/svg">
<path d="M211.236 119.161C163.86 91.8036 87.2827 91.8036 40.2091 119.161C-6.86449 146.518 -6.61753 190.87 40.7635 218.232C88.1446 245.594 164.717 245.589 211.796 218.232C258.875 190.875 258.618 146.518 211.236 119.161Z" fill="#F5F5F5"/>
<path d="M145.152 160.141C129.886 151.326 105.21 151.326 90.0396 160.141C74.8692 168.956 74.9498 183.249 90.221 192.064C105.492 200.879 130.163 200.879 145.333 192.064C160.504 183.249 160.398 168.961 145.152 160.141Z" fill="#E0E0E0"/>
<path d="M51.0451 130.561L53.9129 128.208C54.0893 123.672 54.2657 118.914 53.5147 114.448C52.7638 109.983 50.9947 105.563 47.8145 102.352C46.4738 101.007 44.7905 99.8626 42.9307 99.6458C41.071 99.4291 38.939 100.382 38.2939 102.166C37.6135 104.036 38.6366 106.057 39.7303 107.71C42.0538 111.238 44.8308 114.474 47.1139 118.037C49.397 121.6 50.9897 126.333 51.0451 130.561Z" fill="#F0F0F0"/>
<path d="M51.0451 131.181L48.1723 133.56C46.0505 129.079 43.1323 124.932 39.1003 122.059C37.7194 121.051 36.2376 120.199 35.0683 118.959C33.899 117.719 33.0977 116.001 33.4354 114.342C33.8688 112.206 36.1318 110.814 38.309 110.784C40.4863 110.754 42.5275 111.878 44.2159 113.254C49.392 117.457 52.3454 124.624 51.0451 131.181Z" fill="#F0F0F0"/>
<path opacity="0.1" d="M51.0451 131.181L48.1723 133.56C46.0505 129.079 43.1323 124.932 39.1003 122.059C37.7194 121.051 36.2376 120.199 35.0683 118.959C33.899 117.719 33.0977 116.001 33.4354 114.342C33.8688 112.206 36.1318 110.814 38.309 110.784C40.4863 110.754 42.5275 111.878 44.2159 113.254C49.392 117.457 52.3454 124.624 51.0451 131.181Z" fill="black"/>
<path d="M52.663 129.483C52.6954 129.482 52.7274 129.475 52.7571 129.462C52.7868 129.449 52.8137 129.43 52.8361 129.407C52.8586 129.383 52.8762 129.356 52.888 129.326C52.8998 129.295 52.9055 129.263 52.9049 129.231C52.789 122.517 51.282 110.124 42.5074 102.519C42.4579 102.475 42.3932 102.453 42.3275 102.457C42.2618 102.462 42.2005 102.492 42.1571 102.541C42.1136 102.591 42.0916 102.655 42.0959 102.721C42.1001 102.787 42.1303 102.848 42.1798 102.892C45.8842 106.112 52.1388 113.813 52.4059 129.256C52.4123 129.319 52.4423 129.378 52.4899 129.42C52.5376 129.462 52.5994 129.484 52.663 129.483Z" fill="white"/>
<path d="M49.6541 132.552C49.6866 132.549 49.7181 132.539 49.7469 132.524C49.7757 132.509 49.8011 132.488 49.8217 132.462C49.8424 132.437 49.8578 132.408 49.867 132.376C49.8763 132.345 49.8793 132.312 49.8758 132.28C49.2862 126.232 46.6553 117.936 37.4472 112.624C37.3901 112.592 37.323 112.584 37.2601 112.601C37.1971 112.618 37.1431 112.659 37.1095 112.715C37.0925 112.743 37.0813 112.774 37.0766 112.807C37.0719 112.84 37.0739 112.873 37.0824 112.905C37.0908 112.937 37.1056 112.967 37.1259 112.993C37.1461 113.019 37.1714 113.041 37.2002 113.057C46.2218 118.274 48.7922 126.418 49.3819 132.335C49.3895 132.4 49.4224 132.459 49.4734 132.5C49.5243 132.54 49.5893 132.559 49.6541 132.552Z" fill="white"/>
<path d="M220.974 147.506C222.314 146.059 223.836 144.784 225.076 143.252C225.923 142.204 226.659 140.903 226.422 139.583C226.284 138.972 225.977 138.412 225.537 137.967C225.097 137.522 224.541 137.208 223.932 137.063C222.7 136.793 221.411 136.989 220.314 137.612C219.231 138.236 218.263 139.041 217.451 139.991C212.815 145.103 210.331 151.806 210.516 158.705C210.475 159.491 210.668 160.271 211.07 160.947C211.321 161.285 211.663 161.544 212.055 161.694C212.448 161.844 212.876 161.879 213.288 161.794C215.394 161.32 215.304 158.513 215.757 156.895C216.732 153.397 218.519 150.178 220.974 147.501V147.506Z" fill="#E6E6E6"/>
<path d="M212.633 159.667C212.673 159.663 212.711 159.644 212.74 159.615C212.768 159.585 212.786 159.547 212.789 159.506C213.162 156.205 215.011 144.966 223.242 139.079C223.281 139.051 223.308 139.008 223.316 138.96C223.324 138.913 223.313 138.864 223.285 138.824C223.257 138.785 223.214 138.758 223.166 138.75C223.118 138.742 223.069 138.753 223.03 138.781C214.679 144.759 212.804 156.124 212.446 159.445C212.443 159.469 212.445 159.493 212.452 159.517C212.458 159.54 212.47 159.561 212.485 159.58C212.5 159.599 212.518 159.614 212.539 159.626C212.56 159.637 212.583 159.645 212.607 159.647L212.633 159.667Z" fill="#F0F0F0"/>
<path d="M213.071 160.675C213.186 161.412 213.448 162.118 213.842 162.751C214.236 163.384 214.754 163.931 215.364 164.359C216.518 165.006 217.828 165.319 219.149 165.262C220.488 165.2 221.814 164.98 223.101 164.606C223.741 164.435 224.456 164.198 224.572 163.432C224.599 163.229 224.579 163.023 224.516 162.828C224.452 162.634 224.346 162.456 224.204 162.308C224.086 162.176 223.96 162.052 223.826 161.935C223.765 161.881 223.722 161.81 223.702 161.731C223.682 161.652 223.687 161.569 223.715 161.492C223.743 161.416 223.794 161.35 223.861 161.303C223.928 161.256 224.007 161.231 224.088 161.23C224.462 161.232 224.836 161.212 225.207 161.169C226.073 161.09 226.901 160.78 227.606 160.272C228.12 159.875 228.526 159.355 228.786 158.76C228.923 158.519 228.992 158.245 228.984 157.967C228.976 157.69 228.892 157.42 228.74 157.188C228.509 156.965 228.219 156.814 227.904 156.754C227.632 156.673 227.359 156.603 227.082 156.542C227.003 156.524 226.932 156.481 226.88 156.419C226.828 156.358 226.797 156.281 226.793 156.2C226.788 156.119 226.81 156.039 226.855 155.972C226.9 155.904 226.966 155.853 227.042 155.827L228.252 155.418C228.598 155.327 228.918 155.154 229.184 154.914C229.353 154.688 229.471 154.427 229.529 154.15C229.587 153.874 229.585 153.587 229.522 153.312C229.426 152.566 229.219 151.84 229.098 151.094C228.942 150.357 228.966 149.593 229.169 148.866C226.982 148.473 224.743 148.473 222.556 148.866C221.899 148.954 221.269 149.181 220.707 149.532C220.35 149.806 220.07 150.168 219.894 150.582C219.717 150.996 219.65 151.448 219.699 151.896C219.698 151.934 219.683 151.972 219.658 152.001C219.633 152.031 219.599 152.051 219.561 152.059C219.523 152.066 219.483 152.061 219.449 152.043C219.414 152.025 219.387 151.996 219.371 151.961L218.716 150.525C218.619 150.317 218.447 150.155 218.234 150.071C218.021 149.986 217.784 149.987 217.572 150.071C216.891 150.356 216.276 150.776 215.762 151.306C215.48 151.588 215.257 151.922 215.104 152.291C214.952 152.659 214.874 153.054 214.875 153.453C214.894 154.557 215.005 155.658 215.208 156.744C215.228 156.809 215.225 156.878 215.2 156.941C215.175 157.003 215.129 157.056 215.071 157.089C215.012 157.123 214.944 157.135 214.877 157.125C214.811 157.114 214.75 157.081 214.704 157.031L214.674 157.001C214.482 156.832 214.234 156.742 213.978 156.749C213.308 156.784 213.091 157.445 213.011 158.014C212.925 158.9 212.945 159.794 213.071 160.675Z" fill="#E6E6E6"/>
<path opacity="0.1" d="M213.071 160.675C213.186 161.412 213.448 162.118 213.842 162.751C214.236 163.384 214.754 163.931 215.364 164.359C216.518 165.006 217.828 165.319 219.149 165.262C220.488 165.2 221.814 164.98 223.101 164.606C223.741 164.435 224.456 164.198 224.572 163.432C224.599 163.229 224.579 163.023 224.516 162.828C224.452 162.634 224.346 162.456 224.204 162.308C224.086 162.176 223.96 162.052 223.826 161.935C223.765 161.881 223.722 161.81 223.702 161.731C223.682 161.652 223.687 161.569 223.715 161.492C223.743 161.416 223.794 161.35 223.861 161.303C223.928 161.256 224.007 161.231 224.088 161.23C224.462 161.232 224.836 161.212 225.207 161.169C226.073 161.09 226.901 160.78 227.606 160.272C228.12 159.875 228.526 159.355 228.786 158.76C228.923 158.519 228.992 158.245 228.984 157.967C228.976 157.69 228.892 157.42 228.74 157.188C228.509 156.965 228.219 156.814 227.904 156.754C227.632 156.673 227.359 156.603 227.082 156.542C227.003 156.524 226.932 156.481 226.88 156.419C226.828 156.358 226.797 156.281 226.793 156.2C226.788 156.119 226.81 156.039 226.855 155.972C226.9 155.904 226.966 155.853 227.042 155.827L228.252 155.418C228.598 155.327 228.918 155.154 229.184 154.914C229.353 154.688 229.471 154.427 229.529 154.15C229.587 153.874 229.585 153.587 229.522 153.312C229.426 152.566 229.219 151.84 229.098 151.094C228.942 150.357 228.966 149.593 229.169 148.866C226.982 148.473 224.743 148.473 222.556 148.866C221.899 148.954 221.269 149.181 220.707 149.532C220.35 149.806 220.07 150.168 219.894 150.582C219.717 150.996 219.65 151.448 219.699 151.896C219.698 151.934 219.683 151.972 219.658 152.001C219.633 152.031 219.599 152.051 219.561 152.059C219.523 152.066 219.483 152.061 219.449 152.043C219.414 152.025 219.387 151.996 219.371 151.961L218.716 150.525C218.619 150.317 218.447 150.155 218.234 150.071C218.021 149.986 217.784 149.987 217.572 150.071C216.891 150.356 216.276 150.776 215.762 151.306C215.48 151.588 215.257 151.922 215.104 152.291C214.952 152.659 214.874 153.054 214.875 153.453C214.894 154.557 215.005 155.658 215.208 156.744C215.228 156.809 215.225 156.878 215.2 156.941C215.175 157.003 215.129 157.056 215.071 157.089C215.012 157.123 214.944 157.135 214.877 157.125C214.811 157.114 214.75 157.081 214.704 157.031L214.674 157.001C214.482 156.832 214.234 156.742 213.978 156.749C213.308 156.784 213.091 157.445 213.011 158.014C212.925 158.9 212.945 159.794 213.071 160.675Z" fill="black"/>
<path d="M216.337 164.244C216.875 162.505 217.586 160.825 218.459 159.229C218.465 159.178 218.49 159.131 218.529 159.098C218.58 159.012 218.625 158.926 218.67 158.841C218.597 156.775 218.139 154.741 217.32 152.843C217.305 152.822 217.295 152.797 217.29 152.771C217.285 152.745 217.286 152.719 217.293 152.693C217.3 152.668 217.312 152.644 217.328 152.624C217.345 152.604 217.366 152.588 217.39 152.576C217.413 152.565 217.439 152.558 217.465 152.558C217.491 152.557 217.517 152.563 217.541 152.573C217.565 152.584 217.587 152.599 217.604 152.619C217.622 152.639 217.635 152.662 217.642 152.687C218.414 154.454 218.875 156.342 219.003 158.266C220.981 154.772 223.8 151.827 227.203 149.698C227.245 149.674 227.295 149.667 227.343 149.68C227.39 149.692 227.43 149.722 227.455 149.764C227.479 149.805 227.486 149.854 227.473 149.901C227.461 149.947 227.431 149.986 227.39 150.011C223.403 152.4 220.747 155.912 219.079 158.861C221.104 158.105 223.306 157.958 225.414 158.437C225.456 158.445 225.495 158.466 225.522 158.499C225.55 158.532 225.565 158.573 225.565 158.616C225.565 158.659 225.55 158.701 225.522 158.734C225.495 158.766 225.456 158.788 225.414 158.795H225.343C225.308 158.795 221.906 157.923 218.791 159.385C217.923 160.966 217.218 162.631 216.685 164.354C216.676 164.389 216.656 164.42 216.629 164.443C216.602 164.467 216.569 164.482 216.534 164.485C216.51 164.49 216.486 164.49 216.463 164.485C216.438 164.479 216.414 164.468 216.394 164.452C216.374 164.436 216.357 164.416 216.345 164.393C216.333 164.37 216.326 164.345 216.325 164.319C216.324 164.293 216.328 164.268 216.337 164.244Z" fill="#F0F0F0"/>
<path d="M222.178 162.676L214.538 155.655L211.287 155.303L206.569 157.853L205.839 160.191L203.682 162.197L202.769 165L207.194 166.819L207.648 167.484L210.637 168.805L211.962 170.624L215.767 170.564L217.295 168.976L221.624 168.276L224.784 166.95L224.552 164.994L223.685 163.074L222.178 162.676Z" fill="#E0E0E0"/>
<path opacity="0.1" d="M222.178 162.676L223.685 163.074L224.552 164.994L221.206 166.562L215.016 167.424L213.746 167.106L212.456 163.518L214.266 166.567L220.792 165.715L223.186 164.606L223.297 163.291L222.178 162.676Z" fill="black"/>
<path opacity="0.1" d="M219.013 159.768L220.223 162.525L216.952 162.429L212.91 163.634L216.861 161.351L218.696 161.809L218.676 160.625L217.259 158.16L219.013 159.768Z" fill="black"/>
<path opacity="0.3" d="M218.459 164.44L216.594 163.976L216.952 162.429L220.223 162.525L218.459 164.44Z" fill="black"/>
<path opacity="0.4" d="M213.817 165.811L216.594 163.976L216.952 162.429L212.91 163.634L213.817 165.811Z" fill="black"/>
<path opacity="0.2" d="M214.538 155.655L214.129 158.74L212.496 160.267L211.065 158.251L211.287 155.303L214.538 155.655Z" fill="black"/>
<path opacity="0.1" d="M211.851 161.073L210.304 158.397L211.287 155.303L211.065 158.251L212.496 160.267L211.851 161.073Z" fill="black"/>
<path opacity="0.3" d="M212.456 163.518L211.851 161.073L210.304 158.397L211.287 155.303L206.569 157.853L208.127 159.758L210.974 161.048L212.456 163.518Z" fill="black"/>
<path opacity="0.4" d="M211.962 170.624L213.746 167.106L212.456 163.518L210.974 161.048L208.127 159.758L206.569 157.853L205.839 160.191L208.016 159.939L210.309 161.592L211.438 163.457L211.962 170.624Z" fill="black"/>
<path opacity="0.3" d="M210.637 168.805L211.645 166.265L211.962 170.624L210.637 168.805Z" fill="black"/>
<path opacity="0.4" d="M207.648 167.484L207.542 165.131L206.635 161.351L203.616 165.347L207.194 166.819L207.648 167.484Z" fill="black"/>
<path opacity="0.3" d="M208.016 159.939L206.635 161.351L203.616 165.347L202.769 165L203.682 162.197L205.839 160.191L208.016 159.939Z" fill="black"/>
<path opacity="0.2" d="M210.637 168.805L207.648 167.484L207.542 165.131L206.635 161.351L208.016 159.939L210.309 161.592L211.438 163.457L211.645 166.265L210.637 168.805Z" fill="black"/>
<path opacity="0.3" d="M215.016 167.424L215.767 170.564L211.962 170.624L213.746 167.106L215.016 167.424Z" fill="black"/>
<path opacity="0.4" d="M217.295 168.976L216.367 167.237L215.016 167.424L215.767 170.564L217.295 168.976Z" fill="black"/>
<path opacity="0.3" d="M219.996 168.538L219.225 166.839L216.367 167.237L217.295 168.976L219.996 168.538Z" fill="black"/>
<path opacity="0.4" d="M221.624 168.275L221.206 166.562L219.225 166.839L219.996 168.538L221.624 168.275Z" fill="black"/>
<path opacity="0.3" d="M224.552 164.994L221.206 166.562L221.624 168.275L224.784 166.95L224.552 164.994Z" fill="black"/>
<path opacity="0.05" d="M218.676 160.625L218.696 161.809L216.861 161.351L212.91 163.634L213.817 165.811L212.456 163.518L211.851 161.073L212.496 160.267L214.129 158.74L214.538 155.655L217.259 158.16L218.676 160.625Z" fill="black"/>
<path opacity="0.3" d="M224.552 164.994L223.685 163.074L222.178 162.676L219.013 159.768L217.259 158.16L214.538 155.655L211.287 155.303L206.569 157.853L205.839 160.191L203.682 162.197L202.769 165L203.616 165.347L207.194 166.819L207.648 167.484L210.637 168.805L211.962 170.624L215.767 170.564L217.295 168.976L221.624 168.276L224.784 166.95L224.552 164.994Z" fill="white"/>
<path d="M227.359 189.504L222.279 184.837L220.117 184.605L216.982 186.299L216.498 187.851L215.067 189.186L214.457 191.046L217.4 192.261L217.703 192.704L219.689 193.576L220.566 194.786L223.101 194.746L224.114 193.692L226.992 193.229L229.093 192.347L228.937 191.046L228.362 189.771L227.359 189.504Z" fill="#E0E0E0"/>
<path opacity="0.1" d="M227.359 189.504L228.362 189.771L228.937 191.046L226.714 192.09L222.597 192.659L221.755 192.452L220.898 190.063L222.103 192.09L226.442 191.525L228.03 190.789L228.105 189.912L227.359 189.504Z" fill="black"/>
<path opacity="0.1" d="M225.258 187.574L226.059 189.403L223.887 189.343L221.201 190.139L223.826 188.622L225.046 188.929L225.031 188.143L224.088 186.5L225.258 187.574Z" fill="black"/>
<path opacity="0.3" d="M224.89 190.673L223.65 190.366L223.887 189.343L226.059 189.403L224.89 190.673Z" fill="black"/>
<path opacity="0.4" d="M221.805 191.586L223.65 190.366L223.887 189.343L221.201 190.139L221.805 191.586Z" fill="black"/>
<path opacity="0.2" d="M222.279 184.837L222.007 186.888L220.928 187.901L219.971 186.561L220.117 184.605L222.279 184.837Z" fill="black"/>
<path opacity="0.1" d="M220.495 188.436L219.467 186.661L220.117 184.605L219.971 186.561L220.928 187.901L220.495 188.436Z" fill="black"/>
<path opacity="0.3" d="M220.898 190.063L220.495 188.436L219.467 186.661L220.117 184.605L216.982 186.299L218.02 187.564L219.915 188.42L220.898 190.063Z" fill="black"/>
<path opacity="0.4" d="M220.566 194.786L221.755 192.452L220.898 190.063L219.915 188.42L218.02 187.564L216.982 186.299L216.498 187.851L217.945 187.685L219.467 188.783L220.223 190.023L220.566 194.786Z" fill="black"/>
<path opacity="0.3" d="M219.689 193.576L220.359 191.893L220.566 194.786L219.689 193.576Z" fill="black"/>
<path opacity="0.4" d="M217.703 192.704L217.632 191.137L217.027 188.622L215.022 191.278L217.4 192.261L217.703 192.704Z" fill="black"/>
<path opacity="0.3" d="M217.945 187.685L217.027 188.622L215.022 191.278L214.457 191.046L215.067 189.186L216.498 187.851L217.945 187.685Z" fill="black"/>
<path opacity="0.2" d="M219.689 193.576L217.703 192.704L217.632 191.137L217.027 188.622L217.945 187.685L219.467 188.783L220.223 190.023L220.359 191.893L219.689 193.576Z" fill="black"/>
<path opacity="0.3" d="M222.597 192.659L223.101 194.746L220.566 194.786L221.755 192.452L222.597 192.659Z" fill="black"/>
<path opacity="0.4" d="M224.114 193.692L223.499 192.533L222.597 192.659L223.101 194.746L224.114 193.692Z" fill="black"/>
<path opacity="0.3" d="M225.908 193.4L225.399 192.271L223.499 192.533L224.114 193.692L225.908 193.4Z" fill="black"/>
<path opacity="0.4" d="M226.992 193.229L226.714 192.09L225.399 192.271L225.908 193.4L226.992 193.229Z" fill="black"/>
<path opacity="0.3" d="M228.937 191.046L226.714 192.089L226.992 193.229L229.093 192.347L228.937 191.046Z" fill="black"/>
<path opacity="0.05" d="M225.031 188.143L225.046 188.929L223.826 188.622L221.201 190.139L221.805 191.585L220.898 190.063L220.495 188.436L220.928 187.901L222.007 186.888L222.279 184.837L224.088 186.5L225.031 188.143Z" fill="black"/>
<path d="M217.642 191.202L213.993 187.851L212.441 187.685L210.188 188.899L209.845 190.018L208.812 190.976L208.379 192.311L210.486 193.183L210.707 193.501L212.134 194.131L212.764 194.998L214.583 194.972L215.314 194.211L217.38 193.879L218.892 193.244L218.781 192.311L218.363 191.394L217.642 191.202Z" fill="#E0E0E0"/>
<path opacity="0.1" d="M217.642 191.202L218.363 191.394L218.781 192.311L217.184 193.062L214.225 193.47L213.62 193.319L213 191.606L213.867 193.062L216.982 192.654L218.126 192.125L218.177 191.495L217.642 191.202Z" fill="black"/>
<path opacity="0.1" d="M216.135 189.816L216.71 191.132L215.153 191.087L213.217 191.661L215.107 190.572L215.984 190.789L215.974 190.225L215.299 189.045L216.135 189.816Z" fill="black"/>
<path opacity="0.3" d="M215.868 192.044L214.976 191.822L215.153 191.087L216.71 191.132L215.868 192.044Z" fill="black"/>
<path opacity="0.4" d="M213.656 192.699L214.976 191.822L215.153 191.087L213.217 191.661L213.656 192.699Z" fill="black"/>
<path opacity="0.2" d="M213.993 187.851L213.802 189.323L213.021 190.053L212.335 189.091L212.441 187.685L213.993 187.851Z" fill="black"/>
<path opacity="0.1" d="M212.713 190.436L211.977 189.161L212.441 187.685L212.335 189.091L213.021 190.053L212.713 190.436Z" fill="black"/>
<path opacity="0.3" d="M213 191.606L212.713 190.436L211.977 189.161L212.441 187.685L210.188 188.899L210.934 189.811L212.295 190.426L213 191.606Z" fill="black"/>
<path opacity="0.4" d="M212.764 194.998L213.62 193.319L213.001 191.606L212.295 190.426L210.934 189.811L210.188 188.899L209.845 190.018L210.884 189.897L211.977 190.688L212.517 191.58L212.764 194.998Z" fill="black"/>
<path opacity="0.3" d="M212.134 194.131L212.612 192.916L212.764 194.998L212.134 194.131Z" fill="black"/>
<path opacity="0.4" d="M210.707 193.501L210.657 192.377L210.223 190.572L208.782 192.478L210.486 193.183L210.707 193.501Z" fill="black"/>
<path opacity="0.3" d="M210.884 189.897L210.223 190.572L208.782 192.478L208.379 192.311L208.812 190.976L209.845 190.018L210.884 189.897Z" fill="black"/>
<path opacity="0.2" d="M212.134 194.131L210.707 193.501L210.657 192.377L210.223 190.572L210.884 189.897L211.977 190.688L212.517 191.58L212.612 192.916L212.134 194.131Z" fill="black"/>
<path opacity="0.3" d="M214.225 193.47L214.583 194.972L212.764 194.998L213.62 193.319L214.225 193.47Z" fill="black"/>
<path opacity="0.4" d="M215.314 194.211L214.87 193.38L214.225 193.47L214.583 194.972L215.314 194.211Z" fill="black"/>
<path opacity="0.3" d="M216.604 194.005L216.236 193.193L214.87 193.38L215.314 194.211L216.604 194.005Z" fill="black"/>
<path opacity="0.4" d="M217.38 193.879L217.184 193.062L216.236 193.193L216.604 194.005L217.38 193.879Z" fill="black"/>
<path opacity="0.3" d="M218.781 192.311L217.184 193.062L217.38 193.879L218.892 193.244L218.781 192.311Z" fill="black"/>
<path opacity="0.05" d="M215.974 190.225L215.984 190.789L215.107 190.572L213.217 191.661L213.656 192.699L213 191.606L212.713 190.436L213.021 190.053L213.802 189.323L213.993 187.851L215.299 189.045L215.974 190.225Z" fill="black"/>
<path opacity="0.3" d="M208.812 190.976L209.845 190.018L210.188 188.899L212.441 187.685L213.993 187.851L215.258 189.01L216.498 187.851L216.982 186.299L220.117 184.605L222.279 184.837L224.088 186.5L225.258 187.574L227.359 189.504L228.362 189.771L228.937 191.046L229.093 192.347L226.992 193.229L224.114 193.692L223.101 194.746L220.566 194.786L219.689 193.576L218.887 193.224L218.892 193.244L217.38 193.879L215.314 194.211L214.583 194.972L212.764 194.998L212.134 194.131L210.707 193.501L210.486 193.183L208.379 192.311L208.812 190.976Z" fill="white"/>
<path d="M58.2019 11.8087L49.5231 16.8487L49.1753 138.686L193.319 221.896L201.998 216.856L202.341 95.0191L58.2019 11.8087ZM99.5803 71.316L98.8848 70.6356L98.7437 70.2173L99.5803 71.316ZM154.516 169.092L151.331 170.942L150.081 168.84L138.343 167.862L132.955 157.016L127.537 156.789L123.944 149.784L117.246 142.566L108.567 147.606L108.148 148.499L105.89 147.193L104.101 141.327L95.9969 133.646V128.439L93.9809 125.461L96.2993 126.136L104.978 121.096L102.388 105.543L98.784 104.419L98.28 101.516L106.057 96.9797L106.082 87.1517L98.8697 82.9886L98.4766 82.1117L106.107 77.6765L101.39 73.08L109.187 69.6226L113.687 74.5769L120.743 70.4743L125.214 73.2715L129.004 88.8955L135.319 87.953L142.813 99.792L139.991 106.233L152.208 112.523L150.252 113.607L141.574 118.647L147.869 128.293L152.374 130.894L153.095 135.667L149.345 137.844L153.755 145.505L151.427 147.748L156.008 155.943L150.489 159.148L154.516 169.092Z" fill="#00B4F5"/>
<path opacity="0.1" d="M58.2019 11.8087L49.5231 16.8487L49.1753 138.686L193.319 221.896L201.998 216.856L202.341 95.0191L58.2019 11.8087ZM99.5803 71.316L98.8848 70.6356L98.7437 70.2173L99.5803 71.316ZM154.516 169.092L151.331 170.942L150.081 168.84L138.343 167.862L132.955 157.016L127.537 156.789L123.944 149.784L117.246 142.566L108.567 147.606L108.148 148.499L105.89 147.193L104.101 141.327L95.9969 133.646V128.439L93.9809 125.461L96.2993 126.136L104.978 121.096L102.388 105.543L98.784 104.419L98.28 101.516L106.057 96.9797L106.082 87.1517L98.8697 82.9886L98.4766 82.1117L106.107 77.6765L101.39 73.08L109.187 69.6226L113.687 74.5769L120.743 70.4743L125.214 73.2715L129.004 88.8955L135.319 87.953L142.813 99.792L139.991 106.233L152.208 112.523L150.252 113.607L141.574 118.647L147.869 128.293L152.374 130.894L153.095 135.667L149.345 137.844L153.755 145.505L151.427 147.748L156.008 155.943L150.489 159.148L154.516 169.092Z" fill="black"/>
<path opacity="0.2" d="M96.012 128.439L87.3331 133.479L87.318 138.691L95.9969 133.646L96.012 128.439Z" fill="black"/>
<path opacity="0.3" d="M93.991 125.461L92.3983 124.997L84.6367 129.508L87.3331 133.479L96.012 128.439L93.991 125.461Z" fill="black"/>
<path opacity="0.2" d="M104.101 141.327L95.4274 146.372L97.2115 152.238L105.89 147.193L104.101 141.327Z" fill="black"/>
<path opacity="0.3" d="M95.9969 133.646L87.318 138.691L95.4274 146.372L104.101 141.327L95.9969 133.646Z" fill="black"/>
<path opacity="0.4" d="M84.6569 122.749L84.6367 129.508L92.3983 124.997L84.6569 122.749Z" fill="black"/>
<path opacity="0.1" d="M97.2115 152.238L104.429 156.401L108.148 148.499L105.89 147.193L97.2115 152.238Z" fill="black"/>
<path opacity="0.1" d="M117.246 142.566L108.567 147.606L115.27 154.824L123.944 149.784L117.246 142.566Z" fill="black"/>
<path opacity="0.2" d="M123.944 149.784L115.27 154.824L118.858 161.834L127.537 156.789L123.944 149.784Z" fill="black"/>
<path opacity="0.3" d="M98.7891 104.419L90.1102 109.464L93.7188 110.578L102.398 105.538L98.7891 104.419Z" fill="black"/>
<path opacity="0.2" d="M102.398 105.538L93.7188 110.578L96.3094 126.136L104.988 121.091L102.398 105.538Z" fill="black"/>
<path opacity="0.2" d="M132.955 157.016L124.276 162.061L129.664 172.907L138.343 167.862L132.955 157.016Z" fill="black"/>
<path opacity="0.1" d="M127.537 156.789L118.858 161.834L124.276 162.061L132.955 157.016L127.537 156.789Z" fill="black"/>
<path opacity="0.4" d="M98.2598 101.521L97.3577 102.045L88.3361 99.7365L90.1101 109.464L98.789 104.419L98.2598 101.521Z" fill="black"/>
<path opacity="0.4" d="M98.4564 82.1318L97.4131 82.7366L87.4793 82.031L90.1706 88.0538L98.8495 83.0088L98.4564 82.1318Z" fill="black"/>
<path opacity="0.1" d="M138.343 167.862L129.664 172.907L141.402 173.88L150.081 168.84L138.343 167.862Z" fill="black"/>
<path opacity="0.2" d="M151.346 170.932L150.081 168.84L141.402 173.88L144.099 178.34L151.78 173.875L151.346 170.932Z" fill="black"/>
<path opacity="0.2" d="M106.037 96.9999L106.062 87.1718L97.3829 92.2169L97.3577 102.045L98.2598 101.521L106.037 96.9999Z" fill="black"/>
<path opacity="0.3" d="M98.8495 83.0088L90.1707 88.0538L97.3829 92.2169L106.062 87.1718L98.8495 83.0088Z" fill="black"/>
<path opacity="0.2" d="M98.7437 70.2173L96.4858 67.2588L87.5196 67.8434L90.2059 75.6806L98.8848 70.6356L98.7437 70.2173Z" fill="black"/>
<path opacity="0.1" d="M106.087 77.6966L101.39 73.0901L101.052 73.2413L99.5803 71.316L98.8848 70.6356L90.2059 75.6806L97.4131 82.7366L98.4564 82.1318L106.087 77.6966Z" fill="black"/>
<path opacity="0.3" d="M144.099 178.34L152.102 176.093L151.78 173.875L144.099 178.34Z" fill="black"/>
<path opacity="0.3" d="M154.96 170.105L154.531 169.067L151.346 170.922L154.96 170.105Z" fill="black"/>
<path opacity="0.3" d="M158.044 159.617L155.993 155.948L150.474 159.153L158.044 159.617Z" fill="black"/>
<path opacity="0.3" d="M153.755 140.132L153.08 135.672L149.33 137.849L153.755 140.132Z" fill="black"/>
<path opacity="0.4" d="M115.517 67.2034L113.687 74.587L120.748 70.4844L115.517 67.2034Z" fill="black"/>
<path opacity="0.3" d="M141.558 118.652L152.41 112.634L152.193 112.523L150.237 113.607L141.558 118.652Z" fill="black"/>
<path opacity="0.3" d="M193.647 100.064L193.304 221.901L201.983 216.856L202.326 95.0191L193.647 100.064Z" fill="white"/>
<path opacity="0.4" d="M202.326 95.0191L58.2019 11.8087L49.523 16.8538L193.647 100.064L202.326 95.0191Z" fill="white"/>
<g opacity="0.2">
<path opacity="0.2" d="M79.5614 86.058L85.0903 88.8804L79.1734 86.7989L75.5143 82.5401L69.2143 79.4203L65.5402 80.262L59.5678 74.6625L65.2226 79.1129L68.9573 78.5282L75.8369 82.0613L79.5614 86.058Z" fill="black"/>
<path opacity="0.2" d="M83.5027 101.969L89.8027 105.311L83.412 102.408L80.5493 99.5702L77.1624 98.2598L75.4942 96.4101L63.625 89.5557L58.6354 85.1205L63.7106 89.0165L71.6789 93.6129L71.699 86.9652L72.8986 82.8525L72.1678 87.1365L72.3694 93.9103L75.1968 95.4475L77.2078 97.5945L80.6803 98.7638L83.5027 101.969Z" fill="black"/>
<path opacity="0.2" d="M150.263 89.6263L154.441 91.1635L150.021 90.1958L147.324 86.4562L142.672 83.3868L139.961 83.407L135.601 79.8991L139.679 82.53L142.435 82.7618L147.516 86.0177L150.263 89.6263Z" fill="black"/>
<path opacity="0.2" d="M162.202 109.701L165.952 111.157L162.263 110.169L153.498 105.114L152.263 105.054L149.764 103.139L147.642 102.786L142.929 99.4845L147.576 102.388L149.673 102.433L152.233 104.53L153.725 104.661L155.812 105.941L155.983 101.123L155.464 97.3425L156.331 101.395L156.316 106.304L162.202 109.701Z" fill="black"/>
<path opacity="0.2" d="M128.575 179.757L134.014 181.868L128.671 180.442L115.96 173.104L114.166 173.023L110.542 170.246L107.463 169.732L100.629 164.944L107.372 169.152L110.411 169.218L114.126 172.257L116.283 172.449L119.312 174.303L119.559 167.318L118.803 161.834L120.063 167.711L120.043 174.828L128.575 179.757Z" fill="black"/>
<path opacity="0.2" d="M81.4968 56.3774L85.8312 59.6837L90.8309 62.8941L86.2092 60.3389L81.7186 56.831L78.9012 56.0095L79.1784 58.6454L78.7349 60.4296L78.9768 62.8236L85.2113 65.6258L87.7061 67.8636L85.0903 65.9433L78.9869 63.3225L78.493 62.7933L76.8751 62.5968L74.8843 61.3116L74.0326 59.9407L68.7607 56.0145L74.2342 59.6484L75.2119 61.0495L76.7945 62.1079L78.4073 62.3498L78.4123 60.1322L78.745 58.2825L78.4274 55.5206L81.4968 56.3774Z" fill="black"/>
<path opacity="0.2" d="M173.593 170.569L179.928 175.402L187.241 180.099L180.482 176.36L173.915 171.234L169.793 170.029L170.196 173.885L169.556 176.496L169.903 179.999L179.021 184.096L182.675 187.372L178.849 184.565L169.924 180.729L169.193 179.948L166.829 179.661L163.916 177.781L162.671 175.78L154.96 170.039L162.963 175.352L164.395 177.403L166.708 178.95L169.067 179.303L169.077 176.057L169.561 173.356L169.097 169.304L173.593 170.569Z" fill="black"/>
<path opacity="0.2" d="M69.1236 117.377L70.5751 117.825L68.1106 113.148L63.7056 106.344L56.5438 100.513L64.003 106.102L68.4482 113.032L71.0237 117.815L73.6747 118.027L79.4909 119.685L84.6367 122.658L79.5362 120.27L73.7957 118.425L71.4017 118.359L73.2161 121.918L73.332 123.994L76.6282 130.642L73.0246 124.029L72.7927 121.787L70.8322 118.324L69.5167 118.097L69.1236 117.377Z" fill="black"/>
<path opacity="0.2" d="M181.062 137.209L173.91 134.916L170.927 134.83L173.184 139.26L173.331 141.851L177.438 150.137L172.953 141.891L172.66 139.104L170.221 134.79L168.165 134.437L163.866 131.781L169.304 138.923L170.13 138.711L171.607 139.432L170.443 139.19L169.5 139.507L172.126 141.669L169.243 139.794L162.989 131.262L160.368 127.935L154.335 123.42L160.6 127.638L163.331 130.854L168.089 133.605L169.893 134.165L166.829 128.339L161.335 119.856L152.41 112.594L161.708 119.559L167.247 128.192L170.458 134.15L173.764 134.417L181.007 136.483L187.422 140.188L181.062 137.209Z" fill="black"/>
</g>
<g opacity="0.1">
<path opacity="0.1" d="M178.602 192.659C178.33 192.503 178.098 192.629 178.098 192.941V195.965C178.109 196.138 178.16 196.305 178.248 196.454C178.336 196.603 178.457 196.729 178.602 196.822L186.616 201.444C186.883 201.6 187.12 201.479 187.12 201.162V198.138C187.109 197.966 187.058 197.799 186.97 197.651C186.883 197.503 186.761 197.378 186.616 197.286L178.602 192.659Z" fill="black"/>
<path opacity="0.1" d="M178.602 203.112C178.33 202.956 178.098 203.077 178.098 203.394V206.418C178.109 206.59 178.16 206.757 178.248 206.905C178.336 207.053 178.457 207.178 178.602 207.27L186.616 211.897C186.883 212.053 187.12 211.927 187.12 211.615V208.591C187.109 208.418 187.058 208.251 186.971 208.102C186.883 207.953 186.762 207.827 186.616 207.734L178.602 203.112Z" fill="black"/>
<path opacity="0.1" d="M173.28 194.746C173.008 194.589 172.776 194.715 172.776 195.028V198.052C172.787 198.224 172.838 198.39 172.926 198.538C173.013 198.686 173.135 198.812 173.28 198.904L181.289 203.53C181.561 203.687 181.793 203.561 181.793 203.248V200.224C181.782 200.052 181.731 199.886 181.643 199.738C181.556 199.59 181.434 199.464 181.289 199.372L173.28 194.746Z" fill="black"/>
<g opacity="0.07">
<path opacity="0.07" d="M178.602 192.659C178.33 192.503 178.098 192.629 178.098 192.941V195.965C178.109 196.138 178.16 196.305 178.248 196.454C178.336 196.603 178.457 196.729 178.602 196.822L186.616 201.444C186.883 201.6 187.12 201.479 187.12 201.162V198.138C187.109 197.966 187.058 197.799 186.97 197.651C186.883 197.503 186.761 197.378 186.616 197.286L178.602 192.659Z" fill="black"/>
<path opacity="0.07" d="M178.602 203.112C178.33 202.956 178.098 203.077 178.098 203.394V206.418C178.109 206.59 178.16 206.757 178.248 206.905C178.336 207.053 178.457 207.178 178.602 207.27L186.616 211.897C186.883 212.053 187.12 211.927 187.12 211.615V208.591C187.109 208.418 187.058 208.251 186.971 208.102C186.883 207.953 186.762 207.827 186.616 207.734L178.602 203.112Z" fill="black"/>
<path opacity="0.07" d="M173.28 194.746C173.008 194.589 172.776 194.715 172.776 195.028V198.052C172.787 198.224 172.838 198.39 172.926 198.538C173.013 198.686 173.135 198.812 173.28 198.904L181.289 203.53C181.561 203.687 181.793 203.561 181.793 203.248V200.224C181.782 200.052 181.731 199.886 181.643 199.738C181.556 199.59 181.434 199.464 181.289 199.372L173.28 194.746Z" fill="black"/>
</g>
</g>
<g opacity="0.1">
<path opacity="0.1" d="M63.1462 116.646C62.874 116.489 62.6422 116.61 62.6422 116.928V119.952C62.6529 120.124 62.7042 120.29 62.7918 120.438C62.8794 120.586 63.0008 120.712 63.1462 120.804L71.1547 125.43C71.4269 125.587 71.6587 125.461 71.6587 125.148V122.124C71.6492 121.952 71.5985 121.785 71.5107 121.637C71.423 121.489 71.3009 121.364 71.1547 121.272L63.1462 116.646Z" fill="black"/>
<path opacity="0.1" d="M63.1462 127.084C62.874 126.922 62.6422 127.048 62.6422 127.366V130.39C62.6529 130.562 62.7042 130.728 62.7918 130.876C62.8794 131.024 63.0008 131.15 63.1462 131.242L71.1547 135.868C71.4269 136.025 71.6587 135.899 71.6587 135.586V132.562C71.6496 132.389 71.599 132.221 71.5113 132.072C71.4236 131.923 71.3013 131.797 71.1547 131.705L63.1462 127.084Z" fill="black"/>
<path opacity="0.1" d="M57.8239 118.732C57.5518 118.576 57.3199 118.697 57.3199 119.015V122.039C57.3307 122.21 57.3819 122.377 57.4695 122.525C57.5571 122.673 57.6786 122.798 57.8239 122.89L65.8224 127.512C66.0946 127.668 66.3264 127.542 66.3264 127.23V124.206C66.3157 124.033 66.2644 123.866 66.1768 123.717C66.0893 123.568 65.9679 123.442 65.8224 123.349L57.8239 118.732Z" fill="black"/>
<g opacity="0.07">
<path opacity="0.07" d="M63.1462 116.646C62.874 116.489 62.6422 116.61 62.6422 116.928V119.952C62.6529 120.124 62.7042 120.29 62.7918 120.438C62.8794 120.586 63.0008 120.712 63.1462 120.804L71.1547 125.43C71.4269 125.587 71.6587 125.461 71.6587 125.148V122.124C71.6492 121.952 71.5985 121.785 71.5107 121.637C71.423 121.489 71.3009 121.364 71.1547 121.272L63.1462 116.646Z" fill="black"/>
<path opacity="0.07" d="M63.1462 127.084C62.874 126.922 62.6422 127.048 62.6422 127.366V130.39C62.6529 130.562 62.7042 130.728 62.7918 130.876C62.8794 131.024 63.0008 131.15 63.1462 131.242L71.1547 135.868C71.4269 136.025 71.6587 135.899 71.6587 135.586V132.562C71.6496 132.389 71.599 132.221 71.5113 132.072C71.4236 131.923 71.3013 131.797 71.1547 131.705L63.1462 127.084Z" fill="black"/>
<path opacity="0.07" d="M57.8239 118.732C57.5518 118.576 57.3199 118.697 57.3199 119.015V122.039C57.3307 122.21 57.3819 122.377 57.4695 122.525C57.5571 122.673 57.6786 122.798 57.8239 122.89L65.8224 127.512C66.0946 127.668 66.3264 127.542 66.3264 127.23V124.206C66.3157 124.033 66.2644 123.866 66.1768 123.717C66.0893 123.568 65.9679 123.442 65.8224 123.349L57.8239 118.732Z" fill="black"/>
</g>
</g>
<g opacity="0.1">
<path opacity="0.1" d="M52.7083 121.862C52.4362 121.706 52.2043 121.832 52.2043 122.144V125.168C52.2143 125.341 52.2652 125.509 52.3528 125.658C52.4405 125.807 52.5623 125.933 52.7083 126.025L60.7169 130.647C60.989 130.808 61.2209 130.682 61.2209 130.365V127.341C61.2101 127.169 61.1589 127.002 61.0713 126.854C60.9837 126.706 60.8622 126.581 60.7169 126.489L52.7083 121.862Z" fill="black"/>
<path opacity="0.1" d="M52.7083 132.3C52.4362 132.144 52.2043 132.27 52.2043 132.582V135.606C52.2151 135.779 52.2663 135.946 52.3539 136.095C52.4414 136.244 52.5629 136.37 52.7083 136.463L60.7068 141.12C60.979 141.276 61.2108 141.155 61.2108 140.838V137.814C61.2001 137.642 61.1488 137.475 61.0612 137.327C60.9736 137.179 60.8521 137.054 60.7068 136.962L52.7083 132.3Z" fill="black"/>
<g opacity="0.07">
<path opacity="0.07" d="M52.7083 121.862C52.4362 121.706 52.2043 121.832 52.2043 122.144V125.168C52.2143 125.341 52.2652 125.509 52.3528 125.658C52.4405 125.807 52.5623 125.933 52.7083 126.025L60.7169 130.647C60.989 130.808 61.2209 130.682 61.2209 130.365V127.341C61.2101 127.169 61.1589 127.002 61.0713 126.854C60.9837 126.706 60.8622 126.581 60.7169 126.489L52.7083 121.862Z" fill="black"/>
<path opacity="0.07" d="M52.7083 132.3C52.4362 132.144 52.2043 132.27 52.2043 132.582V135.606C52.2151 135.779 52.2663 135.946 52.3539 136.095C52.4414 136.244 52.5629 136.37 52.7083 136.463L60.7068 141.12C60.979 141.276 61.2108 141.155 61.2108 140.838V137.814C61.2001 137.642 61.1488 137.475 61.0612 137.327C60.9736 137.179 60.8521 137.054 60.7068 136.962L52.7083 132.3Z" fill="black"/>
</g>
</g>
<g opacity="0.1">
<path opacity="0.1" d="M61.488 90.4176C61.2158 90.2613 60.984 90.3873 60.984 90.6998V93.7238C60.9936 93.8965 61.0443 94.0644 61.132 94.2134C61.2196 94.3625 61.3417 94.4884 61.488 94.5806L69.5016 99.2073C69.7738 99.3636 70.0056 99.2376 70.0056 98.9201V95.8961C69.9957 95.7235 69.9448 95.5558 69.8571 95.4068C69.7695 95.2578 69.6476 95.1318 69.5016 95.0393L61.488 90.4176Z" fill="black"/>
<path opacity="0.1" d="M56.1758 92.5041C55.9037 92.3479 55.6718 92.4739 55.6718 92.7864V95.8104C55.6818 95.9829 55.7327 96.1507 55.8203 96.2997C55.908 96.4486 56.0298 96.5746 56.1758 96.6672L64.1743 101.304C64.4465 101.465 64.6783 101.339 64.6783 101.022V97.9977C64.6676 97.826 64.6163 97.6593 64.5287 97.5113C64.4411 97.3632 64.3197 97.238 64.1743 97.146L56.1758 92.5041Z" fill="black"/>
<g opacity="0.07">
<path opacity="0.07" d="M61.488 90.4176C61.2158 90.2613 60.984 90.3873 60.984 90.6998V93.7238C60.9936 93.8965 61.0443 94.0644 61.132 94.2134C61.2196 94.3625 61.3417 94.4884 61.488 94.5806L69.5016 99.2073C69.7738 99.3636 70.0056 99.2376 70.0056 98.9201V95.8961C69.9957 95.7235 69.9448 95.5558 69.8571 95.4068C69.7695 95.2578 69.6476 95.1318 69.5016 95.0393L61.488 90.4176Z" fill="black"/>
<path opacity="0.07" d="M56.1758 92.5041C55.9037 92.3479 55.6718 92.4739 55.6718 92.7864V95.8104C55.6818 95.9829 55.7327 96.1507 55.8203 96.2997C55.908 96.4486 56.0298 96.5746 56.1758 96.6672L64.1743 101.304C64.4465 101.465 64.6783 101.339 64.6783 101.022V97.9977C64.6676 97.826 64.6163 97.6593 64.5287 97.5113C64.4411 97.3632 64.3197 97.238 64.1743 97.146L56.1758 92.5041Z" fill="black"/>
</g>
</g>
<g opacity="0.1">
<path opacity="0.1" d="M58.1263 32.8255C57.8542 32.6693 57.6223 32.7953 57.6223 33.1128V36.1368C57.6323 36.3094 57.6832 36.4771 57.7708 36.6261C57.8585 36.7751 57.9803 36.901 58.1263 36.9936L66.1399 41.6203C66.4121 41.7766 66.6439 41.6506 66.6439 41.333V38.309C66.634 38.1365 66.5831 37.9687 66.4954 37.8197C66.4078 37.6708 66.2859 37.5448 66.1399 37.4522L58.1263 32.8255Z" fill="black"/>
<path opacity="0.1" d="M58.1263 43.2633C57.8542 43.1071 57.6223 43.2331 57.6223 43.5456V46.5696C57.6323 46.7422 57.6832 46.9099 57.7708 47.0589C57.8585 47.2079 57.9803 47.3338 58.1263 47.4264L66.1399 52.0481C66.4121 52.2043 66.6439 52.0833 66.6439 51.7658V48.7418C66.6332 48.5701 66.5819 48.4034 66.4943 48.2554C66.4067 48.1073 66.2852 47.9821 66.1399 47.8901L58.1263 43.2633Z" fill="black"/>
<path opacity="0.1" d="M62.879 40.824C62.6069 40.6627 62.375 40.7887 62.375 41.1062V44.1302C62.3858 44.3019 62.437 44.4687 62.5246 44.6167C62.6122 44.7648 62.7337 44.8899 62.879 44.982L70.8876 49.6087C71.1597 49.765 71.3916 49.639 71.3916 49.3265V46.3025C71.3816 46.1299 71.3307 45.9622 71.2431 45.8132C71.1554 45.6642 71.0336 45.5382 70.8876 45.4457L62.879 40.824Z" fill="black"/>
<path opacity="0.1" d="M52.799 34.9121C52.5269 34.7558 52.295 34.8818 52.295 35.1943V38.2183C52.305 38.3909 52.3559 38.5586 52.4435 38.7076C52.5312 38.8566 52.653 38.9826 52.799 39.0751L60.8076 43.6968C61.0798 43.8581 61.3116 43.7321 61.3116 43.4145V40.3905C61.3009 40.2188 61.2496 40.0521 61.162 39.9041C61.0744 39.756 60.9529 39.6308 60.8076 39.5388L52.799 34.9121Z" fill="black"/>
<g opacity="0.07">
<path opacity="0.07" d="M58.1263 32.8255C57.8542 32.6693 57.6223 32.7953 57.6223 33.1128V36.1368C57.6323 36.3094 57.6832 36.4771 57.7708 36.6261C57.8585 36.7751 57.9803 36.901 58.1263 36.9936L66.1399 41.6203C66.4121 41.7766 66.6439 41.6506 66.6439 41.333V38.309C66.634 38.1365 66.5831 37.9687 66.4954 37.8197C66.4078 37.6708 66.2859 37.5448 66.1399 37.4522L58.1263 32.8255Z" fill="black"/>
<path opacity="0.07" d="M58.1263 43.2633C57.8542 43.1071 57.6223 43.2331 57.6223 43.5456V46.5696C57.6323 46.7422 57.6832 46.9099 57.7708 47.0589C57.8585 47.2079 57.9803 47.3338 58.1263 47.4264L66.1399 52.0481C66.4121 52.2043 66.6439 52.0833 66.6439 51.7658V48.7418C66.6332 48.5701 66.5819 48.4034 66.4943 48.2554C66.4067 48.1073 66.2852 47.9821 66.1399 47.8901L58.1263 43.2633Z" fill="black"/>
<path opacity="0.07" d="M62.879 40.824C62.6069 40.6627 62.375 40.7887 62.375 41.1062V44.1302C62.3858 44.3019 62.437 44.4687 62.5246 44.6167C62.6122 44.7648 62.7337 44.8899 62.879 44.982L70.8876 49.6087C71.1597 49.765 71.3916 49.639 71.3916 49.3265V46.3025C71.3816 46.1299 71.3307 45.9622 71.2431 45.8132C71.1554 45.6642 71.0336 45.5382 70.8876 45.4457L62.879 40.824Z" fill="black"/>
<path opacity="0.07" d="M52.799 34.9121C52.5269 34.7558 52.295 34.8818 52.295 35.1943V38.2183C52.305 38.3909 52.3559 38.5586 52.4435 38.7076C52.5312 38.8566 52.653 38.9826 52.799 39.0751L60.8076 43.6968C61.0798 43.8581 61.3116 43.7321 61.3116 43.4145V40.3905C61.3009 40.2188 61.2496 40.0521 61.162 39.9041C61.0744 39.756 60.9529 39.6308 60.8076 39.5388L52.799 34.9121Z" fill="black"/>
</g>
</g>
<g opacity="0.1">
<path opacity="0.1" d="M73.463 36.5198C73.1909 36.3636 72.959 36.4896 72.959 36.8021V39.8261C72.9698 39.9985 73.021 40.1659 73.1086 40.3147C73.1962 40.4636 73.3176 40.5897 73.463 40.6829L81.4716 45.3046C81.7438 45.4608 81.9756 45.3398 81.9756 45.0223V41.9983C81.9649 41.8266 81.9136 41.6599 81.826 41.5119C81.7384 41.3638 81.6169 41.2386 81.4716 41.1466L73.463 36.5198Z" fill="black"/>
<path opacity="0.1" d="M73.463 46.9577C73.1909 46.8014 72.959 46.9224 72.959 47.2399V50.2639C72.9698 50.4356 73.0211 50.6023 73.1087 50.7504C73.1963 50.8984 73.3177 51.0236 73.463 51.1157L81.4716 55.7424C81.7438 55.8986 81.9756 55.7726 81.9756 55.4602V52.4362C81.9648 52.2638 81.9136 52.0964 81.826 51.9475C81.7385 51.7986 81.617 51.6725 81.4716 51.5794L73.463 46.9577Z" fill="black"/>
<path opacity="0.1" d="M78.2208 44.4931C77.9487 44.3369 77.7168 44.4629 77.7168 44.7754V47.7994C77.726 47.9721 77.7765 48.1402 77.8642 48.2893C77.952 48.4384 78.0743 48.5642 78.2208 48.6562L86.2294 53.2829C86.5015 53.4391 86.7334 53.3131 86.7334 52.9956V49.9716C86.7234 49.799 86.6725 49.6313 86.5849 49.4823C86.4972 49.3333 86.3754 49.2073 86.2294 49.1148L78.2208 44.4931Z" fill="black"/>
<path opacity="0.1" d="M68.1408 38.6064C67.8687 38.4502 67.6368 38.5762 67.6368 38.8887V41.9127C67.6471 42.0845 67.6982 42.2513 67.7859 42.3994C67.8735 42.5476 67.9952 42.6727 68.1408 42.7644L76.1544 47.3911C76.4266 47.5474 76.6584 47.4264 76.6584 47.1089V44.0849C76.6477 43.9132 76.5964 43.7465 76.5088 43.5984C76.4212 43.4504 76.2998 43.3252 76.1544 43.2331L68.1408 38.6064Z" fill="black"/>
<g opacity="0.07">
<path opacity="0.07" d="M73.463 36.5198C73.1909 36.3636 72.959 36.4896 72.959 36.8021V39.8261C72.9698 39.9985 73.021 40.1659 73.1086 40.3147C73.1962 40.4636 73.3176 40.5897 73.463 40.6829L81.4716 45.3046C81.7438 45.4608 81.9756 45.3398 81.9756 45.0223V41.9983C81.9649 41.8266 81.9136 41.6599 81.826 41.5119C81.7384 41.3638 81.6169 41.2386 81.4716 41.1466L73.463 36.5198Z" fill="black"/>
<path opacity="0.07" d="M73.463 46.9577C73.1909 46.8014 72.959 46.9224 72.959 47.2399V50.2639C72.9698 50.4356 73.0211 50.6023 73.1087 50.7504C73.1963 50.8984 73.3177 51.0236 73.463 51.1157L81.4716 55.7424C81.7438 55.8986 81.9756 55.7726 81.9756 55.4602V52.4362C81.9648 52.2638 81.9136 52.0964 81.826 51.9475C81.7385 51.7986 81.617 51.6725 81.4716 51.5794L73.463 46.9577Z" fill="black"/>
<path opacity="0.07" d="M78.2208 44.4931C77.9487 44.3369 77.7168 44.4629 77.7168 44.7754V47.7994C77.726 47.9721 77.7765 48.1402 77.8642 48.2893C77.952 48.4384 78.0743 48.5642 78.2208 48.6562L86.2294 53.2829C86.5015 53.4391 86.7334 53.3131 86.7334 52.9956V49.9716C86.7234 49.799 86.6725 49.6313 86.5849 49.4823C86.4972 49.3333 86.3754 49.2073 86.2294 49.1148L78.2208 44.4931Z" fill="black"/>
<path opacity="0.07" d="M68.1408 38.6064C67.8687 38.4502 67.6368 38.5762 67.6368 38.8887V41.9127C67.6471 42.0845 67.6982 42.2513 67.7859 42.3994C67.8735 42.5476 67.9952 42.6727 68.1408 42.7644L76.1544 47.3911C76.4266 47.5474 76.6584 47.4264 76.6584 47.1089V44.0849C76.6477 43.9132 76.5964 43.7465 76.5088 43.5984C76.4212 43.4504 76.2998 43.3252 76.1544 43.2331L68.1408 38.6064Z" fill="black"/>
</g>
</g>
<g opacity="0.1">
<path opacity="0.1" d="M165.987 146.951C165.715 146.795 165.483 146.921 165.483 147.234V150.258C165.493 150.43 165.544 150.598 165.632 150.747C165.719 150.896 165.841 151.022 165.987 151.114L173.986 155.736C174.258 155.897 174.49 155.771 174.49 155.454V152.43C174.479 152.258 174.428 152.091 174.34 151.943C174.253 151.795 174.131 151.67 173.986 151.578L165.987 146.951Z" fill="black"/>
<path opacity="0.1" d="M165.987 157.389C165.715 157.233 165.483 157.359 165.483 157.671V160.695C165.494 160.868 165.545 161.035 165.633 161.184C165.72 161.333 165.842 161.459 165.987 161.552L173.996 166.174C174.268 166.33 174.5 166.209 174.5 165.892V162.868C174.489 162.696 174.438 162.529 174.35 162.381C174.263 162.233 174.141 162.108 173.996 162.016L165.987 157.389Z" fill="black"/>
<path opacity="0.1" d="M170.745 154.925C170.473 154.768 170.241 154.894 170.241 155.212V158.236C170.25 158.409 170.301 158.577 170.389 158.726C170.476 158.875 170.599 159.001 170.745 159.093L178.754 163.719C179.026 163.876 179.258 163.75 179.258 163.437V160.413C179.248 160.241 179.197 160.073 179.109 159.924C179.022 159.775 178.9 159.649 178.754 159.556L170.745 154.925Z" fill="black"/>
<path opacity="0.1" d="M160.665 149.038C160.393 148.882 160.161 149.008 160.161 149.32V152.344C160.171 152.517 160.223 152.684 160.31 152.833C160.398 152.982 160.519 153.108 160.665 153.201L168.679 157.823C168.951 157.979 169.183 157.858 169.183 157.54V154.516C169.172 154.345 169.121 154.178 169.033 154.03C168.945 153.882 168.824 153.757 168.679 153.665L160.665 149.038Z" fill="black"/>
<g opacity="0.07">
<path opacity="0.07" d="M165.987 146.951C165.715 146.795 165.483 146.921 165.483 147.234V150.258C165.493 150.43 165.544 150.598 165.632 150.747C165.719 150.896 165.841 151.022 165.987 151.114L173.986 155.736C174.258 155.897 174.49 155.771 174.49 155.454V152.43C174.479 152.258 174.428 152.091 174.34 151.943C174.253 151.795 174.131 151.67 173.986 151.578L165.987 146.951Z" fill="black"/>
<path opacity="0.07" d="M165.987 157.389C165.715 157.233 165.483 157.359 165.483 157.671V160.695C165.494 160.868 165.545 161.035 165.633 161.184C165.72 161.333 165.842 161.459 165.987 161.552L173.996 166.174C174.268 166.33 174.5 166.209 174.5 165.892V162.868C174.489 162.696 174.438 162.529 174.35 162.381C174.263 162.233 174.141 162.108 173.996 162.016L165.987 157.389Z" fill="black"/>
<path opacity="0.07" d="M170.745 154.925C170.473 154.768 170.241 154.894 170.241 155.212V158.236C170.25 158.409 170.301 158.577 170.389 158.726C170.476 158.875 170.599 159.001 170.745 159.093L178.754 163.719C179.026 163.876 179.258 163.75 179.258 163.437V160.413C179.248 160.241 179.197 160.073 179.109 159.924C179.022 159.775 178.9 159.649 178.754 159.556L170.745 154.925Z" fill="black"/>
<path opacity="0.07" d="M160.665 149.038C160.393 148.882 160.161 149.008 160.161 149.32V152.344C160.171 152.517 160.223 152.684 160.31 152.833C160.398 152.982 160.519 153.108 160.665 153.201L168.679 157.823C168.951 157.979 169.183 157.858 169.183 157.54V154.516C169.172 154.345 169.121 154.178 169.033 154.03C168.945 153.882 168.824 153.757 168.679 153.665L160.665 149.038Z" fill="black"/>
</g>
</g>
<g opacity="0.1">
<path opacity="0.1" d="M171.748 94.8477C171.476 94.6915 171.244 94.8124 171.244 95.13V98.154C171.255 98.3257 171.306 98.4924 171.394 98.6404C171.481 98.7885 171.603 98.9137 171.748 99.0057L179.757 103.632C180.029 103.789 180.261 103.663 180.261 103.35V100.326C180.252 100.153 180.201 99.9854 180.113 99.8363C180.026 99.6872 179.903 99.5613 179.757 99.4694L171.748 94.8477Z" fill="black"/>
<path opacity="0.1" d="M166.426 96.9343C166.154 96.773 165.922 96.899 165.922 97.2165V100.241C165.933 100.412 165.984 100.579 166.071 100.727C166.159 100.875 166.28 101 166.426 101.092L174.439 105.719C174.712 105.875 174.943 105.749 174.943 105.437V102.413C174.933 102.24 174.883 102.072 174.795 101.923C174.707 101.774 174.585 101.648 174.439 101.556L166.426 96.9343Z" fill="black"/>
<g opacity="0.07">
<path opacity="0.07" d="M171.748 94.8477C171.476 94.6915 171.244 94.8124 171.244 95.13V98.154C171.255 98.3257 171.306 98.4924 171.394 98.6404C171.481 98.7885 171.603 98.9137 171.748 99.0057L179.757 103.632C180.029 103.789 180.261 103.663 180.261 103.35V100.326C180.252 100.153 180.201 99.9854 180.113 99.8363C180.026 99.6872 179.903 99.5613 179.757 99.4694L171.748 94.8477Z" fill="black"/>
<path opacity="0.07" d="M166.426 96.9343C166.154 96.773 165.922 96.899 165.922 97.2165V100.241C165.933 100.412 165.984 100.579 166.071 100.727C166.159 100.875 166.28 101 166.426 101.092L174.439 105.719C174.712 105.875 174.943 105.749 174.943 105.437V102.413C174.933 102.24 174.883 102.072 174.795 101.923C174.707 101.774 174.585 101.648 174.439 101.556L166.426 96.9343Z" fill="black"/>
</g>
</g>
<g opacity="0.1">
<path opacity="0.1" d="M156.447 177.761C156.174 177.605 155.943 177.731 155.943 178.043V181.067C155.953 181.24 156.003 181.407 156.091 181.556C156.179 181.705 156.301 181.831 156.447 181.924L164.46 186.551C164.732 186.707 164.964 186.581 164.964 186.263V183.239C164.954 183.067 164.903 182.899 164.816 182.75C164.728 182.601 164.606 182.475 164.46 182.382L156.447 177.761Z" fill="black"/>
<path opacity="0.1" d="M156.447 188.199C156.174 188.042 155.943 188.168 155.943 188.481V191.505C155.953 191.677 156.005 191.845 156.092 191.994C156.18 192.142 156.301 192.269 156.447 192.362L164.46 196.983C164.732 197.14 164.964 197.019 164.964 196.701V193.677C164.953 193.505 164.902 193.339 164.815 193.191C164.727 193.043 164.606 192.917 164.46 192.825L156.447 188.199Z" fill="black"/>
<path opacity="0.1" d="M161.199 185.739C160.927 185.578 160.695 185.704 160.695 186.021V189.045C160.706 189.217 160.757 189.384 160.845 189.532C160.933 189.68 161.054 189.805 161.199 189.897L169.198 194.544C169.47 194.7 169.702 194.574 169.702 194.262V191.238C169.693 191.065 169.642 190.897 169.554 190.748C169.467 190.599 169.344 190.473 169.198 190.381L161.199 185.739Z" fill="black"/>
<path opacity="0.1" d="M151.119 179.847C150.847 179.691 150.615 179.817 150.615 180.13V183.154C150.625 183.326 150.676 183.494 150.764 183.643C150.852 183.792 150.973 183.918 151.119 184.01L159.128 188.632C159.4 188.793 159.632 188.667 159.632 188.35V185.326C159.621 185.154 159.57 184.987 159.482 184.839C159.395 184.691 159.273 184.566 159.128 184.474L151.119 179.847Z" fill="black"/>
<g opacity="0.07">
<path opacity="0.07" d="M156.447 177.761C156.174 177.605 155.943 177.731 155.943 178.043V181.067C155.953 181.24 156.003 181.407 156.091 181.556C156.179 181.705 156.301 181.831 156.447 181.924L164.46 186.551C164.732 186.707 164.964 186.581 164.964 186.263V183.239C164.954 183.067 164.903 182.899 164.816 182.75C164.728 182.601 164.606 182.475 164.46 182.382L156.447 177.761Z" fill="black"/>
<path opacity="0.07" d="M156.447 188.199C156.174 188.042 155.943 188.168 155.943 188.481V191.505C155.953 191.677 156.005 191.845 156.092 191.994C156.18 192.142 156.301 192.269 156.447 192.362L164.46 196.983C164.732 197.14 164.964 197.019 164.964 196.701V193.677C164.953 193.505 164.902 193.339 164.815 193.191C164.727 193.043 164.606 192.917 164.46 192.825L156.447 188.199Z" fill="black"/>
<path opacity="0.07" d="M161.199 185.739C160.927 185.578 160.695 185.704 160.695 186.021V189.045C160.706 189.217 160.757 189.384 160.845 189.532C160.933 189.68 161.054 189.805 161.199 189.897L169.198 194.544C169.47 194.7 169.702 194.574 169.702 194.262V191.238C169.693 191.065 169.642 190.897 169.554 190.748C169.467 190.599 169.344 190.473 169.198 190.381L161.199 185.739Z" fill="black"/>
<path opacity="0.07" d="M151.119 179.847C150.847 179.691 150.615 179.817 150.615 180.13V183.154C150.625 183.326 150.676 183.494 150.764 183.643C150.852 183.792 150.973 183.918 151.119 184.01L159.128 188.632C159.4 188.793 159.632 188.667 159.632 188.35V185.326C159.621 185.154 159.57 184.987 159.482 184.839C159.395 184.691 159.273 184.566 159.128 184.474L151.119 179.847Z" fill="black"/>
</g>
</g>
<g opacity="0.1">
<path opacity="0.1" d="M179.752 107.231C179.479 107.075 179.248 107.201 179.248 107.513V110.537C179.258 110.709 179.31 110.876 179.397 111.024C179.485 111.172 179.606 111.297 179.752 111.389L187.76 116.016C188.032 116.172 188.264 116.046 188.264 115.734V112.71C188.253 112.538 188.202 112.371 188.115 112.223C188.027 112.075 187.905 111.95 187.76 111.858L179.752 107.231Z" fill="black"/>
<path opacity="0.1" d="M179.752 117.669C179.479 117.513 179.248 117.634 179.248 117.951V120.975C179.258 121.147 179.31 121.314 179.397 121.462C179.485 121.61 179.606 121.735 179.752 121.827L187.76 126.454C188.032 126.61 188.264 126.484 188.264 126.171V123.147C188.254 122.975 188.203 122.807 188.116 122.658C188.028 122.509 187.906 122.383 187.76 122.291L179.752 117.669Z" fill="black"/>
<path opacity="0.1" d="M174.429 109.318C174.157 109.161 173.925 109.282 173.925 109.6V112.624C173.935 112.796 173.986 112.963 174.073 113.111C174.161 113.259 174.283 113.384 174.429 113.476L182.448 118.117C182.72 118.274 182.952 118.148 182.952 117.835V114.811C182.941 114.639 182.89 114.471 182.802 114.323C182.715 114.174 182.593 114.048 182.448 113.954L174.429 109.318Z" fill="black"/>
<g opacity="0.07">
<path opacity="0.07" d="M179.752 107.231C179.479 107.075 179.248 107.201 179.248 107.513V110.537C179.258 110.709 179.31 110.876 179.397 111.024C179.485 111.172 179.606 111.297 179.752 111.389L187.76 116.016C188.032 116.172 188.264 116.046 188.264 115.734V112.71C188.253 112.538 188.202 112.371 188.115 112.223C188.027 112.075 187.905 111.95 187.76 111.858L179.752 107.231Z" fill="black"/>
<path opacity="0.07" d="M179.752 117.669C179.479 117.513 179.248 117.634 179.248 117.951V120.975C179.258 121.147 179.31 121.314 179.397 121.462C179.485 121.61 179.606 121.735 179.752 121.827L187.76 126.454C188.032 126.61 188.264 126.484 188.264 126.171V123.147C188.254 122.975 188.203 122.807 188.116 122.658C188.028 122.509 187.906 122.383 187.76 122.291L179.752 117.669Z" fill="black"/>
<path opacity="0.07" d="M174.429 109.318C174.157 109.161 173.925 109.282 173.925 109.6V112.624C173.935 112.796 173.986 112.963 174.073 113.111C174.161 113.259 174.283 113.384 174.429 113.476L182.448 118.117C182.72 118.274 182.952 118.148 182.952 117.835V114.811C182.941 114.639 182.89 114.471 182.802 114.323C182.715 114.174 182.593 114.048 182.448 113.954L174.429 109.318Z" fill="black"/>
</g>
</g>
<path d="M45.8892 138.943L51.5491 135.652L51.5592 132.779L49.7448 131.272L44.0849 134.558L42.4771 135.833L44.0748 138.802L45.8892 138.943Z" fill="#00B4F5"/>
<path opacity="0.3" d="M51.5592 132.779L49.7448 131.272L44.0849 134.558L45.8993 136.065L51.5592 132.779Z" fill="white"/>
<path opacity="0.2" d="M45.8892 138.943L51.5491 135.652L51.5592 132.779L45.8993 136.065L45.8892 138.943Z" fill="white"/>
<path d="M92.4387 76.865L95.8659 76.5727L101.521 73.2816L97.4786 65.6964L92.988 64.4062L87.3331 67.6973L92.4387 76.865Z" fill="#00B4F5"/>
<path opacity="0.3" d="M95.8658 76.5727L101.521 73.2816L97.4786 65.6964L91.8187 68.9825L95.8658 76.5727Z" fill="white"/>
<path opacity="0.4" d="M91.8187 68.9825L97.4787 65.6964L92.988 64.4062L87.3331 67.6973L91.8187 68.9825Z" fill="white"/>
<path d="M50.5663 156.104L50.5714 155.025L49.3668 154.33L48.3286 149.91L44.599 149.25L38.939 152.536L38.0772 155.444L37.2154 157.041L39.7656 162.661L41.4792 162.555L45.2693 163.896L50.9292 160.605L50.5663 156.104Z" fill="#00B4F5"/>
<path opacity="0.4" d="M50.5663 156.104L44.9114 159.39L45.2693 163.896L50.9292 160.605L50.5663 156.104Z" fill="white"/>
<path opacity="0.4" d="M44.9114 158.316L50.5714 155.025L49.3668 154.33L43.7069 157.616L44.9114 158.316Z" fill="white"/>
<path opacity="0.3" d="M44.9114 159.39L50.5663 156.104L50.5714 155.025L44.9114 158.316V159.39Z" fill="white"/>
<path opacity="0.3" d="M43.7069 157.616L49.3668 154.33L48.3286 149.91L42.6737 153.196L43.7069 157.616Z" fill="white"/>
<path opacity="0.4" d="M48.3286 149.91L44.599 149.25L38.939 152.536L42.6737 153.196L48.3286 149.91Z" fill="white"/>
<path d="M155.494 222.153L153.418 216.982L150.666 215.389L149.532 213.247L143.872 216.534L142.158 218.172L142.526 222.037L144.426 222.506L146.412 226.301L149.839 225.439L155.494 222.153Z" fill="#00B4F5"/>
<path opacity="0.4" d="M150.666 215.389L149.532 213.247L143.872 216.534L145.006 218.676L150.666 215.389Z" fill="white"/>
<path opacity="0.3" d="M147.763 220.268L153.418 216.982L150.666 215.389L145.006 218.675L147.763 220.268Z" fill="white"/>
<path opacity="0.4" d="M149.839 225.439L155.494 222.153L153.418 216.982L147.763 220.268L149.839 225.439Z" fill="white"/>
<path d="M95.3971 150.469L94.0262 147.491L92.3126 146.876L86.6578 150.162L86.6477 153.065L88.3512 155.252L88.3462 157.949L91.7633 159.924L97.4182 156.633L96.8638 151.916L95.3971 150.469Z" fill="#00B4F5"/>
<path opacity="0.3" d="M89.7372 153.755L95.3971 150.469L94.0263 147.491L88.3663 150.782L89.7372 153.755Z" fill="white"/>
<path opacity="0.4" d="M94.0262 147.491L92.3126 146.876L86.6577 150.162L88.3663 150.782L94.0262 147.491Z" fill="white"/>
<path opacity="0.4" d="M91.2038 155.202L96.8638 151.916L95.3971 150.469L89.7372 153.755L91.2038 155.202Z" fill="white"/>
<path opacity="0.3" d="M91.2039 155.202L91.7633 159.924L97.4182 156.633L96.8638 151.916L91.2039 155.202Z" fill="white"/>
<path d="M58.4691 109.66L56.5639 112.2L59.6585 115.94L65.3134 112.649L66.019 110.356L64.129 106.374L58.4691 109.66Z" fill="#00B4F5"/>
<path opacity="0.3" d="M59.6585 115.94L65.3133 112.649L66.019 110.356L60.3641 113.642L59.6585 115.94Z" fill="white"/>
<path opacity="0.4" d="M58.469 109.66L60.3641 113.642L66.019 110.356L64.129 106.374L58.469 109.66Z" fill="white"/>
<path d="M31.1926 165.1L29.8822 167.262L25.9308 168.911L25.9157 173.275L29.111 177.02L33.6924 176.259L33.6974 174.424L38.304 173.578L38.3191 169.213L38.2334 165.05L31.1926 165.1Z" fill="#00B4F5"/>
<path opacity="0.2" d="M33.5261 171.924L33.7025 171.894L33.6974 174.424L38.304 173.578L38.3191 169.213L33.5311 170.095L33.5261 171.924Z" fill="white"/>
<path opacity="0.3" d="M33.5261 171.924L29.1211 172.655L29.111 177.02L33.6924 176.259L33.6974 174.424L33.7025 171.894L33.5261 171.924Z" fill="white"/>
<path opacity="0.2" d="M25.9308 168.911L25.9157 173.275L29.111 177.02L29.1211 172.655L25.9308 168.911Z" fill="white"/>
<path d="M109.403 208.807L109.413 204.448L103.809 202.512L103.567 208.59L103.557 212.95L108.93 213.787L109.403 208.807Z" fill="#00B4F5"/>
<path opacity="0.3" d="M109.403 208.807L109.413 204.448L108.945 209.422L108.93 213.787L109.403 208.807Z" fill="white"/>
<path opacity="0.2" d="M108.945 209.422L103.567 208.59L103.557 212.95L108.93 213.787L108.945 209.422Z" fill="white"/>
<path d="M68.8313 179.923L74.6978 180.467L76.0385 177.272L76.0486 172.907L73.4429 171.4L73.4479 169.914L69.4714 170.246L66.6893 172.297L66.6792 176.657L68.8414 177.347L68.8313 179.923Z" fill="#00B4F5"/>
<path opacity="0.2" d="M68.8414 175.558L69.1286 175.584L69.1387 173.074L66.6893 172.297L66.6792 176.657L68.8414 177.348V175.558Z" fill="white"/>
<path opacity="0.2" d="M76.0385 177.272L76.0486 172.907L74.713 176.108L74.6979 180.467L76.0385 177.272Z" fill="white"/>
<path opacity="0.3" d="M68.8413 177.348L68.8313 179.923L74.6978 180.467L74.7129 176.108L69.1286 175.584L68.8413 175.558V177.348Z" fill="white"/>
<path d="M67.1832 206.61L63.0504 206.045L61.9819 208.147L61.9718 212.512L68.9926 214.865L72.9137 212.587L72.9238 208.223L68.5743 205.143L67.1832 206.61Z" fill="#00B4F5"/>
<path opacity="0.3" d="M68.9925 214.865L72.9137 212.587L72.9238 208.223L69.0026 210.501L68.9925 214.865Z" fill="white"/>
<path opacity="0.2" d="M61.9819 208.147L61.9718 212.512L68.9926 214.865L69.0027 210.501L61.9819 208.147Z" fill="white"/>
<path d="M116.127 204.952L116.353 202.719L116.364 198.354L115.451 196.409L112.584 196.716L112.437 197.79L110.442 197.961L110.436 199.942L108.234 201.227L108.219 205.592L110.578 206.196L112.417 206.121L116.127 204.952Z" fill="#00B4F5"/>
<path opacity="0.3" d="M116.353 202.719L116.364 198.354L116.137 200.592L116.127 204.952L116.353 202.719Z" fill="white"/>
<path opacity="0.2" d="M116.127 204.952L116.137 200.592L112.427 201.756L112.417 206.121L116.127 204.952Z" fill="white"/>
<path opacity="0.3" d="M112.427 201.756L110.593 201.832L110.578 206.196L112.417 206.121L112.427 201.756Z" fill="white"/>
<path opacity="0.2" d="M110.578 201.832L110.431 201.792L108.234 201.227L108.219 205.592L110.578 206.196L110.593 201.832H110.578Z" fill="white"/>
<path d="M135.909 194.292L129.316 193.944L126.721 195.159L126.711 199.518L128.046 202.28L133.389 200.663L135.899 198.652L135.909 194.292Z" fill="#00B4F5"/>
<path opacity="0.3" d="M135.909 194.292L133.404 196.298L133.389 200.663L135.899 198.652L135.909 194.292Z" fill="white"/>
<path opacity="0.2" d="M128.061 197.916L128.046 202.28L133.389 200.663L133.404 196.298L128.061 197.916Z" fill="white"/>
<path opacity="0.3" d="M126.721 195.159L126.711 199.518L128.046 202.28L128.061 197.916L126.721 195.159Z" fill="white"/>
<path d="M145.399 135.747L145.409 131.383L143.993 130.103L140.49 130.284L140.329 132.234L140.314 136.594L142.914 137.189L145.399 135.747Z" fill="#00B4F5"/>
<path opacity="0.2" d="M145.399 135.747L145.409 131.383L142.924 132.829L142.914 137.189L145.399 135.747Z" fill="white"/>
<path opacity="0.3" d="M142.924 132.829L140.329 132.234L140.314 136.594L142.914 137.189L142.924 132.829Z" fill="white"/>
<path d="M148.015 161.139L142.425 158.664L139.9 159.098L138.368 165.68L140.949 168.225L142.249 172.917L147.979 172.237L150.504 171.804L150.54 167.076L148.09 166.134L148.015 161.139Z" fill="#00B4F5"/>
<path opacity="0.3" d="M142.249 172.917L147.979 172.237L150.504 171.804L144.774 172.484L142.249 172.917Z" fill="white"/>
<path opacity="0.3" d="M143.479 167.792L140.949 168.225L142.249 172.917L144.774 172.484L143.479 167.792Z" fill="white"/>
<path opacity="0.2" d="M140.893 165.252L138.368 165.68L140.949 168.225L143.479 167.792L140.893 165.252Z" fill="white"/>
<path opacity="0.3" d="M142.425 158.664L139.9 159.098L138.368 165.68L140.893 165.252L142.425 158.664Z" fill="white"/>
<path d="M84.8433 102.252L84.3343 101.052L82.787 101.314L80.2771 98.1036L77.747 98.532L74.7281 102.347L75.4841 106.626L75.6151 109.439L80.141 112.568L82.6661 112.14L83.8605 109.938L87.2424 106.798L84.8433 102.252Z" fill="#00B4F5"/>
<path opacity="0.2" d="M77.2531 101.919L74.7281 102.347L75.4841 106.626L78.0091 106.193L77.2531 101.919Z" fill="white"/>
<path opacity="0.3" d="M80.2771 98.1036L77.747 98.532L74.7281 102.347L77.2531 101.919L80.2771 98.1036Z" fill="white"/>
<path opacity="0.2" d="M75.6151 109.439L80.141 112.568L82.6661 112.14L78.1402 109.005L75.6151 109.439Z" fill="white"/>
<path opacity="0.3" d="M78.0091 106.193L75.4841 106.626L75.6151 109.439L78.1401 109.005L78.0091 106.193Z" fill="white"/>
<path d="M74.718 129.649L72.193 130.082L68.6297 132.139L68.8061 136.518L73.1455 137.642L75.6706 137.214L76.8348 134.628L74.4912 132.96L74.718 129.649Z" fill="#00B4F5"/>
<path opacity="0.2" d="M74.718 129.649L72.193 130.082L68.6297 132.139L71.1598 131.705L74.718 129.649Z" fill="white"/>
<path opacity="0.2" d="M68.8061 136.518L73.1455 137.642L75.6705 137.214L71.3311 136.09L68.8061 136.518Z" fill="white"/>
<path opacity="0.3" d="M71.1597 131.705L68.6297 132.139L68.8061 136.518L71.3311 136.09L71.1597 131.705Z" fill="white"/>
<path d="M131.982 161.386L134.326 156.89L127.789 153.397L125.259 153.831L121.388 157.868L129.457 161.814L131.982 161.386Z" fill="#00B4F5"/>
<path opacity="0.3" d="M131.982 161.386L123.913 157.434L121.388 157.868L129.457 161.814L131.982 161.386Z" fill="white"/>
<path opacity="0.2" d="M127.789 153.397L125.259 153.831L121.388 157.868L123.913 157.434L127.789 153.397Z" fill="white"/>
<path d="M118.007 188.884L120.532 188.456L122.603 183.33L118.637 180.12L116.112 180.553L114.962 181.213L114.045 180.714L111.52 181.148L111.051 185.044L113.158 188.889L115.683 188.461L116.192 187.886L118.007 188.884Z" fill="#00B4F5"/>
<path opacity="0.3" d="M114.917 187.07L113.576 184.615L111.051 185.044L113.158 188.889L115.683 188.461L115.013 187.236L114.917 187.07Z" fill="white"/>
<path opacity="0.2" d="M113.884 182.05L113.909 181.823L114.045 180.714L111.52 181.148L111.051 185.044L113.576 184.615L113.884 182.05Z" fill="white"/>
<path d="M77.7823 80.771L75.2573 81.1994L74.965 88.0488L77.49 87.6153L80.8466 86.4713L81.3204 83.1398L77.7823 80.771Z" fill="#00B4F5"/>
<path opacity="0.2" d="M74.965 88.0488L77.49 87.6153L77.7823 80.771L75.2573 81.1994L74.965 88.0488Z" fill="white"/>
<path d="M133.026 175.211L130.506 175.639L130.213 182.488L132.738 182.06L136.09 180.911L136.564 177.579L133.026 175.211Z" fill="#00B4F5"/>
<path opacity="0.2" d="M130.213 182.488L132.738 182.06L133.026 175.211L130.506 175.639L130.213 182.488Z" fill="white"/>
<path d="M83.3213 187.851L78.2107 190.018L79.8538 192.205L78.1502 195.703L80.7206 197.991L83.2457 197.563L87.9934 192.462L85.8463 187.417L83.3213 187.851Z" fill="#00B4F5"/>
<path opacity="0.3" d="M83.3213 187.851L78.2107 190.018L80.7358 189.585L85.8463 187.417L83.3213 187.851Z" fill="white"/>
<path opacity="0.2" d="M79.8538 192.205L82.3838 191.777L80.7358 189.585L78.2107 190.018L79.8538 192.205Z" fill="white"/>
<path opacity="0.2" d="M80.7206 197.991L83.2457 197.563L80.6753 195.275L78.1502 195.703L80.7206 197.991Z" fill="white"/>
<path opacity="0.3" d="M78.1502 195.703L80.6753 195.275L82.3838 191.777L79.8538 192.205L78.1502 195.703Z" fill="white"/>
<path d="M148.796 194.337L146.382 192.704L143.862 193.133L142.325 194.539L143.7 197.765L145.974 198.107L147.254 201.116L149.779 200.683L153.196 198.712L150.55 194.156L148.796 194.337Z" fill="#00B4F5"/>
<path opacity="0.2" d="M145.974 198.107L147.254 201.116L149.779 200.683L148.499 197.679L145.974 198.107Z" fill="white"/>
<path opacity="0.3" d="M146.226 197.336L143.7 197.765L145.974 198.107L148.499 197.679L146.226 197.336Z" fill="white"/>
<path opacity="0.2" d="M144.855 194.106L142.325 194.539L143.7 197.765L146.226 197.336L144.855 194.106Z" fill="white"/>
<path opacity="0.3" d="M146.382 192.704L143.862 193.133L142.325 194.539L144.855 194.106L146.382 192.704Z" fill="white"/>
<path d="M67.0522 67.0622L64.643 65.4293L62.118 65.8577L60.5858 67.2588L61.9618 70.4894L64.2348 70.8321L65.515 73.836L68.04 73.4076L71.4571 71.4369L68.8061 66.8808L67.0522 67.0622Z" fill="#00B4F5"/>
<path opacity="0.2" d="M64.2348 70.8321L65.515 73.836L68.04 73.4076L66.7599 70.4037L64.2348 70.8321Z" fill="white"/>
<path opacity="0.3" d="M64.4868 70.056L61.9618 70.4894L64.2348 70.8322L66.7598 70.4038L64.4868 70.056Z" fill="white"/>
<path opacity="0.2" d="M63.1109 66.8304L60.5858 67.2588L61.9618 70.4894L64.4868 70.056L63.1109 66.8304Z" fill="white"/>
<path opacity="0.3" d="M64.643 65.4293L62.118 65.8577L60.5858 67.2588L63.1109 66.8304L64.643 65.4293Z" fill="white"/>
<path d="M90.2614 117.961L87.7313 118.395L87.5549 123.53L91.5768 123.903L94.1018 123.475L93.5222 120.078L90.2614 117.961Z" fill="#00B4F5"/>
<path opacity="0.2" d="M87.5549 123.53L91.5768 123.903L94.1018 123.475L90.085 123.102L87.5549 123.53Z" fill="white"/>
<path opacity="0.3" d="M90.2614 117.961L87.7313 118.395L87.5549 123.53L90.085 123.102L90.2614 117.961Z" fill="white"/>
<path d="M75.9427 160.408L77.2279 163.437L79.753 163.009L81.1037 161.179L81.4262 159.425L80.7156 155.262L77.7773 153.675L74.97 153.337L72.445 153.77L72.203 156.628L73.6042 157.419L73.3723 159.375L75.9427 160.408Z" fill="#00B4F5"/>
<path opacity="0.3" d="M77.2279 163.437L79.753 163.009L78.4678 159.98L75.9427 160.408L77.2279 163.437Z" fill="white"/>
<path opacity="0.2" d="M75.9427 160.408L78.4678 159.98L75.8974 158.946L73.3723 159.375L75.9427 160.408Z" fill="white"/>
<path opacity="0.3" d="M75.8974 158.947L76.1292 156.991L73.6042 157.419L73.3723 159.375L75.8974 158.947Z" fill="white"/>
<path opacity="0.2" d="M74.7281 156.2L72.203 156.628L73.6042 157.419L76.1292 156.991L74.7281 156.2Z" fill="white"/>
<path opacity="0.3" d="M74.97 153.337L72.445 153.77L72.203 156.628L74.7281 156.2L74.97 153.337Z" fill="white"/>
<path d="M136.312 102.75L138.837 102.317L137.904 96.3598L135.793 92.7914L133.268 93.2249L131.292 99.1469L132.32 102.302L136.312 102.75Z" fill="#00B4F5"/>
<path opacity="0.2" d="M136.312 102.75L138.837 102.317L134.845 101.868L132.32 102.302L136.312 102.75Z" fill="white"/>
<path opacity="0.3" d="M134.845 101.868L133.817 98.7134L131.292 99.1469L132.32 102.302L134.845 101.868Z" fill="white"/>
<path opacity="0.2" d="M135.793 92.7914L133.268 93.2249L131.292 99.1469L133.817 98.7134L135.793 92.7914Z" fill="white"/>
<path d="M127.779 84.1831L129.165 82.1268L127.804 78.9314L125.279 79.3598L123.248 79.9041L122.684 83.2709L125.254 84.6165L127.779 84.1831Z" fill="#00B4F5"/>
<path opacity="0.3" d="M127.804 78.9314L125.279 79.3598L123.248 79.9041L125.773 79.4707L127.804 78.9314Z" fill="white"/>
<path opacity="0.2" d="M127.779 84.1831L125.209 82.8374L122.684 83.2709L125.254 84.6166L127.779 84.1831Z" fill="white"/>
<path opacity="0.3" d="M125.773 79.4707L123.248 79.9041L122.684 83.2709L125.209 82.8374L125.773 79.4707Z" fill="white"/>
<path d="M92.1967 179.399L92.0959 176.566L94.0918 174.036L89.5658 172.383L87.0408 172.817L86.5872 179.253L89.6717 179.827L92.1967 179.399Z" fill="#00B4F5"/>
<path opacity="0.3" d="M92.1967 179.399L89.1122 178.824L86.5872 179.253L89.6717 179.827L92.1967 179.399Z" fill="white"/>
<path opacity="0.2" d="M89.5658 172.383L87.0408 172.817L86.5872 179.253L89.1122 178.824L89.5658 172.383Z" fill="white"/>
<path d="M67.4352 181.732L67.4402 179.676L68.4785 178.512L68.4936 174.152L63.4788 172.751L59.6837 173.966L57.0226 174.52L56.0045 178.083L55.9894 182.443L58.6454 182.881L63.1714 184.64L66.5079 182.272L67.4352 181.732Z" fill="#00B4F5"/>
<path opacity="0.2" d="M67.4453 177.368L67.4402 179.676L68.4785 178.512L68.4936 174.152L66.2407 176.672L66.2357 178.109L66.5179 177.912L67.4453 177.368Z" fill="white"/>
<path opacity="0.3" d="M66.5179 177.912L66.5079 182.272L67.4352 181.732L67.4403 179.676L67.4453 177.368L66.5179 177.912Z" fill="white"/>
<path opacity="0.3" d="M56.0045 178.083L55.9894 182.443L58.6455 182.881L58.6555 178.522L56.0045 178.083Z" fill="white"/>
<path opacity="0.3" d="M66.5179 177.912L66.2357 178.109L63.1814 180.281L63.1714 184.64L66.5079 182.272L66.5179 177.912Z" fill="white"/>
<path opacity="0.2" d="M58.6555 178.522L58.6454 182.881L63.1714 184.64L63.1814 180.281L58.6555 178.522Z" fill="white"/>
<path d="M133.641 117.639L123.193 109.479L122.175 111.318L132.779 119.629L133.641 117.639Z" fill="#263238"/>
<path d="M114.408 124.992L108.546 124.453C109.287 128.177 110.593 133.333 110.593 133.333L117.649 131.277L114.408 124.992Z" fill="#455A64"/>
<path d="M97.3123 180.659C98.6312 180.894 99.9909 180.691 101.183 180.079C102.021 179.575 102.832 179.026 103.612 178.436C104.203 178.013 104.885 177.737 105.603 177.63C106.404 177.544 107.187 177.339 107.927 177.02C108.783 176.679 109.476 176.022 109.862 175.185C109.934 175.022 109.971 174.845 109.971 174.666C109.971 174.487 109.934 174.311 109.862 174.147L110.048 174.354C110.211 174.542 110.317 174.773 110.355 175.019C110.392 175.265 110.36 175.517 110.26 175.745C109.863 176.596 109.157 177.265 108.284 177.615C107.531 177.941 106.732 178.15 105.916 178.235C105.188 178.348 104.497 178.631 103.9 179.061C103.063 179.61 102.302 180.276 101.415 180.739C100.198 181.362 98.8097 181.569 97.4635 181.329C97.182 181.302 96.909 181.218 96.6605 181.083C96.412 180.948 96.1932 180.764 96.017 180.543C95.8654 180.293 95.7949 180.003 95.8154 179.711C95.8457 179.772 95.8759 179.832 95.9112 179.893C96.0828 180.106 96.2949 180.284 96.5354 180.415C96.7758 180.547 97.0398 180.63 97.3123 180.659Z" fill="black"/>
<path d="M109.655 173.825C109.735 173.923 109.803 174.032 109.857 174.147C109.929 174.311 109.966 174.487 109.966 174.666C109.966 174.845 109.929 175.022 109.857 175.185C109.471 176.022 108.778 176.679 107.922 177.02C107.182 177.339 106.399 177.544 105.598 177.63C104.88 177.737 104.198 178.013 103.607 178.436C102.827 179.026 102.016 179.575 101.178 180.079C99.9859 180.691 98.6262 180.894 97.3073 180.659C97.0313 180.632 96.7634 180.551 96.5193 180.419C96.2753 180.288 96.0599 180.109 95.886 179.893C95.8507 179.832 95.8205 179.772 95.7902 179.711C95.7056 179.486 95.6722 179.245 95.6922 179.005C95.7122 178.766 95.7853 178.533 95.9062 178.325C96.194 177.854 96.6053 177.471 97.0956 177.216C97.5996 176.944 98.1036 176.712 98.5572 176.46C99.3238 175.982 100.035 175.421 100.679 174.787C101.294 174.223 101.91 173.66 102.529 173.099L109.222 173.366C109.222 173.366 109.434 173.573 109.655 173.825Z" fill="#263238"/>
<path d="M146.609 148.987C146.609 147.647 146.17 146.344 145.359 145.278C144.715 144.541 144.033 143.838 143.317 143.171C142.796 142.665 142.403 142.041 142.173 141.352C141.947 140.58 141.607 139.847 141.165 139.175C140.679 138.391 139.91 137.823 139.018 137.587C138.847 137.547 138.668 137.542 138.495 137.574C138.321 137.607 138.156 137.674 138.01 137.773L138.182 137.557C138.338 137.363 138.546 137.218 138.781 137.137C139.017 137.057 139.27 137.045 139.512 137.103C140.422 137.343 141.204 137.922 141.7 138.721C142.142 139.409 142.482 140.158 142.708 140.944C142.943 141.645 143.342 142.281 143.872 142.798C144.604 143.479 145.301 144.198 145.958 144.95C146.785 146.039 147.233 147.368 147.234 148.735C147.258 149.016 147.226 149.299 147.139 149.567C147.053 149.836 146.913 150.084 146.73 150.298C146.511 150.494 146.236 150.616 145.943 150.646C145.999 150.608 146.051 150.566 146.1 150.52C146.283 150.311 146.422 150.069 146.51 149.805C146.597 149.542 146.631 149.264 146.609 148.987Z" fill="black"/>
<path d="M137.718 138.03C137.798 137.931 137.894 137.844 138 137.773C138.146 137.674 138.311 137.607 138.485 137.574C138.658 137.542 138.836 137.547 139.008 137.587C139.9 137.823 140.669 138.391 141.155 139.175C141.597 139.847 141.936 140.58 142.163 141.352C142.393 142.041 142.786 142.665 143.307 143.171C144.023 143.838 144.705 144.541 145.349 145.278C146.16 146.344 146.599 147.647 146.598 148.987C146.619 149.26 146.585 149.534 146.498 149.794C146.412 150.054 146.274 150.293 146.094 150.499C146.046 150.545 145.993 150.587 145.938 150.625C145.731 150.748 145.499 150.822 145.259 150.844C145.02 150.866 144.778 150.834 144.552 150.751C144.039 150.549 143.589 150.211 143.252 149.774C142.899 149.355 142.607 148.887 142.244 148.468C141.639 147.799 140.963 147.197 140.228 146.674L138.237 145.162L137.33 138.524C137.33 138.524 137.506 138.293 137.718 138.03Z" fill="#263238"/>
<path d="M123.525 136.912L123.833 145.117C127.552 141.347 137.239 137.829 137.239 137.829C140.908 140.53 140.092 143.64 138.716 145.117C131.121 149.25 122.457 154.804 120.466 154.345C118.475 153.886 115.854 150.872 113.914 145.192L115.638 135.672L123.525 136.912Z" fill="#37474F"/>
<path d="M127.452 123.863C128.676 129.881 128.213 132.527 123.525 136.912C118.838 141.296 111.142 147.465 111.142 147.465C113.027 153.579 110.225 161.633 110.134 164.742C110.043 167.852 109.605 173.568 109.605 173.568C105.321 175.861 102.549 173.099 102.549 173.099L102.695 146.089C102.694 143.723 103.552 141.436 105.109 139.653L114.408 128.958V124.992L127.452 123.863Z" fill="#455A64"/>
<path d="M94.4647 107.997C93.6538 108.271 92.7865 108.333 91.9447 108.179C91.9447 106.551 91.9447 104.736 91.8137 102.372C91.5063 97.272 92.8822 94.4698 94.0212 93.4517C95.1603 92.4336 97.1107 92.4134 97.8415 93.0586C98.5723 93.7037 96.7882 96.0523 96.5362 98.0986C97.5442 96.9091 98.0482 96.5009 99.031 97.2317C98.4719 97.8832 98.0502 98.6409 97.7911 99.4594C97.5895 100.467 96.5009 101.193 96.1934 102.04C95.9616 102.69 96.1934 104.797 96.5815 106.601C96.0075 107.24 95.2785 107.721 94.4647 107.997Z" fill="#FFA8A7"/>
<path d="M94.4647 107.997C95.2832 107.72 96.0159 107.235 96.5916 106.591C96.7075 107.13 96.8285 107.644 96.9545 108.078C96.9545 108.078 100.896 102.675 101.778 101.657C102.66 100.639 103.476 98.1893 107.322 97.7407L106.853 107.266C106.853 107.266 99.041 116.167 96.3547 117.664C93.6684 119.161 92.7864 117.22 92.2421 113.632C91.998 111.83 91.8952 110.012 91.9346 108.194C92.7809 108.345 93.6519 108.277 94.4647 107.997Z" fill="#E0E0E0"/>
<path opacity="0.1" d="M97.5542 113.849C98.1691 111.631 97.2518 108.879 96.9545 108.078L97.6248 107.16C98.1127 108.21 98.3596 109.355 98.3474 110.512C98.3352 111.67 98.0642 112.81 97.5542 113.849Z" fill="black"/>
<path d="M118.889 97.5391C121.131 97.2317 123.525 97.6147 125.975 98.0431C126.534 104.666 126.287 111.56 125.975 114.045L127.91 124.443C120.315 129.034 110.628 126.993 108.693 125.667C105.633 113.743 104.872 102.483 107.342 97.7609L113.39 96.7529L118.889 97.5391Z" fill="#F0F0F0"/>
<path d="M119.841 96.9041C122.084 96.6017 123.525 97.6147 125.975 98.023C126.534 104.646 126.287 111.54 125.975 114.025L127.91 124.422C120.315 129.014 110.628 126.973 108.693 125.647C105.633 113.723 104.872 102.463 107.342 97.7407L113.39 96.7327L119.841 96.9041Z" fill="#E6E6E6"/>
<path d="M114.045 102.176L115.819 100.77C115.263 100.496 114.682 100.273 114.085 100.104L113.38 100.452L114.045 102.176Z" fill="#00B4F5"/>
<path d="M112.14 102.03L111.747 101.788L111.097 100.362L111.853 100.104L112.311 100.452L112.14 102.03Z" fill="#00B4F5"/>
<path d="M113.571 103.154C114.907 108.471 121.131 111.943 126.287 111.57C127.016 111.5 127.746 111.689 128.349 112.105C129.115 112.646 129.795 113.3 130.365 114.045C130.44 114.145 130.491 114.26 130.514 114.382C130.538 114.504 130.533 114.63 130.501 114.75C130.468 114.87 130.408 114.981 130.326 115.075C130.244 115.169 130.142 115.242 130.027 115.29C128.884 115.749 127.703 116.11 126.499 116.369C125.248 116.659 123.944 116.626 122.709 116.273C113.37 113.566 112.074 107.584 112.326 103.169L113.571 103.154Z" fill="#00B4F5"/>
<path opacity="0.3" d="M112.311 103.391C112.311 103.315 112.311 103.234 112.311 103.154H113.561C113.561 103.179 113.561 103.204 113.561 103.234C113.39 103.373 113.185 103.463 112.967 103.496C112.743 103.524 112.515 103.487 112.311 103.391Z" fill="black"/>
<path d="M113.4 100.452C113.046 100.394 112.685 100.394 112.332 100.452C112.028 100.839 111.833 101.3 111.767 101.788C111.862 102.278 112.057 102.743 112.342 103.154C112.664 103.401 113.592 103.154 113.592 103.154C113.826 102.836 114.034 102.499 114.211 102.146C114.264 102.036 114.291 101.917 114.291 101.795C114.291 101.674 114.264 101.554 114.211 101.445C114.014 101.061 113.737 100.722 113.4 100.452Z" fill="#00B4F5"/>
<path opacity="0.3" d="M110.003 127.512C110.958 128.666 112.293 129.443 113.768 129.704L110.613 133.318C110.947 132.175 111.481 131.1 112.19 130.143C111.191 129.531 110.422 128.606 110.003 127.512Z" fill="black"/>
<path d="M112.896 100.296C111.46 99.913 110.542 101.506 110.542 101.506C110.452 97.9776 112.286 96.6269 112.286 96.6269L112.896 100.296Z" fill="#E0E0E0"/>
<path d="M119.025 82.8576L120.95 81.5875C120.786 81.3962 120.583 81.2426 120.354 81.1373C120.125 81.032 119.876 80.9776 119.624 80.9777C119.336 81.0021 119.069 81.1389 118.88 81.3586C118.692 81.5782 118.597 81.8632 118.616 82.152C118.556 80.9978 117.563 79.9646 116.525 79.4606C115.46 79.0036 114.295 78.8299 113.143 78.9566C111.994 79.0322 110.855 79.254 109.701 79.2943C108.369 79.3425 107.04 79.1548 105.774 78.7399C105.633 78.6893 105.479 78.6794 105.332 78.7114C105.185 78.7433 105.05 78.8159 104.942 78.9208C104.834 79.0257 104.757 79.1588 104.721 79.305C104.684 79.4512 104.69 79.6046 104.736 79.7479C104.958 80.4806 105.33 81.1588 105.83 81.7387C105.564 81.8172 105.285 81.8479 105.008 81.8294C104.86 81.8212 104.713 81.8534 104.582 81.9226C104.451 81.9919 104.341 82.0955 104.264 82.2225C104.187 82.3494 104.147 82.4948 104.146 82.6431C104.146 82.7914 104.186 82.937 104.262 83.0642C104.768 83.8087 105.484 84.3859 106.319 84.7224C109.373 89.5507 117.618 93.8549 117.618 93.8549C117.898 93.8211 118.165 93.7181 118.394 93.5553C118.624 93.3925 118.809 93.175 118.934 92.9225C119.178 92.418 119.337 91.8763 119.403 91.3198C119.739 89.203 120.031 87.0778 120.28 84.9442C120.361 84.4968 120.34 84.0368 120.219 83.5985C120.155 83.38 120.022 83.1879 119.841 83.0501C119.659 82.9123 119.439 82.836 119.211 82.8324" fill="#37474F"/>
<path d="M118.223 90.3269C118.445 92.3126 118.889 95.755 118.889 95.755C117.155 98.0986 113.788 98.6076 112.896 100.291C112.319 98.4246 111.944 96.5017 111.777 94.5554L117.513 90.0194L118.223 90.3269Z" fill="#FFA8A7"/>
<path d="M117.513 90.0446L117.659 90.1001C117.733 91.7073 117.197 93.2831 116.159 94.5121C115.121 95.7411 113.656 96.5324 112.059 96.7277C111.927 96.0091 111.832 95.284 111.777 94.5554L117.513 90.0446Z" fill="#F28F8F"/>
<path d="M106.314 84.7123C105.881 88.0283 106.247 91.3997 107.382 94.5454C107.527 94.9362 107.789 95.2726 108.133 95.5082C108.477 95.7438 108.886 95.867 109.302 95.8608C113.657 95.8608 117.089 94.374 117.689 90.5033C117.908 90.7829 118.211 90.9835 118.554 91.0745C118.897 91.1654 119.261 91.1419 119.589 91.0073C120.047 90.7628 120.443 90.4168 120.747 89.9958C121.051 89.5748 121.255 89.0898 121.343 88.578C121.381 88.3384 121.352 88.0931 121.259 87.8689C121.166 87.6447 121.014 87.4504 120.818 87.3072C120.622 87.1641 120.391 87.0776 120.149 87.0572C119.908 87.0369 119.665 87.0835 119.448 87.192C118.898 87.4493 118.467 87.9073 118.243 88.4722C118.148 88.6838 118.027 88.9409 117.795 88.9459C117.563 88.951 117.422 88.6838 117.351 88.4419C117.074 87.5332 116.953 86.5839 116.994 85.6346C116.655 85.7088 116.305 85.7145 115.964 85.6512C115.624 85.588 115.299 85.4571 115.01 85.2664C114.72 85.0757 114.472 84.829 114.279 84.5408C114.087 84.2526 113.954 83.9288 113.889 83.5884C113.707 83.9335 113.447 84.231 113.129 84.4569C112.811 84.6828 112.445 84.8307 112.059 84.8887C111.679 84.9427 111.292 84.9056 110.929 84.7802C110.566 84.6549 110.238 84.4451 109.973 84.168C109.524 84.6233 108.941 84.9219 108.31 85.0198C107.629 85.1194 106.933 85.0123 106.314 84.7123Z" fill="#FFA8A7"/>
<path d="M110.275 88.4722L108.284 90.9821L110.169 91.607L110.275 88.4722Z" fill="#F28F8F"/>
<path d="M111.888 92.8015L110.321 93.3055C110.425 93.4891 110.586 93.6339 110.779 93.7184C110.973 93.8029 111.189 93.8225 111.394 93.7742C111.574 93.6917 111.721 93.5506 111.811 93.374C111.9 93.1974 111.928 92.9956 111.888 92.8015Z" fill="#F28F8F"/>
<path opacity="0.3" d="M111.888 92.8015L110.321 93.3055C110.425 93.4891 110.586 93.6339 110.779 93.7184C110.973 93.8029 111.189 93.8225 111.394 93.7742C111.574 93.6917 111.721 93.5506 111.811 93.374C111.9 93.1974 111.928 92.9956 111.888 92.8015Z" fill="black"/>
<path d="M110.88 93.744C111.045 93.7911 111.219 93.7911 111.384 93.744C111.53 93.6878 111.656 93.5891 111.746 93.4607C111.836 93.3323 111.885 93.18 111.888 93.0233C111.677 92.9918 111.461 93.0346 111.278 93.1442C111.072 93.284 110.929 93.4995 110.88 93.744Z" fill="#F28F8F"/>
<path d="M113.062 88.961C113.059 89.0728 113.023 89.1812 112.958 89.2724C112.894 89.3636 112.803 89.4335 112.699 89.4732C112.594 89.5129 112.48 89.5207 112.371 89.4956C112.262 89.4705 112.163 89.4135 112.087 89.332C112.01 89.2505 111.959 89.148 111.941 89.0377C111.923 88.9274 111.938 88.8141 111.984 88.7123C112.03 88.6104 112.106 88.5246 112.201 88.4657C112.296 88.4068 112.406 88.3775 112.518 88.3814C112.592 88.3834 112.665 88.4 112.732 88.4302C112.8 88.4605 112.86 88.5038 112.911 88.5577C112.962 88.6116 113.001 88.675 113.027 88.7442C113.053 88.8134 113.065 88.8871 113.062 88.961Z" fill="#263238"/>
<path d="M108.36 88.6183C108.357 88.7301 108.321 88.8385 108.256 88.9297C108.191 89.0208 108.101 89.0907 107.996 89.1305C107.892 89.1702 107.778 89.178 107.669 89.1529C107.56 89.1277 107.461 89.0708 107.384 88.9893C107.308 88.9078 107.257 88.8053 107.239 88.695C107.221 88.5847 107.236 88.4714 107.282 88.3695C107.328 88.2677 107.403 88.1819 107.498 88.123C107.594 88.0641 107.704 88.0348 107.816 88.0387C107.89 88.0407 107.962 88.0572 108.03 88.0875C108.097 88.1178 108.158 88.1611 108.209 88.215C108.259 88.2689 108.299 88.3323 108.325 88.4015C108.351 88.4707 108.363 88.5444 108.36 88.6183Z" fill="#263238"/>
<path d="M108.511 86.7586L107.095 86.2546C107.191 86.1229 107.325 86.0236 107.479 85.9696C107.633 85.9156 107.799 85.9095 107.957 85.9522C108.114 86.0239 108.248 86.1367 108.345 86.2787C108.443 86.4207 108.5 86.5866 108.511 86.7586Z" fill="#263238"/>
<path d="M111.757 87.0509L113.244 86.7737C113.172 86.6271 113.057 86.5058 112.915 86.4257C112.773 86.3456 112.61 86.3105 112.447 86.3251C112.277 86.3706 112.122 86.4624 112 86.5905C111.878 86.7186 111.794 86.878 111.757 87.0509Z" fill="#263238"/>
<path d="M118.889 95.76L118.773 94.873C118.849 94.8711 118.926 94.8813 118.999 94.9032C119.604 95.2308 120.758 97.025 120.758 97.025C120.35 97.9776 118.41 100.951 116.883 101.969C115.114 101.087 113.859 99.8424 112.896 100.296C113.264 98.2246 118.889 95.76 118.889 95.76Z" fill="#E0E0E0"/>
<path d="M122.316 128.414C118.072 122.457 108.708 108.672 109.272 97.4182L107.342 97.7407C106.541 108.829 115.33 123.304 121.454 130.808L122.316 128.414Z" fill="#263238"/>
<path d="M123.651 133.137L136.624 122.21L138.907 130.274C138.923 130.325 138.925 130.379 138.913 130.431C138.902 130.483 138.877 130.531 138.842 130.571L138.802 130.612L126 142.083C126.044 142.04 126.076 141.986 126.092 141.926C126.108 141.867 126.107 141.804 126.091 141.745L123.651 133.137Z" fill="#00B4F5"/>
<path opacity="0.15" d="M123.651 133.137L136.624 122.21L138.907 130.274C138.923 130.325 138.925 130.379 138.913 130.431C138.902 130.483 138.877 130.531 138.842 130.571L138.802 130.612L126 142.083C126.044 142.04 126.076 141.986 126.092 141.926C126.108 141.867 126.107 141.804 126.091 141.745L123.651 133.137Z" fill="black"/>
<path d="M124.206 135.107L122.175 127.925L124.206 135.107Z" fill="#00B4F5"/>
<path d="M120.653 127.562C120.643 127.493 120.649 127.423 120.671 127.356C120.693 127.29 120.73 127.229 120.779 127.179C120.832 127.133 120.894 127.098 120.962 127.077C121.03 127.056 121.101 127.05 121.172 127.058C121.403 127.097 121.619 127.2 121.793 127.358C121.968 127.515 122.093 127.719 122.154 127.945L124.17 135.127L126.05 141.765C126.067 141.824 126.067 141.887 126.051 141.946C126.035 142.006 126.004 142.06 125.96 142.103C125.917 142.145 125.863 142.175 125.805 142.189C125.746 142.203 125.685 142.201 125.627 142.183L123.107 141.417C122.916 141.363 122.746 141.254 122.616 141.103C122.487 140.953 122.406 140.768 122.381 140.571L120.653 127.562Z" fill="#00B4F5"/>
<path opacity="0.3" d="M120.653 127.562C120.643 127.493 120.649 127.423 120.671 127.356C120.693 127.29 120.73 127.229 120.779 127.179C120.832 127.133 120.894 127.098 120.962 127.077C121.03 127.056 121.101 127.05 121.172 127.058C121.403 127.097 121.619 127.2 121.793 127.358C121.968 127.515 122.093 127.719 122.154 127.945L124.17 135.127L126.05 141.765C126.067 141.824 126.067 141.887 126.051 141.946C126.035 142.006 126.004 142.06 125.96 142.103C125.917 142.145 125.863 142.175 125.805 142.189C125.746 142.203 125.685 142.201 125.627 142.183L123.107 141.417C122.916 141.363 122.746 141.254 122.616 141.103C122.487 140.953 122.406 140.768 122.381 140.571L120.653 127.562Z" fill="black"/>
<path d="M128.202 128.475L130.496 136.705L130.133 137.048L127.915 128.888L128.202 128.475Z" fill="#00B4F5"/>
<path d="M133.066 124.125L135.359 132.355L134.996 132.698L132.779 124.538L133.066 124.125Z" fill="#00B4F5"/>
<path d="M133.61 115.718C133.661 115.673 133.722 115.639 133.787 115.62C133.852 115.601 133.921 115.597 133.988 115.608C134.224 115.642 134.445 115.744 134.624 115.901C134.803 116.059 134.932 116.265 134.996 116.495L136.745 122.689C136.847 123.054 136.844 123.441 136.737 123.805C136.629 124.168 136.42 124.494 136.135 124.745L134.785 125.919L125.551 133.953C125.407 134.078 125.234 134.165 125.048 134.206C124.861 134.246 124.668 134.239 124.485 134.185C124.302 134.13 124.136 134.031 124.001 133.895C123.867 133.76 123.769 133.592 123.717 133.409L122.17 127.945C122.108 127.719 121.983 127.515 121.808 127.358C121.634 127.2 121.418 127.097 121.187 127.058C121.116 127.05 121.045 127.056 120.977 127.077C120.91 127.098 120.847 127.133 120.794 127.179L133.61 115.718Z" fill="#00B4F5"/>
<path opacity="0.2" d="M133.61 115.718C133.661 115.673 133.722 115.639 133.787 115.62C133.852 115.601 133.921 115.597 133.988 115.608C134.224 115.642 134.445 115.744 134.624 115.901C134.803 116.059 134.932 116.265 134.996 116.495L136.745 122.689C136.847 123.054 136.844 123.441 136.737 123.805C136.629 124.168 136.42 124.494 136.135 124.745L134.785 125.919L125.551 133.953C125.407 134.078 125.234 134.165 125.048 134.206C124.861 134.246 124.668 134.239 124.485 134.185C124.302 134.13 124.136 134.031 124.001 133.895C123.867 133.76 123.769 133.592 123.717 133.409L122.17 127.945C122.108 127.719 121.983 127.515 121.808 127.358C121.634 127.2 121.418 127.097 121.187 127.058C121.116 127.05 121.045 127.056 120.977 127.077C120.91 127.098 120.847 127.133 120.794 127.179L133.61 115.718Z" fill="white"/>
<path d="M141.543 116.318L141.12 122.588C140.233 128.843 139.104 129.825 136.226 130.652C133.348 131.478 135.037 127.905 135.41 127.24C135.684 126.645 135.877 126.016 135.984 125.37C134.578 126.64 134.22 126.504 133.661 126.116C133.439 125.945 134.492 125.027 134.492 125.027C135.049 123.826 135.776 122.711 136.65 121.716L136.317 116.293L141.543 116.318Z" fill="#FFA8A7"/>
<path d="M122.976 97.5744C127.008 96.899 129.649 98.9302 131.484 100.094C132.809 100.946 137.678 104.63 140.273 106.591C140.789 106.978 141.205 107.482 141.486 108.063C141.766 108.643 141.904 109.283 141.886 109.927L141.745 116.555C140.889 117.004 139.929 117.22 138.963 117.18C137.997 117.14 137.058 116.846 136.241 116.328L135.762 111.47C135.762 111.47 130.108 108.718 126.307 106.984C122.507 105.25 122.028 100.407 122.976 97.5744Z" fill="#E0E0E0"/>
<path d="M192.412 31.1976C189.791 29.6856 187.579 30.4265 186.868 32.7751C186.233 31.4848 185.253 30.396 184.036 29.6301C181.984 28.4457 180.316 29.3933 180.311 31.752V32.8356L177.564 31.248C176.128 30.4214 174.959 31.0867 174.954 32.76C175 33.6598 175.26 34.5358 175.71 35.3162C176.16 36.0967 176.789 36.7596 177.544 37.2506L200.874 50.7175C202.316 51.5491 203.485 50.8838 203.49 49.2358C203.442 48.3349 203.182 47.4581 202.731 46.6768C202.28 45.8956 201.651 45.2319 200.894 44.7401L198.138 43.1474V41.1314C198.158 37.4825 195.587 33.0321 192.412 31.1976Z" fill="#E6E6E6"/>
<path d="M169.546 40.0226C167.666 38.939 166.078 39.4682 165.574 41.1566C165.125 40.2297 164.427 39.4461 163.558 38.8937C162.086 38.0469 160.887 38.7273 160.887 40.4057V41.1818L158.911 40.0428C157.878 39.443 157.041 39.9269 157.036 41.1113C157.071 41.7571 157.258 42.3855 157.583 42.9452C157.907 43.5049 158.358 43.98 158.901 44.3318L175.644 54.0036C176.677 54.5983 177.514 54.1195 177.519 52.9351C177.485 52.2883 177.298 51.6588 176.974 51.0981C176.65 50.5374 176.198 50.0615 175.654 49.7095L173.678 48.5654V47.1542C173.668 44.5334 171.829 41.328 169.546 40.0226Z" fill="#E6E6E6"/>
</svg>
