<svg width="117" height="117" viewBox="0 0 117 117" fill="none" xmlns="http://www.w3.org/2000/svg">
<g filter="url(#filter0_d)">
<path d="M58.8959 85.8569L52.1278 105.196L51.5929 106.672C51.2988 107.536 50.5228 108.121 49.6134 108.15H49.2923C48.5702 108.15 47.9015 107.675 47.6608 106.952L43.8355 96.0281L40.1709 106.561L40.0906 106.756L40.0371 106.951C39.7699 107.675 39.1273 108.149 38.3787 108.149H38.0845C37.1751 108.121 36.3726 107.536 36.0784 106.672L35.5701 105.195L28.802 85.8565H32.6542C33.3763 85.8565 34.0454 86.3308 34.2861 87.0273L38.1114 97.9504L41.3214 88.7826L41.7763 87.4175C41.8029 87.3614 41.8298 87.3338 41.8298 87.2781C41.8298 87.25 41.8563 87.25 41.8563 87.25L41.9098 87.0273C42.1774 86.3308 42.8192 85.8293 43.5682 85.8565H44.1835C44.9056 85.8565 45.5212 86.3308 45.762 87.0273L49.5872 97.9504L53.4125 87.0273C53.6532 86.3308 54.295 85.8565 55.0441 85.8565H58.8959V85.8569Z" fill="#DB352F"/>
<path d="M61.568 85.8569H72.4555C73.4718 85.8569 74.3278 86.7209 74.3278 87.8076V91.1518H66.6503V94.3562H74.3278V99.6507H66.6503V102.855H74.3278V108.15H61.5676V85.8569H61.568Z" fill="#DB352F"/>
<path d="M78.3391 85.8569H85.7489C89.6815 85.8569 92.8646 88.8106 92.8646 92.4612V92.5449C92.8646 94.2725 92.1686 95.8331 91.0189 97.0031C92.1686 98.1735 92.8646 99.7336 92.8646 101.434V101.545C92.8646 105.196 89.6815 108.149 85.7489 108.149H78.3391V85.8569ZM85.7489 94.8301C87.0594 94.802 88.103 93.8267 88.1834 92.6287V92.4055C88.103 91.1795 87.0329 90.2045 85.6686 90.2045H83.0203V94.8301H85.7489ZM85.6686 103.803C87.0329 103.803 88.103 102.827 88.1834 101.601V101.378C88.103 100.18 87.0594 99.2049 85.7489 99.1769H83.0203V103.803H85.6686Z" fill="#DB352F"/>
<path d="M57.8058 84.7214L51.0381 104.06L50.5032 105.537C50.209 106.401 49.4331 106.986 48.5237 107.014H48.2026C47.4804 107.014 46.8117 106.54 46.571 105.816L42.7458 94.8926L39.0812 105.426L39.0008 105.621L38.9474 105.816C38.6802 106.54 38.0376 107.014 37.2889 107.014H36.9948C36.0854 106.986 35.2828 106.401 34.9887 105.536L34.4803 104.06L27.7123 84.721H31.5645C32.2866 84.721 32.9557 85.1953 33.1964 85.8918L37.0217 96.8149L40.2317 87.6471L40.6866 86.282C40.7131 86.2259 40.7401 86.1983 40.7401 86.1426C40.7401 86.1145 40.7666 86.1145 40.7666 86.1145L40.82 85.8918C41.0877 85.1953 41.7295 84.6938 42.4785 84.721H43.0938C43.8159 84.721 44.4315 85.1953 44.6722 85.8918L48.4975 96.8149L52.3228 85.8918C52.5635 85.1953 53.2053 84.721 53.9543 84.721H57.8058V84.7214Z" fill="#EC6258"/>
<path d="M60.4778 84.7214H71.3653C72.3816 84.7214 73.2376 85.5854 73.2376 86.6721V90.0163H65.5601V93.2207H73.2376V98.5152H65.5601V101.72H73.2376V107.014H60.4774V84.7214H60.4778Z" fill="#EC6258"/>
<path d="M77.249 84.7214H84.6589C88.5914 84.7214 91.7746 87.6751 91.7746 91.3257V91.4094C91.7746 93.137 91.0786 94.6976 89.9288 95.8676C91.0786 97.038 91.7746 98.5981 91.7746 100.298V100.41C91.7746 104.06 88.5914 107.014 84.6589 107.014H77.249V84.7214ZM84.6589 93.6946C85.9693 93.6665 87.0129 92.6912 87.0933 91.4932V91.27C87.0129 90.044 85.9428 89.069 84.5785 89.069H81.9303V93.6946H84.6589ZM84.5785 102.667C85.9428 102.667 87.0129 101.691 87.0933 100.466V100.242C87.0129 99.0443 85.9693 98.0694 84.6589 98.0414H81.9303V102.667H84.5785Z" fill="#EC6258"/>
<path d="M9.62292 71.3601C9.62292 64.9786 14.2776 59.7397 20.4035 59.7397C23.3998 59.7397 25.9942 60.9106 27.8668 63.0279L25.4324 65.5638C24.871 66.1494 23.9612 66.344 23.2121 65.7588C22.2758 65.3687 21.3399 64.9786 20.2163 64.9786C17.2466 64.9786 14.8394 67.4864 14.8394 70.6075C14.8394 73.8119 17.0597 76.8217 20.4035 76.8217C21.3399 76.8217 22.4631 76.4039 23.2121 76.0137C23.9616 75.4281 24.871 75.6232 25.4324 76.2084L27.8668 78.7443C25.9942 80.8893 23.2121 82.032 20.0555 82.032C14.438 82.032 9.62292 77.1838 9.62292 71.3601Z" fill="#DB352F"/>
<path d="M51.9401 70.8859C51.9401 77.0444 47.152 82.032 41.2403 82.032C35.3282 82.032 30.54 77.0444 30.54 70.8859C30.54 64.7278 35.3282 59.7397 41.2403 59.7397C47.152 59.7397 51.9401 64.7278 51.9401 70.8859ZM46.8309 70.8859C46.8309 67.6815 44.3161 65.0623 41.2403 65.0623C38.1371 65.0623 35.6493 67.6815 35.6493 70.8859C35.6493 74.1183 38.1371 76.7095 41.2403 76.7095C44.3161 76.7095 46.8309 74.1187 46.8309 70.8859Z" fill="#DB352F"/>
<path d="M55.2816 59.7397H66.1691C67.1858 59.7397 68.0418 60.6037 68.0418 61.6904V65.0346H60.3643V68.239H68.0418V73.5335H60.3643V76.7379H68.0418V82.0324H55.2812V59.7397H55.2816Z" fill="#DB352F"/>
<path d="M72.0532 72.4188V59.7397H75.2633C76.2803 59.7397 77.1094 60.6037 77.1094 61.6904V72.4745C77.1094 74.7035 78.7678 76.5986 80.9081 76.6823C83.1553 76.7656 85.0006 74.8986 85.0006 72.5578V59.7397H88.211C89.2547 59.7397 90.0837 60.6037 90.0837 61.6904V72.5578C90.0837 77.7966 85.9643 81.9487 80.9085 81.9487C75.9585 81.9487 72.0532 77.5735 72.0532 72.4188Z" fill="#DB352F"/>
<path d="M105.409 75.1217C108.057 73.8396 109.876 71.081 109.876 67.8485C109.903 63.3904 106.265 59.7678 101.985 59.7678H94.094V64.4687V65.0619V72.6415V73.2724V82.0317H99.1763V75.9849L104.981 82.0317H112.044L105.409 75.1217ZM102.065 70.6913H99.1755V65.0623H102.011C103.456 65.0623 104.713 66.2323 104.767 67.7652C104.847 69.381 103.617 70.6913 102.065 70.6913Z" fill="#DB352F"/>
<path d="M8.5332 70.2246C8.5332 63.8431 13.1879 58.6042 19.3138 58.6042C22.31 58.6042 24.9044 59.7751 26.7771 61.8924L24.3427 64.4283C23.7812 65.0139 22.8715 65.2085 22.1224 64.6233C21.1861 64.2332 20.2501 63.8431 19.1265 63.8431C16.1568 63.8431 13.7497 66.3509 13.7497 69.472C13.7497 72.6764 15.97 75.6862 19.3138 75.6862C20.2501 75.6862 21.3733 75.2684 22.1224 74.8782C22.8718 74.2926 23.7812 74.4877 24.3427 75.0729L26.7771 77.6088C24.9044 79.7538 22.1224 80.8965 18.9658 80.8965C13.3483 80.8965 8.5332 76.0483 8.5332 70.2246Z" fill="#EC6258"/>
<path d="M50.85 69.7504C50.85 75.9089 46.0619 80.8965 40.1502 80.8965C34.2381 80.8965 29.45 75.9089 29.45 69.7504C29.45 63.5923 34.2381 58.6042 40.1502 58.6042C46.0619 58.6042 50.85 63.5923 50.85 69.7504ZM45.7408 69.7504C45.7408 66.546 43.226 63.9268 40.1502 63.9268C37.0471 63.9268 34.5592 66.546 34.5592 69.7504C34.5592 72.9828 37.0471 75.574 40.1502 75.574C43.2264 75.574 45.7408 72.9832 45.7408 69.7504Z" fill="#EC6258"/>
<path d="M54.192 58.6042H65.0795C66.0962 58.6042 66.9522 59.4682 66.9522 60.5549V63.8991H59.2747V67.1035H66.9522V72.398H59.2747V75.6024H66.9522V80.8969H54.192V58.6042Z" fill="#EC6258"/>
<path d="M70.9631 71.2833V58.6042H74.1732C75.1902 58.6042 76.0193 59.4682 76.0193 60.5549V71.339C76.0193 73.568 77.6778 75.463 79.818 75.5468C82.0652 75.6301 83.9106 73.7631 83.9106 71.4223V58.6042H87.121C88.1646 58.6042 88.9936 59.4682 88.9936 60.5549V71.4223C88.9936 76.6611 84.8742 80.8132 79.8184 80.8132C74.8684 80.8132 70.9631 76.4384 70.9631 71.2833Z" fill="#EC6258"/>
<path d="M104.319 73.9863C106.967 72.7041 108.786 69.9455 108.786 66.713C108.812 62.2549 105.174 58.6323 100.895 58.6323H93.0038V63.3332V63.9264V71.506V72.1369V80.8962H98.0861V74.8494L103.891 80.8962H110.954L104.319 73.9863ZM100.975 69.5558H98.0853V63.9268H100.921C102.365 63.9268 103.623 65.0968 103.676 66.6297C103.757 68.2456 102.527 69.5558 100.975 69.5558Z" fill="#EC6258"/>
<path d="M43.2043 5.41592L42.3907 5.02991L37.7601 15.6198L38.5737 16.0058L43.2043 5.41592Z" fill="#EC6258"/>
<path d="M42.7799 6.13688C43.2439 6.13688 43.6201 5.74504 43.6201 5.26168C43.6201 4.77832 43.2439 4.38647 42.7799 4.38647C42.3159 4.38647 41.9397 4.77832 41.9397 5.26168C41.9397 5.74504 42.3159 6.13688 42.7799 6.13688Z" fill="#EC6258"/>
<path d="M42.9263 12.8925L42.1161 12.4987L37.9297 21.8432L38.7399 22.237L42.9263 12.8925Z" fill="#EC6258"/>
<path d="M42.4996 13.6111C42.9636 13.6111 43.3398 13.2193 43.3398 12.7359C43.3398 12.2526 42.9636 11.8607 42.4996 11.8607C42.0356 11.8607 41.6594 12.2526 41.6594 12.7359C41.6594 13.2193 42.0356 13.6111 42.4996 13.6111Z" fill="#EC6258"/>
<path d="M50.6028 2.32743L49.7925 1.93396L38.0955 28.0735L38.9058 28.467L50.6028 2.32743Z" fill="#EC6258"/>
<path d="M50.1794 3.04667C50.6435 3.04667 51.0196 2.65483 51.0196 2.17147C51.0196 1.68811 50.6435 1.29626 50.1794 1.29626C49.7154 1.29626 49.3392 1.68811 49.3392 2.17147C49.3392 2.65483 49.7154 3.04667 50.1794 3.04667Z" fill="#EC6258"/>
<path d="M47.8857 14.9915L47.0753 14.598L38.2767 34.2606L39.087 34.6541L47.8857 14.9915Z" fill="#EC6258"/>
<path d="M47.4615 15.7109C47.9258 15.7109 48.3021 15.3189 48.3021 14.8353C48.3021 14.3517 47.9258 13.9597 47.4615 13.9597C46.9973 13.9597 46.621 14.3517 46.621 14.8353C46.621 15.3189 46.9973 15.7109 47.4615 15.7109Z" fill="#EC6258"/>
<path d="M38.92 48.2008L38.1102 47.807L46.5125 29.038L45.0456 25.7215L45.1332 25.5256L55.8489 1.58984L56.6587 1.98359L46.0311 25.7239L47.4977 29.0396L38.92 48.2008Z" fill="#EC6258"/>
<path d="M56.2361 2.70097C56.7001 2.70097 57.0763 2.30913 57.0763 1.82577C57.0763 1.3424 56.7001 0.950562 56.2361 0.950562C55.772 0.950562 55.3959 1.3424 55.3959 1.82577C55.3959 2.30913 55.772 2.70097 56.2361 2.70097Z" fill="#EC6258"/>
<path d="M41.3406 54.8299L41.1103 54.292L40.1482 52.0513L49.8037 30.4616L48.8189 27.9658L48.5328 27.2416L47.7045 27.5941L47.9906 28.3179V28.3219L48.8266 30.4388L39.2715 51.8042L39.1638 52.0441L39.2715 52.2957L40.3412 54.7839C40.5235 54.7839 40.7054 54.7919 40.8838 54.7991L41.3406 54.8299Z" fill="#EC6258"/>
<path d="M48.136 28.3327C48.6 28.3327 48.9762 27.9408 48.9762 27.4575C48.9762 26.9741 48.6 26.5823 48.136 26.5823C47.6719 26.5823 47.2958 26.9741 47.2958 27.4575C47.2958 27.9408 47.6719 28.3327 48.136 28.3327Z" fill="#EC6258"/>
<path d="M41.3406 54.8298C41.4448 54.8378 41.5486 54.8495 41.6528 54.8607L41.6786 54.9264L41.794 54.8759H41.7974C41.8086 54.8759 41.8197 54.8799 41.8309 54.8799L41.842 54.8567L42.3954 53.6222V53.6182L43.0864 52.078L43.6101 50.9052L44.1788 49.6359L44.7137 48.4438V48.4398L55.1455 25.1398L55.5058 24.3307L55.5097 24.3271L55.5877 24.1492L56.0295 23.1578L61.5875 10.7552L61.9028 10.047L61.0934 9.65247L60.7777 10.361L59.7118 12.7403V12.7443L59.2546 13.7581L59.1769 13.9324L57.4161 17.8682L54.696 23.9369L52.8868 27.9845L52.3558 29.1689L41.1103 54.2919L40.8838 54.7986L41.3406 54.8298Z" fill="#EC6258"/>
<path d="M61.4813 10.766C61.9453 10.766 62.3215 10.3742 62.3215 9.89083C62.3215 9.40747 61.9453 9.01562 61.4813 9.01562C61.0173 9.01562 60.6411 9.40747 60.6411 9.89083C60.6411 10.3742 61.0173 10.766 61.4813 10.766Z" fill="#EC6258"/>
<path d="M50.309 49.0779L49.4208 48.9718L50.3867 40.2262L57.2732 24.8842L60.7701 23.5096L67.6916 8.02905L68.5018 8.42239L61.4265 24.2462L57.9292 25.6221L51.258 40.4829L50.309 49.0779Z" fill="#EC6258"/>
<path d="M68.0788 9.14103C68.5429 9.14103 68.919 8.74919 68.919 8.26583C68.919 7.78247 68.5429 7.39062 68.0788 7.39062C67.6148 7.39062 67.2386 7.78247 67.2386 8.26583C67.2386 8.74919 67.6148 9.14103 68.0788 9.14103Z" fill="#EC6258"/>
<path d="M54.4696 46.4207L54.15 47.1329L51.9505 52.0477L51.4045 53.2705L49.2239 58.1428C48.9674 57.9217 48.704 57.7171 48.4325 57.512L48.5367 57.4731L53.3437 46.7384L53.6594 46.0298L54.4696 46.4207Z" fill="#EC6258"/>
<path d="M54.0481 47.1405C54.5121 47.1405 54.8883 46.7487 54.8883 46.2653C54.8883 45.782 54.5121 45.3901 54.0481 45.3901C53.5841 45.3901 53.2079 45.782 53.2079 46.2653C53.2079 46.7487 53.5841 47.1405 54.0481 47.1405Z" fill="#EC6258"/>
<path d="M66.2411 32.8841L65.9281 32.0117L69.3946 30.659L71.5653 25.8809L72.3735 26.2794L70.0483 31.3981L66.2411 32.8841Z" fill="#EC6258"/>
<path d="M71.9693 26.9547C72.4331 26.9547 72.8091 26.563 72.8091 26.0799C72.8091 25.5967 72.4331 25.2051 71.9693 25.2051C71.5055 25.2051 71.1295 25.5967 71.1295 26.0799C71.1295 26.563 71.5055 26.9547 71.9693 26.9547Z" fill="#EC6258"/>
<path d="M43.4291 10.0594L43.1187 9.18604L40.2338 10.2989L40.5443 11.1723L43.4291 10.0594Z" fill="#EC6258"/>
<path d="M43.2352 10.5113C43.6992 10.5113 44.0754 10.1194 44.0754 9.63607C44.0754 9.15271 43.6992 8.76086 43.2352 8.76086C42.7712 8.76086 42.395 9.15271 42.395 9.63607C42.395 10.1194 42.7712 10.5113 43.2352 10.5113Z" fill="#EC6258"/>
<path d="M50.364 15.9629L50.0214 15.1029L53.3106 13.6801L56.3242 7.10229L57.1305 7.50365L53.9701 14.4035L50.364 15.9629Z" fill="#EC6258"/>
<path d="M56.7091 8.21782C57.1731 8.21782 57.5493 7.82597 57.5493 7.34261C57.5493 6.85925 57.1731 6.46741 56.7091 6.46741C56.2451 6.46741 55.8689 6.85925 55.8689 7.34261C55.8689 7.82597 56.2451 8.21782 56.7091 8.21782Z" fill="#EC6258"/>
<path d="M50.9404 13.0156L49.7407 9.36657L51.5103 4.79468L52.3397 5.14276L50.6943 9.39341L51.7864 12.714L50.9404 13.0156Z" fill="#EC6258"/>
<path d="M51.9094 5.88493C52.3734 5.88493 52.7496 5.49309 52.7496 5.00973C52.7496 4.52636 52.3734 4.13452 51.9094 4.13452C51.4454 4.13452 51.0692 4.52636 51.0692 5.00973C51.0692 5.49309 51.4454 5.88493 51.9094 5.88493Z" fill="#EC6258"/>
<path d="M44.359 15.9639L44.0348 15.0961L40.4306 16.5569L40.7548 17.4248L44.359 15.9639Z" fill="#EC6258"/>
<path d="M43.9604 28.6612L43.6451 27.7897L40.8118 28.9018L41.127 29.7732L43.9604 28.6612Z" fill="#EC6258"/>
<path d="M43.764 29.1149C44.228 29.1149 44.6042 28.7231 44.6042 28.2397C44.6042 27.7563 44.228 27.3645 43.764 27.3645C43.3 27.3645 42.9238 27.7563 42.9238 28.2397C42.9238 28.7231 43.3 29.1149 43.764 29.1149Z" fill="#EC6258"/>
<path d="M42.236 33.8884L41.4207 33.5054L37.303 43.0166L38.1184 43.3996L42.236 33.8884Z" fill="#EC6258"/>
<path d="M41.8121 34.6109C42.2761 34.6109 42.6523 34.219 42.6523 33.7357C42.6523 33.2523 42.2761 32.8605 41.8121 32.8605C41.3481 32.8605 40.9719 33.2523 40.9719 33.7357C40.9719 34.219 41.3481 34.6109 41.8121 34.6109Z" fill="#EC6258"/>
<path d="M45.1282 33.9854L44.0696 31.1866L43.2378 31.5281L44.2964 34.3268L45.1282 33.9854Z" fill="#EC6258"/>
<path d="M43.6709 32.2729C44.1349 32.2729 44.5111 31.881 44.5111 31.3977C44.5111 30.9143 44.1349 30.5225 43.6709 30.5225C43.2069 30.5225 42.8307 30.9143 42.8307 31.3977C42.8307 31.881 43.2069 32.2729 43.6709 32.2729Z" fill="#EC6258"/>
<path d="M46.0291 10.676L44.6333 6.86756L46.2625 3.22815L47.0727 3.62189L45.6035 6.90361L46.8643 10.3439L46.0291 10.676Z" fill="#EC6258"/>
<path d="M46.6498 4.34008C47.114 4.34008 47.4904 3.94806 47.4904 3.46447C47.4904 2.98089 47.114 2.58887 46.6498 2.58887C46.1855 2.58887 45.8092 2.98089 45.8092 3.46447C45.8092 3.94806 46.1855 4.34008 46.6498 4.34008Z" fill="#EC6258"/>
<path d="M52.3765 29.2287L49.7352 21.8482L50.7015 19.5582L51.5198 19.9331L50.6996 21.877L53.2141 28.9035L52.3765 29.2287Z" fill="#EC6258"/>
<path d="M51.0937 20.6609C51.5578 20.6609 51.9339 20.2691 51.9339 19.7857C51.9339 19.3024 51.5578 18.9105 51.0937 18.9105C50.6297 18.9105 50.2535 19.3024 50.2535 19.7857C50.2535 20.2691 50.6297 20.6609 51.0937 20.6609Z" fill="#EC6258"/>
<path d="M55.1544 25.1655L53.7155 21.2969L54.5487 20.9613L55.2117 22.7421L56.8271 18.9613L55.9384 16.2412L56.7844 15.9412L57.7861 19.007L55.1544 25.1655Z" fill="#EC6258"/>
<path d="M54.1473 22.0456C54.6114 22.0456 54.9875 21.6537 54.9875 21.1704C54.9875 20.687 54.6114 20.2952 54.1473 20.2952C53.6833 20.2952 53.3071 20.687 53.3071 21.1704C53.3071 21.6537 53.6833 22.0456 54.1473 22.0456Z" fill="#EC6258"/>
<path d="M56.3749 17.0079C56.8389 17.0079 57.2151 16.616 57.2151 16.1327C57.2151 15.6493 56.8389 15.2574 56.3749 15.2574C55.9108 15.2574 55.5347 15.6493 55.5347 16.1327C55.5347 16.616 55.9108 17.0079 56.3749 17.0079Z" fill="#EC6258"/>
<path d="M59.2385 14.1155L57.8815 10.2333L60.9961 3.2301L61.8071 3.62144L58.8478 10.2758L60.0783 13.797L59.2385 14.1155Z" fill="#EC6258"/>
<path d="M61.3834 4.34086C61.8474 4.34086 62.2236 3.94902 62.2236 3.46566C62.2236 2.9823 61.8474 2.59045 61.3834 2.59045C60.9194 2.59045 60.5432 2.9823 60.5432 3.46566C60.5432 3.94902 60.9194 4.34086 61.3834 4.34086Z" fill="#EC6258"/>
<path d="M55.3271 24.3947L55.0387 23.5131L58.3668 22.3323L65.0722 7.35246L64.0213 5.01084L64.8311 4.6167L66.0589 7.35166L59.0159 23.0853L55.3271 24.3947Z" fill="#EC6258"/>
<path d="M64.4442 5.72868C64.9082 5.72868 65.2844 5.33684 65.2844 4.85348C65.2844 4.37011 64.9082 3.97827 64.4442 3.97827C63.9802 3.97827 63.604 4.37011 63.604 4.85348C63.604 5.33684 63.9802 5.72868 64.4442 5.72868Z" fill="#EC6258"/>
<path d="M65.9042 20.88L65.5886 21.5881L62.7354 27.9617L59.18 29.3084L56.3234 35.6895L55.7885 36.8852L52.9837 43.1506L52.4635 44.3154L46.9763 56.5711C46.7125 56.4245 46.4487 56.2851 46.1776 56.1577L49.4284 48.8897L49.4323 48.8857L50.6247 46.2192V46.2116L58.5267 28.5649L62.0817 27.2147L64.7791 21.1932L65.0944 20.4846L65.9042 20.88Z" fill="#EC6258"/>
<path d="M65.4828 21.597C65.9468 21.597 66.323 21.2051 66.323 20.7218C66.323 20.2384 65.9468 19.8466 65.4828 19.8466C65.0187 19.8466 64.6426 20.2384 64.6426 20.7218C64.6426 21.2051 65.0187 21.597 65.4828 21.597Z" fill="#EC6258"/>
<path d="M68.6617 19.5979L71.2227 13.4426L72.0437 13.8131L70.3402 17.9048L72.3071 17.0949L72.6354 17.96L68.6617 19.5979Z" fill="#EC6258"/>
<path d="M71.6168 14.5429C72.0808 14.5429 72.457 14.151 72.457 13.6677C72.457 13.1843 72.0808 12.7925 71.6168 12.7925C71.1528 12.7925 70.7766 13.1843 70.7766 13.6677C70.7766 14.151 71.1528 14.5429 71.6168 14.5429Z" fill="#EC6258"/>
<path d="M72.432 18.4186C72.896 18.4186 73.2722 18.0268 73.2722 17.5434C73.2722 17.0601 72.896 16.6682 72.432 16.6682C71.968 16.6682 71.5918 17.0601 71.5918 17.5434C71.5918 18.0268 71.968 18.4186 72.432 18.4186Z" fill="#EC6258"/>
<path d="M55.7281 36.9069L55.422 36.0329L58.6909 34.7911L59.4057 33.1949L60.2159 33.5883L59.3453 35.5338L55.7281 36.9069Z" fill="#EC6258"/>
<path d="M59.7929 34.3064C60.257 34.3064 60.6331 33.9146 60.6331 33.4312C60.6331 32.9479 60.257 32.556 59.7929 32.556C59.3289 32.556 58.9528 32.9479 58.9528 33.4312C58.9528 33.9146 59.3289 34.3064 59.7929 34.3064Z" fill="#EC6258"/>
<path d="M55.0355 43.4039L54.7473 42.5232L52.0173 43.4925L52.3054 44.3731L55.0355 43.4039Z" fill="#EC6258"/>
<path d="M54.8499 43.8549C55.3141 43.8549 55.6904 43.4628 55.6904 42.9792C55.6904 42.4957 55.3141 42.1036 54.8499 42.1036C54.3856 42.1036 54.0093 42.4957 54.0093 42.9792C54.0093 43.4628 54.3856 43.8549 54.8499 43.8549Z" fill="#EC6258"/>
<path d="M58.5163 43.7267L57.4694 40.7887L56.6316 41.1126L57.6785 44.0507L58.5163 43.7267Z" fill="#EC6258"/>
<path d="M57.0682 41.8681C57.5322 41.8681 57.9084 41.4762 57.9084 40.9929C57.9084 40.5095 57.5322 40.1177 57.0682 40.1177C56.6042 40.1177 56.228 40.5095 56.228 40.9929C56.228 41.4762 56.6042 41.8681 57.0682 41.8681Z" fill="#EC6258"/>
<path d="M51.3818 53.277L51.0592 52.4086L54.35 51.082L69.0139 18.7351L67.5704 14.9422L69.728 10.4316L70.5282 10.8474L68.549 14.9859L69.9879 18.7675L55.0064 51.8162L51.3818 53.277Z" fill="#EC6258"/>
<path d="M70.109 11.554C70.573 11.554 70.9492 11.1622 70.9492 10.6788C70.9492 10.1954 70.573 9.80359 70.109 9.80359C69.645 9.80359 69.2688 10.1954 69.2688 10.6788C69.2688 11.1622 69.645 11.554 70.109 11.554Z" fill="#EC6258"/>
<path d="M59.8356 41.0991L59.2988 40.3548L63.6894 36.9169L70.3078 22.02L72.685 21.0591L73.0088 21.9275L70.9677 22.7522L64.4057 37.5205L59.8356 41.0991Z" fill="#EC6258"/>
<path d="M72.8077 22.3841C73.2717 22.3841 73.6479 21.9922 73.6479 21.5089C73.6479 21.0255 73.2717 20.6337 72.8077 20.6337C72.3437 20.6337 71.9675 21.0255 71.9675 21.5089C71.9675 21.9922 72.3437 22.3841 72.8077 22.3841Z" fill="#EC6258"/>
<path d="M59.8986 45.7726L59.5891 44.8989L56.8072 45.9684L57.1167 46.842L59.8986 45.7726Z" fill="#EC6258"/>
<path d="M59.7049 46.2297C60.169 46.2297 60.5451 45.8378 60.5451 45.3545C60.5451 44.8711 60.169 44.4792 59.7049 44.4792C59.2409 44.4792 58.8647 44.8711 58.8647 45.3545C58.8647 45.8378 59.2409 46.2297 59.7049 46.2297Z" fill="#EC6258"/>
<path d="M69.3576 33.9471L69.0764 33.0635L64.8191 34.5338L65.1004 35.4174L69.3576 33.9471Z" fill="#EC6258"/>
<path d="M69.1782 34.3926C69.6422 34.3926 70.0184 34.0008 70.0184 33.5174C70.0184 33.0341 69.6422 32.6422 69.1782 32.6422C68.7142 32.6422 68.338 33.0341 68.338 33.5174C68.338 34.0008 68.7142 34.3926 69.1782 34.3926Z" fill="#EC6258"/>
<path d="M66.2566 18.1786L65.9385 17.3082L63.1989 18.3946L63.517 19.265L66.2566 18.1786Z" fill="#EC6258"/>
<path d="M66.0565 18.6325C66.5205 18.6325 66.8967 18.2406 66.8967 17.7573C66.8967 17.2739 66.5205 16.8821 66.0565 16.8821C65.5925 16.8821 65.2163 17.2739 65.2163 17.7573C65.2163 18.2406 65.5925 18.6325 66.0565 18.6325Z" fill="#EC6258"/>
<path d="M44.573 53.7075L43.8743 54.0019L41.8424 54.8571L41.7975 54.8759H41.794L41.6786 54.9264L41.6529 54.8607L41.3445 54.0636L42.3958 53.6226V53.6186L43.5401 53.1387L44.2384 52.8447L44.573 53.7075Z" fill="#EC6258"/>
<path d="M44.3673 54.169C44.8313 54.169 45.2075 53.7771 45.2075 53.2938C45.2075 52.8104 44.8313 52.4186 44.3673 52.4186C43.9033 52.4186 43.5271 52.8104 43.5271 53.2938C43.5271 53.7771 43.9033 54.169 44.3673 54.169Z" fill="#EC6258"/>
<path d="M45.6639 51.152L45.3726 50.272L42.6108 51.264L42.9021 52.144L45.6639 51.152Z" fill="#EC6258"/>
<path d="M45.482 51.6022C45.9461 51.6022 46.3222 51.2104 46.3222 50.727C46.3222 50.2436 45.9461 49.8518 45.482 49.8518C45.018 49.8518 44.6418 50.2436 44.6418 50.727C44.6418 51.2104 45.018 51.6022 45.482 51.6022Z" fill="#EC6258"/>
<path d="M46.8134 48.6381L46.5073 47.7635L43.7036 48.8283L44.0096 49.7028L46.8134 48.6381Z" fill="#EC6258"/>
<path d="M46.6175 49.0912C47.0816 49.0912 47.4577 48.6994 47.4577 48.216C47.4577 47.7327 47.0816 47.3408 46.6175 47.3408C46.1535 47.3408 45.7773 47.7327 45.7773 48.216C45.7773 48.6994 46.1535 49.0912 46.6175 49.0912Z" fill="#EC6258"/>
<path d="M58.7654 48.297L58.4575 47.4227L55.6649 48.4899L55.9728 49.3642L58.7654 48.297Z" fill="#EC6258"/>
<path d="M58.5736 48.7527C59.0376 48.7527 59.4138 48.3609 59.4138 47.8775C59.4138 47.3942 59.0376 47.0023 58.5736 47.0023C58.1096 47.0023 57.7334 47.3942 57.7334 47.8775C57.7334 48.3609 58.1096 48.7527 58.5736 48.7527Z" fill="#EC6258"/>
<path d="M58.3767 44.1701L57.825 43.4375L62.6896 39.4624L64.4138 40.2631L64.0504 41.1135L62.8173 40.5411L58.3767 44.1701Z" fill="#EC6258"/>
<path d="M64.1942 41.5461C64.6584 41.5461 65.0348 41.1541 65.0348 40.6705C65.0348 40.1869 64.6584 39.7949 64.1942 39.7949C63.73 39.7949 63.3536 40.1869 63.3536 40.6705C63.3536 41.1541 63.73 41.5461 64.1942 41.5461Z" fill="#EC6258"/>
<path d="M39.2716 8.72884V54.8071C35.8239 55.0233 32.7073 56.5054 30.3367 58.8122C11.721 43.2247 1.82399 26.2514 5.84384 14.2669C6.57559 12.0803 7.86837 9.75826 10.1125 7.47111C22.3908 -5.15266 34.8026 3.62061 38.3022 6.5891C38.9186 7.11502 39.2716 7.9005 39.2716 8.72884Z" fill="#EC6258"/>
</g>
<defs>
<filter id="filter0_d" x="0" y="0" width="117" height="117" filterUnits="userSpaceOnUse" color-interpolation-filters="sRGB">
<feFlood flood-opacity="0" result="BackgroundImageFix"/>
<feColorMatrix in="SourceAlpha" type="matrix" values="0 0 0 0 0 0 0 0 0 0 0 0 0 0 0 0 0 0 127 0"/>
<feOffset dy="4"/>
<feGaussianBlur stdDeviation="2"/>
<feColorMatrix type="matrix" values="0 0 0 0 0 0 0 0 0 0 0 0 0 0 0 0 0 0 0.25 0"/>
<feBlend mode="normal" in2="BackgroundImageFix" result="effect1_dropShadow"/>
<feBlend mode="normal" in="SourceGraphic" in2="effect1_dropShadow" result="shape"/>
</filter>
</defs>
</svg>
