<svg width="247" height="279" viewBox="0 0 247 279" fill="none" xmlns="http://www.w3.org/2000/svg">
<g filter="url(#filter0_d)">
<path d="M224.801 123.748C224.609 122.632 224.439 121.571 224.302 120.478C223.507 114.111 217.726 84.4533 178.577 66.4634C134.512 46.2247 104.739 67.0214 86.8744 83.421C69.0096 99.8206 56.5097 134.283 46.3882 164.365C36.2666 194.446 60.0882 217.419 89.2582 227.268C118.428 237.117 155.352 238.205 183.936 227.826C212.202 217.536 235.815 185.317 224.801 123.748Z" fill="#FDD8EE"/>
<path opacity="0.75" d="M224.801 123.748C224.609 122.632 224.439 121.571 224.302 120.478C223.507 114.111 217.726 84.4533 178.577 66.4634C134.512 46.2247 104.739 67.0214 86.8744 83.421C69.0096 99.8206 56.5097 134.283 46.3882 164.365C36.2666 194.446 60.0882 217.419 89.2582 227.268C118.428 237.117 155.352 238.205 183.936 227.826C212.202 217.536 235.815 185.317 224.801 123.748Z" fill="white"/>
<path d="M164.099 44.1769V157.981L195.422 213.792H225.453" stroke="#263238" stroke-linecap="round" stroke-linejoin="round"/>
<path d="M164.099 155.063H142.929L62.0446 224.578C60.9801 225.493 60.1235 226.632 59.534 227.916C58.9445 229.201 58.6362 230.601 58.6305 232.019C58.6247 233.437 58.9217 234.839 59.5008 236.129C60.0799 237.419 60.9272 238.565 61.9843 239.488V239.488C63.7281 241.007 65.9474 241.842 68.2424 241.843H224.757" stroke="#263238" stroke-linecap="round" stroke-linejoin="round"/>
<path d="M58.6359 233.473C58.6269 234.891 58.9224 236.294 59.5017 237.584C60.0811 238.873 60.9302 240.018 61.9897 240.939V240.939C63.7318 242.457 65.9496 243.29 68.2424 243.288H224.757" stroke="#263238" stroke-linecap="round" stroke-linejoin="round"/>
<path d="M45.5387 181.897L126.33 158.221" stroke="#263238" stroke-linecap="round" stroke-linejoin="round"/>
<path d="M99.8565 36.5491V161.759L41.6479 175.374" stroke="#263238" stroke-linecap="round" stroke-linejoin="round"/>
<path d="M112.198 158.885L125.744 155.961" stroke="#263238" stroke-miterlimit="10"/>
<path d="M100.251 83.103L112.203 82.8407V158.885L99.8566 159.147" stroke="#263238" stroke-linecap="round" stroke-linejoin="round"/>
<path d="M112.471 83.103L129.81 98.3532V123.748" stroke="#263238" stroke-linecap="round" stroke-linejoin="round"/>
<path d="M127.837 91.9306V83.5048H136.512V114.005" stroke="#263238" stroke-linecap="round" stroke-linejoin="round"/>
<path d="M136.512 83.5048L141.241 90.7253V105.975H146.76V111.996" stroke="#263238" stroke-linecap="round" stroke-linejoin="round"/>
<path d="M146.76 105.975L149.122 109.591" stroke="#263238" stroke-linecap="round" stroke-linejoin="round"/>
<path d="M164.159 56.3413H151.834V124.032H164.159V56.3413Z" stroke="#263238" stroke-linecap="round" stroke-linejoin="round"/>
<path d="M178.034 93.0968H169.08V129.038H178.034V93.0968Z" stroke="#263238" stroke-linecap="round" stroke-linejoin="round"/>
<path d="M173.541 91.5065L195.422 77.004" stroke="#263238" stroke-linecap="round" stroke-linejoin="round"/>
<path d="M195.044 66.8707L168.554 89.8771" stroke="#263238" stroke-linecap="round" stroke-linejoin="round"/>
<path d="M195.422 47.5026L178.385 69.0079" stroke="#263238" stroke-linecap="round" stroke-linejoin="round"/>
<path d="M178.182 120.115L195.422 116.164" stroke="#263238" stroke-linecap="round" stroke-linejoin="round"/>
<path d="M165.49 123.061L168.877 122.185" stroke="#263238" stroke-linecap="round" stroke-linejoin="round"/>
<path d="M195.422 213.798V41.0632" stroke="#263238" stroke-linecap="round" stroke-linejoin="round"/>
<path d="M195.422 116.164H228.516" stroke="#263238" stroke-linecap="round" stroke-linejoin="round"/>
<path d="M178.182 118.117L195.422 112.883" stroke="#263238" stroke-linecap="round" stroke-linejoin="round"/>
<path d="M195.422 112.883H228.516" stroke="#263238" stroke-linecap="round" stroke-linejoin="round"/>
<path d="M178.012 112.928L194.836 104.474H218.06" stroke="#263238" stroke-linecap="round" stroke-linejoin="round"/>
<path d="M165.518 119.211L169.102 117.409" stroke="#263238" stroke-linecap="round" stroke-linejoin="round"/>
<path d="M151.911 70.8381H163.753" stroke="#263238" stroke-linecap="round" stroke-linejoin="round"/>
<path d="M151.911 84.152H163.753" stroke="#263238" stroke-linecap="round" stroke-linejoin="round"/>
<path d="M151.911 97.4659H163.753" stroke="#263238" stroke-linecap="round" stroke-linejoin="round"/>
<path d="M151.911 110.774H163.753" stroke="#263238" stroke-linecap="round" stroke-linejoin="round"/>
<path d="M186.26 93.186H166.592C166.486 93.186 166.381 93.1648 166.284 93.1236C166.186 93.0824 166.097 93.022 166.022 92.9458C165.948 92.8696 165.888 92.7792 165.848 92.6797C165.807 92.5802 165.786 92.4735 165.786 92.3658C165.786 92.2581 165.807 92.1514 165.848 92.0519C165.888 91.9524 165.948 91.8619 166.022 91.7858C166.097 91.7096 166.186 91.6492 166.284 91.608C166.381 91.5667 166.486 91.5455 166.592 91.5455H186.287C186.393 91.5455 186.498 91.5667 186.595 91.608C186.693 91.6492 186.782 91.7096 186.857 91.7858C186.931 91.8619 186.991 91.9524 187.031 92.0519C187.072 92.1514 187.093 92.2581 187.093 92.3658C187.093 92.4735 187.072 92.5802 187.031 92.6797C186.991 92.7792 186.931 92.8696 186.857 92.9458C186.782 93.022 186.693 93.0824 186.595 93.1236C186.498 93.1648 186.393 93.186 186.287 93.186H186.26Z" stroke="#263238" stroke-miterlimit="10"/>
<path d="M169.074 45.3096V85.4186" stroke="#263238" stroke-linecap="round" stroke-linejoin="round"/>
<path d="M173.371 41.6603V82.5003" stroke="#263238" stroke-linecap="round" stroke-linejoin="round"/>
<path d="M178.385 38.0166V77.7574" stroke="#263238" stroke-linecap="round" stroke-linejoin="round"/>
<path d="M178.385 60.4538L190.918 40.204" stroke="#263238" stroke-linecap="round" stroke-linejoin="round"/>
<path d="M99.9059 94.0732H112.028L127.98 104.692" stroke="#263238" stroke-linecap="round" stroke-linejoin="round"/>
<path d="M99.9059 103.609H112.028L127.98 113.352" stroke="#263238" stroke-linecap="round" stroke-linejoin="round"/>
<path d="M99.9059 113.135H112.028L127.98 121.8" stroke="#263238" stroke-linecap="round" stroke-linejoin="round"/>
<path d="M99.9059 122.665H112.028L126.495 129.166" stroke="#263238" stroke-linecap="round" stroke-linejoin="round"/>
<path d="M99.9059 132.196H112.028L122.451 135.722" stroke="#263238" stroke-linecap="round" stroke-linejoin="round"/>
<path d="M99.9059 141.726H112.028L115.502 142.485" stroke="#263238" stroke-linecap="round" stroke-linejoin="round"/>
<path d="M109.266 97.3264H106.712V102.309H109.266V97.3264Z" stroke="#263238" stroke-linecap="round" stroke-linejoin="round"/>
<path d="M104.158 97.3264H101.605V102.309H104.158V97.3264Z" stroke="#263238" stroke-linecap="round" stroke-linejoin="round"/>
<path d="M109.266 106.422H106.712V111.405H109.266V106.422Z" stroke="#263238" stroke-linecap="round" stroke-linejoin="round"/>
<path d="M104.158 106.422H101.605V111.405H104.158V106.422Z" stroke="#263238" stroke-linecap="round" stroke-linejoin="round"/>
<path d="M109.266 115.305H106.712V120.288H109.266V115.305Z" stroke="#263238" stroke-linecap="round" stroke-linejoin="round"/>
<path d="M104.158 115.305H101.605V120.288H104.158V115.305Z" stroke="#263238" stroke-linecap="round" stroke-linejoin="round"/>
<path d="M109.266 124.83H106.712V129.813H109.266V124.83Z" stroke="#263238" stroke-linecap="round" stroke-linejoin="round"/>
<path d="M104.158 124.83H101.605V129.813H104.158V124.83Z" stroke="#263238" stroke-linecap="round" stroke-linejoin="round"/>
<path d="M109.266 134.361H106.712V139.344H109.266V134.361Z" stroke="#263238" stroke-linecap="round" stroke-linejoin="round"/>
<path d="M104.158 134.361H101.605V139.344H104.158V134.361Z" stroke="#263238" stroke-linecap="round" stroke-linejoin="round"/>
<path d="M109.266 144.109H106.712V149.092H109.266V144.109Z" stroke="#263238" stroke-linecap="round" stroke-linejoin="round"/>
<path d="M104.158 144.109H101.605V149.092H104.158V144.109Z" stroke="#263238" stroke-linecap="round" stroke-linejoin="round"/>
<path d="M109.266 86.9308H106.712V91.9137H109.266V86.9308Z" stroke="#263238" stroke-linecap="round" stroke-linejoin="round"/>
<path d="M116.286 94.9437L114.368 93.4259V88.443L116.286 89.9608" stroke="#263238" stroke-linecap="round" stroke-linejoin="round"/>
<path d="M114.368 97.7561L116.286 99.2739V104.257L114.368 102.739" stroke="#263238" stroke-linecap="round" stroke-linejoin="round"/>
<path d="M116.286 109.022V113.469L114.368 112.487V107.504" stroke="#263238" stroke-linecap="round" stroke-linejoin="round"/>
<path d="M116.286 122.074L114.368 121.092V116.109L116.286 117.292V122.074Z" stroke="#263238" stroke-linecap="round" stroke-linejoin="round"/>
<path d="M116.286 131.203L114.368 130.483V125.5L116.286 126.42" stroke="#263238" stroke-linecap="round" stroke-linejoin="round"/>
<path d="M104.158 86.9308H101.605V91.9137H104.158V86.9308Z" stroke="#263238" stroke-linecap="round" stroke-linejoin="round"/>
<path d="M180.889 188.241V122.609L189.482 121.516V202.465" stroke="#263238" stroke-linecap="round" stroke-linejoin="round"/>
<path d="M172.297 172.562V130.633" stroke="#263238" stroke-linecap="round" stroke-linejoin="round"/>
<path d="M174.083 175.48V132.821" stroke="#263238" stroke-linecap="round" stroke-linejoin="round"/>
<path d="M183.037 63.1768V75.2072" stroke="#263238" stroke-linecap="round" stroke-linejoin="round"/>
<path d="M187.142 58.4729V70.5034" stroke="#263238" stroke-linecap="round" stroke-linejoin="round"/>
<path d="M183.037 39.6682V52.6194" stroke="#263238" stroke-linecap="round" stroke-linejoin="round"/>
<path d="M187.142 34.9644V46.0016" stroke="#263238" stroke-linecap="round" stroke-linejoin="round"/>
<path d="M42.3604 179.492L128.632 156.787" stroke="#263238" stroke-linecap="round" stroke-linejoin="round"/>
<path d="M48.75 133.914L99.5989 136.827" stroke="#263238" stroke-linecap="round" stroke-linejoin="round"/>
<path d="M48.75 125.528L99.5989 132.452" stroke="#263238" stroke-linecap="round" stroke-linejoin="round"/>
<path d="M73.8155 167.556V138.122L65.2229 137.793V169.582" stroke="#263238" stroke-linecap="round" stroke-linejoin="round"/>
<path d="M82.052 165.614V138.434L76.3254 138.217V166.965" stroke="#263238" stroke-linecap="round" stroke-linejoin="round"/>
<path d="M62.7185 170.173V137.698L49.4679 137.195V173.292" stroke="#263238" stroke-linecap="round" stroke-linejoin="round"/>
<path d="M97.4508 161.987V139.015L84.5619 138.529V165.028" stroke="#263238" stroke-linecap="round" stroke-linejoin="round"/>
<path d="M117.962 95.6859V90.5021" stroke="#263238" stroke-linecap="round" stroke-linejoin="round"/>
<path d="M117.962 104.96V99.776" stroke="#263238" stroke-linecap="round" stroke-linejoin="round"/>
<path d="M117.962 122.967V117.783" stroke="#263238" stroke-linecap="round" stroke-linejoin="round"/>
<path d="M117.962 132.107V126.923" stroke="#263238" stroke-linecap="round" stroke-linejoin="round"/>
<path d="M119.837 124.06V118.876" stroke="#263238" stroke-linecap="round" stroke-linejoin="round"/>
<path d="M121.848 116.695V111.511" stroke="#263238" stroke-linecap="round" stroke-linejoin="round"/>
<path d="M123.453 117.922V112.738" stroke="#263238" stroke-linecap="round" stroke-linejoin="round"/>
<path d="M123.453 108.916V103.732" stroke="#263238" stroke-linecap="round" stroke-linejoin="round"/>
<path d="M195.926 121.153H214.191" stroke="#263238" stroke-linecap="round" stroke-linejoin="round"/>
<path d="M195.926 127.347H214.191" stroke="#263238" stroke-linecap="round" stroke-linejoin="round"/>
<path d="M195.926 133.546H214.191" stroke="#263238" stroke-linecap="round" stroke-linejoin="round"/>
<path d="M195.926 139.746H214.191" stroke="#263238" stroke-linecap="round" stroke-linejoin="round"/>
<path d="M195.926 145.945H214.191" stroke="#263238" stroke-linecap="round" stroke-linejoin="round"/>
<path d="M195.926 152.144H214.191" stroke="#263238" stroke-linecap="round" stroke-linejoin="round"/>
<path d="M195.926 158.344H214.191" stroke="#263238" stroke-linecap="round" stroke-linejoin="round"/>
<path d="M195.926 164.543H214.191" stroke="#263238" stroke-linecap="round" stroke-linejoin="round"/>
<path d="M195.926 170.742H214.191" stroke="#263238" stroke-linecap="round" stroke-linejoin="round"/>
<path d="M195.926 176.942H214.191" stroke="#263238" stroke-linecap="round" stroke-linejoin="round"/>
<path d="M195.926 183.136H214.191" stroke="#263238" stroke-linecap="round" stroke-linejoin="round"/>
<path d="M195.926 189.335H214.191" stroke="#263238" stroke-linecap="round" stroke-linejoin="round"/>
<path d="M214.191 116.047V196.996H217.775V211.945" stroke="#263238" stroke-linecap="round" stroke-linejoin="round"/>
<path d="M214.191 196.996H197.718" stroke="#263238" stroke-linecap="round" stroke-linejoin="round"/>
<path d="M164.773 152.507L170.505 157.25" stroke="#263238" stroke-linecap="round" stroke-linejoin="round"/>
<path d="M163.698 130.265H155.824" stroke="#263238" stroke-linecap="round" stroke-linejoin="round"/>
<path d="M156.306 130.399V136.766H159.243V130.494" stroke="#263238" stroke-linecap="round" stroke-linejoin="round"/>
<path d="M93.001 131.264V34.0101" stroke="#263238" stroke-miterlimit="10"/>
<path d="M96.8206 131.655V59.6837" stroke="#263238" stroke-miterlimit="10"/>
<path d="M86.5072 130.873V43.7361" stroke="#263238" stroke-miterlimit="10"/>
<path d="M79.2462 129.322V47.2404" stroke="#263238" stroke-miterlimit="10"/>
<path d="M72.7524 128.541V45.6835" stroke="#263238" stroke-miterlimit="10"/>
<path d="M64.3461 127.375V41.0131" stroke="#263238" stroke-miterlimit="10"/>
<path d="M55.5616 126.984V44.1267" stroke="#263238" stroke-miterlimit="10"/>
<path d="M50.5913 111.427L97.2042 123.379" stroke="#263238" stroke-miterlimit="10"/>
<path d="M51.7421 97.8119L96.5849 112.443" stroke="#263238" stroke-miterlimit="10"/>
<path d="M61.6719 84.9723L96.996 101.294" stroke="#263238" stroke-miterlimit="10"/>
<path d="M61.6719 47.6254L96.7877 72.4731" stroke="#263238" stroke-miterlimit="10"/>
<path d="M88.2115 76.022L71.0208 75.1125V67.8194L88.2115 66.9043V76.022Z" fill="#FDD8EE" stroke="#263238" stroke-linecap="round" stroke-linejoin="round"/>
<path d="M120.078 52.2456H88.5677V61.3633H120.078V52.2456Z" fill="#FDD8EE" stroke="#263238" stroke-linecap="round" stroke-linejoin="round"/>
<path d="M98.3112 58.5231C98.2257 58.5874 98.1215 58.6208 98.0152 58.618C97.9074 58.62 97.8018 58.5867 97.7138 58.5231C97.6206 58.4561 97.5544 58.357 97.5275 58.2441L96.8535 55.9396L96.1794 58.2441C96.1526 58.357 96.0864 58.4561 95.9931 58.5231C95.9052 58.5867 95.7996 58.62 95.6917 58.618C95.5855 58.6208 95.4813 58.5874 95.3958 58.5231C95.3074 58.4609 95.2449 58.3674 95.2204 58.2608L94.53 55.5992C94.5283 55.5694 94.5283 55.5396 94.53 55.5099C94.5282 55.4675 94.5363 55.4252 94.5534 55.3864C94.5705 55.3477 94.5963 55.3135 94.6286 55.2867C94.6908 55.2308 94.7704 55.1992 94.8533 55.1974C94.9212 55.1964 94.9873 55.2201 95.0396 55.2644C95.0975 55.312 95.1365 55.3794 95.1492 55.4541L95.7411 57.926L96.448 55.5936C96.4697 55.4807 96.5252 55.3774 96.6069 55.2979C96.6854 55.2363 96.7818 55.203 96.8809 55.203C96.98 55.203 97.0763 55.2363 97.1549 55.2979C97.2365 55.3774 97.292 55.4807 97.3138 55.5936L97.9988 57.926L98.5961 55.4541C98.6089 55.3794 98.6478 55.312 98.7057 55.2644C98.758 55.2201 98.8241 55.1964 98.8921 55.1974C98.975 55.1992 99.0546 55.2308 99.1167 55.2867C99.1487 55.3138 99.1743 55.348 99.1914 55.3867C99.2085 55.4254 99.2167 55.4675 99.2154 55.5099C99.2171 55.5396 99.2171 55.5694 99.2154 55.5992L98.5249 58.2608C98.5081 58.3168 98.4806 58.3688 98.4439 58.4139C98.4072 58.4589 98.3621 58.496 98.3112 58.5231Z" fill="white"/>
<path d="M99.6044 56.81C99.694 56.6303 99.833 56.481 100.004 56.3804C100.189 56.2659 100.402 56.2078 100.618 56.213C100.781 56.2115 100.943 56.2418 101.095 56.3022C101.225 56.3569 101.34 56.4431 101.429 56.5533C101.512 56.6628 101.577 56.7853 101.621 56.916C101.666 57.0566 101.688 57.2035 101.687 57.3513C101.691 57.4053 101.675 57.4588 101.643 57.502C101.629 57.5209 101.611 57.5359 101.59 57.5457C101.569 57.5554 101.546 57.5596 101.522 57.5577H100.054C100.047 57.6482 100.06 57.7391 100.091 57.824C100.122 57.9088 100.172 57.9857 100.236 58.049C100.299 58.1123 100.376 58.1607 100.46 58.1905C100.544 58.2204 100.634 58.231 100.722 58.2218C100.948 58.2104 101.164 58.1285 101.342 57.9874C101.366 57.9661 101.397 57.9543 101.429 57.9539C101.453 57.9541 101.477 57.9597 101.499 57.9703C101.521 57.9809 101.54 57.9963 101.555 58.0153C101.593 58.056 101.615 58.1098 101.616 58.166C101.615 58.197 101.608 58.2276 101.595 58.2556C101.582 58.2835 101.562 58.3082 101.539 58.3278C101.3 58.5324 100.996 58.6433 100.684 58.6403C100.523 58.6488 100.362 58.6245 100.211 58.5689C100.059 58.5134 99.9202 58.4276 99.8017 58.3166C99.6883 58.1963 99.6006 58.0533 99.544 57.8968C99.4874 57.7403 99.4632 57.5736 99.4729 57.4071C99.4703 57.2003 99.5153 56.9958 99.6044 56.81ZM101.188 57.223C101.184 57.0614 101.131 56.9053 101.035 56.7765C100.987 56.7171 100.925 56.6704 100.855 56.6403C100.786 56.6102 100.71 56.5976 100.635 56.6036C100.558 56.5998 100.481 56.6146 100.41 56.6465C100.34 56.6785 100.278 56.7269 100.229 56.7877C100.127 56.9097 100.067 57.0627 100.059 57.223H101.188Z" fill="white"/>
<path d="M102.065 58.2161C102.064 58.1651 102.082 58.1156 102.114 58.0766C102.132 58.0581 102.153 58.0435 102.177 58.0339C102.2 58.0243 102.226 58.0198 102.251 58.0208C102.293 58.0222 102.335 58.0337 102.372 58.0543L102.531 58.1436C102.596 58.1733 102.664 58.1975 102.733 58.2161C102.821 58.2401 102.911 58.2532 103.002 58.2552C103.083 58.2555 103.164 58.2461 103.243 58.2273C103.312 58.2121 103.374 58.1772 103.424 58.1269C103.449 58.1034 103.468 58.0748 103.482 58.0431C103.495 58.0114 103.501 57.9772 103.501 57.9427C103.501 57.8088 103.391 57.7139 103.177 57.6637L102.816 57.5689L102.553 57.4852C102.48 57.4626 102.411 57.4327 102.344 57.3959C102.285 57.3675 102.232 57.3271 102.189 57.2772C102.146 57.2273 102.113 57.169 102.092 57.1057C102.069 57.0299 102.058 56.9508 102.059 56.8714C102.055 56.7733 102.076 56.6758 102.12 56.5886C102.164 56.5014 102.23 56.4276 102.312 56.3747C102.514 56.2497 102.749 56.1894 102.986 56.2018C103.247 56.1999 103.506 56.2591 103.742 56.3747C103.771 56.3869 103.796 56.4057 103.817 56.4297C103.838 56.4537 103.852 56.4822 103.86 56.513C103.868 56.5438 103.869 56.5761 103.863 56.6073C103.857 56.6384 103.843 56.6677 103.824 56.6928C103.808 56.7111 103.789 56.7256 103.767 56.7353C103.745 56.745 103.722 56.7495 103.698 56.7486C103.667 56.7558 103.635 56.7558 103.605 56.7486H103.555H103.484H103.413H103.32H103.232H103.123H103.024C102.921 56.7446 102.818 56.7636 102.723 56.8044C102.685 56.8192 102.653 56.8453 102.63 56.8792C102.608 56.9131 102.596 56.9532 102.596 56.9941C102.594 57.0245 102.598 57.0551 102.61 57.0832C102.621 57.1114 102.639 57.1363 102.662 57.1559C102.744 57.2036 102.833 57.2375 102.925 57.2564L103.281 57.3457C103.482 57.3854 103.67 57.4735 103.829 57.6023C103.887 57.6612 103.933 57.7319 103.962 57.8098C103.991 57.8877 104.004 57.9711 103.999 58.0543C104.005 58.1618 103.985 58.2691 103.94 58.3666C103.895 58.464 103.827 58.5485 103.742 58.6123C103.541 58.7474 103.303 58.8139 103.062 58.802C102.738 58.8142 102.418 58.7182 102.153 58.5286C102.119 58.5235 102.088 58.5088 102.063 58.4862C102.038 58.4636 102.019 58.434 102.01 58.4011C102.001 58.3682 102.001 58.3332 102.011 58.3004C102.021 58.2676 102.039 58.2384 102.065 58.2161Z" fill="white"/>
<path d="M104.821 58.4394C104.694 58.2836 104.629 58.0841 104.641 57.8814V56.6594H104.416C104.388 56.6614 104.36 56.6575 104.333 56.6479C104.307 56.6383 104.283 56.6232 104.262 56.6036C104.244 56.5849 104.229 56.5623 104.219 56.5372C104.21 56.5122 104.206 56.4853 104.208 56.4585C104.206 56.433 104.209 56.4075 104.218 56.3835C104.226 56.3595 104.24 56.3375 104.257 56.319C104.277 56.2994 104.302 56.2843 104.328 56.2747C104.354 56.2651 104.382 56.2612 104.41 56.2632H104.668L104.739 55.7052C104.745 55.6285 104.776 55.5559 104.827 55.4987C104.853 55.4705 104.884 55.4484 104.919 55.4339C104.954 55.4194 104.992 55.413 105.03 55.415C105.059 55.4137 105.089 55.419 105.116 55.4305C105.144 55.4421 105.169 55.4597 105.189 55.482C105.227 55.5437 105.246 55.6156 105.243 55.6885V56.2911H105.616C105.643 56.2884 105.671 56.292 105.696 56.3017C105.722 56.3114 105.745 56.3268 105.764 56.3469C105.8 56.3887 105.819 56.4423 105.819 56.4976C105.819 56.5495 105.799 56.5995 105.764 56.6371C105.744 56.655 105.72 56.6686 105.695 56.6772C105.67 56.6859 105.643 56.6893 105.616 56.6873H105.216V57.7642C105.209 57.8786 105.227 57.9932 105.271 58.099C105.289 58.1359 105.317 58.1664 105.352 58.1864C105.388 58.2063 105.428 58.2148 105.468 58.2106H105.676C105.704 58.2082 105.732 58.2125 105.758 58.2232C105.783 58.2338 105.806 58.2506 105.824 58.272C105.861 58.3155 105.88 58.3711 105.879 58.4282C105.885 58.4614 105.885 58.4955 105.879 58.5287C105.867 58.5572 105.846 58.5808 105.819 58.5956L105.737 58.6403C105.7 58.6445 105.663 58.6445 105.627 58.6403H105.32C105.228 58.6458 105.135 58.6307 105.049 58.596C104.963 58.5613 104.885 58.5079 104.821 58.4394Z" fill="white"/>
<path d="M109.753 57.8312H108.274L108.066 58.3892C108.045 58.4585 108.002 58.5191 107.945 58.5622C107.893 58.6013 107.829 58.6228 107.764 58.6236C107.681 58.6244 107.6 58.5924 107.54 58.5343C107.51 58.5078 107.486 58.4752 107.47 58.4386C107.454 58.402 107.446 58.3623 107.446 58.3222C107.439 58.2817 107.439 58.2401 107.446 58.1995L108.504 55.6104C108.542 55.4742 108.618 55.3521 108.723 55.2588C108.815 55.2005 108.922 55.1696 109.03 55.1696C109.139 55.1696 109.245 55.2005 109.337 55.2588C109.442 55.353 109.52 55.4745 109.562 55.6104L110.575 58.2051C110.592 58.244 110.601 58.2856 110.603 58.3278C110.603 58.3685 110.595 58.4087 110.578 58.4454C110.56 58.4822 110.535 58.5145 110.504 58.5399C110.447 58.588 110.375 58.6143 110.301 58.6143C110.227 58.6143 110.156 58.588 110.099 58.5399C110.041 58.4968 109.999 58.4362 109.978 58.3669L109.753 57.8312ZM109.014 55.8001L108.466 57.3569H109.6L109.014 55.8001Z" fill="white"/>
<path d="M111.671 58.523C111.578 58.4167 111.509 58.291 111.469 58.1548L110.849 56.6258C110.844 56.587 110.844 56.5475 110.849 56.5087C110.849 56.4721 110.856 56.4358 110.87 56.4022C110.884 56.3685 110.905 56.3383 110.932 56.3134C110.984 56.2647 111.052 56.237 111.123 56.2352C111.177 56.2348 111.229 56.2525 111.271 56.2855C111.32 56.3236 111.357 56.3762 111.375 56.4361L111.984 58.0153L112.592 56.4361C112.613 56.3772 112.649 56.3252 112.696 56.2855C112.739 56.2525 112.791 56.2348 112.844 56.2352C112.915 56.2359 112.984 56.2638 113.036 56.3134C113.062 56.3383 113.083 56.3685 113.097 56.4022C113.111 56.4358 113.118 56.4721 113.118 56.5087C113.126 56.5473 113.126 56.5872 113.118 56.6258L112.499 58.1548C112.458 58.291 112.389 58.4167 112.296 58.523C112.214 58.592 112.112 58.6298 112.006 58.6298C111.9 58.6298 111.797 58.592 111.715 58.523H111.671Z" fill="white"/>
<path d="M113.518 56.8101C113.606 56.6307 113.743 56.4814 113.913 56.3804C114.1 56.2666 114.314 56.2086 114.532 56.213C114.695 56.2126 114.857 56.2428 115.009 56.3023C115.138 56.3584 115.252 56.4444 115.343 56.5534C115.427 56.6616 115.49 56.7845 115.529 56.9161C115.573 57.0569 115.597 57.2035 115.601 57.3513C115.602 57.405 115.586 57.4577 115.557 57.502C115.542 57.5214 115.523 57.5366 115.501 57.5464C115.479 57.5561 115.455 57.5601 115.431 57.5578H113.984C113.976 57.6485 113.988 57.7398 114.019 57.8251C114.05 57.9105 114.1 57.9878 114.163 58.0513C114.227 58.1149 114.305 58.1632 114.389 58.1926C114.474 58.2221 114.564 58.2321 114.653 58.2218C114.876 58.2093 115.09 58.1275 115.266 57.9874C115.293 57.9657 115.326 57.9539 115.359 57.954C115.384 57.9545 115.407 57.9603 115.429 57.9709C115.451 57.9814 115.47 57.9966 115.485 58.0153C115.522 58.0566 115.542 58.1105 115.54 58.166C115.541 58.1967 115.535 58.2271 115.523 58.2551C115.51 58.2831 115.492 58.3079 115.469 58.3278C115.23 58.5325 114.927 58.6433 114.614 58.6403C114.453 58.6488 114.292 58.6245 114.141 58.569C113.99 58.5134 113.85 58.4276 113.732 58.3167C113.619 58.1963 113.531 58.0534 113.474 57.8969C113.418 57.7403 113.393 57.5736 113.403 57.4071C113.395 57.2017 113.435 56.9973 113.518 56.8101ZM115.102 57.223C115.098 57.0615 115.044 56.9053 114.948 56.7766C114.9 56.7172 114.839 56.6704 114.769 56.6403C114.7 56.6102 114.624 56.5976 114.548 56.6036C114.471 56.5999 114.393 56.6146 114.322 56.6465C114.25 56.6785 114.187 56.7268 114.137 56.7877C114.037 56.9102 113.979 57.0634 113.973 57.223H115.102Z" fill="white"/>
<path d="M116.231 58.5231C116.199 58.4933 116.175 58.4568 116.159 58.4164C116.143 58.3759 116.135 58.3324 116.138 58.2888C116.137 58.2453 116.144 58.2021 116.16 58.1617C116.176 58.1214 116.2 58.0849 116.231 58.0544C116.262 58.0235 116.299 57.9992 116.339 57.9829C116.38 57.9666 116.423 57.9587 116.466 57.9595C116.556 57.9587 116.642 57.9927 116.707 58.0544C116.739 58.0843 116.763 58.1207 116.779 58.1611C116.795 58.2016 116.803 58.2452 116.801 58.2888C116.802 58.3323 116.795 58.3757 116.779 58.4162C116.763 58.4566 116.738 58.493 116.707 58.5231C116.677 58.5565 116.639 58.5828 116.598 58.6002C116.556 58.6175 116.511 58.6255 116.466 58.6236C116.422 58.6247 116.379 58.6163 116.338 58.599C116.297 58.5817 116.261 58.5558 116.231 58.5231Z" fill="white"/>
<path d="M117.815 53.9531H92.3928V59.6503H117.815V53.9531Z" stroke="white" stroke-linecap="round" stroke-linejoin="round"/>
<path d="M88.206 91.261H56.696V100.379H88.206V91.261Z" fill="#FDD8EE" stroke="#263238" stroke-linecap="round" stroke-linejoin="round"/>
<path d="M81.1095 93.5264H65.1298V92.0812L58.8497 95.6803L65.1298 99.2849V97.8397H81.1095V93.5264Z" fill="white"/>
<path d="M84.9345 69.1697L75.3554 69.4933V68.2601L72.2483 71.3236L75.3554 74.387V73.1538L84.9345 73.483V69.1697Z" fill="white"/>
<path d="M91.79 217.871H85.6743L86.5895 34.0715H90.8748L91.79 217.871Z" fill="#263238" stroke="#263238" stroke-linecap="round" stroke-linejoin="round"/>
<path d="M94.0751 215.645H83.0493V231.665H94.0751V215.645Z" fill="#263238" stroke="#263238" stroke-linecap="round" stroke-linejoin="round"/>
<path d="M82.2 39.5511H93.9984V46.0016C93.9984 47.5945 93.3773 49.1223 92.2717 50.2491C91.166 51.376 89.6663 52.0098 88.1019 52.0113C86.5366 52.0113 85.0354 51.3781 83.9286 50.2511C82.8218 49.1241 82.2 47.5955 82.2 46.0016V39.5511Z" fill="white" stroke="#263238" stroke-linecap="round" stroke-linejoin="round"/>
<path d="M86.847 32.2915H89.324C90.9227 32.2915 92.4559 32.9382 93.5864 34.0893C94.7169 35.2404 95.352 36.8016 95.352 38.4295V44.7516H80.83V38.4183C80.8329 36.7943 81.4677 35.2376 82.5955 34.0893C83.7233 32.9409 85.2521 32.2945 86.847 32.2915Z" fill="#263238" stroke="#263238" stroke-linecap="round" stroke-linejoin="round"/>
<path opacity="0.11" d="M141.499 239.109C150.993 239.109 158.69 236.538 158.69 233.367C158.69 230.196 150.993 227.625 141.499 227.625C132.005 227.625 124.308 230.196 124.308 233.367C124.308 236.538 132.005 239.109 141.499 239.109Z" fill="black"/>
<path d="M146.316 134.896C146.316 134.896 154.448 134.818 158.076 136.258C161.704 137.698 163.37 146.481 163.414 149.896C163.457 153.31 161.254 154.7 161.254 154.7L161.578 156.871C162.832 157.221 163.927 158.007 164.671 159.094C165.415 160.181 165.761 161.499 165.649 162.819C165.485 167.774 165.392 173.119 161.726 174.894C158.06 176.668 141.861 174.498 139.367 170.608C136.874 166.719 141.636 160.263 140.546 154.047C139.455 147.831 138.354 141.71 138.688 137.257C139.022 132.804 146.316 134.896 146.316 134.896Z" fill="#263238" stroke="#263238" stroke-linecap="round" stroke-linejoin="round"/>
<path d="M165.666 162.819C165.778 161.499 165.431 160.181 164.687 159.094C163.943 158.008 162.849 157.221 161.594 156.871L161.271 154.7C161.271 154.7 163.463 153.305 163.43 149.896C163.392 146.771 161.989 139.132 158.964 136.766L158.915 136.805C158.915 136.805 156.059 135.226 154.487 138.518C152.914 141.81 152.41 147.518 152.64 151.045C152.87 154.572 151.434 162.545 150.864 167.858C150.508 171.144 151.637 173.722 153.698 175.34C157.221 175.67 160.367 175.564 161.742 174.894C165.408 173.119 165.496 167.774 165.666 162.819Z" fill="#FDD8EE" stroke="#263238" stroke-linecap="round" stroke-linejoin="round"/>
<path d="M162.049 143.311C159.599 144.083 157.089 144.643 154.547 144.985L154.437 146.536C157.108 146.411 159.746 145.888 162.268 144.985L162.049 143.311Z" fill="#263238" stroke="#263238" stroke-linecap="round" stroke-linejoin="round"/>
<path d="M165.288 160.191C163.665 160.93 162.004 161.58 160.312 162.138C158.12 162.802 157.024 162.802 157.155 163.913C157.287 165.023 157.375 170.006 159.112 171.334C160.849 172.662 164.164 171.987 165.288 170.19C166.345 168.516 167.255 164.342 165.288 160.191Z" fill="#263238" stroke="#263238" stroke-linecap="round" stroke-linejoin="round"/>
<path d="M161.271 154.7C161.271 154.7 157.66 155.699 149.544 156.854L149.637 159.588C149.637 159.588 158.043 158.36 161.594 156.871L161.271 154.7Z" fill="#263238" stroke="#263238" stroke-linecap="round" stroke-linejoin="round"/>
<path d="M129.745 194.441C129.745 194.441 128.649 199.128 129.197 202.286C129.745 205.444 134.989 218.976 135.504 221.158C136.019 223.34 136.436 225.51 136.436 225.51L139.614 225.164C139.579 221.888 139.297 218.62 138.77 215.388C137.866 209.283 137.97 206.46 137.192 203.977C136.895 202.871 136.491 201.798 135.986 200.774L137.63 196.606L129.745 194.441Z" fill="white" stroke="#263238" stroke-linecap="round" stroke-linejoin="round"/>
<path d="M142.392 198.09C142.392 198.09 141.757 201.644 141.916 203.413C142.075 205.182 145.143 219.819 145.708 222.681C146.272 225.544 146.716 228.601 146.716 228.601L149.456 228.903C149.456 228.903 150.914 220.533 150.601 215.544C150.289 210.556 148.272 203.982 148.272 203.982L151.128 197.471L142.392 198.09Z" fill="white" stroke="#263238" stroke-linecap="round" stroke-linejoin="round"/>
<path d="M132.413 176.707C132.413 176.707 130.386 182.845 129.416 187.6C128.842 190.425 128.475 193.29 128.32 196.17C129.84 196.716 131.402 197.134 132.989 197.42C135.246 197.783 138.206 198.129 138.206 198.129L138.288 198.715C138.288 198.715 139.482 199.775 144.568 199.636C147.666 199.548 150.756 199.28 153.824 198.832C153.824 198.832 154.273 185.44 153.862 183.208C153.611 181.87 153.428 180.52 153.314 179.163C153.314 179.163 146.842 179.202 140.71 178.75C134.578 178.298 132.413 176.707 132.413 176.707Z" fill="#263238" stroke="#263238" stroke-linecap="round" stroke-linejoin="round"/>
<path d="M128.484 194.513C128.484 194.513 135.186 196.349 138.282 196.131" stroke="white" stroke-linecap="round" stroke-linejoin="round"/>
<path d="M138.425 196.572C138.425 196.572 146.568 198.185 153.846 196.276" stroke="white" stroke-linecap="round" stroke-linejoin="round"/>
<path d="M138.178 198.129L139.822 184.771C140.409 184.296 141.03 183.867 141.68 183.487" stroke="white" stroke-linecap="round" stroke-linejoin="round"/>
<path d="M139.784 185.334L137.027 182.293" stroke="white" stroke-linecap="round" stroke-linejoin="round"/>
<path d="M139.992 140.616C139.992 140.616 135.378 140.058 133.766 140.287C132.155 140.516 128.982 141.23 127.645 141.196C126.308 141.163 121.584 141.269 119.683 141.129C117.781 140.99 114.97 141.04 115.502 142.508C116.033 143.975 119.754 147.234 123.628 148.367L129.876 150.191C129.876 150.191 132.336 156.804 133.503 159.158C134.671 161.513 134.599 164.242 134.632 165.67C134.665 167.099 131.892 177.349 131.892 177.349C131.892 177.349 134.556 179.363 140.808 180.139C144.807 180.587 148.846 180.493 152.82 179.86C153.124 179.855 153.426 179.812 153.719 179.732C153.719 179.732 153.9 170.982 153.895 163.907C153.889 156.831 155.763 152.033 153.281 147.496C150.798 142.96 144.6 141.358 142.869 140.884C141.935 140.611 140.959 140.52 139.992 140.616Z" fill="white" stroke="#263238" stroke-linecap="round" stroke-linejoin="round"/>
<path d="M142.842 140.873C141.917 140.599 140.951 140.505 139.992 140.594C139.992 140.594 135.378 140.036 133.767 140.264C132.156 140.493 128.983 141.207 127.646 141.174C127.07 141.174 125.859 141.174 124.517 141.174C122.982 142.999 122.042 145.265 121.826 147.658C122.411 147.927 123.013 148.155 123.629 148.339L129.876 150.163C129.876 150.163 132.337 156.776 133.504 159.13C134.671 161.485 134.6 164.214 134.633 165.642C134.666 167.071 131.893 177.321 131.893 177.321C131.893 177.321 134.556 179.336 140.809 180.111C144.807 180.559 148.846 180.465 152.821 179.832C153.124 179.827 153.426 179.784 153.72 179.704C153.72 179.704 153.9 170.954 153.895 163.879C153.889 156.804 155.764 152.005 153.281 147.468C150.799 142.932 144.595 141.325 142.842 140.873Z" fill="white" stroke="#263238" stroke-linecap="round" stroke-linejoin="round"/>
<path d="M137.811 140.544C137.368 142.505 137.235 144.526 137.416 146.531C137.8 149.254 139.455 150.03 141.488 149.639C143.521 149.248 145.686 145.627 146.195 143.685C146.705 141.743 146.574 141.096 144.288 140.577C142.003 140.058 138.967 138.563 137.811 140.544Z" stroke="#263238" stroke-linecap="round" stroke-linejoin="round"/>
<path d="M127.147 143.612L130.698 149.762L128.331 147.351" stroke="#263238" stroke-width="0.5" stroke-linecap="round" stroke-linejoin="round"/>
<path d="M130.698 149.762L129.399 144.215" stroke="#263238" stroke-width="0.5" stroke-linecap="round" stroke-linejoin="round"/>
<path d="M140.469 158.963C140.469 158.963 144.924 162.724 149.757 162.205" stroke="#263238" stroke-width="0.5" stroke-linecap="round" stroke-linejoin="round"/>
<path d="M138.436 160.391C141.196 161.664 144.176 162.368 147.204 162.462" stroke="#263238" stroke-width="0.5" stroke-linecap="round" stroke-linejoin="round"/>
<path d="M134.222 168.248C134.222 168.248 136.578 170.748 143.143 170.33C149.708 169.911 153.895 168.153 153.895 168.153L153.868 170.285C153.868 170.285 145.275 173.332 138.337 171.914C134.216 171.072 133.63 170.274 133.63 170.274L134.222 168.248Z" fill="#263238" stroke="#263238" stroke-linecap="round" stroke-linejoin="round"/>
<path d="M122.034 142.541C122.034 142.541 123.738 141.766 126.078 139.227C128.418 136.688 130.725 135.432 131.816 135.254C133.005 135.03 134.175 134.707 135.312 134.288C135.641 134.115 137.121 133.842 137.636 132.843C138.151 131.844 137.17 132.285 136.594 132.313C136.019 132.341 136.518 131.666 137.142 130.935C137.767 130.204 139.225 128.44 139.044 127.458C138.863 126.476 137.488 127.018 135.323 128.016C133.159 129.015 131.745 131.046 131.246 131.783C131.024 132.152 130.742 132.48 130.413 132.754C130.413 132.754 125.311 134.986 121.229 137.05C117.146 139.115 115.316 140.744 115.343 142.167C115.37 143.59 116.861 143.964 116.861 143.964" fill="white"/>
<path d="M122.034 142.541C122.034 142.541 123.738 141.766 126.078 139.227C128.418 136.688 130.725 135.432 131.816 135.254C133.005 135.03 134.175 134.707 135.312 134.288C135.641 134.115 137.121 133.842 137.636 132.843C138.151 131.844 137.17 132.285 136.594 132.313C136.019 132.341 136.518 131.666 137.142 130.935C137.767 130.204 139.225 128.44 139.044 127.458C138.863 126.476 137.488 127.018 135.323 128.016C133.159 129.015 131.745 131.046 131.246 131.783C131.024 132.152 130.742 132.48 130.413 132.754C130.413 132.754 125.311 134.986 121.229 137.05C117.146 139.115 115.316 140.744 115.343 142.167C115.37 143.59 116.861 143.964 116.861 143.964" stroke="#263238" stroke-linecap="round" stroke-linejoin="round"/>
<path d="M137.926 139.595C137.926 139.595 138.063 142.279 138.397 144.784C138.732 147.29 139.866 149.187 142.031 147.725C144.195 146.263 144.968 142.703 144.968 142.703C142.393 142.316 139.964 141.244 137.926 139.595Z" stroke="#263238" stroke-linecap="round" stroke-linejoin="round"/>
<path d="M134.26 133.836C134.26 133.836 133.515 134.45 134.008 136.068C134.092 136.315 134.224 136.542 134.396 136.736C134.568 136.929 134.777 137.086 135.009 137.196C135.242 137.307 135.493 137.368 135.75 137.378C136.006 137.387 136.262 137.344 136.501 137.251C136.605 137.067 137.093 139.444 137.811 140.549C138.529 141.654 141.998 143.624 143.477 143.897C144.957 144.17 146.217 143.289 146.448 142.396C146.8 140.041 146.984 137.663 146.996 135.282C146.996 132.893 147.187 131.906 146.743 130.918C146.3 129.93 145.461 129.155 142.579 128.892C139.696 128.63 137.97 129.696 136.551 130.734C136.155 130.969 135.836 131.317 135.632 131.734C135.427 132.151 135.347 132.62 135.4 133.083L134.26 133.836Z" fill="white" stroke="#263238" stroke-linecap="round" stroke-linejoin="round"/>
<path d="M135.197 133.144C135.393 133.696 135.693 134.204 136.079 134.64C136.338 134.95 136.633 135.227 136.956 135.466L136.682 134.065L137.307 134.489C137.298 134.185 137.272 133.881 137.23 133.58C137.17 133.144 137.882 133.674 137.882 133.674C137.866 133.105 137.954 132.538 138.14 132C138.245 131.751 138.387 131.519 138.562 131.314C138.562 131.314 135.586 132.358 135.197 133.144Z" fill="#263238" stroke="#263238" stroke-linecap="round" stroke-linejoin="round"/>
<path d="M134.26 133.836C134.26 133.836 138.644 130.103 146.908 131.286C146.908 131.286 146.453 126.482 145.757 125.706C145.061 124.931 142.82 123.575 139.269 124.696C135.718 125.818 133.613 127.81 133.531 128.948C133.449 130.087 134.26 133.836 134.26 133.836Z" fill="#FDD8EE" stroke="#263238" stroke-linecap="round" stroke-linejoin="round"/>
<path d="M138.14 132.023C138.14 132.023 140.381 132.765 142.064 132.218C144.19 131.382 146.47 131.03 148.744 131.186C151.867 131.415 151.44 131.482 151.44 131.482C151.44 131.482 149.692 130.366 145.412 130.555C141.132 130.745 137.882 131.688 138.14 132.023Z" fill="#FDD8EE" stroke="#263238" stroke-linecap="round" stroke-linejoin="round"/>
<path d="M146.316 131.337C146.316 131.337 147.215 131.895 149.9 132.369C152.585 132.843 152.306 132.162 151.462 131.482C150.618 130.801 146.552 131.024 146.316 131.337Z" fill="#FDD8EE" stroke="#263238" stroke-linecap="round" stroke-linejoin="round"/>
<path d="M144.409 132.804C144.293 132.957 144.22 133.139 144.198 133.33C144.176 133.522 144.205 133.716 144.283 133.892C144.546 134.72 144.69 135.583 144.71 136.453C144.71 136.643 144.678 136.883 144.025 136.833C143.541 136.78 143.062 136.681 142.595 136.537" stroke="#263238" stroke-linecap="round" stroke-linejoin="round"/>
<path d="M141.932 133.881C141.932 134.249 141.729 134.534 141.537 134.517C141.346 134.5 141.209 134.193 141.231 133.831C141.252 133.468 141.439 133.172 141.631 133.189C141.822 133.206 141.97 133.513 141.932 133.881Z" fill="#263238"/>
<path d="M145.921 133.602C145.921 133.97 145.719 134.255 145.527 134.238C145.335 134.221 145.198 133.914 145.226 133.552C145.253 133.189 145.428 132.899 145.62 132.91C145.812 132.921 145.949 133.234 145.921 133.602Z" fill="#263238"/>
<path d="M140.014 132.687C140.014 132.687 140.863 131.214 142.283 131.71" stroke="#263238" stroke-linecap="round" stroke-linejoin="round"/>
<path d="M144.979 131.387C144.979 131.387 146.278 130.957 146.579 131.978L144.979 131.387Z" fill="white"/>
<path d="M144.979 131.387C144.979 131.387 146.278 130.957 146.579 131.978" stroke="#263238" stroke-linecap="round" stroke-linejoin="round"/>
<path d="M142.48 139.433C142.48 139.433 143.576 137.854 144.699 139.115" stroke="#263238" stroke-linecap="round" stroke-linejoin="round"/>
<path d="M149.231 143.406C149.231 143.406 146.36 143.836 145.647 149.159C144.995 154.014 147.434 159.142 148.815 161.05C150.196 162.958 151.204 164.069 151.895 164.119C152.585 164.169 153.287 164.225 154.015 160.213C154.744 156.201 156.427 153.093 154.788 149.416C153.15 145.738 152.202 145.314 149.231 143.406Z" fill="#263238" stroke="#263238" stroke-linecap="round" stroke-linejoin="round"/>
<path d="M135.767 140.331C134.117 142.24 132.934 144.519 132.315 146.983C131.115 151.352 133.438 158.762 133.767 159.493C134.018 160.176 134.202 160.882 134.315 161.602C132.79 159.585 131.581 157.339 130.731 154.945C129.462 151.748 129.203 148.227 129.991 144.874C130.51 143.231 131.351 141.712 132.463 140.41C133.554 140.21 134.668 140.184 135.767 140.331Z" fill="#263238" stroke="#263238" stroke-linecap="round" stroke-linejoin="round"/>
<path d="M150.234 227.229C150.234 227.229 146.497 227.318 146.13 227.497C145.763 227.675 145.768 228.981 145.768 228.981C145.768 228.981 143.373 232.44 142.151 233.132C140.929 233.824 139.039 235.007 139.296 235.705C139.554 236.402 139.954 236.531 142.288 236.704C144.623 236.877 148.448 235.03 149.894 234.851C151.341 234.672 151.199 234.477 151.073 233.378C150.947 232.279 150.245 229.26 150.245 229.26C150.433 228.596 150.429 227.891 150.234 227.229Z" fill="#FDD8EE" stroke="#263238" stroke-linecap="round" stroke-linejoin="round"/>
<path d="M145.768 228.981C145.768 228.981 145.072 226.587 145.993 226.498C146.913 226.409 147.9 226.275 147.938 227.162C147.897 227.926 147.74 228.679 147.472 229.394C147.472 229.394 146.245 229.427 145.768 228.981Z" fill="white" stroke="#263238" stroke-linecap="round" stroke-linejoin="round"/>
<path d="M147.472 229.416C147.472 229.416 146.256 231.408 145.132 232.156C144.009 232.904 143.488 232.033 143.571 231.832C143.653 231.631 145.763 228.981 145.763 228.981L147.472 229.416Z" fill="white" stroke="#263238" stroke-linecap="round" stroke-linejoin="round"/>
<path d="M141.625 235.978C139.981 235.855 139.499 235.353 139.351 235.108C139.301 235.198 139.27 235.297 139.26 235.4C139.251 235.503 139.263 235.607 139.296 235.705C139.554 236.397 139.954 236.531 142.288 236.704C144.623 236.877 148.448 235.03 149.895 234.851C151.341 234.673 151.199 234.477 151.073 233.378C151.073 233.322 151.073 233.255 151.045 233.188C150.426 233.428 149.522 233.746 148.574 234.025C146.864 234.522 143.812 236.14 141.625 235.978Z" fill="#263238" stroke="#263238" stroke-linecap="round" stroke-linejoin="round"/>
<path d="M140.009 223.758C140.009 223.758 136.315 223.948 135.981 224.394C135.646 224.841 134.403 227.139 132.791 228.267C131.18 229.394 129.701 229.338 129.224 230.292C128.747 231.246 130.216 231.458 131.964 231.899C133.712 232.34 134.819 231.955 136.414 231.085C138.008 230.214 139.373 230.471 140.798 229.969C142.222 229.466 140.633 225.845 140.661 225.505C140.688 225.164 141.006 224.947 140.798 224.271C140.79 224.18 140.761 224.091 140.714 224.012C140.667 223.934 140.603 223.867 140.527 223.817C140.451 223.768 140.364 223.737 140.274 223.726C140.185 223.716 140.094 223.727 140.009 223.758Z" fill="#FDD8EE" stroke="#263238" stroke-linecap="round" stroke-linejoin="round"/>
<path d="M140.792 229.963C141.373 229.751 141.444 229.026 141.34 228.216C140.694 228.886 139.252 229.031 137.959 229.595C136.43 230.264 135.29 231.168 132.994 231.152C131.693 231.127 130.408 230.852 129.207 230.342C128.796 231.258 130.238 231.458 131.947 231.91C133.657 232.362 134.803 231.966 136.397 231.096C137.992 230.225 139.378 230.482 140.792 229.963Z" fill="#263238" stroke="#263238" stroke-linecap="round" stroke-linejoin="round"/>
<path d="M135.159 225.851C135.159 225.851 134.764 224.26 134.501 223.619C134.238 222.977 136.529 222.419 136.836 223.167C137.143 223.914 136.255 226.247 136.255 226.247L135.159 225.851Z" fill="white" stroke="#263238" stroke-linecap="round" stroke-linejoin="round"/>
<path d="M136.255 226.247C136.255 226.247 135.246 228.2 134.063 228.735C132.879 229.271 132.342 228.501 132.342 228.501C133.472 227.913 134.395 226.983 134.983 225.839L136.255 226.247Z" fill="white" stroke="#263238" stroke-linecap="round" stroke-linejoin="round"/>
<path d="M150.974 188.688C150.974 188.688 147.138 188.336 143.85 187.962C140.562 187.588 139.181 187.404 139.181 187.404C139.181 187.404 140.277 194.48 140.277 194.937C140.277 195.395 138.008 202.163 138.008 202.163L140.474 210.093C140.474 210.093 151.204 209.775 155.15 209.607C159.095 209.44 165.496 208.134 165.496 208.134C165.496 208.134 161.791 203.062 160.986 201.756C160.58 201.081 160.129 200.434 159.638 199.82L165.266 193.626C165.266 193.626 164.493 188.186 164.17 187.371C163.846 186.556 163.737 186.221 163.737 186.221C163.737 186.221 153.215 188.922 150.974 188.688Z" fill="#FDD8EE"/>
<path d="M157.868 192.901H165.162C165.112 192.583 165.052 192.181 164.986 191.74H158.788C160.153 189.949 161.72 187.706 162.537 186.517L160.849 186.924C159.205 189.318 156.788 192.616 155.955 193.28C154.991 194.056 148.93 197.141 145.499 198.86C146.278 196.835 146.946 194.831 146.815 194.223C146.548 193.475 146.228 192.747 145.856 192.047L149.577 188.554L148.042 188.409L145.302 190.97C144.754 189.932 144.206 188.833 143.718 187.951L142.327 187.789C143.784 190.507 145.571 193.927 145.68 194.452C145.724 195.049 144.392 198.637 143.132 201.617C143.072 201.743 143.06 201.887 143.1 202.022C143.139 202.156 143.227 202.271 143.346 202.342L145.647 203.826L141.422 205.5L138.403 203.447L138.951 205.221L140.118 206.019L139.296 206.343L139.647 207.459L141.291 206.806L144.836 209.211C144.938 209.285 145.061 209.321 145.186 209.314C145.31 209.307 145.429 209.257 145.521 209.172L149.16 206.036C151.21 207.319 153.413 208.664 155.095 209.607H155.15C156.125 209.562 157.254 209.451 158.394 209.311L155.687 206.488C156.965 207.058 158.353 207.325 159.747 207.269C161.328 207.254 162.901 207.046 164.433 206.65C164.203 206.337 163.956 205.991 163.698 205.629C160.646 206.326 157.627 206.27 156.081 205.389C155.834 205.27 155.616 205.098 155.441 204.884C155.267 204.67 155.141 204.419 155.073 204.15C155.048 204.047 155.048 203.94 155.074 203.838C155.1 203.736 155.15 203.641 155.221 203.564C156.01 202.621 159.019 202.303 161.348 202.292C161.205 202.08 161.085 201.901 161.002 201.762C160.86 201.527 160.728 201.326 160.602 201.137C158.509 201.198 155.429 201.516 154.35 202.811C154.166 203.024 154.034 203.277 153.965 203.552C153.895 203.826 153.89 204.113 153.95 204.39C153.984 204.538 154.029 204.684 154.087 204.825L150.251 200.807L150.508 197.616L151.237 197.242L159.747 199.764L160.613 198.804L152.706 196.489C154.069 195.814 155.391 195.053 156.662 194.212C157.105 193.816 157.509 193.376 157.868 192.901ZM145.116 208.017L142.595 206.304L146.864 204.602L148.141 205.411L145.116 208.017ZM156.624 209.133C155.588 208.575 154.114 207.727 152.508 206.75L153.878 206.276L156.624 209.133ZM152.985 205.344L151.226 205.958C148.683 204.384 146.031 202.688 144.382 201.611C144.535 201.254 144.694 200.869 144.858 200.467C145.406 200.205 147.215 199.295 149.292 198.235L149.056 200.992C149.05 201.075 149.062 201.158 149.09 201.236C149.119 201.314 149.163 201.384 149.22 201.444L152.985 205.344Z" fill="white"/>
<path opacity="0.26" d="M165.266 193.626L140.288 194.954C140.255 195.412 138.019 202.18 138.019 202.18L159.665 199.842L165.266 193.626Z" fill="black"/>
<path d="M151.96 189.938L146.053 190.719" stroke="#263238" stroke-width="0.5" stroke-linecap="round" stroke-linejoin="round"/>
<path d="M152.07 191.054L147.916 192.61" stroke="#263238" stroke-width="0.5" stroke-linecap="round" stroke-linejoin="round"/>
<path d="M155.462 190.83L160.06 191.723" stroke="#263238" stroke-width="0.5" stroke-linecap="round" stroke-linejoin="round"/>
<path d="M155.901 189.714H159.293" stroke="#263238" stroke-width="0.5" stroke-linecap="round" stroke-linejoin="round"/>
<path d="M150.974 188.688C150.974 188.688 147.138 188.336 143.85 187.962C140.562 187.588 139.181 187.404 139.181 187.404C139.181 187.404 140.277 194.48 140.277 194.937C140.277 195.395 138.008 202.163 138.008 202.163L140.474 210.093C140.474 210.093 151.204 209.775 155.15 209.607C159.095 209.44 165.496 208.134 165.496 208.134C165.496 208.134 161.791 203.062 160.986 201.756C160.58 201.081 160.129 200.434 159.638 199.82L165.266 193.626C165.266 193.626 164.493 188.186 164.17 187.371C163.846 186.556 163.737 186.221 163.737 186.221C163.737 186.221 153.215 188.922 150.974 188.688Z" stroke="#263238" stroke-linecap="round" stroke-linejoin="round"/>
<path d="M156.997 165.609C156.997 163.862 156.564 161.893 156.734 159.471C156.903 157.049 156.909 150.827 155.769 148.997C154.629 147.167 151.084 145.353 151.084 145.353C149.814 146.218 148.905 147.533 148.535 149.042C147.911 151.581 148.629 154.862 148.629 154.862C148.629 154.862 151.188 163.388 151.243 163.583C151.367 165.432 151.367 167.287 151.243 169.135C151.107 171.288 151.338 173.447 151.928 175.519C152.421 178.418 152.678 181.354 152.695 184.296C152.66 184.681 152.551 185.055 152.374 185.397C152.198 185.738 151.956 186.041 151.665 186.288C151.182 186.846 150.475 187.879 150.788 188.805H151.741C151.741 188.805 152.086 190.127 152.13 190.479C152.174 190.83 152.048 192.477 152.678 192.521C153.309 192.566 153.829 191.444 153.829 191.444C153.829 191.444 155.473 191.372 155.879 190.328C156.284 189.285 155.961 186.523 155.961 186.523C155.961 186.523 156.843 179.481 157.358 174.933C157.873 170.385 156.997 167.35 156.997 165.609Z" fill="white" stroke="#263238" stroke-linecap="round" stroke-linejoin="round"/>
<path d="M151.084 145.337C149.814 146.201 148.905 147.516 148.535 149.025C147.911 151.564 148.629 154.845 148.629 154.845C148.629 154.845 149.604 158.093 150.36 160.62C152.441 161.2 154.641 161.152 156.695 160.481C156.695 160.146 156.695 159.806 156.734 159.454C156.909 157.01 156.909 150.811 155.769 148.98C154.629 147.15 151.084 145.337 151.084 145.337Z" fill="white" stroke="#263238" stroke-linecap="round" stroke-linejoin="round"/>
<path d="M151.182 150.242C149.407 152.172 149.051 156.151 149.051 156.151C149.051 156.151 148.579 151.932 150.355 148.897" stroke="#263238" stroke-width="0.5" stroke-linecap="round" stroke-linejoin="round"/>
</g>
<defs>
<filter id="filter0_d" x="-4" y="0" width="282" height="287" filterUnits="userSpaceOnUse" color-interpolation-filters="sRGB">
<feFlood flood-opacity="0" result="BackgroundImageFix"/>
<feColorMatrix in="SourceAlpha" type="matrix" values="0 0 0 0 0 0 0 0 0 0 0 0 0 0 0 0 0 0 127 0"/>
<feOffset dy="4"/>
<feGaussianBlur stdDeviation="2"/>
<feColorMatrix type="matrix" values="0 0 0 0 0 0 0 0 0 0 0 0 0 0 0 0 0 0 0.25 0"/>
<feBlend mode="normal" in2="BackgroundImageFix" result="effect1_dropShadow"/>
<feBlend mode="normal" in="SourceGraphic" in2="effect1_dropShadow" result="shape"/>
</filter>
</defs>
</svg>
