<svg width="252" height="252" viewBox="0 0 252 252" fill="none" xmlns="http://www.w3.org/2000/svg">
<path d="M180.936 203.46C181.727 201.681 182.886 198.828 183.285 196.565C183.96 193.032 178.92 194.262 178.92 194.262C178.92 194.262 181.642 190.079 181.44 186.727C181.238 183.375 178.088 185.054 178.088 185.054C178.088 185.054 180.81 171.244 176.833 168.734C172.857 166.224 170.135 184.862 170.135 184.862C170.135 184.862 168.462 182.141 165.322 183.189C162.182 184.237 163.649 192.604 163.649 192.604C163.649 192.604 160.091 188.42 159.254 192.604C158.639 195.688 161.885 200.93 163.634 203.475L180.936 203.46Z" fill="#A6493A" stroke="#263238" stroke-linecap="round" stroke-linejoin="round"/>
<path d="M171.385 203.46L175.1 178.224" stroke="#263238" stroke-linecap="round" stroke-linejoin="round"/>
<path d="M172.161 198.349L167.514 189.217" stroke="#263238" stroke-linecap="round" stroke-linejoin="round"/>
<path d="M172.625 194.635L178.507 189.988" stroke="#263238" stroke-linecap="round" stroke-linejoin="round"/>
<path d="M91.8137 203.46C93.0485 200.698 94.8377 196.263 95.4676 192.75C96.4454 187.206 88.6435 189.176 88.6435 189.176C88.6435 189.176 92.867 182.675 92.5444 177.474C92.2219 172.272 87.3432 174.888 87.3432 174.888C87.3432 174.888 91.5667 153.438 85.3927 149.542C79.2187 145.646 74.9901 174.56 74.9901 174.56C74.9901 174.56 72.3945 170.352 67.536 171.95C62.6774 173.547 64.9353 186.566 64.9353 186.566C64.9353 186.566 59.3913 180.064 58.1112 186.566C57.1536 191.359 62.1936 199.498 64.9152 203.45L91.8137 203.46Z" fill="#A6493A" stroke="#263238" stroke-linecap="round" stroke-linejoin="round"/>
<path d="M76.9557 203.46L82.7265 164.264" stroke="#263238" stroke-linecap="round" stroke-linejoin="round"/>
<path d="M78.1552 195.522L70.943 181.339" stroke="#263238" stroke-linecap="round" stroke-linejoin="round"/>
<path d="M78.876 189.751L88.0135 182.539" stroke="#263238" stroke-linecap="round" stroke-linejoin="round"/>
<path d="M59.9911 203.46H194.025" stroke="#263238" stroke-linecap="round" stroke-linejoin="round"/>
<path d="M54.0338 203.46H56.2413" stroke="#263238" stroke-linecap="round" stroke-linejoin="round"/>
<path d="M166.426 82.8222C166.426 82.8222 161.658 77.7167 157.576 78.0544C153.493 78.3921 152.808 82.4845 150.424 82.8222C148.04 83.1599 143.958 79.0775 140.893 80.781C137.829 82.4845 138.509 84.8685 136.125 85.2061C133.741 85.5438 130.677 83.1649 128.293 84.1981C126.495 85.0497 124.785 86.0761 123.188 87.2625H175.276C175.276 87.2625 173.915 81.1439 166.426 82.8222Z" stroke="#263238" stroke-linecap="round" stroke-linejoin="round"/>
<path d="M96.9696 65.7971C96.9696 65.7971 92.2018 60.6916 88.1194 61.0343C84.037 61.3771 83.3515 65.4595 80.9676 65.7971C78.5837 66.1348 74.5013 62.0524 71.437 63.7559C68.3726 65.4595 69.053 67.8434 66.6691 68.181C64.2852 68.5187 61.2209 66.1399 58.837 67.1731C57.0377 68.0226 55.3274 69.0491 53.7314 70.2374H105.84C105.84 70.2374 104.459 64.0987 96.9696 65.7971Z" stroke="#263238" stroke-linecap="round" stroke-linejoin="round"/>
<path d="M88.1194 61.0343L92.484 60.1019" stroke="#263238" stroke-linecap="round" stroke-linejoin="round"/>
<path d="M92.484 60.858C92.9015 60.858 93.24 60.5195 93.24 60.1019C93.24 59.6844 92.9015 59.3459 92.484 59.3459C92.0664 59.3459 91.728 59.6844 91.728 60.1019C91.728 60.5195 92.0664 60.858 92.484 60.858Z" fill="#263238"/>
<path d="M59.4871 66.3818H57.8189V68.0501H59.4871V66.3818Z" fill="white" stroke="#263238" stroke-linecap="round" stroke-linejoin="round"/>
<path d="M67.1731 67.2638H65.5049V68.932H67.1731V67.2638Z" fill="white" stroke="#263238" stroke-linecap="round" stroke-linejoin="round"/>
<path d="M71.82 63.2117H70.1517V64.8799H71.82V63.2117Z" fill="white" stroke="#263238" stroke-linecap="round" stroke-linejoin="round"/>
<path d="M80.5896 64.6833H78.9214V66.3516H80.5896V64.6833Z" fill="white" stroke="#263238" stroke-linecap="round" stroke-linejoin="round"/>
<path d="M88.5276 60.2733H86.8594V61.9416H88.5276V60.2733Z" fill="white" stroke="#263238" stroke-linecap="round" stroke-linejoin="round"/>
<path d="M97.8012 64.9656H96.1329V66.6338H97.8012V64.9656Z" fill="white" stroke="#263238" stroke-linecap="round" stroke-linejoin="round"/>
<path d="M106.656 69.3906H104.988V71.0589H106.656V69.3906Z" fill="white" stroke="#263238" stroke-linecap="round" stroke-linejoin="round"/>
<path d="M54.684 69.3906H53.0157V71.0589H54.684V69.3906Z" fill="white" stroke="#263238" stroke-linecap="round" stroke-linejoin="round"/>
<path d="M150.62 161.159L146.18 157.475L146.704 163.22L148.121 161.189L150.62 161.159Z" fill="#263238"/>
<path d="M102.005 96.1884L105.633 101.793L109.257 98.1691L106.787 92.8922L107.775 89.1021L102.665 87.1265L102.005 96.1884Z" fill="white" stroke="#263238" stroke-linecap="round" stroke-linejoin="round"/>
<path d="M94.5151 87.2323L94.6814 90.6897L93.24 93.6533C93.1996 93.7369 93.1792 93.8288 93.1804 93.9217C93.1816 94.0145 93.2044 94.1059 93.2469 94.1885C93.2894 94.271 93.3505 94.3426 93.4254 94.3976C93.5003 94.4525 93.5869 94.4893 93.6784 94.505L95.4929 94.8125C95.4929 94.8125 97.6349 100.745 98.2951 100.911C98.9553 101.077 105.548 97.9423 105.709 96.7881C105.87 95.634 106.213 93.492 106.213 93.492C106.696 93.3297 107.115 93.0191 107.411 92.6047C107.707 92.1902 107.864 91.6929 107.861 91.1837C107.861 89.3743 104.731 88.8804 104.731 88.8804L94.5151 87.2323Z" fill="white" stroke="#263238" stroke-linecap="round" stroke-linejoin="round"/>
<path d="M96.5563 90.72C96.5563 91.224 96.3799 91.612 96.1582 91.612C95.9364 91.612 95.76 91.224 95.76 90.72C95.76 90.216 95.9415 89.8279 96.1632 89.8279C96.385 89.8279 96.5563 90.216 96.5563 90.72Z" fill="#263238"/>
<path d="M95.3114 89.1173C95.417 88.9484 95.5605 88.8065 95.7304 88.7025C95.9003 88.5986 96.0921 88.5357 96.2905 88.5185C96.4889 88.5014 96.6886 88.5307 96.8738 88.604C97.059 88.6773 97.2247 88.7926 97.3576 88.9409" stroke="#263238" stroke-linecap="round" stroke-linejoin="round"/>
<path d="M96.5563 95.5281C97.0359 95.5894 97.5218 95.4801 97.9291 95.2194C98.3363 94.9587 98.6389 94.5631 98.784 94.1018" stroke="#263238" stroke-linecap="round" stroke-linejoin="round"/>
<path d="M94.5151 87.2323L111.329 90.0345C111.329 90.0345 111.661 84.0974 109.68 80.9625C107.7 77.8276 101.44 78.3266 98.1439 79.642C94.8477 80.9575 94.5151 87.2323 94.5151 87.2323Z" fill="#A6493A" stroke="#263238" stroke-linecap="round" stroke-linejoin="round"/>
<path d="M101.606 88.5477C101.606 88.5477 101.606 91.0224 102.614 90.8561C103.622 90.6897 104.756 88.8804 104.756 88.8804L101.606 88.5477Z" fill="#263238" stroke="#263238" stroke-linecap="round" stroke-linejoin="round"/>
<path d="M103.753 88.8804C103.753 88.8804 109.192 94.8175 111.5 94.9788C113.808 95.14 117.104 94.3185 116.278 93.3307C115.451 92.3428 111.238 89.7422 111.238 89.7422L103.753 88.8804Z" fill="#A6493A" stroke="#263238" stroke-linecap="round" stroke-linejoin="round"/>
<path d="M118.863 145.485C124.281 153.549 131.69 164.49 132.003 164.591C132.507 164.757 161.673 150.58 161.673 150.58C161.673 150.58 168.265 164.757 169.092 164.591C169.919 164.425 167.938 146.447 167.111 146.296C166.285 146.145 133.983 156.845 133.983 156.845L127.719 136.241L127.678 136.135C128.197 134.63 128.488 133.055 128.54 131.463L109.751 135.914L109.917 139.704C109.917 139.704 97.0603 157.344 97.0603 158.165C97.0603 158.987 99.6962 185.527 99.6962 185.527C99.6962 185.527 87.0055 193.435 87.6657 193.768C88.3259 194.1 105.633 193.768 105.633 193.768L104.625 184.696L103.471 158.82C103.471 158.82 111.989 151.704 118.863 145.485Z" stroke="#263238" stroke-linecap="round" stroke-linejoin="round"/>
<path d="M97.8667 157.308H96.1985V158.977H97.8667V157.308Z" fill="white" stroke="#263238" stroke-linecap="round" stroke-linejoin="round"/>
<path d="M104.323 157.989H102.655V159.657H104.323V157.989Z" fill="white" stroke="#263238" stroke-linecap="round" stroke-linejoin="round"/>
<path d="M100.533 184.691H98.8646V186.359H100.533V184.691Z" fill="white" stroke="#263238" stroke-linecap="round" stroke-linejoin="round"/>
<path d="M88.4973 192.931H86.8291V194.599H88.4973V192.931Z" fill="white" stroke="#263238" stroke-linecap="round" stroke-linejoin="round"/>
<path d="M105.477 183.864H103.809V185.532H105.477V183.864Z" fill="white" stroke="#263238" stroke-linecap="round" stroke-linejoin="round"/>
<path d="M132.834 163.76H131.166V165.428H132.834V163.76Z" fill="white" stroke="#263238" stroke-linecap="round" stroke-linejoin="round"/>
<path d="M119.695 144.648H118.027V146.316H119.695V144.648Z" fill="white" stroke="#263238" stroke-linecap="round" stroke-linejoin="round"/>
<path d="M134.815 156.008H133.147V157.676H134.815V156.008Z" fill="white" stroke="#263238" stroke-linecap="round" stroke-linejoin="round"/>
<path d="M162.505 149.748H160.836V151.417H162.505V149.748Z" fill="white" stroke="#263238" stroke-linecap="round" stroke-linejoin="round"/>
<path d="M169.661 163.886H167.993V165.554H169.661V163.886Z" fill="white" stroke="#263238" stroke-linecap="round" stroke-linejoin="round"/>
<path d="M167.973 145.344H166.305V147.012H167.973V145.344Z" fill="white" stroke="#263238" stroke-linecap="round" stroke-linejoin="round"/>
<path d="M106.218 192.694H104.55V194.362H106.218V192.694Z" fill="white" stroke="#263238" stroke-linecap="round" stroke-linejoin="round"/>
<path d="M143.378 123.717L135.465 102.126L128.913 100.266L126.968 104.963L131.342 106.082L139.406 124.538C139.406 124.538 138.746 126.353 138.902 127.179C139.059 128.006 140.55 131.463 141.538 131.957C141.779 132.108 142.069 132.157 142.346 132.096C142.623 132.035 142.865 131.867 143.02 131.63C143.02 131.63 146.483 130.309 146.815 129.483C147.148 128.656 145.989 127.179 145.807 126.025C145.626 124.871 143.378 123.717 143.378 123.717Z" fill="white" stroke="#263238" stroke-linecap="round" stroke-linejoin="round"/>
<path d="M137.229 196.893H73.9015L65.9635 192.059C65.7911 191.962 65.6402 191.831 65.5196 191.674C65.3989 191.517 65.3111 191.337 65.2613 191.145C65.2116 190.954 65.2008 190.754 65.2298 190.558C65.2588 190.362 65.3269 190.174 65.43 190.005C65.5331 189.836 65.6691 189.689 65.8301 189.574C65.991 189.459 66.1734 189.377 66.3666 189.333C66.5598 189.29 66.7598 189.286 66.9546 189.321C67.1494 189.356 67.3351 189.431 67.5007 189.539L74.7281 193.939H136.009L138.529 191.419C138.81 191.161 139.179 191.022 139.56 191.03C139.941 191.038 140.304 191.193 140.573 191.462C140.842 191.731 140.997 192.094 141.005 192.475C141.013 192.856 140.874 193.225 140.616 193.506L137.229 196.893Z" fill="#263238" stroke="#263238" stroke-miterlimit="10"/>
<path d="M82.7568 200.325C82.7578 199.737 82.5845 199.163 82.2589 198.674C81.9333 198.185 81.4701 197.804 80.9277 197.579C80.3854 197.353 79.7883 197.294 79.2122 197.408C78.636 197.522 78.1066 197.804 77.6909 198.219C77.2752 198.634 76.992 199.163 76.8771 199.739C76.7621 200.315 76.8206 200.912 77.0451 201.455C77.2697 201.997 77.6501 202.461 78.1384 202.788C78.6267 203.114 79.2009 203.288 79.7882 203.288C80.5746 203.288 81.3289 202.976 81.8855 202.421C82.4421 201.865 82.7554 201.111 82.7568 200.325Z" fill="#263238" stroke="#263238" stroke-linecap="round" stroke-linejoin="round"/>
<path d="M79.7882 201.736C80.5676 201.736 81.1994 201.104 81.1994 200.325C81.1994 199.545 80.5676 198.914 79.7882 198.914C79.0088 198.914 78.377 199.545 78.377 200.325C78.377 201.104 79.0088 201.736 79.7882 201.736Z" fill="white" stroke="#263238" stroke-linecap="round" stroke-linejoin="round"/>
<path d="M128.081 200.325C128.082 199.737 127.909 199.163 127.583 198.674C127.257 198.185 126.794 197.803 126.251 197.578C125.709 197.353 125.111 197.294 124.535 197.408C123.959 197.522 123.429 197.805 123.014 198.221C122.598 198.636 122.316 199.166 122.201 199.742C122.087 200.318 122.146 200.915 122.371 201.458C122.597 202.001 122.978 202.464 123.467 202.79C123.956 203.116 124.53 203.289 125.118 203.288C125.904 203.287 126.657 202.974 127.212 202.419C127.767 201.863 128.08 201.11 128.081 200.325Z" fill="#263238" stroke="#263238" stroke-linecap="round" stroke-linejoin="round"/>
<path d="M126.529 200.325C126.529 200.046 126.446 199.773 126.291 199.541C126.136 199.309 125.916 199.128 125.658 199.021C125.4 198.914 125.116 198.886 124.843 198.941C124.569 198.995 124.317 199.13 124.12 199.327C123.923 199.524 123.788 199.776 123.734 200.049C123.679 200.323 123.707 200.607 123.814 200.865C123.921 201.123 124.102 201.343 124.334 201.498C124.566 201.653 124.839 201.736 125.118 201.736C125.492 201.736 125.851 201.587 126.116 201.323C126.381 201.058 126.529 200.699 126.529 200.325Z" fill="white" stroke="#263238" stroke-linecap="round" stroke-linejoin="round"/>
<path d="M93.618 111.016L90.1353 113.662L71.2756 111.061L68.9925 107.533L65.3385 107.886L65.2226 108.592C65.2226 108.592 62.8639 108.592 62.627 109.066C62.3901 109.539 62.627 111.187 62.627 111.187L63.5695 111.419C63.5695 111.419 63.4536 113.541 64.0432 114.015C64.6329 114.489 69.94 114.519 69.94 114.519L92.4436 119.952L97.408 115.799L93.618 111.016Z" fill="white" stroke="#263238" stroke-linecap="round" stroke-linejoin="round"/>
<path d="M140.732 130.41L144.225 129.402C144.371 129.355 144.498 129.263 144.589 129.139C144.68 129.015 144.728 128.865 144.729 128.712C144.728 128.535 144.663 128.366 144.546 128.234C144.429 128.103 144.268 128.018 144.094 127.996L141.664 127.719" fill="white"/>
<path d="M140.732 130.41L144.225 129.402C144.371 129.355 144.498 129.263 144.589 129.139C144.68 129.015 144.728 128.865 144.729 128.712V128.712C144.728 128.535 144.663 128.366 144.546 128.234C144.429 128.103 144.268 128.018 144.094 127.996L141.664 127.719" stroke="#263238" stroke-linecap="round" stroke-linejoin="round"/>
<path d="M143.327 128.056L142.617 125.818" stroke="#263238" stroke-linecap="round" stroke-linejoin="round"/>
<path d="M144.739 128.056L146.155 127.467" stroke="#263238" stroke-linecap="round" stroke-linejoin="round"/>
<path d="M127.179 108.567L131.715 100.916C131.715 100.916 119.831 97.1711 115.114 96.5209C110.396 95.8708 109.091 97.3324 109.091 97.3324L101.158 105.089L90.72 112.956L95.76 120.96L103.219 114.912L109.428 141.276C109.428 141.276 118.067 141.075 122.472 139.26C127.159 137.305 131.736 133.338 131.736 133.338L117.225 102.594L127.179 108.567Z" fill="#263238" stroke="#263238" stroke-miterlimit="10"/>
<path d="M48.8477 48.8879V212.507H205.052V48.8879H48.8477ZM203.324 207.325H50.5764V55.8028H203.324V207.325Z" fill="#263238" stroke="#263238" stroke-linecap="round" stroke-linejoin="round"/>
<path opacity="0.2" d="M48.8477 48.8879V212.507H205.052V48.8879H48.8477ZM203.324 207.325H50.5764V55.8028H203.324V207.325Z" fill="white"/>
<path d="M203.324 55.8029H50.5764V207.325H203.324V55.8029Z" stroke="#263238" stroke-linecap="round" stroke-linejoin="round"/>
<path d="M54.5025 49.7246H51.2719V54.2606H55.1628V50.3496L54.5025 49.7246ZM54.9108 53.9733H51.5239V50.0169H54.3362L54.9108 50.5612V53.9733Z" fill="#A6493A"/>
<path d="M200.365 50.7124L197.896 52.8544" stroke="#A6493A" stroke-miterlimit="10"/>
<path d="M197.896 50.7124L200.365 52.8544" stroke="#A6493A" stroke-miterlimit="10"/>
<path d="M203.656 49.397V54.3362H181.259V49.397" stroke="#A6493A" stroke-width="0.5" stroke-miterlimit="10"/>
<path d="M194.766 54.3362V49.5634" stroke="#A6493A" stroke-width="0.5" stroke-miterlimit="10"/>
<path d="M187.685 54.3362V49.5634" stroke="#A6493A" stroke-width="0.5" stroke-miterlimit="10"/>
<path d="M192.624 50.6318H189.827V52.6075H192.624V50.6318Z" stroke="#A6493A" stroke-miterlimit="10"/>
<path d="M185.049 52.5269H182.579" stroke="#A6493A" stroke-miterlimit="10"/>
<path d="M203.324 55.7625H197.754V207.325H203.324V55.7625Z" fill="#263238"/>
<path opacity="0.2" d="M201.293 133.389H200.022C198.976 133.389 198.127 134.237 198.127 135.284V140.409C198.127 141.456 198.976 142.304 200.022 142.304H201.293C202.339 142.304 203.188 141.456 203.188 140.409V135.284C203.188 134.237 202.339 133.389 201.293 133.389Z" fill="white"/>
<path d="M52.7083 106.299H33.894V172.403H52.7083V106.299Z" fill="#263238"/>
<path opacity="0.2" d="M52.7083 106.299H33.894V172.403H52.7083V106.299Z" fill="white"/>
<path d="M41.6606 115.245H36.8273C36.2232 115.245 35.7336 115.734 35.7336 116.338V121.348C35.7336 121.952 36.2232 122.442 36.8273 122.442H41.6606C42.2646 122.442 42.7543 121.952 42.7543 121.348V116.338C42.7543 115.734 42.2646 115.245 41.6606 115.245Z" fill="#263238"/>
<path d="M52.7083 106.299H33.894V109.64H52.7083V106.299Z" fill="#263238"/>
<path d="M40.1184 110.185V111.636" stroke="#263238" stroke-linecap="round" stroke-linejoin="round"/>
<path d="M40.8391 110.185V111.636" stroke="#263238" stroke-linecap="round" stroke-linejoin="round"/>
<path d="M41.5649 110.185V111.636" stroke="#263238" stroke-linecap="round" stroke-linejoin="round"/>
<path d="M42.2906 110.185V111.636" stroke="#263238" stroke-linecap="round" stroke-linejoin="round"/>
<path d="M43.0164 110.185V111.636" stroke="#263238" stroke-linecap="round" stroke-linejoin="round"/>
<path d="M43.7421 110.185V111.636" stroke="#263238" stroke-linecap="round" stroke-linejoin="round"/>
<path d="M44.4679 110.185V111.636" stroke="#263238" stroke-linecap="round" stroke-linejoin="round"/>
<path d="M45.1937 110.185V111.636" stroke="#263238" stroke-linecap="round" stroke-linejoin="round"/>
<path d="M45.9144 110.185V111.636" stroke="#263238" stroke-linecap="round" stroke-linejoin="round"/>
<path d="M46.6401 110.185V111.636" stroke="#263238" stroke-linecap="round" stroke-linejoin="round"/>
<path d="M41.2725 119.297L37.8 116.424C37.76 116.391 37.7111 116.37 37.6595 116.365C37.6078 116.36 37.5557 116.37 37.5098 116.394C37.4639 116.418 37.4263 116.456 37.4017 116.501C37.377 116.547 37.3666 116.599 37.3716 116.651L37.7798 121.157C37.7854 121.21 37.8073 121.26 37.8424 121.301C37.8776 121.342 37.9243 121.37 37.9764 121.383H38.0419C38.0842 121.383 38.1259 121.373 38.1636 121.354C38.2013 121.335 38.2339 121.307 38.2586 121.273L39.2666 119.791H41.0911C41.1448 119.789 41.1967 119.771 41.24 119.739C41.2833 119.708 41.3161 119.664 41.3341 119.613C41.352 119.563 41.3543 119.508 41.3407 119.456C41.327 119.404 41.298 119.357 41.2574 119.322L41.2725 119.297Z" fill="white"/>
<path d="M41.1012 119.498L37.6236 116.61L38.0318 121.116L39.1457 119.524L41.1012 119.498Z" fill="#263238"/>
<path d="M49.6138 119.498L46.1362 116.61L46.5494 121.116L47.6582 119.524L49.6138 119.498Z" fill="white"/>
<path d="M50.9947 122.064L50.9292 121.136L50.1026 121.913L50.9947 122.064Z" fill="white"/>
<path d="M50.9947 151.603L50.9292 150.676L50.1026 151.457L50.9947 151.603Z" fill="white"/>
<path d="M50.9947 160.67L50.9292 159.743L50.1026 160.524L50.9947 160.67Z" fill="white"/>
<path d="M50.9947 169.969L50.9292 169.042L50.1026 169.818L50.9947 169.969Z" fill="white"/>
<path d="M42.3411 141.135L42.2755 140.208L41.449 140.989L42.3411 141.135Z" fill="white"/>
<path d="M42.3411 151.603L42.2755 150.676L41.449 151.457L42.3411 151.603Z" fill="white"/>
<path d="M42.3411 160.67L42.2755 159.743L41.449 160.524L42.3411 160.67Z" fill="white"/>
<path d="M42.3411 169.969L42.2755 169.042L41.449 169.818L42.3411 169.969Z" fill="white"/>
<path d="M41.0007 127.973L40.3982 127.46L36.5298 132.004L37.1323 132.517L41.0007 127.973Z" fill="white"/>
<path d="M39.1658 127.562C38.3493 126.66 38.3342 126.484 38.9995 125.461C38.0973 126.277 37.9159 126.292 36.8978 125.632C37.7143 126.534 37.7294 126.711 37.0692 127.729C37.9663 126.912 38.1477 126.897 39.1658 127.562Z" fill="white"/>
<path d="M42.7845 128.051C42.2805 127.492 42.2805 127.381 42.6787 126.756C42.1243 127.26 42.0134 127.26 41.3834 126.857C41.8874 127.416 41.8874 127.527 41.4893 128.152C42.0437 127.648 42.1545 127.643 42.7845 128.051Z" fill="white"/>
<path d="M41.7715 130.188C41.4136 129.79 41.4086 129.709 41.6959 129.261C41.3028 129.619 41.2221 129.629 40.7736 129.336C41.1314 129.73 41.1415 129.81 40.8492 130.259C41.2423 129.901 41.328 129.896 41.7715 130.188Z" fill="white"/>
<path d="M45.6876 150.328L46.0504 150.676L49.9161 146.13L49.5583 145.787L45.6876 150.328Z" fill="white"/>
<path d="M51.1258 130.838L48.0564 128.288L48.4193 132.26L49.397 130.859L51.1258 130.838Z" fill="white"/>
<path d="M48.016 131.07C46.5444 131.07 45.3448 130.203 45.3448 129.135C45.3448 128.066 46.5444 127.2 48.016 127.2C49.4877 127.2 50.6872 128.066 50.6872 129.135C50.6872 130.203 49.4928 131.07 48.016 131.07ZM48.016 127.431C46.6704 127.431 45.5767 128.192 45.5767 129.135C45.5767 130.077 46.6704 130.838 48.016 130.838C49.3617 130.838 50.4554 130.072 50.4554 129.135C50.4554 128.198 49.3617 127.431 48.016 127.431Z" fill="white"/>
<path d="M46.3932 130.682C46.2622 130.683 46.1338 130.645 46.0245 130.573C45.9151 130.501 45.8297 130.398 45.7791 130.277C45.7285 130.156 45.715 130.023 45.7403 129.894C45.7657 129.766 45.8286 129.648 45.9213 129.555C46.0139 129.462 46.132 129.399 46.2606 129.374C46.3891 129.349 46.5223 129.362 46.6431 129.413C46.764 129.464 46.867 129.549 46.9392 129.658C47.0114 129.768 47.0494 129.896 47.0484 130.027C47.0471 130.2 46.9776 130.366 46.855 130.489C46.7324 130.611 46.5665 130.681 46.3932 130.682ZM46.3932 129.599C46.3082 129.598 46.2249 129.622 46.1538 129.668C46.0827 129.715 46.027 129.781 45.9938 129.859C45.9606 129.938 45.9514 130.024 45.9674 130.107C45.9833 130.191 46.0237 130.268 46.0834 130.328C46.1431 130.388 46.2194 130.43 46.3027 130.447C46.3859 130.464 46.4723 130.455 46.5509 130.423C46.6295 130.391 46.6967 130.336 46.744 130.265C46.7913 130.195 46.8165 130.112 46.8165 130.027C46.8165 129.914 46.7721 129.806 46.6928 129.726C46.6136 129.646 46.5059 129.6 46.3932 129.599Z" fill="white"/>
<path d="M46.1966 131.373L46.121 131.156C46.4002 131.082 46.6391 130.901 46.7863 130.652C46.8695 130.473 46.8821 130.27 46.8216 130.082L47.0433 130.007C47.123 130.251 47.1068 130.516 46.998 130.748C46.9128 130.9 46.798 131.034 46.6604 131.141C46.5228 131.248 46.3651 131.327 46.1966 131.373Z" fill="white"/>
<path d="M38.246 136.831L40.2881 138.873L41.2361 137.925L39.194 135.883L38.246 136.831Z" fill="white"/>
<path d="M35.784 140.571L36.1166 140.908L37.7546 139.27C37.7189 139.21 37.7044 139.14 37.7135 139.07C37.7227 139.001 37.7549 138.936 37.805 138.887C37.8475 138.844 37.9011 138.814 37.9599 138.8C38.0187 138.786 38.0803 138.789 38.1376 138.808C38.1949 138.827 38.2456 138.862 38.284 138.909C38.3224 138.956 38.3469 139.012 38.3547 139.072C38.3625 139.132 38.3533 139.193 38.3281 139.248C38.3029 139.303 38.2628 139.35 38.2124 139.383C38.1619 139.416 38.1031 139.435 38.0426 139.436C37.9822 139.438 37.9226 139.422 37.8706 139.391L36.2376 141.029L36.5501 141.337L39.312 140.616L40.0327 139.104L38.0167 137.088L36.5047 137.768L35.784 140.571Z" fill="white"/>
<path d="M35.4917 134.16H51.6852" stroke="#263238" stroke-linecap="round" stroke-linejoin="round"/>
<path d="M48.9324 135.883L47.9844 136.831L50.0265 138.873L50.9744 137.925L48.9324 135.883Z" fill="white"/>
<path d="M46.2369 137.794L45.5011 140.571L45.8337 140.908L47.4717 139.27C47.436 139.21 47.4215 139.14 47.4307 139.07C47.4398 139.001 47.472 138.936 47.5221 138.887C47.5646 138.844 47.6182 138.814 47.677 138.8C47.7358 138.786 47.7974 138.789 47.8547 138.808C47.912 138.827 47.9627 138.862 48.0011 138.909C48.0395 138.956 48.064 139.012 48.0718 139.072C48.0796 139.132 48.0704 139.193 48.0452 139.248C48.02 139.303 47.9799 139.35 47.9295 139.383C47.879 139.416 47.8202 139.435 47.7598 139.436C47.6993 139.438 47.6397 139.422 47.5877 139.391L45.9547 141.029L46.2672 141.337L49.0644 140.616L49.7851 139.104L47.7691 137.088L46.2369 137.794Z" fill="white"/>
<path d="M45.239 138.6C45.3398 138.403 45.4457 138.192 45.5515 137.955C45.6549 137.762 45.7152 137.549 45.7283 137.331C45.7413 137.112 45.7068 136.894 45.6271 136.69C45.4234 136.322 45.0831 136.048 44.6796 135.929C44.6455 135.919 44.6091 135.924 44.5784 135.942C44.5477 135.959 44.5252 135.988 44.5158 136.022C44.5064 136.056 44.511 136.093 44.5285 136.123C44.546 136.154 44.575 136.177 44.609 136.186C44.9405 136.282 45.2209 136.505 45.3902 136.806C45.4537 136.974 45.4797 137.154 45.4667 137.333C45.4536 137.513 45.4018 137.687 45.3146 137.844C45.2088 138.081 45.103 138.288 45.0022 138.479C44.4982 139.487 44.1857 140.097 45.5062 141.1C45.5325 141.108 45.5605 141.108 45.5868 141.1C45.6064 141.1 45.6257 141.095 45.6432 141.087C45.6607 141.078 45.6759 141.065 45.6876 141.049C45.7113 141.024 45.7246 140.991 45.7246 140.956C45.7246 140.922 45.7113 140.888 45.6876 140.863C44.5183 140.031 44.73 139.608 45.239 138.6Z" fill="white"/>
<path d="M35.5572 145.349V145.611C35.5535 146.008 35.5754 146.405 35.6227 146.8L36.1267 146.684C36.0912 146.417 36.0743 146.147 36.0763 145.878H38.0923V150.368H37.3413V150.872H39.3573V150.368H38.6164V145.878H40.5619V146.82H41.0659C41.0659 146.477 41.0659 145.606 41.0659 145.606V145.344L35.5572 145.349Z" fill="white"/>
<path opacity="0.44" d="M38.5459 159.904C40.1464 159.904 41.4439 158.968 41.4439 157.813C41.4439 156.657 40.1464 155.721 38.5459 155.721C36.9454 155.721 35.6479 156.657 35.6479 157.813C35.6479 158.968 36.9454 159.904 38.5459 159.904Z" fill="white"/>
<path d="M38.5459 159.904C40.1464 159.904 41.4439 158.968 41.4439 157.813C41.4439 156.657 40.1464 155.721 38.5459 155.721C36.9454 155.721 35.6479 156.657 35.6479 157.813C35.6479 158.968 36.9454 159.904 38.5459 159.904Z" stroke="white" stroke-miterlimit="10"/>
<path d="M47.376 157.873L50.5613 154.421C50.6247 154.353 50.7089 154.31 50.8002 154.296C50.8916 154.282 50.9849 154.299 51.0653 154.345C51.1593 154.403 51.2265 154.496 51.252 154.604C51.2775 154.712 51.2593 154.825 51.2013 154.92L48.767 158.76L47.376 157.873Z" fill="white"/>
<path d="M46.9576 158.16C47.7439 158.064 48.9736 158.699 48.646 159.672C48.5377 159.901 48.3469 160.081 48.1118 160.176C47.3962 160.466 46.6246 160.592 45.8539 160.544C45.9696 160.478 46.069 160.386 46.1449 160.276C46.2207 160.166 46.2711 160.041 46.2924 159.909C46.2965 159.636 46.2831 159.364 46.252 159.093C46.252 158.705 46.5242 158.18 46.9576 158.15" fill="white"/>
<path d="M40.1789 165.735C40.162 165.395 40.0445 165.067 39.8412 164.793L38.929 165.705C39.1654 166.015 39.3024 166.389 39.3221 166.779C39.3497 167.135 39.4104 167.487 39.5035 167.832L40.4006 166.935C40.28 166.545 40.2056 166.143 40.1789 165.735Z" fill="white"/>
<path d="M39.1255 166.794C39.1084 166.453 38.9909 166.125 38.7878 165.851L37.8705 166.764C38.1113 167.07 38.2505 167.443 38.2687 167.832C38.2952 168.188 38.3542 168.54 38.4451 168.885L39.3422 167.988C39.2261 167.599 39.1534 167.199 39.1255 166.794Z" fill="white"/>
<path d="M40.3805 165.72C40.4055 166.077 40.4663 166.429 40.5619 166.774L41.8774 165.453L40.5317 164.107L39.9874 164.652C40.224 164.96 40.3611 165.332 40.3805 165.72Z" fill="white"/>
<path d="M38.0671 167.832C38.0503 167.491 37.9327 167.163 37.7294 166.89L36.9633 167.656L36.3989 169.399C36.3893 169.427 36.3877 169.456 36.3942 169.484C36.4008 169.512 36.4153 169.538 36.4359 169.558C36.4566 169.578 36.4826 169.592 36.5109 169.598C36.5391 169.604 36.5685 169.601 36.5954 169.591L38.304 169.032C38.1842 168.641 38.1048 168.239 38.0671 167.832ZM36.9835 168.996L37.2859 168.074L37.8957 168.684L36.9835 168.996Z" fill="white"/>
<path d="M45.8085 166.562L44.8005 167.57L47.1693 169.944L48.1773 168.936L48.3235 169.082L50.6923 166.708L48.0362 164.047L45.6624 166.421L45.8085 166.562ZM47.1744 169.344L45.36 167.565L46.0757 166.849L47.88 168.643L47.1744 169.344Z" fill="white"/>
<path d="M37.1952 107.181V107.498L36.5349 108.058L37.1952 108.612V108.93L36.1569 108.058L37.1952 107.181Z" fill="white"/>
<path d="M36.0562 107.181V107.498L35.401 108.058L36.0562 108.612V108.93L35.0179 108.058L36.0562 107.181Z" fill="white"/>
<path d="M223.126 76.0486H156.618V120.068H223.126V76.0486Z" fill="#263238"/>
<path opacity="0.1" d="M223.126 77.8882H179.152V86.3503H223.126V77.8882Z" fill="white"/>
<path opacity="0.2" d="M179.152 86.3554V77.8882H156.618V120.068H223.126V86.3554H179.152Z" fill="white"/>
<path d="M164.269 94.2379H161.018V97.4887H164.269V94.2379Z" fill="white"/>
<path d="M165.892 95.8608H162.641V99.1116H165.892V95.8608Z" fill="white"/>
<path d="M172.842 95.8608H174.465V94.2379H171.214V97.4887H172.842V95.8608Z" fill="white"/>
<path d="M176.229 99.2477H172.701V95.7197H176.229V99.2477ZM172.978 98.9705H175.951V96.002H172.978V98.9705Z" fill="white"/>
<path d="M184.938 97.6248H181.41V94.0968H184.938V97.6248ZM181.692 97.3476H184.666V94.374H181.692V97.3476Z" fill="white"/>
<path d="M186.566 99.2477H183.038V95.7197H186.566V99.2477ZM183.315 98.9705H186.288V96.002H183.315V98.9705Z" fill="white"/>
<path d="M184.802 95.8608H183.179V97.4837H184.802V95.8608Z" fill="white"/>
<path d="M195.199 114.181H191.858V110.84H195.199V114.181ZM191.948 114.091H195.108V110.93H191.948V114.091Z" fill="white"/>
<path d="M196.918 115.92H193.39V112.392H196.918V115.92ZM193.667 115.648H196.641V112.674H193.667V115.648Z" fill="white"/>
<path d="M195.154 112.513H193.531V114.136H195.154V112.513Z" fill="white"/>
<path d="M205.713 114.272H202.185V110.744H205.713V114.272ZM202.467 113.995H205.435V111.026H202.467V113.995Z" fill="white"/>
<path d="M207.335 115.92H203.807V112.392H207.335V115.92ZM204.09 115.648H207.063V112.674H204.09V115.648Z" fill="white"/>
<path d="M215.949 112.513V114.136H214.326V115.759H217.577V112.513H215.949Z" fill="white"/>
<path d="M217.728 115.92H214.2V114.02H215.823V112.392H217.728V115.92ZM214.477 115.648H217.451V112.674H216.105V114.297H214.477V115.648Z" fill="white"/>
<path d="M216.09 114.272H212.562V110.744H216.09V114.272ZM212.839 113.995H215.813V111.026H212.839V113.995Z" fill="white"/>
<path d="M162.263 111.959H164.072V110.522H160.821V113.768H162.263V111.959Z" fill="white"/>
<path d="M163.886 112.327H162.631V113.582H163.886V112.327Z" fill="white"/>
<path d="M164.254 112.145V113.954H162.449V115.396H165.695V112.145H164.254Z" fill="white"/>
<path d="M195.073 95.8608V94.2379H191.822V97.4887H193.445V95.8608H195.073Z" fill="white"/>
<path d="M195.073 95.8608V97.4888H193.445V99.1116H196.696V95.8608H195.073Z" fill="white"/>
<path d="M172.403 111.898H174.45V110.396H171.199V113.647H172.403V111.898Z" fill="white"/>
<path d="M176.072 112.266H172.731V115.27H176.072V112.266Z" fill="white"/>
<path d="M184.822 112.392V110.764H181.576V114.015H182.967V112.533H183.335V115.638H186.45V112.392H184.822Z" fill="white"/>
<path d="M161.305 106.777H174.737" stroke="white" stroke-width="2" stroke-miterlimit="10"/>
<path d="M161.305 82.3032H174.737" stroke="white" stroke-width="2" stroke-miterlimit="10"/>
<path d="M161.305 91.0476H181.173" stroke="white" stroke-width="2" stroke-miterlimit="10"/>
<path d="M211.07 79.9143V80.3578L211.992 81.139L211.07 81.9152V82.3587L212.522 81.139L211.07 79.9143Z" fill="white"/>
<path d="M212.658 79.9143V80.3578L213.58 81.139L212.658 81.9152V82.3587L214.109 81.139L212.658 79.9143Z" fill="white"/>
<path d="M215.949 79.1785V83.407" stroke="white" stroke-width="0.5" stroke-miterlimit="10"/>
<path d="M217.788 80.4636H221.105" stroke="white" stroke-width="0.5" stroke-miterlimit="10"/>
<path d="M217.788 81.1995H221.105" stroke="white" stroke-width="0.5" stroke-miterlimit="10"/>
<path d="M217.788 81.9353H221.105" stroke="white" stroke-width="0.5" stroke-miterlimit="10"/>
<path d="M217.788 82.6711H221.105" stroke="white" stroke-width="0.5" stroke-miterlimit="10"/>
</svg>
