<svg width="241" height="238" viewBox="0 0 241 238" fill="none" xmlns="http://www.w3.org/2000/svg">
<g filter="url(#filter0_d)">
<path d="M80.5856 34.2339C80.5856 34.2339 44.0644 52.6075 25.8497 80.92C7.63487 109.232 9.07606 145.656 31.2095 172.693C53.3429 199.73 95.6481 196.179 131.07 213.305C166.492 230.432 205.573 226.904 222.322 190.619C239.072 154.333 213.815 140.772 209.477 98.7795C205.139 56.7868 166.806 -4.70286 80.5856 34.2339Z" fill="#FDD8EE"/>
<path opacity="0.7" d="M80.5856 34.2339C80.5856 34.2339 44.0644 52.6075 25.8497 80.92C7.63487 109.232 9.07606 145.656 31.2095 172.693C53.3429 199.73 95.6481 196.179 131.07 213.305C166.492 230.432 205.573 226.904 222.322 190.619C239.072 154.333 213.815 140.772 209.477 98.7795C205.139 56.7868 166.806 -4.70286 80.5856 34.2339Z" fill="white"/>
<path d="M59.527 180.157C60.973 179.681 63.5372 177.353 63.5372 177.348C63.5372 177.343 61.4743 176.163 61.3345 176.106C59.7102 175.43 56.1675 175.068 54.8805 176.548C54.677 176.8 54.5289 177.091 54.4459 177.403C54.3629 177.715 54.3468 178.04 54.3985 178.358C54.4503 178.676 54.5687 178.98 54.7464 179.251C54.924 179.521 55.1568 179.752 55.43 179.928C56.5675 180.728 58.2738 180.556 59.527 180.157Z" fill="#9C9C9C"/>
<path d="M86.2346 157.718C86.2684 157.718 85.1742 155.609 85.0875 155.481C84.1235 154.053 81.3568 151.801 79.4577 152.334C79.1446 152.432 78.8557 152.593 78.6097 152.807C78.3638 153.022 78.1662 153.285 78.0299 153.58C77.8935 153.875 77.8215 154.195 77.8183 154.519C77.8152 154.843 77.8811 155.164 78.0117 155.462C78.5275 156.737 80.0458 157.527 81.3182 157.875C82.8124 158.284 86.2298 157.723 86.2346 157.718Z" fill="#9C9C9C"/>
<path d="M67.0896 186.778C68.3331 185.973 70.0491 183.284 70.184 183.07C71.7397 184.042 73.3597 184.91 75.0329 185.669C75.9969 186.116 76.9995 186.54 78.0021 186.949C77.5201 186.825 77.0815 186.725 77.0381 186.716C75.2884 186.487 71.7746 187.063 70.9311 188.824C70.7989 189.122 70.7318 189.444 70.7341 189.769C70.7365 190.093 70.8082 190.414 70.9447 190.71C71.0812 191.005 71.2793 191.269 71.5262 191.484C71.773 191.699 72.063 191.86 72.3771 191.956C73.6882 192.432 75.2691 191.809 76.3922 191.095C77.5153 190.381 79.0191 188.101 79.4095 187.496L80.5663 187.972C82.422 188.701 84.2729 189.4 86.0708 190.181C86.7022 190.448 87.3143 190.738 87.9313 191.019C87.4975 190.914 87.136 190.828 87.0781 190.824C85.3285 190.595 81.8195 191.171 80.9712 192.932C80.839 193.229 80.7719 193.551 80.7743 193.875C80.7767 194.2 80.8485 194.52 80.985 194.816C81.1215 195.111 81.3197 195.374 81.5665 195.589C81.8133 195.803 82.1032 195.964 82.4172 196.06C83.7331 196.536 85.3333 195.912 86.4323 195.198C87.5312 194.484 88.9097 192.428 89.3821 191.714C89.9991 192.023 90.6208 192.333 91.2089 192.666C91.6041 192.899 92.0042 193.094 92.3898 193.351L93.5369 194.079C94.2455 194.555 94.9829 195.07 95.6674 195.565C96.1494 195.907 96.5928 196.24 97.0459 196.574C96.4193 196.302 95.1806 195.788 95.0697 195.76C93.3779 195.284 89.8159 195.317 88.7121 196.931C88.5353 197.204 88.4188 197.511 88.3702 197.831C88.3217 198.152 88.3422 198.479 88.4305 198.791C88.5187 199.104 88.6727 199.394 88.8824 199.643C89.0921 199.893 89.3527 200.096 89.6472 200.239C90.8715 200.891 92.5392 200.529 93.749 199.987C95.0649 199.392 97.123 197.093 97.3544 196.802C98.1015 197.359 98.8245 197.906 99.4945 198.435C101.451 199.963 103.081 201.338 104.314 202.414L105.278 201.548C103.987 200.472 102.261 199.073 100.184 197.521C99.427 196.954 98.6076 196.359 97.7737 195.76C98.2186 194.88 98.6113 193.976 98.9498 193.051C100.43 193.199 103.215 192.442 103.577 192.342C103.89 193.213 104.184 194.065 104.449 194.87C105.211 197.169 105.794 199.154 106.223 200.729L107.303 199.777C106.855 198.306 106.276 196.512 105.558 194.489C105.245 193.603 104.893 192.666 104.517 191.704C104.849 191.519 107.529 189.976 108.373 188.815C109.139 187.758 109.819 186.202 109.404 184.883C109.317 184.571 109.164 184.281 108.956 184.031C108.748 183.781 108.489 183.577 108.196 183.432C107.903 183.287 107.582 183.205 107.255 183.19C106.928 183.175 106.601 183.228 106.295 183.346C104.478 184.112 103.755 187.553 103.914 189.286C103.914 189.391 104.155 190.49 104.31 191.19C104.155 190.795 104.011 190.414 103.828 190.014C103.51 189.215 103.167 188.429 102.806 187.582C102.613 187.177 102.425 186.773 102.227 186.363C102.03 185.954 101.798 185.54 101.582 185.121C101.066 184.169 100.492 183.217 99.8897 182.265C100.598 181.989 103.09 180.97 104.016 180.037C104.941 179.104 105.847 177.657 105.635 176.31C105.598 175.989 105.492 175.678 105.326 175.4C105.159 175.121 104.934 174.88 104.667 174.693C104.399 174.506 104.095 174.376 103.774 174.313C103.452 174.249 103.121 174.254 102.801 174.325C100.873 174.801 99.6439 178.105 99.5378 179.842C99.5378 179.947 99.5957 181.204 99.6439 181.894C99.2776 181.332 98.9161 180.77 98.5305 180.214C97.4122 178.609 96.2265 177.02 95.0552 175.43C94.6937 174.954 94.3419 174.454 93.99 173.964C94.2407 173.868 97.229 172.721 98.2654 171.679C99.186 170.727 100.097 169.299 99.8897 167.947C99.8518 167.625 99.7458 167.315 99.5784 167.036C99.4111 166.757 99.1862 166.517 98.9184 166.329C98.6506 166.142 98.3459 166.013 98.0241 165.949C97.7024 165.886 97.3707 165.89 97.0507 165.962C95.1227 166.438 93.8936 169.742 93.7876 171.479C93.7876 171.612 93.8743 173.416 93.9225 173.859C93.1417 172.778 92.3753 171.698 91.662 170.603C90.6894 169.131 89.8167 167.596 89.0495 166.01C89.1652 165.967 92.2886 164.782 93.349 163.711C94.2696 162.759 95.1805 161.331 94.9733 159.984C94.936 159.662 94.8306 159.352 94.6637 159.073C94.4969 158.794 94.2725 158.553 94.005 158.366C93.7376 158.179 93.4333 158.049 93.1117 157.986C92.7902 157.923 92.4588 157.927 92.1391 157.999C90.2111 158.475 88.982 161.778 88.876 163.515C88.876 163.63 88.9386 165.005 88.9869 165.657L88.8808 165.686C88.1475 164.071 87.5635 162.393 87.136 160.674C86.8902 159.722 86.707 158.813 86.5479 157.922C87.1504 157.761 89.9219 156.994 90.9727 156.133C92.0235 155.271 93.0549 153.976 93.0019 152.601C92.9992 152.277 92.9277 151.957 92.792 151.662C92.6562 151.368 92.4593 151.104 92.2139 150.889C91.9686 150.674 91.6803 150.513 91.3676 150.415C91.055 150.317 90.7251 150.285 90.3991 150.321C88.447 150.592 86.842 153.734 86.5431 155.452C86.5431 155.542 86.466 156.509 86.4323 157.213C86.3696 156.809 86.2925 156.395 86.2395 156.004C86.0322 154.543 85.931 153.196 85.849 152.001C85.8105 151.32 85.7912 150.702 85.7767 150.126C86.2828 149.65 88.3169 147.746 88.8471 146.541C89.3773 145.337 89.6906 143.685 89.0013 142.486C88.8487 142.199 88.6365 141.947 88.3786 141.746C88.1208 141.545 87.823 141.4 87.5047 141.321C87.1864 141.242 86.8547 141.229 86.5312 141.285C86.2078 141.34 85.8998 141.462 85.6273 141.643C84.0174 142.776 84.0608 146.294 84.5958 147.955C84.644 148.098 85.6225 150.259 85.6514 150.235L85.6803 150.207C85.6803 150.759 85.6803 151.354 85.7189 152.006C85.7719 153.205 85.8394 154.562 86.0177 156.033C86.1916 157.618 86.4588 159.191 86.8178 160.745C87.2113 162.49 87.763 164.196 88.4663 165.843L88.4952 165.9C88.1193 165.467 87.0251 164.291 86.9287 164.21C85.5984 163.068 82.3449 161.635 80.6627 162.644C80.3865 162.819 80.1508 163.05 79.9709 163.321C79.791 163.591 79.6709 163.897 79.6186 164.217C79.5663 164.536 79.5829 164.864 79.6673 165.177C79.7517 165.49 79.902 165.782 80.1084 166.034C80.9471 167.133 82.6196 167.5 83.9403 167.504C85.4249 167.504 88.3554 166.195 88.5916 166.076C89.3465 167.736 90.2128 169.343 91.1848 170.889C91.7439 171.788 92.3368 172.683 92.9441 173.569C92.6067 173.207 92.303 172.883 92.2548 172.84C90.9245 171.703 87.671 170.265 85.9888 171.274C85.7126 171.449 85.4769 171.68 85.297 171.95C85.1171 172.221 84.997 172.527 84.9447 172.847C84.8924 173.166 84.909 173.493 84.9934 173.807C85.0778 174.12 85.2281 174.412 85.4345 174.663C86.2684 175.768 87.9457 176.129 89.2664 176.134C90.5871 176.139 93.1224 175.068 93.7876 174.778C94.0238 175.116 94.2696 175.458 94.4961 175.796C95.6336 177.41 96.776 179.024 97.8701 180.632C98.2509 181.204 98.6028 181.775 98.9546 182.346C98.6558 182.022 98.4003 181.756 98.3569 181.718C97.0266 180.575 93.7731 179.143 92.0909 180.152C91.8151 180.327 91.5798 180.558 91.4004 180.829C91.2209 181.1 91.1014 181.405 91.0495 181.725C90.9977 182.045 91.0147 182.372 91.0994 182.685C91.1842 182.998 91.3348 183.289 91.5415 183.541C92.3753 184.64 94.0527 185.007 95.3685 185.012C96.6844 185.016 98.9835 184.06 99.774 183.707C100.121 184.302 100.468 184.897 100.772 185.492C100.974 185.902 101.196 186.283 101.369 186.706C101.543 187.13 101.741 187.534 101.919 187.939C102.242 188.739 102.574 189.557 102.883 190.343C103.09 190.885 103.278 191.409 103.466 191.933C103.1 191.361 102.348 190.262 102.276 190.176C101.225 189.044 99.8972 188.198 98.4196 187.72C98.3098 187.588 98.1871 187.467 98.0533 187.358C97.8066 187.145 97.5172 186.986 97.204 186.89C96.8909 186.795 96.5608 186.765 96.2354 186.804C95.9099 186.842 95.5964 186.948 95.315 187.114C95.0336 187.28 94.7907 187.503 94.6022 187.768C93.5128 189.396 94.8335 192.661 95.9373 194.022C96 194.103 96.8049 194.893 97.3206 195.384L96.2313 194.684C95.5228 194.208 94.7853 193.732 94.0238 193.213L92.8621 192.509C92.4765 192.266 92.0427 192.056 91.6282 191.828C90.6642 191.314 89.6568 190.838 88.635 190.4C89.0688 189.786 90.563 187.582 90.8281 186.297C91.0932 185.012 91.0305 183.327 90.1003 182.303C89.8889 182.056 89.6272 181.855 89.3321 181.713C89.037 181.572 88.7151 181.494 88.3874 181.484C88.0596 181.473 87.7333 181.531 87.4297 181.654C87.1261 181.776 86.8519 181.96 86.6251 182.194C85.2996 183.622 86.1045 187.063 86.9817 188.572C87.0396 188.667 87.7915 189.676 88.2205 190.224C87.6035 189.957 86.9866 189.686 86.3551 189.434C84.5235 188.705 82.6486 188.006 80.7832 187.335C80.2096 187.125 79.6409 186.906 79.0721 186.692C79.2312 186.478 81.0821 183.893 81.3616 182.456C81.6123 181.18 81.5689 179.485 80.6338 178.462C80.4224 178.214 80.1607 178.013 79.8656 177.872C79.5705 177.731 79.2486 177.653 78.9209 177.642C78.5931 177.632 78.2669 177.69 77.9632 177.812C77.6596 177.935 77.3855 178.119 77.1586 178.352C75.8331 179.78 76.638 183.222 77.5201 184.731C77.5827 184.845 78.6721 186.297 78.9661 186.635C77.7129 186.159 76.4693 185.683 75.2595 185.154C73.6263 184.456 72.0419 183.651 70.5166 182.746C70.5889 182.646 72.5362 179.957 72.8206 178.486C73.0664 177.21 73.023 175.515 72.0928 174.492C71.8814 174.244 71.6197 174.044 71.3246 173.902C71.0295 173.761 70.7076 173.683 70.3798 173.672C70.0521 173.662 69.7258 173.72 69.4222 173.842C69.1186 173.965 68.8444 174.149 68.6175 174.383C67.292 175.811 68.097 179.252 68.9742 180.761C69.0321 180.861 69.8611 181.97 70.2708 182.489L70.1937 182.57C68.6817 181.62 67.259 180.538 65.9424 179.338C65.205 178.686 64.5398 178.024 63.9084 177.362C64.3229 176.886 66.1931 174.759 66.6028 173.459C67.0125 172.16 67.133 170.527 66.3232 169.413C66.1394 169.145 65.9006 168.918 65.6223 168.746C65.3439 168.575 65.0322 168.463 64.7073 168.418C64.3824 168.373 64.0516 168.396 63.7363 168.486C63.421 168.575 63.1282 168.729 62.8769 168.937C61.402 170.232 61.8213 173.726 62.525 175.32C62.5636 175.406 63.0552 176.244 63.4216 176.848C63.142 176.548 62.848 176.244 62.5829 175.949C61.6189 174.844 60.7561 173.773 60.0235 172.817C59.6089 172.269 59.2474 171.769 58.91 171.298C59.0787 170.632 59.715 167.942 59.474 166.633C59.233 165.324 58.5775 163.777 57.3339 163.168C57.0469 163.012 56.7298 162.918 56.4033 162.891C56.0769 162.864 55.7483 162.905 55.4392 163.012C55.13 163.119 54.847 163.289 54.6088 163.511C54.3705 163.733 54.1823 164.002 54.0563 164.301C53.3478 166.119 55.3481 169.028 56.7169 170.122C56.8374 170.218 58.8618 171.484 58.8715 171.45C58.8725 171.436 58.8725 171.422 58.8715 171.408C59.1848 171.884 59.527 172.36 59.9078 172.893C60.6211 173.845 61.4405 174.959 62.4094 176.087C63.4412 177.314 64.5436 178.482 65.7111 179.585C67.015 180.816 68.4263 181.931 69.9286 182.917L69.9864 182.951C69.4321 182.793 67.8608 182.408 67.7355 182.394C65.9858 182.165 62.4768 182.741 61.6285 184.502C61.4963 184.8 61.4292 185.122 61.4315 185.446C61.4339 185.771 61.5056 186.092 61.6421 186.388C61.7786 186.683 61.9767 186.947 62.2236 187.162C62.4704 187.377 62.7604 187.538 63.0745 187.634C64.3904 188.101 65.9906 187.496 67.0896 186.778Z" fill="#9C9C9C"/>
<path d="M157.267 66.026C158.298 67.7301 162.015 70.229 162.019 70.229C162.024 70.229 162.945 67.3112 162.983 67.116C163.379 64.8931 162.82 60.3616 160.573 59.1811C160.192 58.9951 159.775 58.8906 159.349 58.8744C158.924 58.8581 158.5 58.9305 158.105 59.0867C157.71 59.243 157.353 59.4796 157.056 59.7813C156.76 60.0829 156.531 60.4428 156.385 60.8376C155.686 62.4941 156.39 64.5789 157.267 66.026Z" fill="#9C9C9C"/>
<path d="M193.711 92.939C193.711 92.9818 196.121 91.0064 196.251 90.8636C197.827 89.2214 199.89 85.1516 198.661 82.9192C198.447 82.556 198.157 82.2416 197.811 81.9963C197.466 81.751 197.071 81.5803 196.654 81.4955C196.237 81.4106 195.807 81.4134 195.391 81.5037C194.976 81.594 194.584 81.7697 194.241 82.0195C192.752 83.0334 192.178 85.1564 192.096 86.8414C192.005 88.8216 193.711 92.9342 193.711 92.939Z" fill="#9C9C9C"/>
<path d="M150.958 77.3881C152.351 78.7066 156.293 80.0775 156.607 80.1822C155.811 82.4078 155.167 84.6834 154.679 86.9937C154.385 88.3361 154.129 89.7022 153.893 91.0731C153.893 90.4305 153.893 89.8545 153.893 89.7736C153.681 87.5269 151.931 83.3 149.43 82.7526C149.012 82.6722 148.581 82.6797 148.166 82.7747C147.751 82.8696 147.361 83.0498 147.021 83.3035C146.682 83.5573 146.4 83.8788 146.195 84.2473C145.989 84.6158 145.865 85.0228 145.829 85.442C145.617 87.2175 146.861 89.0453 148.095 90.202C149.328 91.3587 152.683 92.6248 153.57 92.939C153.483 93.4626 153.392 93.9909 153.31 94.5145C152.91 97.0421 152.524 99.5649 152.066 102.031C151.907 102.897 151.714 103.749 151.526 104.601C151.526 104.03 151.526 103.549 151.526 103.478C151.314 101.226 149.565 97.004 147.063 96.4519C146.645 96.3722 146.215 96.3805 145.8 96.476C145.385 96.5716 144.996 96.7523 144.656 97.0065C144.317 97.2607 144.036 97.5826 143.831 97.9512C143.626 98.3198 143.502 98.7269 143.467 99.146C143.255 100.917 144.494 102.745 145.728 103.906C146.962 105.067 149.994 106.2 151.03 106.581C150.813 107.447 150.596 108.314 150.345 109.142C150.157 109.704 150.022 110.256 149.806 110.813L149.198 112.455C148.779 113.483 148.35 114.549 147.911 115.549C147.613 116.239 147.314 116.896 147.015 117.558C147.184 116.696 147.497 115.002 147.497 114.859C147.632 112.603 146.533 108.166 144.161 107.243C143.76 107.101 143.333 107.044 142.908 107.076C142.483 107.108 142.07 107.228 141.695 107.428C141.321 107.629 140.993 107.905 140.733 108.238C140.474 108.572 140.289 108.956 140.19 109.366C139.708 111.084 140.672 113.079 141.694 114.416C142.841 115.892 146.374 117.777 146.817 118.01C146.335 119.1 145.824 120.161 145.342 121.152C143.944 124.041 142.653 126.468 141.631 128.33L143.024 129.31C144.036 127.406 145.328 124.831 146.716 121.785C147.227 120.676 147.752 119.481 148.278 118.248C149.532 118.554 150.803 118.784 152.085 118.938C152.326 120.842 154.095 124.098 154.327 124.517C153.3 125.159 152.298 125.773 151.338 126.335C148.615 127.954 146.22 129.258 144.345 130.243L145.863 131.314C147.622 130.334 149.753 129.096 152.129 127.616C153.175 126.968 154.279 126.254 155.402 125.512C155.734 125.873 158.482 128.777 160.222 129.501C161.798 130.153 163.986 130.557 165.553 129.658C165.928 129.46 166.258 129.186 166.519 128.854C166.78 128.522 166.968 128.14 167.069 127.731C167.171 127.323 167.184 126.898 167.108 126.485C167.032 126.071 166.868 125.678 166.627 125.331C165.124 123.279 160.506 123.37 158.327 124.069C158.202 124.112 156.857 124.712 156.019 125.107C156.476 124.802 156.925 124.507 157.392 124.188C158.323 123.56 159.234 122.908 160.212 122.213L161.61 121.142C162.092 120.79 162.54 120.366 163.012 119.976C164.087 119.052 165.133 118.072 166.16 117.044C166.719 117.843 168.743 120.666 170.204 121.551C171.664 122.437 173.766 123.16 175.448 122.503C175.85 122.364 176.217 122.143 176.527 121.854C176.836 121.565 177.081 121.215 177.244 120.826C177.407 120.438 177.486 120.02 177.474 119.599C177.463 119.179 177.362 118.765 177.178 118.386C176.007 116.134 171.423 115.53 169.168 115.896C169.028 115.92 167.437 116.372 166.57 116.62C167.182 116.006 167.799 115.392 168.396 114.745C170.132 112.888 171.828 110.937 173.525 109.033C174.045 108.442 174.576 107.862 175.096 107.281C175.294 107.566 177.622 110.97 179.261 111.965C180.707 112.845 182.823 113.574 184.51 112.917C184.911 112.777 185.278 112.555 185.587 112.266C185.896 111.977 186.14 111.627 186.302 111.238C186.465 110.85 186.543 110.432 186.532 110.012C186.52 109.591 186.419 109.178 186.235 108.799C185.064 106.548 180.48 105.943 178.224 106.31C178.056 106.334 175.766 106.976 175.193 107.167C176.349 105.881 177.511 104.611 178.711 103.401C180.32 101.764 182.035 100.231 183.844 98.8128C183.936 98.9461 186.351 102.511 188.028 103.53C189.474 104.411 191.59 105.134 193.277 104.482C193.679 104.342 194.046 104.12 194.355 103.831C194.663 103.542 194.907 103.192 195.07 102.803C195.233 102.415 195.311 101.997 195.299 101.577C195.288 101.157 195.187 100.744 195.003 100.365C193.831 98.1131 189.248 97.5086 186.992 97.8799C186.842 97.8799 185.102 98.3892 184.278 98.6367L184.211 98.5082C186.073 97.1296 188.055 95.9174 190.135 94.8858C191.272 94.3051 192.39 93.8148 193.509 93.3579C193.889 94.0671 195.668 97.2896 197.075 98.3702C198.483 99.4507 200.449 100.355 202.185 99.8886C202.599 99.7932 202.988 99.6127 203.327 99.359C203.666 99.1052 203.948 98.7838 204.153 98.4156C204.358 98.0475 204.482 97.6408 204.517 97.2221C204.553 96.8034 204.499 96.382 204.358 95.9854C203.443 93.6054 198.96 92.5201 196.675 92.6534C196.55 92.6534 195.292 92.8676 194.381 93.0247C194.863 92.8295 195.393 92.6153 195.875 92.4344C197.687 91.7537 199.384 91.2397 200.898 90.797C201.756 90.5495 202.541 90.321 203.274 90.1591C204.016 90.6637 207.029 92.6581 208.754 92.9675C210.48 93.2769 212.663 93.2008 213.994 91.9917C214.317 91.7184 214.578 91.3808 214.761 91.001C214.944 90.6212 215.043 90.2077 215.053 89.7874C215.063 89.3671 214.983 88.9495 214.819 88.5616C214.655 88.1738 214.41 87.8245 214.1 87.5364C212.172 85.8561 207.694 86.9223 205.722 88.0647C205.549 88.1647 203.067 90.0163 203.105 90.0449L203.149 90.0735C202.44 90.2353 201.678 90.421 200.849 90.6352C199.331 91.0493 197.61 91.53 195.779 92.1726C193.796 92.8547 191.855 93.6494 189.966 94.5526C187.845 95.5485 185.818 96.7272 183.907 98.075L183.844 98.1274C184.288 97.5324 185.483 95.8283 185.56 95.6855C186.64 93.6911 187.541 89.2167 185.763 87.3936C185.458 87.1002 185.094 86.8732 184.695 86.7274C184.296 86.5816 183.87 86.5202 183.445 86.5471C183.02 86.574 182.606 86.6887 182.229 86.8837C181.852 87.0787 181.52 87.3497 181.256 87.6792C180.09 89.0453 180.104 91.2444 180.48 92.8914C180.904 94.7478 183.425 98.0369 183.628 98.2987C181.719 99.7203 179.91 101.266 178.21 102.925C177.212 103.877 176.243 104.887 175.279 105.9C175.65 105.372 175.973 104.896 176.012 104.825C177.092 102.835 177.993 98.3559 176.214 96.5375C175.911 96.2429 175.548 96.0148 175.149 95.8681C174.749 95.7215 174.324 95.6597 173.899 95.6866C173.474 95.7136 173.06 95.8287 172.683 96.0246C172.306 96.2204 171.975 96.4925 171.713 96.8232C170.541 98.1845 170.556 100.384 170.932 102.031C171.308 103.678 173.409 106.553 173.973 107.295L172.874 108.471C171.129 110.375 169.399 112.255 167.64 114.059C167.023 114.697 166.386 115.301 165.755 115.911C166.083 115.435 166.357 115.044 166.391 114.959C167.471 112.969 168.372 108.49 166.594 106.672C166.29 106.377 165.926 106.149 165.527 106.003C165.128 105.856 164.702 105.794 164.277 105.82C163.852 105.847 163.437 105.961 163.06 106.156C162.683 106.351 162.351 106.623 162.087 106.952C160.921 108.319 160.935 110.518 161.311 112.165C161.687 113.812 163.581 116.406 164.251 117.296C163.586 117.896 162.921 118.5 162.246 119.057C161.764 119.424 161.354 119.809 160.863 120.157L159.441 121.194C158.515 121.827 157.561 122.48 156.64 123.075C155.999 123.489 155.387 123.874 154.765 124.265C155.392 123.636 156.587 122.384 156.693 122.27C157.84 120.635 158.543 118.738 158.737 116.758C158.873 116.582 158.993 116.394 159.094 116.196C159.296 115.826 159.417 115.418 159.449 114.999C159.481 114.579 159.423 114.158 159.279 113.762C159.136 113.366 158.909 113.004 158.615 112.701C158.321 112.397 157.965 112.157 157.571 111.998C155.161 111.108 151.367 113.697 149.945 115.468C149.859 115.573 149.078 116.806 148.596 117.591C148.808 117.086 149.02 116.601 149.232 116.077C149.656 115.049 150.051 114.012 150.476 112.893C150.664 112.346 150.856 111.793 151.044 111.236C151.232 110.68 151.387 110.085 151.565 109.504C151.946 108.142 152.264 106.753 152.553 105.339C153.464 105.705 156.727 106.957 158.443 106.9C160.159 106.843 162.299 106.3 163.355 104.839C163.611 104.504 163.793 104.118 163.889 103.709C163.985 103.299 163.993 102.874 163.912 102.462C163.83 102.049 163.662 101.658 163.417 101.314C163.172 100.97 162.857 100.68 162.492 100.465C160.26 99.2222 156.101 101.217 154.423 102.749C154.317 102.849 153.237 104.082 152.659 104.772C152.823 103.925 152.996 103.078 153.141 102.211C153.546 99.7125 153.879 97.1754 154.226 94.6431C154.327 93.8672 154.442 93.0961 154.553 92.325C154.876 92.4582 158.723 94.029 160.646 93.9624C162.352 93.9053 164.502 93.3626 165.553 91.9013C165.809 91.5662 165.992 91.1814 166.088 90.772C166.185 90.3626 166.192 89.9377 166.112 89.5251C166.031 89.1125 165.863 88.7213 165.618 88.377C165.374 88.0327 165.06 87.7431 164.695 87.5269C162.458 86.2893 158.298 88.2789 156.621 89.8164C156.496 89.9307 154.944 91.7204 154.573 92.1964C154.818 90.4971 155.055 88.8026 155.402 87.1413C155.834 84.8968 156.412 82.682 157.132 80.5106C157.281 80.5725 161.287 82.2337 163.258 82.1671C164.965 82.1052 167.114 81.5673 168.165 80.106C168.422 79.7705 168.604 79.3853 168.701 78.9756C168.797 78.5658 168.805 78.1406 168.724 77.7276C168.643 77.3146 168.475 76.923 168.231 76.5783C167.987 76.2336 167.672 75.9435 167.307 75.7268C165.071 74.4892 160.916 76.4789 159.234 78.0164C159.123 78.1163 157.942 79.4729 157.392 80.1298L157.267 80.0584C158.04 77.8956 159.008 75.8055 160.159 73.8133C160.786 72.709 161.441 71.6856 162.087 70.705C162.8 71.0906 166.083 72.809 167.871 72.947C169.577 73.0708 171.78 72.7661 172.98 71.4286C173.272 71.123 173.496 70.76 173.637 70.3634C173.778 69.9667 173.833 69.5452 173.798 69.1263C173.763 68.7073 173.639 68.3004 173.434 67.9319C173.229 67.5634 172.948 67.2416 172.609 66.9875C170.527 65.5119 166.174 67.0398 164.333 68.3869C164.237 68.4583 163.302 69.3104 162.632 69.9434C162.935 69.5055 163.244 69.0486 163.547 68.6344C164.675 67.0827 165.808 65.7261 166.815 64.5313C167.399 63.8602 167.938 63.2604 168.445 62.7082C169.346 62.7082 172.975 62.7463 174.585 62.0656C176.195 61.385 177.959 60.1283 178.412 58.3957C178.529 57.9907 178.559 57.5659 178.498 57.1491C178.438 56.7322 178.289 56.3325 178.062 55.9763C177.834 55.6201 177.533 55.3152 177.178 55.0817C176.824 54.8481 176.423 54.6912 176.002 54.621C173.467 54.2592 170.315 57.6007 169.307 59.6285C169.221 59.8046 168.184 62.7035 168.228 62.7035H168.285C167.803 63.2271 167.249 63.7935 166.68 64.4266C165.644 65.5976 164.478 66.9351 163.306 68.4678C162.029 70.1108 160.849 71.8258 159.773 73.6039C158.562 75.5898 157.531 77.6782 156.693 79.8442L156.664 79.9252C156.708 79.1826 156.746 77.112 156.732 76.9502C156.52 74.6987 154.77 70.4766 152.269 69.9292C151.851 69.8495 151.421 69.8576 151.007 69.9529C150.592 70.0482 150.203 70.2285 149.864 70.4822C149.524 70.7358 149.243 71.0572 149.038 71.4252C148.833 71.7933 148.708 72.1999 148.673 72.6185C148.485 74.394 149.724 76.2219 150.958 77.3881Z" fill="#9C9C9C"/>
<path d="M180.109 161.178V159.584C180.109 151.373 190.636 151.016 190.636 145.17C190.636 142.633 188.544 140.977 185.43 140.977C182.022 140.977 179.868 142.81 179.868 145.408V146.061C179.868 146.708 179.511 147.013 178.851 147.013L172.455 146.775C171.857 146.775 171.438 146.479 171.438 146.07V145.418C171.438 138.278 177.178 133.37 185.613 133.37C193.865 133.37 199.186 137.978 199.186 144.885C199.186 154.69 188.481 154.752 188.481 160.117V161.178C188.497 161.314 188.482 161.452 188.437 161.581C188.392 161.71 188.317 161.827 188.219 161.924C188.121 162.021 188.003 162.094 187.872 162.139C187.741 162.184 187.602 162.199 187.464 162.183H181.126C180.988 162.199 180.849 162.184 180.718 162.139C180.587 162.094 180.469 162.021 180.371 161.924C180.273 161.827 180.198 161.71 180.153 161.581C180.108 161.452 180.093 161.314 180.109 161.178ZM179.569 170.698C179.569 168.099 181.902 165.972 184.712 165.972C187.406 165.972 189.797 168.099 189.797 170.698C189.797 173.297 187.387 175.425 184.654 175.425C181.921 175.425 179.569 173.288 179.569 170.689V170.698Z" fill="#263238"/>
<path d="M53.7285 93.5388V92.1536C53.7285 85.0136 62.8865 84.7137 62.8865 79.6348C62.8865 77.4262 61.0694 75.9934 58.3702 75.9934C55.4059 75.9934 53.5502 77.5833 53.5502 79.8395V80.4059C53.5502 80.9676 53.2417 81.2247 52.6681 81.2247L47.1106 81.02C46.5901 81.02 46.2286 80.7629 46.2286 80.4059V79.8395C46.2286 73.6515 51.2125 69.3675 58.5389 69.3675C65.7062 69.3675 70.3334 73.3707 70.3334 79.3635C70.3334 87.8791 61.0308 87.9315 61.0308 92.601V93.5245C61.0447 93.6422 61.0315 93.7615 60.992 93.8734C60.9526 93.9854 60.8881 94.087 60.8032 94.1708C60.7184 94.2546 60.6154 94.3184 60.5021 94.3573C60.3887 94.3962 60.2679 94.4093 60.1487 94.3956H54.6106C54.4927 94.4089 54.3733 94.396 54.2612 94.3579C54.149 94.3198 54.0469 94.2574 53.9623 94.1752C53.8778 94.0931 53.8129 93.9933 53.7724 93.8832C53.732 93.773 53.717 93.6554 53.7285 93.5388ZM53.2465 101.797C53.2465 99.5411 55.2709 97.6943 57.7098 97.6943C60.0475 97.6943 62.1298 99.5411 62.1298 101.797C62.1298 104.054 60.0475 105.9 57.6616 105.9C56.5282 105.929 55.4295 105.513 54.6051 104.745C53.7807 103.976 53.2975 102.916 53.261 101.797H53.2465Z" fill="#FDD8EE"/>
<path d="M170.064 38.9178V38.2181C170.064 34.6147 174.682 34.4577 174.682 31.892C174.682 30.7782 173.761 30.0499 172.397 30.0499C170.903 30.0499 169.958 30.8543 169.958 31.9967V32.2823C169.958 32.5679 169.799 32.6965 169.51 32.6965L166.704 32.5917C166.439 32.5917 166.256 32.4632 166.256 32.2823V31.9967C166.256 28.8599 168.777 26.7084 172.479 26.7084C176.099 26.7084 178.436 28.7314 178.436 31.7635C178.436 36.0475 173.737 36.0903 173.737 38.4275V38.9035C173.744 38.9631 173.737 39.0235 173.717 39.0802C173.697 39.1368 173.664 39.1882 173.621 39.2304C173.578 39.2726 173.525 39.3046 173.468 39.3238C173.41 39.343 173.349 39.3491 173.289 39.3414H170.507C170.449 39.3488 170.389 39.3431 170.333 39.3246C170.277 39.3061 170.225 39.2754 170.183 39.2348C170.14 39.1941 170.107 39.1445 170.087 39.0896C170.066 39.0347 170.058 38.976 170.064 38.9178ZM169.828 43.0923C169.797 42.6472 169.902 42.2032 170.13 41.8181C170.358 41.433 170.698 41.1245 171.106 40.9328C171.514 40.7411 171.971 40.675 172.417 40.7432C172.864 40.8113 173.279 41.0106 173.609 41.315C173.94 41.6194 174.17 42.0149 174.269 42.4501C174.369 42.8853 174.333 43.3399 174.168 43.755C174.002 44.1701 173.714 44.5263 173.34 44.7774C172.967 45.0285 172.526 45.1628 172.074 45.1629C171.789 45.1731 171.504 45.1275 171.237 45.0289C170.969 44.9303 170.724 44.7805 170.516 44.5881C170.307 44.3957 170.139 44.1646 170.021 43.9079C169.903 43.6512 169.837 43.374 169.828 43.0923Z" fill="#FDD8EE"/>
<path d="M34.704 135.184V134.303C34.704 129.762 40.5265 129.567 40.5265 126.33C40.5265 124.926 39.3697 124.012 37.6345 124.012C35.7499 124.012 34.5594 125.026 34.5594 126.464V126.821C34.5594 127.182 34.3618 127.344 33.9954 127.344L30.4576 127.216C30.125 127.216 29.8936 127.049 29.8936 126.821V126.464C29.8936 122.513 33.07 119.8 37.7358 119.8C42.3003 119.8 45.2405 122.346 45.2405 126.169C45.2405 131.59 39.3215 131.624 39.3215 134.599V135.184C39.3309 135.259 39.3227 135.336 39.2977 135.408C39.2727 135.479 39.2314 135.545 39.1771 135.598C39.1227 135.652 39.0567 135.693 38.984 135.717C38.9113 135.742 38.8339 135.75 38.7576 135.741H35.2583C35.1827 135.749 35.1064 135.739 35.0349 135.714C34.9635 135.689 34.8987 135.648 34.8455 135.594C34.7923 135.541 34.7519 135.476 34.7274 135.405C34.7029 135.334 34.6949 135.258 34.704 135.184V135.184ZM34.4051 140.444C34.3674 139.883 34.5015 139.324 34.79 138.84C35.0784 138.355 35.5079 137.968 36.0225 137.728C36.5371 137.487 37.1129 137.406 37.6751 137.494C38.2372 137.581 38.7596 137.834 39.1743 138.219C39.5889 138.604 39.8766 139.103 39.9999 139.652C40.1232 140.201 40.0764 140.773 39.8655 141.295C39.6546 141.817 39.2895 142.265 38.8177 142.579C38.3458 142.893 37.7891 143.06 37.22 143.057C36.4946 143.08 35.7896 142.818 35.26 142.328C34.7303 141.838 34.4194 141.16 34.3955 140.444H34.4051Z" stroke="#263238" stroke-miterlimit="10"/>
<path d="M79.048 53.0169V52.4124C79.048 49.2898 83.0534 49.1518 83.0534 46.9289C83.0534 45.9769 82.2581 45.3343 81.0724 45.3343C79.7758 45.3343 78.9564 46.0292 78.9564 47.0193V47.2668C78.9564 47.5143 78.8214 47.6238 78.5708 47.6238L76.1608 47.5334C75.9343 47.5334 75.7752 47.4239 75.7752 47.2668V47.0193C75.7752 44.3013 77.9587 42.4354 81.164 42.4354C84.3693 42.4354 86.278 44.1871 86.278 46.8146C86.278 50.5465 82.2051 50.5703 82.2051 52.6123V53.0169C82.2113 53.0684 82.2056 53.1206 82.1884 53.1696C82.1712 53.2186 82.143 53.2631 82.1059 53.2997C82.0687 53.3364 82.0237 53.3642 81.9741 53.3812C81.9245 53.3982 81.8716 53.4038 81.8195 53.3977H79.4095C79.3593 53.4001 79.3091 53.3917 79.2625 53.373C79.216 53.3544 79.174 53.326 79.1397 53.2898C79.1053 53.2536 79.0793 53.2104 79.0634 53.1633C79.0476 53.1162 79.0423 53.0662 79.048 53.0169ZM78.8455 56.6345C78.8243 56.2542 78.9191 55.8763 79.1177 55.5497C79.3162 55.2231 79.6094 54.9629 79.9593 54.8026C80.3092 54.6423 80.6997 54.5893 81.0804 54.6505C81.4611 54.7117 81.8145 54.8843 82.0948 55.1459C82.3752 55.4076 82.5696 55.7462 82.653 56.1181C82.7364 56.49 82.7049 56.8781 82.5627 57.2321C82.4204 57.5862 82.1738 57.89 81.8549 58.1042C81.5359 58.3184 81.1593 58.4332 80.7735 58.4338C80.2757 58.4505 79.7915 58.2714 79.4273 57.9358C79.0631 57.6002 78.8487 57.1356 78.8311 56.644L78.8455 56.6345Z" fill="#263238"/>
<path d="M150.384 183.512V182.908C150.384 179.785 154.389 179.652 154.389 177.424C154.389 176.472 153.594 175.83 152.408 175.83C151.112 175.83 150.292 176.525 150.292 177.515V177.762C150.292 178.01 150.157 178.124 149.907 178.124L147.497 178.034C147.27 178.034 147.111 177.919 147.111 177.762V177.515C147.111 174.797 149.295 172.931 152.5 172.931C155.705 172.931 157.667 174.683 157.667 177.315C157.667 181.042 153.594 181.066 153.594 183.108V183.512C153.6 183.564 153.594 183.616 153.577 183.666C153.56 183.715 153.532 183.759 153.495 183.796C153.458 183.833 153.413 183.862 153.363 183.879C153.314 183.897 153.261 183.903 153.208 183.898H150.798C150.744 183.908 150.688 183.905 150.634 183.89C150.581 183.875 150.532 183.847 150.492 183.809C150.451 183.772 150.42 183.725 150.402 183.674C150.383 183.622 150.377 183.567 150.384 183.512V183.512ZM150.182 187.13C150.16 186.75 150.255 186.372 150.454 186.045C150.652 185.719 150.945 185.458 151.295 185.298C151.645 185.138 152.036 185.085 152.416 185.146C152.797 185.207 153.151 185.38 153.431 185.641C153.711 185.903 153.906 186.242 153.989 186.614C154.072 186.985 154.041 187.374 153.899 187.728C153.756 188.082 153.51 188.385 153.191 188.6C152.872 188.814 152.495 188.929 152.11 188.929C151.613 188.941 151.133 188.758 150.772 188.421C150.412 188.084 150.201 187.62 150.186 187.13H150.182Z" stroke="#263238" stroke-miterlimit="10"/>
<path d="M131.514 194.346C131.48 194.246 131.446 194.146 131.408 194.046C131.369 193.946 131.34 193.841 131.302 193.742C131.263 193.642 131.234 193.542 131.196 193.442C131.157 193.342 131.128 193.237 131.09 193.137C131.051 193.037 131.022 192.937 130.983 192.837C130.945 192.737 130.916 192.632 130.877 192.532L130.771 192.233C130.738 192.128 130.699 192.028 130.665 191.928L130.559 191.628C130.526 191.523 130.487 191.423 130.453 191.323L130.347 191.024C130.314 190.919 130.275 190.819 130.241 190.719L130.14 190.4C130.106 190.295 130.068 190.195 130.034 190.095L129.923 189.795C129.889 189.691 129.856 189.591 129.817 189.491C129.778 189.391 129.75 189.291 129.711 189.191C129.672 189.091 129.644 188.986 129.605 188.886C129.566 188.786 129.538 188.686 129.499 188.586C127.928 183.865 123.069 180.399 117.724 180.399C112.542 180.399 108.035 183.379 106.156 187.577C106.107 187.673 106.064 187.772 106.021 187.868L105.891 188.163C105.842 188.258 105.799 188.353 105.756 188.453C105.712 188.553 105.664 188.648 105.621 188.744L105.491 189.034C105.442 189.134 105.399 189.229 105.356 189.329C105.312 189.429 105.264 189.519 105.221 189.619C105.177 189.719 105.129 189.81 105.086 189.91L104.956 190.2C104.907 190.295 104.864 190.395 104.821 190.49C104.777 190.586 104.729 190.686 104.686 190.781L104.555 191.076C104.507 191.171 104.464 191.266 104.42 191.366C104.377 191.466 104.329 191.561 104.286 191.657L104.155 191.947C104.107 192.047 104.064 192.142 104.02 192.242C103.977 192.342 103.929 192.433 103.885 192.532L103.755 192.823C103.707 192.918 103.664 193.018 103.62 193.113C103.577 193.208 103.529 193.308 103.485 193.408C102.658 195.148 102.234 197.047 102.242 198.968C102.242 206.632 108.942 212.896 117.227 212.896C125.334 212.896 132.386 206.632 132.386 198.968C132.385 197.507 132.125 196.057 131.62 194.684C131.586 194.546 131.552 194.446 131.514 194.346Z" fill="#263238"/>
<path d="M120.047 88.9168C95.1902 88.9168 78.2672 103.363 78.2672 124.431V126.335C78.2717 126.65 78.3583 126.958 78.5187 127.23C78.6792 127.502 78.908 127.728 79.183 127.887C79.287 127.986 79.3999 128.075 79.5204 128.153C79.6248 128.254 79.7395 128.343 79.8626 128.42C79.967 128.52 80.0817 128.61 80.2048 128.687C80.3083 128.788 80.4231 128.877 80.547 128.953C80.6498 129.053 80.7629 129.143 80.8844 129.22C80.9888 129.322 81.1034 129.412 81.2266 129.491C81.3323 129.59 81.4469 129.679 81.5689 129.758C81.6736 129.858 81.7882 129.947 81.9111 130.024C82.0141 130.124 82.1271 130.213 82.2485 130.291C82.3617 130.399 82.4861 130.494 82.6196 130.576C82.7179 130.665 82.8226 130.746 82.9329 130.819C83.0386 130.918 83.1532 131.007 83.2751 131.086C83.3791 131.184 83.4921 131.274 83.6125 131.352C83.7182 131.451 83.8328 131.54 83.9548 131.619C84.0595 131.719 84.1741 131.808 84.297 131.885C84.4 131.985 84.513 132.075 84.6344 132.152C84.7391 132.252 84.8538 132.341 84.9766 132.418C85.0796 132.518 85.1927 132.608 85.314 132.685C85.4197 132.784 85.5342 132.873 85.6562 132.952C85.7592 133.051 85.8723 133.141 85.9936 133.218C86.5506 133.702 87.2772 133.952 88.018 133.913L103.519 134.484C105.115 134.484 105.982 133.77 105.982 132.195V130.624C105.982 124.326 111.197 119.895 119.478 119.895C127.012 119.895 132.082 123.898 132.082 130.053C132.083 130.754 132.015 131.454 131.88 132.142C124.101 142.215 103.852 146.656 103.852 166.205V170.908C103.852 172.812 104.907 173.864 106.85 173.864H125.513C127.441 173.864 128.511 172.821 128.511 170.908V167.771C128.511 151.93 160.067 151.754 160.067 122.856C160.067 102.492 144.373 88.9168 120.047 88.9168Z" fill="#263238"/>
<path d="M103.828 170.917V166.214C103.828 142.015 134.854 140.986 134.854 123.736C134.854 116.249 128.684 111.36 119.517 111.36C109.467 111.36 103.129 116.758 103.129 124.417V126.321C103.129 128.225 102.068 129.11 100.131 129.11L81.2652 128.411C79.5059 128.411 78.272 127.539 78.272 126.321V124.417C78.272 103.349 95.195 88.9025 120.052 88.9025C144.378 88.9025 160.058 102.478 160.058 122.851C160.058 151.749 128.501 151.925 128.501 167.766V170.903C128.501 172.807 127.441 173.859 125.503 173.859H106.826C104.883 173.873 103.828 172.831 103.828 170.917ZM102.242 198.968C102.242 191.309 109.115 185.04 117.401 185.04C125.334 185.04 132.386 191.309 132.386 198.968C132.386 206.627 125.32 212.872 117.227 212.872C108.932 212.872 102.242 206.608 102.242 198.968Z" fill="#FDD8EE" stroke="#FDD8EE" stroke-miterlimit="10"/>
<path d="M116.456 228.48C130.993 228.48 142.778 225.878 142.778 222.668C142.778 219.458 130.993 216.856 116.456 216.856C101.919 216.856 90.134 219.458 90.134 222.668C90.134 225.878 101.919 228.48 116.456 228.48Z" fill="#263238"/>
<path d="M96.3373 90.8446L95.33 93.0152C95.33 93.0152 89.4785 93.6387 89.4785 94.0719C89.4785 94.505 89.5411 97.4896 89.8592 97.6133C90.101 97.7063 90.3694 97.7063 90.6112 97.6133L99.2293 95.438L100.049 91.5872L96.3373 90.8446Z" fill="white" stroke="#263238" stroke-linecap="round" stroke-linejoin="round"/>
<path d="M94.6985 94.724C93.6284 95.5899 92.474 96.3488 91.2522 96.9898C89.8593 97.6086 89.8062 98.5463 90.2497 98.5463C90.6931 98.5463 94.6262 96.9184 94.6262 96.9184C94.6262 96.9184 98.1978 95.995 98.7136 95.7141C99.2293 95.4333 99.2872 93.872 99.2872 93.872" fill="white"/>
<path d="M94.6985 94.724C93.6284 95.5899 92.474 96.3488 91.2522 96.9898C89.8593 97.6086 89.8062 98.5463 90.2497 98.5463C90.6931 98.5463 94.6262 96.9184 94.6262 96.9184C94.6262 96.9184 98.1978 95.995 98.7136 95.7141C99.2293 95.4333 99.2872 93.872 99.2872 93.872" stroke="#263238" stroke-linecap="round" stroke-linejoin="round"/>
<path d="M101.485 49.1375L97.8894 76.3552L95.3878 91.0921L100.94 92.3869L105.081 74.9557L107.043 63.9839L101.485 49.1375Z" fill="#FDD8EE" stroke="#263238" stroke-linecap="round" stroke-linejoin="round"/>
<path d="M130.501 29.4311L128.308 29.0884L123.816 27.4081L123.652 32.6774L130.617 33.3105L130.501 29.4311Z" fill="white" stroke="#263238" stroke-linecap="round" stroke-linejoin="round"/>
<path d="M104.864 125.95C103.229 127.832 101.702 129.802 100.29 131.852C98.434 134.651 99.0895 137.659 101.379 138.416C103.669 139.173 106.604 137.121 107.37 135.508C108.137 133.894 107.915 133.037 109.11 131.424C110.306 129.81 111.289 128.196 110.855 126.045C110.421 123.893 106.04 124.446 104.864 125.95Z" fill="#FDD8EE" stroke="#263238" stroke-linecap="round" stroke-linejoin="round"/>
<path d="M107.149 135.912C106.994 135.589 106.816 135.246 106.604 134.879C104.854 131.838 101.784 132.081 99.8559 132.647C98.5883 135.203 99.3113 137.745 101.389 138.43C103.466 139.116 106.146 137.44 107.149 135.912Z" fill="white" stroke="#263238" stroke-linecap="round" stroke-linejoin="round"/>
<path d="M106.604 134.879C105.953 135.831 105.081 138.43 101.702 137.355C100.76 137.116 99.917 136.591 99.292 135.855C99.365 136.436 99.601 136.984 99.9732 137.439C100.345 137.894 100.839 138.238 101.398 138.43C103.683 139.182 106.623 137.136 107.39 135.522C108.156 133.908 107.934 133.052 109.13 131.438C110.325 129.824 111.308 128.211 110.874 126.059C110.874 128.639 109.91 129.067 108.696 130.467C107.481 131.866 107.259 133.908 106.604 134.879Z" fill="white" stroke="#263238" stroke-linecap="round" stroke-linejoin="round"/>
<path d="M137.008 125.95C138.643 127.832 140.17 129.802 141.583 131.852C143.438 134.651 142.783 137.659 140.493 138.416C138.204 139.173 135.268 137.121 134.502 135.508C133.736 133.894 133.957 133.037 132.762 131.424C131.567 129.81 130.583 128.196 131.017 126.045C131.451 123.893 135.813 124.446 137.008 125.95Z" fill="#FDD8EE" stroke="#263238" stroke-linecap="round" stroke-linejoin="round"/>
<path d="M134.729 135.912C134.878 135.589 135.056 135.246 135.268 134.879C137.018 131.838 140.088 132.081 142.016 132.647C143.284 135.203 142.561 137.745 140.484 138.43C138.406 139.116 135.726 137.44 134.729 135.912Z" fill="white" stroke="#263238" stroke-linecap="round" stroke-linejoin="round"/>
<path d="M135.268 134.879C135.919 135.831 136.792 138.43 140.17 137.355C141.113 137.116 141.955 136.591 142.58 135.855C142.507 136.436 142.271 136.984 141.899 137.439C141.527 137.894 141.033 138.238 140.474 138.43C138.189 139.182 135.249 137.136 134.483 135.522C133.716 133.908 133.938 133.052 132.743 131.438C131.547 129.824 130.564 128.211 130.998 126.059C130.998 128.639 131.962 129.067 133.177 130.467C134.391 131.866 134.613 133.908 135.268 134.879Z" fill="white" stroke="#263238" stroke-linecap="round" stroke-linejoin="round"/>
<path d="M142.118 88.8359C142.118 86.8986 138.744 84.7471 138.744 84.7471C133.659 79.6396 124.481 80.3155 121.093 80.7725C117.719 80.2965 108.532 79.6396 103.447 84.7471C103.447 84.7471 100.073 86.8986 100.073 88.8359C100.073 90.7733 104.324 125.735 104.324 125.735C104.324 125.735 104.213 127.563 107.264 127.777C110.315 127.992 111.602 126.273 111.602 126.273L112.802 96.6899C112.802 96.6899 117.704 93.2437 118.586 93.139C118.905 93.0961 119.319 93.0295 119.782 92.9724V93.0295C120.645 92.8517 121.536 92.8517 122.399 93.0295V92.9724C122.881 93.0295 123.271 93.0961 123.594 93.139C124.467 93.2437 129.378 96.6899 129.378 96.6899L130.579 126.273C130.579 126.273 131.885 127.992 134.917 127.777C137.948 127.563 137.857 125.735 137.857 125.735C137.857 125.735 142.118 90.7733 142.118 88.8359Z" fill="#263238" stroke="#263238" stroke-linecap="round" stroke-linejoin="round"/>
<path d="M129.374 96.6899C129.374 96.6899 128.718 89.588 131.88 86.8986" stroke="#707070" stroke-linecap="round" stroke-linejoin="round"/>
<path d="M112.817 96.6899C112.817 96.6899 113.145 90.7732 112.489 88.6217C111.834 86.4702 110.744 85.6086 110.744 85.6086" stroke="#707070" stroke-linecap="round" stroke-linejoin="round"/>
<path d="M116.846 82.5955C116.846 82.5955 120.331 86.5749 120.987 89.9116" stroke="#707070" stroke-linecap="round" stroke-linejoin="round"/>
<path d="M124.472 82.824C124.472 82.824 122.51 84.9756 122.293 86.5892" stroke="#707070" stroke-linecap="round" stroke-linejoin="round"/>
<path d="M119.57 40.9646C119.57 40.9646 116.413 40.5315 115.323 41.6072C114.234 42.683 110.527 46.6481 110.527 46.6481L112.489 80.8582C112.489 80.8582 116.957 82.5813 120.77 82.5813C124.583 82.5813 128.94 81.1819 129.928 80.4298C130.916 79.6777 130.039 42.9924 130.039 42.9924C130.039 42.9924 121.946 40.6409 119.57 40.9646Z" fill="#FDD8EE" stroke="#263238" stroke-linecap="round" stroke-linejoin="round"/>
<path d="M125.344 41.7166C127.002 41.468 128.675 41.3233 130.352 41.2835C132.531 41.2835 134.69 41.393 134.69 41.393L140.137 36.2284L129.176 33.7532L130.048 28.8075C130.048 28.8075 138.107 28.2696 142.137 29.0217C146.166 29.7738 152.485 31.7111 152.813 31.7111C153.141 31.7111 153.575 32.8964 153.247 33.7532C152.919 34.61 142.672 45.8055 139.611 48.7091C137.609 50.6468 135.718 52.6936 133.948 54.84L132.55 78.8304C132.55 78.8304 136.146 80.7677 136.801 81.4103C137.457 82.0529 138.218 84.6376 138.218 84.6376C138.218 84.6376 131.572 81.9482 129.827 81.734C128.082 81.5198 126.997 81.4103 126.67 80.782C126.342 80.1537 123.619 51.4128 123.619 51.4128L123.729 42.2688C123.729 42.2688 123.71 41.7166 125.344 41.7166Z" fill="#FDD8EE" stroke="#263238" stroke-linecap="round" stroke-linejoin="round"/>
<path d="M131.88 56.4536L125.995 57.2057L126.539 59.3572L129.484 60.1093L132.314 58.8193L131.88 56.4536Z" stroke="#263238" stroke-linecap="round" stroke-linejoin="round"/>
<path d="M135.254 43.5445L133.948 54.84L137.327 45.2676" stroke="#263238" stroke-linecap="round" stroke-linejoin="round"/>
<path d="M140.156 36.2284C140.156 36.2284 142.879 36.7663 147.02 35.1526" stroke="#263238" stroke-linecap="round" stroke-linejoin="round"/>
<path d="M142.99 36.9805C144.779 37.0297 146.568 36.886 148.326 36.5521" stroke="#263238" stroke-linecap="round" stroke-linejoin="round"/>
<path d="M115.868 40.8551L116.413 48.7091C116.909 49.354 117.552 49.8748 118.29 50.2295C119.027 50.5841 119.839 50.7628 120.659 50.7511C123.382 50.6464 123.71 48.7091 123.71 48.7091V42.2545L115.868 40.8551Z" fill="white" stroke="#263238" stroke-linecap="round" stroke-linejoin="round"/>
<path d="M123.816 44.9439L123.599 51.408L125.889 47.857C125.889 47.857 128.395 50.9748 129.046 50.8701C129.697 50.7654 128.612 49.4707 128.395 48.2902C128.178 47.1097 126.323 42.9066 126.106 41.7262C125.889 40.5457 123.816 40.3267 123.696 40.8646C123.635 41.3292 123.635 41.7995 123.696 42.264L123.816 44.9439Z" fill="#FDD8EE" stroke="#263238" stroke-linecap="round" stroke-linejoin="round"/>
<path d="M116.302 50.7512C116.302 50.7512 116.736 80.8724 115.646 81.2152C114.557 81.5579 110.2 81.6483 107.452 82.9383C104.705 84.2282 103.423 84.7661 103.423 84.7661C103.423 84.7661 104.729 81.6483 106.257 80.2489C107.272 79.3475 108.408 78.5868 109.631 77.9879L106.802 63.5746C106.802 63.5746 101.572 49.9086 101.461 49.1566C101.35 48.4045 111.376 42.8115 113.444 41.8404C115.511 40.8694 116.061 41.7357 116.061 41.7357L116.302 50.7512Z" fill="#FDD8EE" stroke="#263238" stroke-linecap="round" stroke-linejoin="round"/>
<path d="M113.578 40.3172C113.578 40.3172 110.966 48.4949 110.744 49.5707C110.523 50.6464 110.744 50.6464 111.511 49.8896C112.277 49.1327 114.234 47.3097 114.234 47.3097L116.302 50.7512L116.191 44.4061V40.7456C116.191 40.7456 116.085 39.2415 113.578 40.3172Z" fill="#FDD8EE" stroke="#263238" stroke-linecap="round" stroke-linejoin="round"/>
<path d="M108.46 57.9625H114.885L114.779 60.5424L111.944 61.5087L108.349 60.5424L108.46 57.9625Z" stroke="#263238" stroke-linecap="round" stroke-linejoin="round"/>
<path d="M126.106 29.6691C126.106 29.6691 127.629 36.2284 127.957 37.2851C128.284 38.3418 126.217 42.5592 125.547 43.5255C125.292 43.9446 124.941 44.2989 124.522 44.5601C124.104 44.8213 123.629 44.9821 123.137 45.0296C122.375 45.0296 118.235 43.635 117.251 42.9876C116.268 42.3402 115.294 41.5882 115.294 41.5882C114.831 41.7968 114.316 41.8674 113.813 41.7913C113.309 41.7152 112.839 41.4957 112.46 41.1598C111.154 39.9745 109.409 38.5751 109.843 37.6088C110.054 37.1346 110.408 36.7361 110.856 36.467C111.305 36.198 111.826 36.0715 112.349 36.1046C113.55 36.1046 113.116 35.9952 113.116 35.9952C113.116 35.9952 110.937 32.8774 110.937 30.4022C110.937 27.927 115.617 26.1182 118.341 26.1182C120.224 26.1957 122.073 26.6338 123.787 27.4081L126.106 29.6691Z" fill="white" stroke="#263238" stroke-linecap="round" stroke-linejoin="round"/>
<path d="M122.293 32.1395L124.255 35.8L122.293 37.0899L121.421 36.0142" stroke="#263238" stroke-linecap="round" stroke-linejoin="round"/>
<path d="M125.889 35.4763C125.889 35.4763 125.995 36.3379 124.689 37.7373" stroke="#263238" stroke-linecap="round" stroke-linejoin="round"/>
<path d="M120.225 33.4866C120.225 33.9912 120.004 34.4005 119.743 34.4005C119.483 34.4005 119.261 33.9912 119.261 33.4866C119.261 32.9821 119.483 32.5727 119.743 32.5727C120.004 32.5727 120.225 32.9821 120.225 33.4866Z" fill="#263238"/>
<path d="M123.652 32.6774C123.924 32.6774 124.144 32.2683 124.144 31.7635C124.144 31.2588 123.924 30.8496 123.652 30.8496C123.381 30.8496 123.161 31.2588 123.161 31.7635C123.161 32.2683 123.381 32.6774 123.652 32.6774Z" fill="#263238"/>
<path d="M114.34 24.0713C114.34 24.0713 107.486 26.5465 107.259 29.6691C107.033 32.7917 113.362 37.0899 113.689 37.6278C114.017 38.1657 114.996 36.9805 114.996 36.9805C114.778 36.6914 114.626 36.3593 114.55 36.0068C114.474 35.6544 114.477 35.2899 114.557 34.9384C114.885 33.8627 116.302 32.5584 116.302 32.0348C116.302 31.5112 114.668 32.4632 114.668 30.8496C114.668 29.2359 118.697 28.2697 121.093 28.3744C123.488 28.4791 125.561 32.4632 127.306 30.5259C129.051 28.5886 126.539 28.0555 126.539 28.0555C126.539 28.0555 129.913 27.6223 129.913 25.9039C129.913 24.1856 128.169 22.9956 127.407 22.9956C126.645 22.9956 124.578 24.2903 124.578 22.8909C124.578 21.4914 126.645 20.8441 124.684 18.6069C122.722 16.3697 120.22 18.6069 120.22 19.4684C120.22 20.33 119.565 21.9389 119.131 21.9389C118.697 21.9389 117.386 20.0063 115.863 21.0821C115.405 21.4417 115.032 21.8952 114.769 22.4113C114.506 22.9275 114.36 23.4939 114.34 24.0713Z" fill="#263238" stroke="#263238" stroke-linecap="round" stroke-linejoin="round"/>
<path d="M117.174 32.3585L120.659 31.0638" stroke="#263238" stroke-linecap="round" stroke-linejoin="round"/>
<path d="M121.204 29.5597C121.137 29.222 121.192 28.8719 121.358 28.5696" stroke="#263238" stroke-linecap="round" stroke-linejoin="round"/>
<path d="M121.358 28.5601C121.604 28.0841 122.158 27.47 123.382 26.9702" stroke="white" stroke-linecap="round" stroke-linejoin="round"/>
</g>
<defs>
<filter id="filter0_d" x="-4" y="0" width="249" height="246" filterUnits="userSpaceOnUse" color-interpolation-filters="sRGB">
<feFlood flood-opacity="0" result="BackgroundImageFix"/>
<feColorMatrix in="SourceAlpha" type="matrix" values="0 0 0 0 0 0 0 0 0 0 0 0 0 0 0 0 0 0 127 0"/>
<feOffset dy="4"/>
<feGaussianBlur stdDeviation="2"/>
<feColorMatrix type="matrix" values="0 0 0 0 0 0 0 0 0 0 0 0 0 0 0 0 0 0 0.25 0"/>
<feBlend mode="normal" in2="BackgroundImageFix" result="effect1_dropShadow"/>
<feBlend mode="normal" in="SourceGraphic" in2="effect1_dropShadow" result="shape"/>
</filter>
</defs>
</svg>
