<?xml version="1.0" encoding="utf-8"?>
<!-- Generator: Adobe Illustrator 16.0.0, SVG Export Plug-In . SVG Version: 6.00 Build 0)  -->
<!DOCTYPE svg PUBLIC "-//W3C//DTD SVG 1.1//EN" "http://www.w3.org/Graphics/SVG/1.1/DTD/svg11.dtd">
<svg version="1.1" xmlns="http://www.w3.org/2000/svg" xmlns:xlink="http://www.w3.org/1999/xlink" x="0px" y="0px"
	 width="595.28px" height="595.28px" viewBox="0 0 595.28 595.28" enable-background="new 0 0 595.28 595.28" xml:space="preserve">
<g id="Calque_6">
	<path fill="#00AEEF" d="M285.5,300c0,0-39.5-38.5-78.5,0c0,0-48,51,32.5,107c0,0,33,27.5,46,43.5V300z"/>
</g>
<g id="Calque_7">
	<line fill="#00AEEF" stroke="#00AEEF" stroke-miterlimit="10" x1="325.083" y1="286.167" x2="332.583" y2="308.083"/>
	<line fill="#00AEEF" stroke="#00AEEF" stroke-miterlimit="10" x1="327.268" y1="292.551" x2="329.583" y2="287.167"/>
	<line fill="#00AEEF" stroke="#00AEEF" stroke-miterlimit="10" x1="329.167" y1="299.25" x2="306.417" y2="289.333"/>
	<line fill="#00AEEF" stroke="#00AEEF" stroke-miterlimit="10" x1="315.333" y1="292.551" x2="317.417" y2="287.583"/>
	<line fill="#00AEEF" stroke="#00AEEF" stroke-miterlimit="10" x1="337.917" y1="288.583" x2="345.917" y2="313.167"/>
	<line fill="#00AEEF" stroke="#00AEEF" stroke-miterlimit="10" x1="325.083" y1="305.167" x2="328.426" y2="316.667"/>
	<line fill="#00AEEF" stroke="#00AEEF" stroke-miterlimit="10" x1="296.167" y1="299.25" x2="304" y2="296.083"/>
	<line fill="#00AEEF" stroke="#00AEEF" stroke-miterlimit="10" x1="360.25" y1="304.658" x2="351" y2="325.741"/>
	<line fill="#00AEEF" stroke="#00AEEF" stroke-miterlimit="10" x1="315.333" y1="300.875" x2="323.917" y2="327.408"/>
	<line fill="#00AEEF" stroke="#00AEEF" stroke-miterlimit="10" x1="327.268" y1="321.824" x2="337.917" y2="317.158"/>
	<line fill="#00AEEF" stroke="#00AEEF" stroke-miterlimit="10" x1="299.083" y1="309.908" x2="306.833" y2="306.324"/>
	<line fill="#00AEEF" stroke="#00AEEF" stroke-miterlimit="10" x1="300.417" y1="314.574" x2="313.167" y2="320.324"/>
	<line fill="#00AEEF" stroke="#00AEEF" stroke-miterlimit="10" x1="353.167" y1="297.125" x2="329.167" y2="352.167"/>
	<line fill="#00AEEF" stroke="#00AEEF" stroke-miterlimit="10" x1="332.583" y1="308.083" x2="316.5" y2="345"/>
	<line fill="#00AEEF" stroke="#00AEEF" stroke-miterlimit="10" x1="316.5" y1="345" x2="320.5" y2="356"/>
	<line fill="#00AEEF" stroke="#00AEEF" stroke-miterlimit="10" x1="294.5" y1="297.125" x2="306.833" y2="335.667"/>
	<line fill="#00AEEF" stroke="#00AEEF" stroke-miterlimit="10" x1="306.833" y1="335.667" x2="285.5" y2="383.167"/>
	<line fill="#00AEEF" stroke="#00AEEF" stroke-miterlimit="10" x1="285.5" y1="318.333" x2="293.667" y2="321.824"/>
	<line fill="#00AEEF" stroke="#00AEEF" stroke-miterlimit="10" x1="293.667" y1="321.824" x2="300.417" y2="343.167"/>
	<line fill="#00AEEF" stroke="#00AEEF" stroke-miterlimit="10" x1="300.417" y1="343.167" x2="287.167" y2="374"/>
	<line fill="#00AEEF" stroke="#00AEEF" stroke-miterlimit="10" x1="287.167" y1="374" x2="289.583" y2="375.167"/>
	<line fill="#00AEEF" stroke="#00AEEF" stroke-miterlimit="10" x1="285.5" y1="330.333" x2="292.333" y2="350.5"/>
	<line fill="#00AEEF" stroke="#00AEEF" stroke-miterlimit="10" x1="292.333" y1="350.5" x2="285.5" y2="365.667"/>
	<line fill="#00AEEF" stroke="#00AEEF" stroke-miterlimit="10" x1="285.5" y1="341.167" x2="289.849" y2="343.167"/>
	<line fill="#00AEEF" stroke="#00AEEF" stroke-miterlimit="10" x1="306.792" y1="329.499" x2="315.333" y2="357.166"/>
	<line fill="#00AEEF" stroke="#00AEEF" stroke-miterlimit="10" x1="327.268" y1="330.333" x2="318.5" y2="349.333"/>
	<line fill="#00AEEF" stroke="#00AEEF" stroke-miterlimit="10" x1="316.5" y1="329.499" x2="319.625" y2="337.827"/>
	<line fill="#00AEEF" stroke="#00AEEF" stroke-miterlimit="10" x1="297.64" y1="366.694" x2="329.167" y2="352.167"/>
	<line fill="#00AEEF" stroke="#00AEEF" stroke-miterlimit="10" x1="297.64" y1="366.694" x2="285.5" y2="393.666"/>
	<line fill="#00AEEF" stroke="#00AEEF" stroke-miterlimit="10" x1="313.403" y1="366.694" x2="300.417" y2="373.006"/>
	<line fill="#00AEEF" stroke="#00AEEF" stroke-miterlimit="10" x1="300.417" y1="373.006" x2="285.5" y2="406.506"/>
	<line fill="#00AEEF" stroke="#00AEEF" stroke-miterlimit="10" x1="297.64" y1="392.18" x2="285.5" y2="419.846"/>
	<line fill="#00AEEF" stroke="#00AEEF" stroke-miterlimit="10" x1="299.667" y1="406.013" x2="285.5" y2="438.18"/>
	<line fill="#00AEEF" stroke="#00AEEF" stroke-miterlimit="10" x1="309.667" y1="391.013" x2="285.5" y2="445.18"/>
	<line fill="#00AEEF" stroke="#00AEEF" stroke-miterlimit="10" x1="327.268" y1="364.18" x2="304.167" y2="416.179"/>
	<line fill="#00AEEF" stroke="#00AEEF" stroke-miterlimit="10" x1="297.64" y1="417.013" x2="304.167" y2="416.179"/>
	<line fill="#00AEEF" stroke="#00AEEF" stroke-miterlimit="10" x1="294.516" y1="399.3" x2="302.167" y2="396.179"/>
	<line fill="#00AEEF" stroke="#00AEEF" stroke-miterlimit="10" x1="306.792" y1="380.18" x2="309.667" y2="391.013"/>
	<line fill="#00AEEF" stroke="#00AEEF" stroke-miterlimit="10" x1="311.063" y1="379.346" x2="315.333" y2="391.013"/>
	<line fill="#00AEEF" stroke="#00AEEF" stroke-miterlimit="10" x1="328.833" y1="345" x2="325.083" y2="354.049"/>
	<line fill="#00AEEF" stroke="#00AEEF" stroke-miterlimit="10" x1="306.792" y1="353" x2="309" y2="360.167"/>
	<line fill="#00AEEF" stroke="#00AEEF" stroke-miterlimit="10" x1="315.333" y1="377.333" x2="312.6" y2="367.085"/>
	<line fill="#00AEEF" stroke="#00AEEF" stroke-miterlimit="10" x1="337.917" y1="349.524" x2="332.592" y2="361.5"/>
	<line fill="#00AEEF" stroke="#00AEEF" stroke-miterlimit="10" x1="327.268" y1="364.18" x2="344.5" y2="356.584"/>
	<line fill="#00AEEF" stroke="#00AEEF" stroke-miterlimit="10" x1="351" y1="336.333" x2="341.167" y2="358.053"/>
	<line fill="#00AEEF" stroke="#00AEEF" stroke-miterlimit="10" x1="343.833" y1="337.827" x2="346.568" y2="346.122"/>
	<line fill="#00AEEF" stroke="#00AEEF" stroke-miterlimit="10" x1="366.833" y1="318.333" x2="337.917" y2="332.1"/>
	<line fill="#00AEEF" stroke="#00AEEF" stroke-miterlimit="10" x1="363.5" y1="333.663" x2="348" y2="368.165"/>
	<line fill="#00AEEF" stroke="#00AEEF" stroke-miterlimit="10" x1="325.083" y1="379.346" x2="366.833" y2="359.431"/>
	<line fill="#00AEEF" stroke="#00AEEF" stroke-miterlimit="10" x1="371.667" y1="345" x2="365.289" y2="360.167"/>
	<line fill="#00AEEF" stroke="#00AEEF" stroke-miterlimit="10" x1="361.167" y1="354.049" x2="356.877" y2="364.18"/>
	<line fill="#00AEEF" stroke="#00AEEF" stroke-miterlimit="10" x1="359.021" y1="322.052" x2="370.667" y2="327.408"/>
	<line fill="#00AEEF" stroke="#00AEEF" stroke-miterlimit="10" x1="363.5" y1="368.165" x2="328.833" y2="383.167"/>
	<line fill="#00AEEF" stroke="#00AEEF" stroke-miterlimit="10" x1="325.083" y1="379.346" x2="307.896" y2="417.013"/>
	<line fill="#00AEEF" stroke="#00AEEF" stroke-miterlimit="10" x1="315.717" y1="399.872" x2="322.167" y2="397.739"/>
	<line fill="#00AEEF" stroke="#00AEEF" stroke-miterlimit="10" x1="328.833" y1="383.167" x2="322.167" y2="397.739"/>
	<line fill="#00AEEF" stroke="#00AEEF" stroke-miterlimit="10" x1="333.667" y1="388.172" x2="328.833" y2="401.005"/>
	<line fill="#00AEEF" stroke="#00AEEF" stroke-miterlimit="10" x1="328.833" y1="401.005" x2="315.717" y2="406.506"/>
	<line fill="#00AEEF" stroke="#00AEEF" stroke-miterlimit="10" x1="315.717" y1="406.506" x2="309.667" y2="418.096"/>
	<line fill="#00AEEF" stroke="#00AEEF" stroke-miterlimit="10" x1="333.667" y1="388.172" x2="341.167" y2="384.339"/>
	<line fill="#00AEEF" stroke="#00AEEF" stroke-miterlimit="10" x1="341.167" y1="384.339" x2="348" y2="387.339"/>
	<line fill="#00AEEF" stroke="#00AEEF" stroke-miterlimit="10" x1="292.958" y1="428.463" x2="307.896" y2="417.013"/>
	<line fill="#00AEEF" stroke="#00AEEF" stroke-miterlimit="10" x1="288.917" y1="437.521" x2="310.232" y2="417.013"/>
	<line fill="#00AEEF" stroke="#00AEEF" stroke-miterlimit="10" x1="323.7" y1="372.209" x2="341.167" y2="364.18"/>
	<circle fill="#00AEEF" stroke="#00AEEF" stroke-miterlimit="10" cx="349.792" cy="388.172" r="2"/>
	<circle fill="#00AEEF" stroke="#00AEEF" stroke-miterlimit="10" cx="364.833" cy="367.596" r="2"/>
	<circle fill="#00AEEF" stroke="#00AEEF" stroke-miterlimit="10" cx="342.762" cy="363.5" r="2"/>
	<circle fill="#00AEEF" stroke="#00AEEF" stroke-miterlimit="10" cx="343.167" cy="336.333" r="2"/>
	<circle fill="#00AEEF" stroke="#00AEEF" stroke-miterlimit="10" cx="351.674" cy="334.775" r="2"/>
	<circle fill="#00AEEF" stroke="#00AEEF" stroke-miterlimit="10" cx="364.205" cy="332.1" r="2"/>
	<circle fill="#00AEEF" stroke="#00AEEF" stroke-miterlimit="10" cx="372.29" cy="343.428" r="2"/>
	<circle fill="#00AEEF" stroke="#00AEEF" stroke-miterlimit="10" cx="346.084" cy="355.828" r="2"/>
	<circle fill="#00AEEF" stroke="#00AEEF" stroke-miterlimit="10" cx="361.959" cy="352.584" r="2"/>
	<circle fill="#00AEEF" stroke="#00AEEF" stroke-miterlimit="10" cx="338.625" cy="347.912" r="2"/>
	<circle fill="#00AEEF" stroke="#00AEEF" stroke-miterlimit="10" cx="329.268" cy="343.428" r="2"/>
	<circle fill="#00AEEF" stroke="#00AEEF" stroke-miterlimit="10" cx="327.94" cy="328.751" r="2"/>
	<circle fill="#00AEEF" stroke="#00AEEF" stroke-miterlimit="10" cx="372.29" cy="327.741" r="2"/>
	<circle fill="#00AEEF" stroke="#00AEEF" stroke-miterlimit="10" cx="303.568" cy="395.666" r="2"/>
	<circle fill="#00AEEF" stroke="#00AEEF" stroke-miterlimit="10" cx="298.341" cy="390.63" r="2"/>
	<circle fill="#00AEEF" stroke="#00AEEF" stroke-miterlimit="10" cx="306.167" cy="378.554" r="2"/>
	<circle fill="#00AEEF" stroke="#00AEEF" stroke-miterlimit="10" cx="310.691" cy="377.666" r="2"/>
	<circle fill="#00AEEF" stroke="#00AEEF" stroke-miterlimit="10" cx="315.718" cy="378.815" r="2"/>
	<circle fill="#00AEEF" stroke="#00AEEF" stroke-miterlimit="10" cx="300.428" cy="404.506" r="2"/>
	<circle fill="#00AEEF" stroke="#00AEEF" stroke-miterlimit="10" cx="306.167" cy="351.524" r="2"/>
	<circle fill="#00AEEF" stroke="#00AEEF" stroke-miterlimit="10" cx="315.966" cy="327.897" r="2"/>
	<circle fill="#00AEEF" stroke="#00AEEF" stroke-miterlimit="10" cx="306.792" cy="327.897" r="2"/>
	<circle fill="#00AEEF" stroke="#00AEEF" stroke-miterlimit="10" cx="314.5" cy="321.491" r="2"/>
	<circle fill="#00AEEF" stroke="#00AEEF" stroke-miterlimit="10" cx="307.896" cy="305.167" r="2"/>
	<circle fill="#00AEEF" stroke="#00AEEF" stroke-miterlimit="10" cx="305.32" cy="295.125" r="2"/>
	<circle fill="#00AEEF" stroke="#00AEEF" stroke-miterlimit="10" cx="317.792" cy="286.167" r="2"/>
	<circle fill="#00AEEF" stroke="#00AEEF" stroke-miterlimit="10" cx="304.958" cy="288.583" r="2"/>
	<circle fill="#00AEEF" stroke="#00AEEF" stroke-miterlimit="10" cx="324.542" cy="284.583" r="2"/>
	<circle fill="#00AEEF" stroke="#00AEEF" stroke-miterlimit="10" cx="330.095" cy="285.583" r="2"/>
	<circle fill="#00AEEF" stroke="#00AEEF" stroke-miterlimit="10" cx="325.083" cy="303.536" r="2"/>
	<circle fill="#00AEEF" stroke="#00AEEF" stroke-miterlimit="10" cx="314.5" cy="299.25" r="2"/>
	<circle fill="#00AEEF" stroke="#00AEEF" stroke-miterlimit="10" cx="339.167" cy="316.396" r="2"/>
	<circle fill="#00AEEF" stroke="#00AEEF" stroke-miterlimit="10" cx="368.205" cy="317.449" r="2"/>
	<circle fill="#00AEEF" stroke="#00AEEF" stroke-miterlimit="10" cx="360.589" cy="303.167" r="2"/>
	<circle fill="#00AEEF" stroke="#00AEEF" stroke-miterlimit="10" cx="353.674" cy="295.64" r="2"/>
	<circle fill="#00AEEF" stroke="#00AEEF" stroke-miterlimit="10" cx="337.437" cy="287.167" r="2"/>
	<circle fill="#00AEEF" stroke="#00AEEF" stroke-miterlimit="10" cx="293.792" cy="295.64" r="2"/>
</g>
</svg>
