<?xml version="1.0" encoding="utf-8"?>
<!-- Generator: Adobe Illustrator 16.0.0, SVG Export Plug-In . SVG Version: 6.00 Build 0)  -->
<!DOCTYPE svg PUBLIC "-//W3C//DTD SVG 1.1//EN" "http://www.w3.org/Graphics/SVG/1.1/DTD/svg11.dtd">
<svg version="1.1" id="logo_coeur_web" xmlns="http://www.w3.org/2000/svg" xmlns:xlink="http://www.w3.org/1999/xlink" x="0px"
	 y="0px" width="283.465px" height="272.125px" viewBox="0 0 283.465 272.125" enable-background="new 0 0 283.465 272.125"
	 xml:space="preserve">
<g id="text_web">
	<g id="ombre">
		<path fill="#DB3630" d="M142.762,214.347l-17.601,48.28l-1.391,3.687c-0.765,2.157-2.783,3.617-5.148,3.688h-0.835
			c-1.878,0-3.617-1.184-4.243-2.991l-9.948-27.271l-9.53,26.296l-0.209,0.488l-0.139,0.486c-0.695,1.808-2.366,2.991-4.313,2.991
			h-0.765c-2.365-0.07-4.452-1.53-5.217-3.688l-1.322-3.687l-17.601-48.28h10.018c1.878,0,3.618,1.184,4.244,2.923l9.948,27.27
			l8.348-22.888l1.183-3.408c0.069-0.14,0.139-0.209,0.139-0.348c0-0.07,0.069-0.07,0.069-0.07l0.139-0.556
			c0.696-1.739,2.365-2.991,4.313-2.923h1.6c1.878,0,3.479,1.184,4.105,2.923l9.948,27.27l9.948-27.27
			c0.626-1.739,2.295-2.923,4.243-2.923H142.762z"/>
		<path fill="#DB3630" d="M149.711,214.347h28.314c2.643,0,4.869,2.157,4.869,4.87v8.349h-19.966v8h19.966v13.218h-19.966v8h19.966
			v13.218h-33.184V214.347z"/>
		<path fill="#DB3630" d="M193.326,214.347h19.27c10.227,0,18.505,7.374,18.505,16.488v0.209c0,4.313-1.81,8.209-4.8,11.13
			c2.99,2.922,4.8,6.817,4.8,11.062v0.278c0,9.113-8.278,16.487-18.505,16.487h-19.27V214.347z M212.596,236.749
			c3.408-0.07,6.122-2.505,6.331-5.496v-0.557c-0.209-3.061-2.992-5.495-6.54-5.495H205.5v11.548H212.596z M212.387,259.15
			c3.548,0,6.331-2.437,6.54-5.497v-0.557c-0.209-2.991-2.923-5.425-6.331-5.495H205.5v11.549H212.387z"/>
	</g>
	<g>
		<g>
			<path fill="#ED6258" d="M139.927,211.512l-17.6,48.28l-1.391,3.687c-0.765,2.157-2.783,3.617-5.148,3.688h-0.835
				c-1.878,0-3.617-1.184-4.243-2.991l-9.948-27.271l-9.53,26.296l-0.209,0.488l-0.139,0.486c-0.695,1.808-2.366,2.991-4.313,2.991
				h-0.765c-2.365-0.07-4.452-1.53-5.217-3.688l-1.322-3.687l-17.601-48.28h10.018c1.878,0,3.618,1.184,4.244,2.923l9.948,27.27
				l8.348-22.888l1.183-3.408c0.069-0.14,0.139-0.209,0.139-0.348c0-0.07,0.069-0.07,0.069-0.07l0.139-0.556
				c0.696-1.739,2.365-2.991,4.313-2.923h1.6c1.878,0,3.479,1.184,4.105,2.923l9.948,27.27l9.948-27.27
				c0.626-1.739,2.295-2.923,4.243-2.923H139.927z"/>
		</g>
		<g>
			<path fill="#ED6258" d="M146.876,211.512h28.314c2.643,0,4.869,2.157,4.869,4.87v8.349h-19.966v8h19.966v13.218h-19.966v8h19.966
				v13.218h-33.184V211.512z"/>
		</g>
		<g>
			<path fill="#ED6258" d="M190.491,211.512h19.27c10.227,0,18.505,7.374,18.505,16.488v0.209c0,4.313-1.81,8.209-4.8,11.13
				c2.99,2.922,4.8,6.817,4.8,11.062v0.278c0,9.113-8.278,16.487-18.505,16.487h-19.27V211.512z M209.761,233.914
				c3.408-0.07,6.122-2.505,6.331-5.496v-0.557c-0.209-3.061-2.992-5.495-6.54-5.495h-6.887v11.548H209.761z M209.552,256.315
				c3.548,0,6.331-2.437,6.54-5.497v-0.557c-0.209-2.991-2.923-5.425-6.331-5.495h-7.096v11.549H209.552z"/>
		</g>
	</g>
</g>
<g id="text_coeur">
	<g id="ombre_1_">
		<path fill="#DB3630" d="M14.623,178.155c0-15.932,12.105-29.011,28.036-29.011c7.792,0,14.539,2.923,19.409,8.209l-6.331,6.331
			c-1.46,1.462-3.826,1.948-5.774,0.487c-2.435-0.974-4.869-1.948-7.791-1.948c-7.723,0-13.983,6.261-13.983,14.053
			c0,8,5.774,15.514,14.47,15.514c2.435,0,5.356-1.043,7.304-2.017c1.949-1.462,4.314-0.975,5.774,0.486l6.331,6.331
			c-4.87,5.355-12.105,8.208-20.314,8.208C27.145,204.798,14.623,192.694,14.623,178.155z"/>
		<path fill="#DB3630" d="M124.673,176.971c0,15.375-12.452,27.827-27.826,27.827c-15.375,0-27.827-12.452-27.827-27.827
			c0-15.374,12.452-27.827,27.827-27.827C112.221,149.144,124.673,161.597,124.673,176.971z M111.386,176.971
			c0-8-6.54-14.539-14.539-14.539c-8.07,0-14.54,6.539-14.54,14.539c0,8.07,6.47,14.539,14.54,14.539
			C104.846,191.51,111.386,185.042,111.386,176.971z"/>
		<path fill="#DB3630" d="M133.363,149.144h28.314c2.644,0,4.87,2.157,4.87,4.87v8.349h-19.966v8h19.966v13.218h-19.966v8h19.966
			v13.218h-33.185V149.144z"/>
		<path fill="#DB3630" d="M176.979,180.798v-31.654h8.348c2.645,0,4.801,2.157,4.801,4.87v26.923c0,5.565,4.313,10.296,9.879,10.505
			c5.844,0.208,10.643-4.453,10.643-10.297v-32.001h8.349c2.714,0,4.87,2.157,4.87,4.87v27.131
			c0,13.079-10.713,23.445-23.861,23.445C187.135,204.59,176.979,193.667,176.979,180.798z"/>
		<path fill="#DB3630" d="M263.723,187.546c6.887-3.201,11.618-10.088,11.618-18.158c0.069-11.13-9.392-20.174-20.522-20.174
			h-20.521v11.736v1.481v18.923v1.575v21.868h13.217v-15.096l15.097,15.096h18.366L263.723,187.546z M255.027,176.485h-7.514
			v-14.053h7.374c3.757,0,7.026,2.921,7.166,6.748C262.262,173.214,259.063,176.485,255.027,176.485z"/>
	</g>
	<g>
		<g>
			<path fill="#ED6258" d="M11.789,175.32c0-15.932,12.105-29.011,28.036-29.011c7.792,0,14.539,2.923,19.409,8.209l-6.331,6.331
				c-1.46,1.462-3.826,1.948-5.774,0.487c-2.435-0.974-4.869-1.948-7.791-1.948c-7.723,0-13.983,6.261-13.983,14.053
				c0,8,5.774,15.514,14.47,15.514c2.435,0,5.356-1.043,7.304-2.017c1.949-1.462,4.314-0.975,5.774,0.486l6.331,6.331
				c-4.87,5.355-12.105,8.208-20.314,8.208C24.311,201.963,11.789,189.859,11.789,175.32z"/>
		</g>
		<g>
			<path fill="#ED6258" d="M121.838,174.136c0,15.375-12.452,27.827-27.826,27.827c-15.375,0-27.827-12.452-27.827-27.827
				c0-15.374,12.452-27.827,27.827-27.827C109.386,146.309,121.838,158.762,121.838,174.136z M108.551,174.136
				c0-8-6.54-14.539-14.539-14.539c-8.07,0-14.54,6.539-14.54,14.539c0,8.07,6.47,14.539,14.54,14.539
				C102.012,188.675,108.551,182.207,108.551,174.136z"/>
		</g>
		<g>
			<path fill="#ED6258" d="M130.529,146.309h28.314c2.644,0,4.87,2.157,4.87,4.87v8.349h-19.966v8h19.966v13.218h-19.966v8h19.966
				v13.218h-33.184V146.309z"/>
		</g>
		<g>
			<path fill="#ED6258" d="M174.144,177.963v-31.654h8.348c2.645,0,4.801,2.157,4.801,4.87v26.923
				c0,5.565,4.313,10.296,9.879,10.505c5.844,0.208,10.643-4.453,10.643-10.297v-32.001h8.349c2.714,0,4.87,2.157,4.87,4.87v27.131
				c0,13.079-10.713,23.445-23.861,23.445C184.3,201.755,174.144,190.833,174.144,177.963z"/>
		</g>
		<g>
			<path fill="#ED6258" d="M260.888,184.711c6.887-3.201,11.618-10.088,11.618-18.158c0.069-11.13-9.392-20.174-20.522-20.174
				h-20.521v11.736v1.481v18.923v1.575v21.868h13.217v-15.096l15.097,15.096h18.366L260.888,184.711z M252.192,173.65h-7.514
				v-14.053h7.374c3.757,0,7.026,2.921,7.166,6.748C259.427,170.379,256.228,173.65,252.192,173.65z"/>
		</g>
	</g>
</g>
<g id="coeur">
	<g>
		<g>
			
				<rect x="93.718" y="11.733" transform="matrix(0.91 0.4145 -0.4145 0.91 19.419 -36.9658)" fill="#ED6258" width="2.325" height="29.053"/>
			<g>
				<circle fill="#ED6258" cx="100.851" cy="13.136" r="2.185"/>
			</g>
		</g>
		<g>
			
				<rect x="93.566" y="30.49" transform="matrix(0.9062 0.4229 -0.4229 0.9062 27.2294 -35.9954)" fill="#ED6258" width="2.325" height="25.744"/>
			<g>
				<circle fill="#ED6258" cx="100.122" cy="31.796" r="2.185"/>
			</g>
		</g>
		<g>
			
				<rect x="103.764" y="1.95" transform="matrix(0.9064 0.4225 -0.4225 0.9064 25.8599 -40.7796)" fill="#ED6258" width="2.325" height="71.998"/>
			<g>
				<circle fill="#ED6258" cx="120.094" cy="5.421" r="2.185"/>
			</g>
		</g>
		<g>
			
				<rect x="100.466" y="34.4" transform="matrix(0.9064 0.4225 -0.4225 0.9064 35.493 -37.1826)" fill="#ED6258" width="2.325" height="54.158"/>
			<g>
				<circle fill="#ED6258" cx="113.026" cy="37.037" r="2.186"/>
			</g>
		</g>
		<path fill="#ED6258" d="M92.725,97.029"/>
		<g>
			<polygon fill="#ED6258" points="90.813,120.336 88.707,119.353 110.558,72.495 106.743,64.215 106.971,63.726 134.838,3.969 
				136.944,4.952 109.306,64.221 113.12,72.499 			"/>
			<g>
				<circle fill="#ED6258" cx="135.845" cy="4.558" r="2.185"/>
			</g>
		</g>
		<g>
			<path fill="#ED6258" d="M97.108,136.886l-0.599-1.343l-2.502-5.594l25.11-53.9l-2.561-6.231l-0.744-1.808l-2.154,0.88
				l0.744,1.807v0.01l2.174,5.285l-24.849,53.34l-0.28,0.599l0.28,0.628l2.782,6.212c0.474,0,0.947,0.02,1.411,0.038L97.108,136.886
				z"/>
			<g>
				<circle fill="#ED6258" cx="114.78" cy="68.549" r="2.185"/>
			</g>
		</g>
		<g>
			<path fill="#ED6258" d="M97.108,136.886c0.271,0.02,0.541,0.049,0.812,0.077l0.067,0.164l0.3-0.126h0.009
				c0.029,0,0.058,0.01,0.087,0.01l0.029-0.058l1.439-3.082v-0.01l1.797-3.845l1.362-2.928l1.479-3.169l1.391-2.976v-0.01
				l27.129-58.17l0.937-2.02l0.01-0.009l0.203-0.444l1.149-2.475l14.454-30.964l0.82-1.768l-2.105-0.985l-0.821,1.769l-2.772,5.94
				v0.01l-1.189,2.531l-0.202,0.435l-4.579,9.826L131.84,59.76l-4.705,10.105l-1.381,2.957l-29.245,62.721l-0.589,1.265
				L97.108,136.886z"/>
			<g>
				<circle fill="#ED6258" cx="149.486" cy="24.693" r="2.185"/>
			</g>
		</g>
		<g>
			<polygon fill="#ED6258" points="120.431,122.526 118.121,122.261 120.633,100.427 138.542,62.125 147.636,58.693 165.636,20.045 
				167.743,21.027 149.343,60.532 140.248,63.967 122.899,101.068 			"/>
			<g>
				<circle fill="#ED6258" cx="166.643" cy="20.636" r="2.185"/>
			</g>
		</g>
		<g>
			<path fill="#ED6258" d="M131.251,115.892l-0.831,1.778l-5.72,12.27l-1.42,3.053l-5.671,12.164
				c-0.667-0.552-1.352-1.063-2.058-1.575l0.271-0.097l12.501-26.8l0.821-1.769L131.251,115.892z"/>
			<g>
				<circle fill="#ED6258" cx="130.155" cy="115.504" r="2.185"/>
			</g>
		</g>
		<g>
			<polygon fill="#ED6258" points="161.864,82.097 161.05,79.919 170.065,76.542 175.71,64.613 177.812,65.608 171.765,78.387 			
				"/>
			<g>
				<circle fill="#ED6258" cx="176.761" cy="65.11" r="2.184"/>
			</g>
		</g>
		<g>
			
				<rect x="97.223" y="21.409" transform="matrix(0.3473 0.9378 -0.9378 0.3473 88.0436 -75.6776)" fill="#ED6258" width="2.325" height="8"/>
			<g>
				<circle fill="#ED6258" cx="102.035" cy="24.057" r="2.185"/>
			</g>
		</g>
		<g>
			<polygon fill="#ED6258" points="120.574,39.852 119.683,37.705 128.237,34.153 136.074,17.731 138.171,18.733 129.952,35.959 			
				"/>
			<g>
				<circle fill="#ED6258" cx="137.075" cy="18.331" r="2.185"/>
			</g>
		</g>
		<g>
			<polygon fill="#ED6258" points="122.073,32.494 118.953,23.384 123.555,11.97 125.712,12.839 121.433,23.451 124.273,31.741 			
				"/>
			<g>
				<circle fill="#ED6258" cx="124.593" cy="12.507" r="2.185"/>
			</g>
		</g>
		
			<rect x="98.691" y="35.571" transform="matrix(0.3626 0.9319 -0.9319 0.3626 101.4777 -67.1801)" fill="#ED6258" width="2.325" height="10.058"/>
		<g>
			
				<rect x="98.666" y="67.915" transform="matrix(0.3526 0.9358 -0.9358 0.3526 131.8662 -46.9)" fill="#ED6258" width="2.325" height="7.874"/>
			<g>
				<circle fill="#ED6258" cx="103.41" cy="70.502" r="2.185"/>
			</g>
		</g>
		<g>
			
				<rect x="91.861" y="82.973" transform="matrix(0.9116 0.4111 -0.4111 0.9116 47.6857 -29.7542)" fill="#ED6258" width="2.326" height="26.048"/>
			<g>
				<circle fill="#ED6258" cx="98.334" cy="84.223" r="2.185"/>
			</g>
		</g>
		<g>
			
				<rect x="100.75" y="80.615" transform="matrix(0.3666 0.9304 -0.9304 0.3666 142.2742 -45.432)" fill="#ED6258" width="7.51" height="2.325"/>
			<g>
				<circle fill="#ED6258" cx="103.168" cy="78.386" r="2.185"/>
			</g>
		</g>
		<g>
			<polygon fill="#ED6258" points="109.301,26.653 105.671,17.145 109.908,8.059 112.015,9.042 108.194,17.235 111.473,25.824 			
				"/>
			<g>
				<circle fill="#ED6258" cx="110.915" cy="8.649" r="2.186"/>
			</g>
		</g>
		<g>
			<polygon fill="#ED6258" points="125.808,72.971 118.939,54.545 121.452,48.828 123.58,49.764 121.447,54.617 127.986,72.159 			
				"/>
			<g>
				<circle fill="#ED6258" cx="122.472" cy="49.396" r="2.185"/>
			</g>
		</g>
		<g>
			<polygon fill="#ED6258" points="133.032,62.827 129.29,53.169 131.457,52.331 133.181,56.777 137.382,47.338 135.071,40.547 
				137.271,39.798 139.876,47.452 			"/>
			<g>
				<circle fill="#ED6258" cx="130.413" cy="52.853" r="2.185"/>
			</g>
			<g>
				<circle fill="#ED6258" cx="136.206" cy="40.276" r="2.185"/>
			</g>
		</g>
		<g>
			<polygon fill="#ED6258" points="143.653,35.24 140.124,25.548 148.224,8.064 150.333,9.041 142.637,25.654 145.837,34.445 			"/>
			<g>
				<circle fill="#ED6258" cx="149.231" cy="8.652" r="2.185"/>
			</g>
		</g>
		<path fill="#ED6258" d="M133.106,59.802"/>
		<g>
			<polygon fill="#ED6258" points="133.481,60.903 132.731,58.702 141.386,55.754 158.824,18.356 156.091,12.51 158.197,11.526 
				161.39,18.354 143.074,57.634 			"/>
			<g>
				<circle fill="#ED6258" cx="157.191" cy="12.117" r="2.185"/>
			</g>
		</g>
		<g>
			<path fill="#ED6258" d="M160.988,52.128l-0.821,1.768l-7.42,15.912l-9.246,3.362l-7.429,15.931l-1.391,2.985l-7.294,15.642
				l-1.353,2.908l-14.27,30.597c-0.686-0.366-1.372-0.714-2.077-1.032l8.454-18.145l0.01-0.01l3.101-6.657v-0.019l20.55-44.056
				l9.245-3.371l7.015-15.033l0.82-1.769L160.988,52.128z"/>
			<g>
				<circle fill="#ED6258" cx="159.892" cy="51.733" r="2.185"/>
			</g>
		</g>
		<g>
			<polygon fill="#ED6258" points="168.159,48.927 174.819,33.56 176.954,34.485 172.524,44.7 177.639,42.678 178.493,44.838 			"/>
			<g>
				<circle fill="#ED6258" cx="175.844" cy="34.122" r="2.185"/>
			</g>
			<g>
				<circle fill="#ED6258" cx="177.964" cy="43.798" r="2.185"/>
			</g>
		</g>
		<g>
			<polygon fill="#ED6258" points="134.524,92.14 133.728,89.958 142.229,86.858 144.088,82.873 146.195,83.855 143.931,88.712 			
				"/>
			<g>
				<circle fill="#ED6258" cx="145.095" cy="83.463" r="2.185"/>
			</g>
		</g>
		<g>
			
				<rect x="127.631" y="104.724" transform="matrix(0.3226 0.9465 -0.9465 0.3226 189.921 -48.4252)" fill="#ED6258" width="2.323" height="7.501"/>
			<g>
				<circle fill="#ED6258" cx="132.24" cy="107.3" r="2.186"/>
			</g>
		</g>
		<g>
			
				<rect x="135.42" y="104.743" transform="matrix(0.348 0.9375 -0.9375 0.348 190.1226 -61.5756)" fill="#ED6258" width="7.824" height="2.324"/>
			<g>
				<circle fill="#ED6258" cx="138.009" cy="102.341" r="2.185"/>
			</g>
		</g>
		<g>
			<polygon fill="#ED6258" points="123.221,133.009 122.382,130.841 130.94,127.529 169.075,46.773 165.321,37.304 170.932,26.043 
				173.013,27.081 167.866,37.413 171.608,46.854 132.647,129.362 			"/>
			<g>
				<circle fill="#ED6258" cx="171.923" cy="26.66" r="2.185"/>
			</g>
		</g>
		<g>
			<polygon fill="#ED6258" points="145.206,102.606 143.81,100.748 155.228,92.165 172.44,54.974 178.622,52.575 179.464,54.743 
				174.156,56.802 157.091,93.672 			"/>
			<g>
				<circle fill="#ED6258" cx="178.941" cy="53.698" r="2.185"/>
			</g>
		</g>
		<path fill="#ED6258" d="M185.54,78.819"/>
		<path fill="#ED6258" d="M176.082,82.363"/>
		<g>
			
				<rect x="140.188" y="110.674" transform="matrix(0.3462 0.9381 -0.9381 0.3462 199.8552 -57.733)" fill="#ED6258" width="2.325" height="7.712"/>
			<g>
				<circle fill="#ED6258" cx="144.866" cy="113.23" r="2.185"/>
			</g>
		</g>
		<g>
			
				<rect x="162.909" y="79.65" transform="matrix(0.3147 0.9492 -0.9492 0.3147 193.5736 -97.1543)" fill="#ED6258" width="2.324" height="11.664"/>
			<g>
				<circle fill="#ED6258" cx="169.502" cy="83.678" r="2.185"/>
			</g>
		</g>
		<g>
			
				<rect x="156.762" y="41.836" transform="matrix(0.3558 0.9346 -0.9346 0.3558 144.4012 -118.1841)" fill="#ED6258" width="2.325" height="7.623"/>
			<g>
				<circle fill="#ED6258" cx="161.384" cy="44.332" r="2.185"/>
			</g>
		</g>
		<g>
			<polygon fill="#ED6258" points="105.514,134.084 103.697,134.819 98.413,136.954 98.296,137.001 98.287,137.001 97.987,137.127 
				97.92,136.963 97.118,134.973 99.852,133.872 99.852,133.862 102.828,132.664 104.644,131.93 			"/>
			<g>
				<circle fill="#ED6258" cx="104.979" cy="133.051" r="2.185"/>
			</g>
		</g>
		<g>
			
				<rect x="103.229" y="124.046" transform="matrix(0.326 0.9454 -0.9454 0.326 191.2138 -12.5248)" fill="#ED6258" width="2.324" height="7.597"/>
			<g>
				<circle fill="#ED6258" cx="107.878" cy="126.643" r="2.185"/>
			</g>
		</g>
		<g>
			
				<rect x="106.125" y="117.783" transform="matrix(0.3425 0.9395 -0.9395 0.3425 184.8539 -20.8006)" fill="#ED6258" width="2.324" height="7.761"/>
			<g>
				<circle fill="#ED6258" cx="110.831" cy="120.374" r="2.185"/>
			</g>
		</g>
		<g>
			
				<rect x="137.233" y="116.955" transform="matrix(0.3444 0.9388 -0.9388 0.3444 204.1566 -50.7202)" fill="#ED6258" width="2.325" height="7.736"/>
			<g>
				<circle fill="#ED6258" cx="141.924" cy="119.529" r="2.185"/>
			</g>
		</g>
		<g>
			<polygon fill="#ED6258" points="141.412,110.273 139.977,108.444 152.628,98.52 157.112,100.519 156.167,102.642 152.96,101.213 
							"/>
			<g>
				<circle fill="#ED6258" cx="156.541" cy="101.536" r="2.186"/>
			</g>
		</g>
	</g>
	<path fill="#ED6258" d="M91.727,21.792v115.037c-8.966,0.54-17.071,4.24-23.236,9.999c-48.412-38.915-74.15-81.29-63.696-111.21
		c1.903-5.459,5.265-11.256,11.101-16.966c31.931-31.516,64.209-9.613,73.31-2.202C90.809,17.763,91.727,19.724,91.727,21.792z"/>
</g>
</svg>
